<?xml version="1.0" encoding="utf-8" standalone="no"?>
<!DOCTYPE svg PUBLIC "-//W3C//DTD SVG 1.1//EN"
  "http://www.w3.org/Graphics/SVG/1.1/DTD/svg11.dtd">
<!-- Created with matplotlib (https://matplotlib.org/) -->
<svg height="288pt" version="1.1" viewBox="0 0 432 288" width="432pt" xmlns="http://www.w3.org/2000/svg" xmlns:xlink="http://www.w3.org/1999/xlink">
 <metadata>
  <rdf:RDF xmlns:cc="http://creativecommons.org/ns#" xmlns:dc="http://purl.org/dc/elements/1.1/" xmlns:rdf="http://www.w3.org/1999/02/22-rdf-syntax-ns#">
   <cc:Work>
    <dc:type rdf:resource="http://purl.org/dc/dcmitype/StillImage"/>
    <dc:date>2020-11-22T09:14:28.137608</dc:date>
    <dc:format>image/svg+xml</dc:format>
    <dc:creator>
     <cc:Agent>
      <dc:title>Matplotlib v3.3.2, https://matplotlib.org/</dc:title>
     </cc:Agent>
    </dc:creator>
   </cc:Work>
  </rdf:RDF>
 </metadata>
 <defs>
  <style type="text/css">*{stroke-linecap:butt;stroke-linejoin:round;}</style>
 </defs>
 <g id="figure_1">
  <g id="patch_1">
   <path d="M 0 288 
L 432 288 
L 432 0 
L 0 0 
z
" style="fill:#ffffff;"/>
  </g>
  <g id="axes_1">
   <g id="patch_2">
    <path d="M 40.723522 233.110711 
L 414.72 233.110711 
L 414.72 17.28 
L 40.723522 17.28 
z
" style="fill:#ffffff;"/>
   </g>
   <g id="matplotlib.axis_1">
    <g id="xtick_1">
     <g id="line2d_1">
      <defs>
       <path d="M 0 0 
L 0 -3.5 
" id="ma01dfb0dff" style="stroke:#000000;stroke-width:0.8;"/>
      </defs>
      <g>
       <use style="stroke:#000000;stroke-width:0.8;" x="57.723362" xlink:href="#ma01dfb0dff" y="233.110711"/>
      </g>
     </g>
     <g id="line2d_2">
      <defs>
       <path d="M 0 0 
L 0 3.5 
" id="m32551eacc0" style="stroke:#000000;stroke-width:0.8;"/>
      </defs>
      <g>
       <use style="stroke:#000000;stroke-width:0.8;" x="57.723362" xlink:href="#m32551eacc0" y="17.28"/>
      </g>
     </g>
     <g id="text_1">
      <!-- $\mathdefault{0.0}$ -->
      <g transform="translate(47.751601 247.6803)scale(0.16 -0.16)">
       <defs>
        <path d="M 42 31.84375 
C 42 37.96875 41.90625 48.421875 37.703125 56.453125 
C 34 63.484375 28.09375 66 22.90625 66 
C 18.09375 66 12 63.78125 8.203125 56.5625 
C 4.203125 49.015625 3.796875 39.671875 3.796875 31.84375 
C 3.796875 26.109375 3.90625 17.375 7 9.734375 
C 11.296875 -0.609375 19 -2 22.90625 -2 
C 27.5 -2 34.5 -0.109375 38.59375 9.4375 
C 41.59375 16.375 42 24.5 42 31.84375 
z
M 22.90625 -0.40625 
C 16.5 -0.40625 12.703125 5.125 11.296875 12.75 
C 10.203125 18.6875 10.203125 27.328125 10.203125 32.953125 
C 10.203125 40.6875 10.203125 47.109375 11.5 53.234375 
C 13.40625 61.78125 19 64.390625 22.90625 64.390625 
C 27 64.390625 32.296875 61.671875 34.203125 53.4375 
C 35.5 47.71875 35.59375 40.984375 35.59375 32.953125 
C 35.59375 26.421875 35.59375 18.375 34.40625 12.453125 
C 32.296875 1.5 26.40625 -0.40625 22.90625 -0.40625 
z
" id="CMR17-48"/>
        <path d="M 18.40625 4.796875 
C 18.40625 7.6875 16 9.6875 13.59375 9.6875 
C 10.703125 9.6875 8.703125 7.296875 8.703125 4.890625 
C 8.703125 2 11.09375 0 13.5 0 
C 16.40625 0 18.40625 2.390625 18.40625 4.796875 
z
" id="CMMI12-58"/>
       </defs>
       <use transform="scale(0.996264)" xlink:href="#CMR17-48"/>
       <use transform="translate(45.690477 0)scale(0.996264)" xlink:href="#CMMI12-58"/>
       <use transform="translate(72.787654 0)scale(0.996264)" xlink:href="#CMR17-48"/>
      </g>
     </g>
    </g>
    <g id="xtick_2">
     <g id="line2d_3">
      <g>
       <use style="stroke:#000000;stroke-width:0.8;" x="125.722722" xlink:href="#ma01dfb0dff" y="233.110711"/>
      </g>
     </g>
     <g id="line2d_4">
      <g>
       <use style="stroke:#000000;stroke-width:0.8;" x="125.722722" xlink:href="#m32551eacc0" y="17.28"/>
      </g>
     </g>
     <g id="text_2">
      <!-- $\mathdefault{0.2}$ -->
      <g transform="translate(115.750961 247.6803)scale(0.16 -0.16)">
       <defs>
        <path d="M 41.703125 15.46875 
L 39.90625 15.46875 
C 38.90625 8.390625 38.09375 7.1875 37.703125 6.59375 
C 37.203125 5.796875 30 5.796875 28.59375 5.796875 
L 9.40625 5.796875 
C 13 9.6875 20 16.765625 28.5 24.9375 
C 34.59375 30.71875 41.703125 37.5 41.703125 47.390625 
C 41.703125 59.1875 32.296875 66 21.796875 66 
C 10.796875 66 4.09375 56.296875 4.09375 47.296875 
C 4.09375 43.390625 7 42.890625 8.203125 42.890625 
C 9.203125 42.890625 12.203125 43.484375 12.203125 46.984375 
C 12.203125 50.09375 9.59375 51 8.203125 51 
C 7.59375 51 7 50.890625 6.59375 50.6875 
C 8.5 59.1875 14.296875 63.390625 20.40625 63.390625 
C 29.09375 63.390625 34.796875 56.5 34.796875 47.390625 
C 34.796875 38.703125 29.703125 31.21875 24 24.734375 
L 4.09375 2.296875 
L 4.09375 0 
L 39.296875 0 
z
" id="CMR17-50"/>
       </defs>
       <use transform="scale(0.996264)" xlink:href="#CMR17-48"/>
       <use transform="translate(45.690477 0)scale(0.996264)" xlink:href="#CMMI12-58"/>
       <use transform="translate(72.787654 0)scale(0.996264)" xlink:href="#CMR17-50"/>
      </g>
     </g>
    </g>
    <g id="xtick_3">
     <g id="line2d_5">
      <g>
       <use style="stroke:#000000;stroke-width:0.8;" x="193.722081" xlink:href="#ma01dfb0dff" y="233.110711"/>
      </g>
     </g>
     <g id="line2d_6">
      <g>
       <use style="stroke:#000000;stroke-width:0.8;" x="193.722081" xlink:href="#m32551eacc0" y="17.28"/>
      </g>
     </g>
     <g id="text_3">
      <!-- $\mathdefault{0.4}$ -->
      <g transform="translate(183.75032 247.6803)scale(0.16 -0.16)">
       <defs>
        <path d="M 33.59375 64.796875 
C 33.59375 66.890625 33.5 67 31.703125 67 
L 2 19.59375 
L 2 17 
L 27.796875 17 
L 27.796875 7.1875 
C 27.796875 3.59375 27.59375 2.59375 20.59375 2.59375 
L 18.703125 2.59375 
L 18.703125 0 
C 21.90625 0.1875 27.296875 0.1875 30.703125 0.1875 
C 34.09375 0.1875 39.5 0.1875 42.703125 0 
L 42.703125 2.59375 
L 40.796875 2.59375 
C 33.796875 2.59375 33.59375 3.59375 33.59375 7.1875 
L 33.59375 17 
L 43.796875 17 
L 43.796875 19.59375 
L 33.59375 19.59375 
z
M 28.09375 58.171875 
L 28.09375 19.59375 
L 4 19.59375 
z
" id="CMR17-52"/>
       </defs>
       <use transform="scale(0.996264)" xlink:href="#CMR17-48"/>
       <use transform="translate(45.690477 0)scale(0.996264)" xlink:href="#CMMI12-58"/>
       <use transform="translate(72.787654 0)scale(0.996264)" xlink:href="#CMR17-52"/>
      </g>
     </g>
    </g>
    <g id="xtick_4">
     <g id="line2d_7">
      <g>
       <use style="stroke:#000000;stroke-width:0.8;" x="261.721441" xlink:href="#ma01dfb0dff" y="233.110711"/>
      </g>
     </g>
     <g id="line2d_8">
      <g>
       <use style="stroke:#000000;stroke-width:0.8;" x="261.721441" xlink:href="#m32551eacc0" y="17.28"/>
      </g>
     </g>
     <g id="text_4">
      <!-- $\mathdefault{0.6}$ -->
      <g transform="translate(251.74968 247.6803)scale(0.16 -0.16)">
       <defs>
        <path d="M 10.59375 34.34375 
C 10.59375 58 21.796875 63.6875 28.296875 63.6875 
C 30.40625 63.6875 35.5 63.265625 37.5 59.09375 
C 35.90625 59.09375 32.90625 59.09375 32.90625 55.59375 
C 32.90625 52.890625 35.09375 52 36.5 52 
C 37.40625 52 40.09375 52.390625 40.09375 55.796875 
C 40.09375 62.296875 35.09375 66 28.203125 66 
C 16.296875 66 3.796875 53.296875 3.796875 31.421875 
C 3.796875 4.015625 15.09375 -2 23.09375 -2 
C 32.796875 -2 42 6.734375 42 20.234375 
C 42 32.828125 33.90625 42 23.703125 42 
C 17.59375 42 13.09375 37.96875 10.59375 30.921875 
z
M 23.09375 0.390625 
C 10.796875 0.390625 10.796875 18.9375 10.796875 22.65625 
C 10.796875 29.90625 14.203125 40.390625 23.5 40.390625 
C 25.203125 40.390625 30.09375 40.390625 33.40625 33.4375 
C 35.203125 29.515625 35.203125 25.375 35.203125 20.34375 
C 35.203125 14.90625 35.203125 10.875 33.09375 6.84375 
C 30.90625 2.703125 27.703125 0.390625 23.09375 0.390625 
z
" id="CMR17-54"/>
       </defs>
       <use transform="scale(0.996264)" xlink:href="#CMR17-48"/>
       <use transform="translate(45.690477 0)scale(0.996264)" xlink:href="#CMMI12-58"/>
       <use transform="translate(72.787654 0)scale(0.996264)" xlink:href="#CMR17-54"/>
      </g>
     </g>
    </g>
    <g id="xtick_5">
     <g id="line2d_9">
      <g>
       <use style="stroke:#000000;stroke-width:0.8;" x="329.720801" xlink:href="#ma01dfb0dff" y="233.110711"/>
      </g>
     </g>
     <g id="line2d_10">
      <g>
       <use style="stroke:#000000;stroke-width:0.8;" x="329.720801" xlink:href="#m32551eacc0" y="17.28"/>
      </g>
     </g>
     <g id="text_5">
      <!-- $\mathdefault{0.8}$ -->
      <g transform="translate(319.749039 247.6803)scale(0.16 -0.16)">
       <defs>
        <path d="M 27.203125 35.765625 
C 33.5 38.96875 39.90625 43.796875 39.90625 51.53125 
C 39.90625 60.6875 31.09375 66 23 66 
C 13.90625 66 5.90625 59.375 5.90625 50.234375 
C 5.90625 47.71875 6.5 43.390625 10.40625 39.578125 
C 11.40625 38.578125 15.59375 35.5625 18.296875 33.65625 
C 13.796875 31.34375 3.296875 25.8125 3.296875 14.765625 
C 3.296875 4.40625 13.09375 -2 22.796875 -2 
C 33.5 -2 42.5 5.71875 42.5 15.96875 
C 42.5 25.109375 36.40625 29.328125 32.40625 32.046875 
z
M 14.09375 44.609375 
C 13.296875 45.109375 9.296875 48.21875 9.296875 52.9375 
C 9.296875 59.078125 15.59375 63.6875 22.796875 63.6875 
C 30.703125 63.6875 36.5 58.0625 36.5 51.53125 
C 36.5 42.1875 26.09375 36.859375 25.59375 36.859375 
C 25.5 36.859375 25.40625 36.859375 24.59375 37.46875 
z
M 32.5 24 
C 34 22.90625 38.796875 19.578125 38.796875 13.453125 
C 38.796875 6.015625 31.40625 0.390625 23 0.390625 
C 13.90625 0.390625 7 6.921875 7 14.859375 
C 7 22.796875 13.09375 29.4375 20 32.546875 
z
" id="CMR17-56"/>
       </defs>
       <use transform="scale(0.996264)" xlink:href="#CMR17-48"/>
       <use transform="translate(45.690477 0)scale(0.996264)" xlink:href="#CMMI12-58"/>
       <use transform="translate(72.787654 0)scale(0.996264)" xlink:href="#CMR17-56"/>
      </g>
     </g>
    </g>
    <g id="xtick_6">
     <g id="line2d_11">
      <g>
       <use style="stroke:#000000;stroke-width:0.8;" x="397.72016" xlink:href="#ma01dfb0dff" y="233.110711"/>
      </g>
     </g>
     <g id="line2d_12">
      <g>
       <use style="stroke:#000000;stroke-width:0.8;" x="397.72016" xlink:href="#m32551eacc0" y="17.28"/>
      </g>
     </g>
     <g id="text_6">
      <!-- $\mathdefault{1.0}$ -->
      <g transform="translate(387.748399 247.6803)scale(0.16 -0.16)">
       <defs>
        <path d="M 26.59375 63.796875 
C 26.59375 65.890625 26.5 66 25.09375 66 
C 21.203125 61.359375 15.296875 59.890625 9.703125 59.6875 
C 9.40625 59.6875 8.90625 59.6875 8.796875 59.5 
C 8.703125 59.296875 8.703125 59.09375 8.703125 57 
C 11.796875 57 17 57.59375 21 59.984375 
L 21 7.296875 
C 21 3.796875 20.796875 2.59375 12.203125 2.59375 
L 9.203125 2.59375 
L 9.203125 0 
C 14 0.09375 19 0.1875 23.796875 0.1875 
C 28.59375 0.1875 33.59375 0.09375 38.40625 0 
L 38.40625 2.59375 
L 35.40625 2.59375 
C 26.796875 2.59375 26.59375 3.6875 26.59375 7.296875 
z
" id="CMR17-49"/>
       </defs>
       <use transform="scale(0.996264)" xlink:href="#CMR17-49"/>
       <use transform="translate(45.690477 0)scale(0.996264)" xlink:href="#CMMI12-58"/>
       <use transform="translate(72.787654 0)scale(0.996264)" xlink:href="#CMR17-48"/>
      </g>
     </g>
    </g>
    <g id="xtick_7">
     <g id="line2d_13">
      <defs>
       <path d="M 0 0 
L 0 -2 
" id="ma3d2b61f0c" style="stroke:#000000;stroke-width:0.6;"/>
      </defs>
      <g>
       <use style="stroke:#000000;stroke-width:0.6;" x="74.723202" xlink:href="#ma3d2b61f0c" y="233.110711"/>
      </g>
     </g>
     <g id="line2d_14">
      <defs>
       <path d="M 0 0 
L 0 2 
" id="m67e1c86d11" style="stroke:#000000;stroke-width:0.6;"/>
      </defs>
      <g>
       <use style="stroke:#000000;stroke-width:0.6;" x="74.723202" xlink:href="#m67e1c86d11" y="17.28"/>
      </g>
     </g>
    </g>
    <g id="xtick_8">
     <g id="line2d_15">
      <g>
       <use style="stroke:#000000;stroke-width:0.6;" x="91.723042" xlink:href="#ma3d2b61f0c" y="233.110711"/>
      </g>
     </g>
     <g id="line2d_16">
      <g>
       <use style="stroke:#000000;stroke-width:0.6;" x="91.723042" xlink:href="#m67e1c86d11" y="17.28"/>
      </g>
     </g>
    </g>
    <g id="xtick_9">
     <g id="line2d_17">
      <g>
       <use style="stroke:#000000;stroke-width:0.6;" x="108.722882" xlink:href="#ma3d2b61f0c" y="233.110711"/>
      </g>
     </g>
     <g id="line2d_18">
      <g>
       <use style="stroke:#000000;stroke-width:0.6;" x="108.722882" xlink:href="#m67e1c86d11" y="17.28"/>
      </g>
     </g>
    </g>
    <g id="xtick_10">
     <g id="line2d_19">
      <g>
       <use style="stroke:#000000;stroke-width:0.6;" x="142.722562" xlink:href="#ma3d2b61f0c" y="233.110711"/>
      </g>
     </g>
     <g id="line2d_20">
      <g>
       <use style="stroke:#000000;stroke-width:0.6;" x="142.722562" xlink:href="#m67e1c86d11" y="17.28"/>
      </g>
     </g>
    </g>
    <g id="xtick_11">
     <g id="line2d_21">
      <g>
       <use style="stroke:#000000;stroke-width:0.6;" x="159.722402" xlink:href="#ma3d2b61f0c" y="233.110711"/>
      </g>
     </g>
     <g id="line2d_22">
      <g>
       <use style="stroke:#000000;stroke-width:0.6;" x="159.722402" xlink:href="#m67e1c86d11" y="17.28"/>
      </g>
     </g>
    </g>
    <g id="xtick_12">
     <g id="line2d_23">
      <g>
       <use style="stroke:#000000;stroke-width:0.6;" x="176.722241" xlink:href="#ma3d2b61f0c" y="233.110711"/>
      </g>
     </g>
     <g id="line2d_24">
      <g>
       <use style="stroke:#000000;stroke-width:0.6;" x="176.722241" xlink:href="#m67e1c86d11" y="17.28"/>
      </g>
     </g>
    </g>
    <g id="xtick_13">
     <g id="line2d_25">
      <g>
       <use style="stroke:#000000;stroke-width:0.6;" x="210.721921" xlink:href="#ma3d2b61f0c" y="233.110711"/>
      </g>
     </g>
     <g id="line2d_26">
      <g>
       <use style="stroke:#000000;stroke-width:0.6;" x="210.721921" xlink:href="#m67e1c86d11" y="17.28"/>
      </g>
     </g>
    </g>
    <g id="xtick_14">
     <g id="line2d_27">
      <g>
       <use style="stroke:#000000;stroke-width:0.6;" x="227.721761" xlink:href="#ma3d2b61f0c" y="233.110711"/>
      </g>
     </g>
     <g id="line2d_28">
      <g>
       <use style="stroke:#000000;stroke-width:0.6;" x="227.721761" xlink:href="#m67e1c86d11" y="17.28"/>
      </g>
     </g>
    </g>
    <g id="xtick_15">
     <g id="line2d_29">
      <g>
       <use style="stroke:#000000;stroke-width:0.6;" x="244.721601" xlink:href="#ma3d2b61f0c" y="233.110711"/>
      </g>
     </g>
     <g id="line2d_30">
      <g>
       <use style="stroke:#000000;stroke-width:0.6;" x="244.721601" xlink:href="#m67e1c86d11" y="17.28"/>
      </g>
     </g>
    </g>
    <g id="xtick_16">
     <g id="line2d_31">
      <g>
       <use style="stroke:#000000;stroke-width:0.6;" x="278.721281" xlink:href="#ma3d2b61f0c" y="233.110711"/>
      </g>
     </g>
     <g id="line2d_32">
      <g>
       <use style="stroke:#000000;stroke-width:0.6;" x="278.721281" xlink:href="#m67e1c86d11" y="17.28"/>
      </g>
     </g>
    </g>
    <g id="xtick_17">
     <g id="line2d_33">
      <g>
       <use style="stroke:#000000;stroke-width:0.6;" x="295.721121" xlink:href="#ma3d2b61f0c" y="233.110711"/>
      </g>
     </g>
     <g id="line2d_34">
      <g>
       <use style="stroke:#000000;stroke-width:0.6;" x="295.721121" xlink:href="#m67e1c86d11" y="17.28"/>
      </g>
     </g>
    </g>
    <g id="xtick_18">
     <g id="line2d_35">
      <g>
       <use style="stroke:#000000;stroke-width:0.6;" x="312.720961" xlink:href="#ma3d2b61f0c" y="233.110711"/>
      </g>
     </g>
     <g id="line2d_36">
      <g>
       <use style="stroke:#000000;stroke-width:0.6;" x="312.720961" xlink:href="#m67e1c86d11" y="17.28"/>
      </g>
     </g>
    </g>
    <g id="xtick_19">
     <g id="line2d_37">
      <g>
       <use style="stroke:#000000;stroke-width:0.6;" x="346.72064" xlink:href="#ma3d2b61f0c" y="233.110711"/>
      </g>
     </g>
     <g id="line2d_38">
      <g>
       <use style="stroke:#000000;stroke-width:0.6;" x="346.72064" xlink:href="#m67e1c86d11" y="17.28"/>
      </g>
     </g>
    </g>
    <g id="xtick_20">
     <g id="line2d_39">
      <g>
       <use style="stroke:#000000;stroke-width:0.6;" x="363.72048" xlink:href="#ma3d2b61f0c" y="233.110711"/>
      </g>
     </g>
     <g id="line2d_40">
      <g>
       <use style="stroke:#000000;stroke-width:0.6;" x="363.72048" xlink:href="#m67e1c86d11" y="17.28"/>
      </g>
     </g>
    </g>
    <g id="xtick_21">
     <g id="line2d_41">
      <g>
       <use style="stroke:#000000;stroke-width:0.6;" x="380.72032" xlink:href="#ma3d2b61f0c" y="233.110711"/>
      </g>
     </g>
     <g id="line2d_42">
      <g>
       <use style="stroke:#000000;stroke-width:0.6;" x="380.72032" xlink:href="#m67e1c86d11" y="17.28"/>
      </g>
     </g>
    </g>
    <g id="text_7">
     <!-- $z/z_{\rm s}$ -->
     <g transform="translate(214.01347 266.734944)scale(0.16 -0.16)">
      <defs>
       <path d="M 12.703125 7.59375 
C 17 12.640625 20.5 15.859375 25.5 20.515625 
C 31.5 25.890625 34.09375 28.46875 35.5 30.03125 
C 42.5 37.046875 46 42.390625 46 43.1875 
C 46 44 45.203125 44 45 44 
C 44.296875 44 44.09375 43.59375 43.59375 42.890625 
C 41.09375 38.59375 38.703125 37 36.09375 37 
C 34 37 32.90625 37.546875 31 39.796875 
C 28.90625 42.296875 27.203125 44 24.296875 44 
C 17 44 12.59375 35.390625 12.59375 33.234375 
C 12.59375 32.921875 12.703125 32.296875 13.59375 32.296875 
C 14.40625 32.296875 14.5 32.71875 14.796875 33.4375 
C 16.5 37.296875 21.296875 37.734375 23.203125 37.734375 
C 25.296875 37.734375 27.296875 37.296875 29.40625 36.59375 
C 33.203125 34.984375 34.796875 34.984375 35.796875 34.984375 
C 36.5 34.984375 36.90625 34.984375 37.40625 35.09375 
C 34.09375 31.0625 28.703125 26.09375 24.203125 21.859375 
L 14.09375 12.234375 
C 8 5.9375 4.296875 0.5 4.296875 -0.203125 
C 4.296875 -0.8125 4.796875 -1 5.40625 -1 
C 6 -1 6.09375 -0.90625 6.796875 0.296875 
C 8.40625 2.796875 11.59375 6 15.296875 6 
C 17.40625 6 18.40625 5.5625 20.40625 3.296875 
C 22.296875 1.09375 24 -1 27.203125 -1 
C 37 -1 42.59375 11.296875 42.59375 13.6875 
C 42.59375 14.09375 42.5 14.71875 41.5 14.71875 
C 40.703125 14.71875 40.59375 14.296875 40.296875 13.265625 
C 38.09375 7.1875 32.203125 5.25 28.296875 5.25 
C 26.203125 5.25 24.203125 5.6875 22.09375 6.390625 
C 18.09375 8 17 8 15.703125 8 
C 14.703125 8 13.59375 8 12.703125 7.59375 
z
" id="CMMI12-122"/>
       <path d="M 42.90625 71.296875 
C 42.90625 71.390625 43.5 72.890625 43.5 73.09375 
C 43.5 74.296875 42.5 75 41.703125 75 
C 41.203125 75 40.296875 75 39.5 72.796875 
L 6 -21.3125 
C 6 -21.40625 5.40625 -22.90625 5.40625 -23.109375 
C 5.40625 -24.3125 6.40625 -25 7.203125 -25 
C 7.796875 -25 8.703125 -24.90625 9.40625 -22.8125 
z
" id="CMMI12-61"/>
       <path d="M 30.90625 42 
C 30.90625 43.796875 30.796875 43.890625 30.203125 43.890625 
C 29.796875 43.890625 29.703125 43.796875 28.5 42.296875 
C 28.203125 41.890625 27.296875 40.890625 27 40.5 
C 23.796875 43.890625 19.296875 44 17.59375 44 
C 6.5 44 2.5 38.1875 2.5 32.390625 
C 2.5 23.390625 12.703125 21.296875 15.59375 20.6875 
C 21.90625 19.390625 24.09375 19 26.203125 17.1875 
C 27.5 16 29.703125 13.796875 29.703125 10.1875 
C 29.703125 6 27.296875 0.59375 18.09375 0.59375 
C 9.40625 0.59375 6.296875 7.1875 4.5 16 
C 4.203125 17.390625 4.203125 17.5 3.40625 17.5 
C 2.59375 17.5 2.5 17.390625 2.5 15.390625 
L 2.5 1 
C 2.5 -0.8125 2.59375 -0.90625 3.203125 -0.90625 
C 3.703125 -0.90625 3.796875 -0.8125 4.296875 0 
C 4.90625 0.890625 6.40625 3.296875 7 4.296875 
C 9 1.59375 12.5 -1 18.09375 -1 
C 28 -1 33.296875 4.390625 33.296875 12.1875 
C 33.296875 17.296875 30.59375 20 29.296875 21.1875 
C 26.296875 24.296875 22.796875 25 18.59375 25.796875 
C 13.09375 27 6.09375 28.390625 6.09375 34.5 
C 6.09375 37.09375 7.5 42.59375 17.59375 42.59375 
C 28.296875 42.59375 28.90625 32.59375 29.09375 29.390625 
C 29.203125 28.890625 29.703125 28.796875 30 28.796875 
C 30.90625 28.796875 30.90625 29.09375 30.90625 30.796875 
z
" id="CMR17-115"/>
      </defs>
      <use transform="scale(0.996264)" xlink:href="#CMMI12-122"/>
      <use transform="translate(49.755145 0)scale(0.996264)" xlink:href="#CMMI12-61"/>
      <use transform="translate(98.530064 0)scale(0.996264)" xlink:href="#CMMI12-122"/>
      <use transform="translate(143.845817 -14.943915)scale(0.697382)" xlink:href="#CMR17-115"/>
     </g>
    </g>
   </g>
   <g id="matplotlib.axis_2">
    <g id="ytick_1">
     <g id="line2d_43">
      <defs>
       <path d="M 0 0 
L 3.5 0 
" id="m5667d36e51" style="stroke:#000000;stroke-width:0.8;"/>
      </defs>
      <g>
       <use style="stroke:#000000;stroke-width:0.8;" x="40.723522" xlink:href="#m5667d36e51" y="223.300224"/>
      </g>
     </g>
     <g id="line2d_44">
      <defs>
       <path d="M 0 0 
L -3.5 0 
" id="ma6dd43e1a3" style="stroke:#000000;stroke-width:0.8;"/>
      </defs>
      <g>
       <use style="stroke:#000000;stroke-width:0.8;" x="414.72" xlink:href="#ma6dd43e1a3" y="223.300224"/>
      </g>
     </g>
     <g id="text_8">
      <!-- $\mathdefault{0.0}$ -->
      <g transform="translate(17.28 228.835019)scale(0.16 -0.16)">
       <use transform="scale(0.996264)" xlink:href="#CMR17-48"/>
       <use transform="translate(45.690477 0)scale(0.996264)" xlink:href="#CMMI12-58"/>
       <use transform="translate(72.787654 0)scale(0.996264)" xlink:href="#CMR17-48"/>
      </g>
     </g>
    </g>
    <g id="ytick_2">
     <g id="line2d_45">
      <g>
       <use style="stroke:#000000;stroke-width:0.8;" x="40.723522" xlink:href="#m5667d36e51" y="184.058277"/>
      </g>
     </g>
     <g id="line2d_46">
      <g>
       <use style="stroke:#000000;stroke-width:0.8;" x="414.72" xlink:href="#ma6dd43e1a3" y="184.058277"/>
      </g>
     </g>
     <g id="text_9">
      <!-- $\mathdefault{0.2}$ -->
      <g transform="translate(17.28 189.593071)scale(0.16 -0.16)">
       <use transform="scale(0.996264)" xlink:href="#CMR17-48"/>
       <use transform="translate(45.690477 0)scale(0.996264)" xlink:href="#CMMI12-58"/>
       <use transform="translate(72.787654 0)scale(0.996264)" xlink:href="#CMR17-50"/>
      </g>
     </g>
    </g>
    <g id="ytick_3">
     <g id="line2d_47">
      <g>
       <use style="stroke:#000000;stroke-width:0.8;" x="40.723522" xlink:href="#m5667d36e51" y="144.816329"/>
      </g>
     </g>
     <g id="line2d_48">
      <g>
       <use style="stroke:#000000;stroke-width:0.8;" x="414.72" xlink:href="#ma6dd43e1a3" y="144.816329"/>
      </g>
     </g>
     <g id="text_10">
      <!-- $\mathdefault{0.4}$ -->
      <g transform="translate(17.28 150.351124)scale(0.16 -0.16)">
       <use transform="scale(0.996264)" xlink:href="#CMR17-48"/>
       <use transform="translate(45.690477 0)scale(0.996264)" xlink:href="#CMMI12-58"/>
       <use transform="translate(72.787654 0)scale(0.996264)" xlink:href="#CMR17-52"/>
      </g>
     </g>
    </g>
    <g id="ytick_4">
     <g id="line2d_49">
      <g>
       <use style="stroke:#000000;stroke-width:0.8;" x="40.723522" xlink:href="#m5667d36e51" y="105.574382"/>
      </g>
     </g>
     <g id="line2d_50">
      <g>
       <use style="stroke:#000000;stroke-width:0.8;" x="414.72" xlink:href="#ma6dd43e1a3" y="105.574382"/>
      </g>
     </g>
     <g id="text_11">
      <!-- $\mathdefault{0.6}$ -->
      <g transform="translate(17.28 111.109176)scale(0.16 -0.16)">
       <use transform="scale(0.996264)" xlink:href="#CMR17-48"/>
       <use transform="translate(45.690477 0)scale(0.996264)" xlink:href="#CMMI12-58"/>
       <use transform="translate(72.787654 0)scale(0.996264)" xlink:href="#CMR17-54"/>
      </g>
     </g>
    </g>
    <g id="ytick_5">
     <g id="line2d_51">
      <g>
       <use style="stroke:#000000;stroke-width:0.8;" x="40.723522" xlink:href="#m5667d36e51" y="66.332434"/>
      </g>
     </g>
     <g id="line2d_52">
      <g>
       <use style="stroke:#000000;stroke-width:0.8;" x="414.72" xlink:href="#ma6dd43e1a3" y="66.332434"/>
      </g>
     </g>
     <g id="text_12">
      <!-- $\mathdefault{0.8}$ -->
      <g transform="translate(17.28 71.867229)scale(0.16 -0.16)">
       <use transform="scale(0.996264)" xlink:href="#CMR17-48"/>
       <use transform="translate(45.690477 0)scale(0.996264)" xlink:href="#CMMI12-58"/>
       <use transform="translate(72.787654 0)scale(0.996264)" xlink:href="#CMR17-56"/>
      </g>
     </g>
    </g>
    <g id="ytick_6">
     <g id="line2d_53">
      <g>
       <use style="stroke:#000000;stroke-width:0.8;" x="40.723522" xlink:href="#m5667d36e51" y="27.090487"/>
      </g>
     </g>
     <g id="line2d_54">
      <g>
       <use style="stroke:#000000;stroke-width:0.8;" x="414.72" xlink:href="#ma6dd43e1a3" y="27.090487"/>
      </g>
     </g>
     <g id="text_13">
      <!-- $\mathdefault{1.0}$ -->
      <g transform="translate(17.28 32.625281)scale(0.16 -0.16)">
       <use transform="scale(0.996264)" xlink:href="#CMR17-49"/>
       <use transform="translate(45.690477 0)scale(0.996264)" xlink:href="#CMMI12-58"/>
       <use transform="translate(72.787654 0)scale(0.996264)" xlink:href="#CMR17-48"/>
      </g>
     </g>
    </g>
    <g id="ytick_7">
     <g id="line2d_55">
      <defs>
       <path d="M 0 0 
L 2 0 
" id="m146bf59895" style="stroke:#000000;stroke-width:0.6;"/>
      </defs>
      <g>
       <use style="stroke:#000000;stroke-width:0.6;" x="40.723522" xlink:href="#m146bf59895" y="213.489738"/>
      </g>
     </g>
     <g id="line2d_56">
      <defs>
       <path d="M 0 0 
L -2 0 
" id="m04ed80bfb2" style="stroke:#000000;stroke-width:0.6;"/>
      </defs>
      <g>
       <use style="stroke:#000000;stroke-width:0.6;" x="414.72" xlink:href="#m04ed80bfb2" y="213.489738"/>
      </g>
     </g>
    </g>
    <g id="ytick_8">
     <g id="line2d_57">
      <g>
       <use style="stroke:#000000;stroke-width:0.6;" x="40.723522" xlink:href="#m146bf59895" y="203.679251"/>
      </g>
     </g>
     <g id="line2d_58">
      <g>
       <use style="stroke:#000000;stroke-width:0.6;" x="414.72" xlink:href="#m04ed80bfb2" y="203.679251"/>
      </g>
     </g>
    </g>
    <g id="ytick_9">
     <g id="line2d_59">
      <g>
       <use style="stroke:#000000;stroke-width:0.6;" x="40.723522" xlink:href="#m146bf59895" y="193.868764"/>
      </g>
     </g>
     <g id="line2d_60">
      <g>
       <use style="stroke:#000000;stroke-width:0.6;" x="414.72" xlink:href="#m04ed80bfb2" y="193.868764"/>
      </g>
     </g>
    </g>
    <g id="ytick_10">
     <g id="line2d_61">
      <g>
       <use style="stroke:#000000;stroke-width:0.6;" x="40.723522" xlink:href="#m146bf59895" y="174.24779"/>
      </g>
     </g>
     <g id="line2d_62">
      <g>
       <use style="stroke:#000000;stroke-width:0.6;" x="414.72" xlink:href="#m04ed80bfb2" y="174.24779"/>
      </g>
     </g>
    </g>
    <g id="ytick_11">
     <g id="line2d_63">
      <g>
       <use style="stroke:#000000;stroke-width:0.6;" x="40.723522" xlink:href="#m146bf59895" y="164.437303"/>
      </g>
     </g>
     <g id="line2d_64">
      <g>
       <use style="stroke:#000000;stroke-width:0.6;" x="414.72" xlink:href="#m04ed80bfb2" y="164.437303"/>
      </g>
     </g>
    </g>
    <g id="ytick_12">
     <g id="line2d_65">
      <g>
       <use style="stroke:#000000;stroke-width:0.6;" x="40.723522" xlink:href="#m146bf59895" y="154.626816"/>
      </g>
     </g>
     <g id="line2d_66">
      <g>
       <use style="stroke:#000000;stroke-width:0.6;" x="414.72" xlink:href="#m04ed80bfb2" y="154.626816"/>
      </g>
     </g>
    </g>
    <g id="ytick_13">
     <g id="line2d_67">
      <g>
       <use style="stroke:#000000;stroke-width:0.6;" x="40.723522" xlink:href="#m146bf59895" y="135.005843"/>
      </g>
     </g>
     <g id="line2d_68">
      <g>
       <use style="stroke:#000000;stroke-width:0.6;" x="414.72" xlink:href="#m04ed80bfb2" y="135.005843"/>
      </g>
     </g>
    </g>
    <g id="ytick_14">
     <g id="line2d_69">
      <g>
       <use style="stroke:#000000;stroke-width:0.6;" x="40.723522" xlink:href="#m146bf59895" y="125.195356"/>
      </g>
     </g>
     <g id="line2d_70">
      <g>
       <use style="stroke:#000000;stroke-width:0.6;" x="414.72" xlink:href="#m04ed80bfb2" y="125.195356"/>
      </g>
     </g>
    </g>
    <g id="ytick_15">
     <g id="line2d_71">
      <g>
       <use style="stroke:#000000;stroke-width:0.6;" x="40.723522" xlink:href="#m146bf59895" y="115.384869"/>
      </g>
     </g>
     <g id="line2d_72">
      <g>
       <use style="stroke:#000000;stroke-width:0.6;" x="414.72" xlink:href="#m04ed80bfb2" y="115.384869"/>
      </g>
     </g>
    </g>
    <g id="ytick_16">
     <g id="line2d_73">
      <g>
       <use style="stroke:#000000;stroke-width:0.6;" x="40.723522" xlink:href="#m146bf59895" y="95.763895"/>
      </g>
     </g>
     <g id="line2d_74">
      <g>
       <use style="stroke:#000000;stroke-width:0.6;" x="414.72" xlink:href="#m04ed80bfb2" y="95.763895"/>
      </g>
     </g>
    </g>
    <g id="ytick_17">
     <g id="line2d_75">
      <g>
       <use style="stroke:#000000;stroke-width:0.6;" x="40.723522" xlink:href="#m146bf59895" y="85.953408"/>
      </g>
     </g>
     <g id="line2d_76">
      <g>
       <use style="stroke:#000000;stroke-width:0.6;" x="414.72" xlink:href="#m04ed80bfb2" y="85.953408"/>
      </g>
     </g>
    </g>
    <g id="ytick_18">
     <g id="line2d_77">
      <g>
       <use style="stroke:#000000;stroke-width:0.6;" x="40.723522" xlink:href="#m146bf59895" y="76.142921"/>
      </g>
     </g>
     <g id="line2d_78">
      <g>
       <use style="stroke:#000000;stroke-width:0.6;" x="414.72" xlink:href="#m04ed80bfb2" y="76.142921"/>
      </g>
     </g>
    </g>
    <g id="ytick_19">
     <g id="line2d_79">
      <g>
       <use style="stroke:#000000;stroke-width:0.6;" x="40.723522" xlink:href="#m146bf59895" y="56.521948"/>
      </g>
     </g>
     <g id="line2d_80">
      <g>
       <use style="stroke:#000000;stroke-width:0.6;" x="414.72" xlink:href="#m04ed80bfb2" y="56.521948"/>
      </g>
     </g>
    </g>
    <g id="ytick_20">
     <g id="line2d_81">
      <g>
       <use style="stroke:#000000;stroke-width:0.6;" x="40.723522" xlink:href="#m146bf59895" y="46.711461"/>
      </g>
     </g>
     <g id="line2d_82">
      <g>
       <use style="stroke:#000000;stroke-width:0.6;" x="414.72" xlink:href="#m04ed80bfb2" y="46.711461"/>
      </g>
     </g>
    </g>
    <g id="ytick_21">
     <g id="line2d_83">
      <g>
       <use style="stroke:#000000;stroke-width:0.6;" x="40.723522" xlink:href="#m146bf59895" y="36.900974"/>
      </g>
     </g>
     <g id="line2d_84">
      <g>
       <use style="stroke:#000000;stroke-width:0.6;" x="414.72" xlink:href="#m04ed80bfb2" y="36.900974"/>
      </g>
     </g>
    </g>
   </g>
   <g id="line2d_85">
    <path clip-path="url(#pa7028090f7)" d="M 57.723362 27.090487 
L 58.303566 27.093757 
L 58.883771 27.103567 
L 59.463975 27.119914 
L 60.044179 27.142797 
L 60.624383 27.17221 
L 61.204587 27.208149 
L 61.784791 27.250607 
L 62.364995 27.299577 
L 62.9452 27.355049 
L 63.525404 27.417013 
L 64.105608 27.48546 
L 64.685812 27.560375 
L 65.266016 27.641747 
L 65.84622 27.72956 
L 66.426425 27.823798 
L 67.006629 27.924446 
L 67.586833 28.031485 
L 68.167037 28.144895 
L 68.747241 28.264657 
L 69.327445 28.39075 
L 69.90765 28.523152 
L 70.487854 28.661838 
L 71.068058 28.806784 
L 71.648262 28.957966 
L 72.228466 29.115356 
L 72.80867 29.278927 
L 73.388874 29.44865 
L 73.969079 29.624496 
L 74.549283 29.806434 
L 75.129487 29.994432 
L 75.709691 30.188459 
L 76.289895 30.38848 
L 76.870099 30.594461 
L 77.450304 30.806367 
L 78.030508 31.024161 
L 78.610712 31.247807 
L 79.190916 31.477266 
L 79.77112 31.7125 
L 80.351324 31.953468 
L 80.931528 32.200131 
L 81.511733 32.452446 
L 82.091937 32.710372 
L 82.672141 32.973865 
L 83.252345 33.242883 
L 83.832549 33.51738 
L 84.412753 33.797311 
L 84.992958 34.082631 
L 85.573162 34.373293 
L 86.153366 34.669249 
L 86.73357 34.970452 
L 87.313774 35.276854 
L 87.893978 35.588404 
L 88.474183 35.905054 
L 89.054387 36.226752 
L 89.634591 36.553449 
L 90.214795 36.885092 
L 90.794999 37.22163 
L 91.375203 37.56301 
L 91.955407 37.909179 
L 92.535612 38.260085 
L 93.115816 38.615672 
L 93.69602 38.975887 
L 94.276224 39.340675 
L 94.856428 39.709981 
L 95.436632 40.08375 
L 96.016837 40.461925 
L 96.597041 40.844451 
L 97.177245 41.231271 
L 97.757449 41.622329 
L 98.337653 42.017567 
L 98.917857 42.416928 
L 99.498061 42.820355 
L 100.078266 43.22779 
L 100.65847 43.639175 
L 101.238674 44.054452 
L 101.818878 44.473562 
L 102.399082 44.896448 
L 102.979286 45.32305 
L 103.559491 45.753311 
L 104.139695 46.187171 
L 104.719899 46.624571 
L 105.300103 47.065453 
L 105.880307 47.509757 
L 106.460511 47.957426 
L 107.040716 48.408398 
L 107.62092 48.862617 
L 108.201124 49.320023 
L 108.781328 49.780556 
L 109.361532 50.244158 
L 109.941736 50.710771 
L 110.52194 51.180335 
L 111.102145 51.652792 
L 111.682349 52.128084 
L 112.262553 52.606151 
L 112.842757 53.086936 
L 113.422961 53.570381 
L 114.003165 54.056428 
L 114.58337 54.545019 
L 115.163574 55.036097 
L 115.743778 55.529603 
L 116.323982 56.025482 
L 116.904186 56.523676 
L 117.48439 57.024128 
L 118.064594 57.526783 
L 118.644799 58.031584 
L 119.225003 58.538474 
L 119.805207 59.0474 
L 120.385411 59.558305 
L 120.965615 60.071134 
L 121.545819 60.585832 
L 122.126024 61.102346 
L 122.706228 61.620622 
L 123.286432 62.140605 
L 123.866636 62.662243 
L 124.44684 63.185482 
L 125.027044 63.71027 
L 125.607249 64.236555 
L 126.187453 64.764285 
L 126.767657 65.293408 
L 127.347861 65.823874 
L 127.928065 66.355632 
L 128.508269 66.888632 
L 129.088473 67.422823 
L 129.668678 67.958158 
L 130.248882 68.494585 
L 130.829086 69.032058 
L 131.40929 69.570529 
L 131.989494 70.109948 
L 132.569698 70.650271 
L 133.149903 71.191448 
L 133.730107 71.733436 
L 134.310311 72.276187 
L 134.890515 72.819656 
L 135.470719 73.363799 
L 136.050923 73.908571 
L 136.631127 74.453929 
L 137.211332 74.999828 
L 137.791536 75.546226 
L 138.37174 76.093081 
L 138.951944 76.640351 
L 138.951944 27.090487 
L 139.532148 27.799433 
L 140.112352 28.504767 
L 140.692557 29.206574 
L 141.272761 29.904938 
L 141.852965 30.59994 
L 142.433169 31.291658 
L 143.013373 31.98017 
L 143.593577 32.665547 
L 144.173782 33.347864 
L 144.753986 34.027187 
L 145.33419 34.703586 
L 145.914394 35.377126 
L 146.494598 36.04787 
L 147.074802 36.715879 
L 147.655006 37.381214 
L 148.235211 38.043932 
L 148.815415 38.70409 
L 149.395619 39.361743 
L 149.975823 40.016943 
L 150.556027 40.669742 
L 151.136231 41.32019 
L 151.716436 41.968336 
L 152.29664 42.614227 
L 152.876844 43.257908 
L 153.457048 43.899424 
L 154.037252 44.538819 
L 154.617456 45.176133 
L 155.19766 45.811409 
L 155.777865 46.444685 
L 156.358069 47.076 
L 156.938273 47.705391 
L 157.518477 48.332895 
L 158.098681 48.958547 
L 158.678885 49.58238 
L 159.25909 50.204429 
L 159.839294 50.824725 
L 160.419498 51.4433 
L 160.999702 52.060184 
L 161.579906 52.675407 
L 162.16011 53.288997 
L 162.740315 53.900984 
L 163.320519 54.511392 
L 163.900723 55.12025 
L 164.480927 55.727583 
L 165.061131 56.333415 
L 165.641335 56.93777 
L 166.221539 57.540672 
L 166.801744 58.142145 
L 167.381948 58.742209 
L 167.962152 59.340886 
L 168.542356 59.938198 
L 169.12256 60.534164 
L 169.702764 61.128804 
L 170.282969 61.722138 
L 170.863173 62.314183 
L 171.443377 62.904958 
L 172.023581 63.49448 
L 172.603785 64.082766 
L 173.183989 64.669833 
L 173.764193 65.255696 
L 174.344398 65.840371 
L 174.924602 66.423873 
L 175.504806 67.006216 
L 176.08501 67.587415 
L 176.665214 68.167483 
L 177.245418 68.746434 
L 177.825623 69.32428 
L 178.405827 69.901034 
L 178.986031 70.476708 
L 179.566235 71.051313 
L 180.146439 71.624862 
L 180.726643 72.197365 
L 181.306848 72.768832 
L 181.887052 73.339274 
L 182.467256 73.908701 
L 183.04746 74.477122 
L 183.627664 75.044547 
L 184.207868 75.610985 
L 184.788072 76.176445 
L 185.368277 76.740934 
L 185.948481 77.304462 
L 186.528685 77.867036 
L 187.108889 78.428663 
L 187.689093 78.989352 
L 188.269297 79.549108 
L 188.849502 80.107939 
L 189.429706 80.665851 
L 190.00991 81.222852 
L 190.590114 81.778946 
L 191.170318 82.33414 
L 191.750522 82.888439 
L 192.330726 83.44185 
L 192.910931 83.994376 
L 193.491135 84.546024 
L 194.071339 85.096797 
L 194.651543 85.646702 
L 195.231747 86.195741 
L 195.811951 86.74392 
L 196.392156 87.291242 
L 196.97236 87.837711 
L 197.552564 88.383332 
L 198.132768 88.928107 
L 198.712972 89.47204 
L 199.293176 90.015135 
L 199.87338 90.557394 
L 200.453585 91.098821 
L 201.033789 91.639417 
L 201.613993 92.179187 
L 202.194197 92.718131 
L 202.774401 93.256254 
L 203.354605 93.793556 
L 203.93481 94.33004 
L 204.515014 94.865708 
L 205.095218 95.400563 
L 205.675422 95.934604 
L 206.255626 96.467836 
L 206.83583 97.000257 
L 207.416035 97.531871 
L 207.996239 98.062679 
L 208.576443 98.59268 
L 209.156647 99.121878 
L 209.736851 99.650272 
L 210.317055 100.177864 
L 210.897259 100.704654 
L 211.477464 101.230643 
L 212.057668 101.755832 
L 212.637872 102.280221 
L 213.218076 102.803811 
L 213.79828 103.326601 
L 214.378484 103.848593 
L 214.958689 104.369786 
L 215.538893 104.89018 
L 216.119097 105.409776 
L 216.699301 105.928574 
L 217.279505 106.446573 
L 217.859709 106.963773 
L 218.439913 107.480174 
L 219.020118 107.995776 
L 219.600322 108.510578 
L 220.180526 109.02458 
L 220.76073 109.537781 
L 221.340934 110.050181 
L 221.921138 110.56178 
L 222.501343 111.072576 
L 223.081547 111.582569 
L 223.661751 112.091758 
L 224.241955 112.600142 
L 224.822159 113.107721 
L 225.402363 113.614494 
L 225.982568 114.120459 
L 226.562772 114.625616 
L 227.142976 115.129964 
L 227.72318 115.633501 
L 228.303384 116.136226 
L 228.883588 116.638139 
L 229.463792 117.139238 
L 230.043997 117.639522 
L 230.624201 118.13899 
L 231.204405 118.63764 
L 231.784609 119.135471 
L 232.364813 119.632482 
L 232.945017 120.128672 
L 233.525222 120.624038 
L 234.105426 121.11858 
L 234.68563 121.612296 
L 235.265834 122.105185 
L 235.846038 122.597245 
L 236.426242 123.088474 
L 237.006446 123.578872 
L 237.586651 124.068436 
L 238.166855 124.557165 
L 238.747059 125.045057 
L 239.327263 125.532111 
L 239.907467 126.018325 
L 240.487671 126.503698 
L 241.067876 126.988227 
L 241.64808 127.471912 
L 242.228284 127.954749 
L 242.808488 128.436739 
L 243.388692 128.917878 
L 243.968896 129.398166 
L 244.549101 129.8776 
L 245.129305 130.356179 
L 245.709509 130.833901 
L 246.289713 131.310764 
L 246.869917 131.786766 
L 247.450121 132.261907 
L 248.030325 132.736183 
L 248.61053 133.209593 
L 249.190734 133.682136 
L 249.770938 134.153809 
L 250.351142 134.62461 
L 250.931346 135.094539 
L 251.51155 135.563593 
L 252.091755 136.03177 
L 252.671959 136.499069 
L 253.252163 136.965487 
L 253.832367 137.431023 
L 254.412571 137.895675 
L 254.992775 138.359442 
L 255.572979 138.822321 
L 256.153184 139.28431 
L 256.733388 139.745409 
L 257.313592 140.205614 
L 257.893796 140.664925 
L 258.474 141.12334 
L 259.054204 141.580856 
L 259.634409 142.037472 
L 260.214613 142.493186 
L 260.794817 142.947997 
L 261.375021 143.401902 
L 261.955225 143.8549 
L 262.535429 144.30699 
L 263.115634 144.758169 
L 263.695838 145.208435 
L 264.276042 145.657788 
L 264.856246 146.106225 
L 265.43645 146.553744 
L 266.016654 147.000345 
L 266.596858 147.446024 
L 267.177063 147.890782 
L 267.757267 148.334615 
L 268.337471 148.777522 
L 268.917675 149.219502 
L 269.497879 149.660553 
L 270.078083 150.100674 
L 270.658288 150.539862 
L 271.238492 150.978117 
L 271.818696 151.415436 
L 272.3989 151.851819 
L 272.979104 152.287263 
L 273.559308 152.721767 
L 274.139512 153.155329 
L 274.719717 153.587949 
L 275.299921 154.019624 
L 275.880125 154.450354 
L 276.460329 154.880136 
L 277.040533 155.308969 
L 277.620737 155.736852 
L 278.200942 156.163783 
L 278.781146 156.589761 
L 279.36135 157.014785 
L 279.941554 157.438853 
L 280.521758 157.861964 
L 281.101962 158.284116 
L 281.682167 158.705309 
L 282.262371 159.125541 
L 282.842575 159.54481 
L 283.422779 159.963116 
L 284.002983 160.380457 
L 284.583187 160.796832 
L 285.163391 161.21224 
L 285.743596 161.62668 
L 286.3238 162.04015 
L 286.904004 162.452649 
L 287.484208 162.864177 
L 288.064412 163.274731 
L 288.644616 163.684312 
L 289.224821 164.092917 
L 289.805025 164.500547 
L 290.385229 164.907199 
L 290.965433 165.312873 
L 291.545637 165.717568 
L 292.125841 166.121282 
L 292.706045 166.524016 
L 293.28625 166.925768 
L 293.866454 167.326536 
L 294.446658 167.726321 
L 295.026862 168.125121 
L 295.607066 168.522936 
L 296.18727 168.919764 
L 296.767475 169.315606 
L 297.347679 169.710459 
L 297.927883 170.104324 
L 298.508087 170.497199 
L 299.088291 170.889084 
L 299.668495 171.279978 
L 300.2487 171.66988 
L 300.828904 172.05879 
L 301.409108 172.446708 
L 301.989312 172.833632 
L 302.569516 173.219562 
L 303.14972 173.604497 
L 303.729924 173.988437 
L 304.310129 174.371382 
L 304.890333 174.75333 
L 305.470537 175.134281 
L 306.050741 175.514235 
L 306.630945 175.893192 
L 307.211149 176.27115 
L 307.791354 176.648111 
L 308.371558 177.024072 
L 308.951762 177.399034 
L 309.531966 177.772996 
L 310.11217 178.145959 
L 310.692374 178.517922 
L 311.272578 178.888884 
L 311.852783 179.258846 
L 312.432987 179.627806 
L 313.013191 179.995766 
L 313.593395 180.362725 
L 314.173599 180.728682 
L 314.753803 181.093637 
L 315.334008 181.457591 
L 315.914212 181.820543 
L 316.494416 182.182494 
L 317.07462 182.543442 
L 317.654824 182.903389 
L 318.235028 183.262334 
L 318.815233 183.620277 
L 319.395437 183.977218 
L 319.975641 184.333157 
L 320.555845 184.688095 
L 321.136049 185.042031 
L 321.716253 185.394966 
L 322.296457 185.746899 
L 322.876662 186.097831 
L 323.456866 186.447763 
L 324.03707 186.796694 
L 324.617274 187.144624 
L 325.197478 187.491554 
L 325.777682 187.837485 
L 326.357887 188.182415 
L 326.938091 188.526347 
L 327.518295 188.86928 
L 328.098499 189.211214 
L 328.678703 189.55215 
L 329.258907 189.892088 
L 329.839111 190.231029 
L 330.419316 190.568973 
L 330.99952 190.905921 
L 331.579724 191.241874 
L 332.159928 191.57683 
L 332.740132 191.910793 
L 333.320336 192.243761 
L 333.900541 192.575735 
L 334.480745 192.906717 
L 335.060949 193.236706 
L 335.641153 193.565704 
L 336.221357 193.89371 
L 336.801561 194.220727 
L 337.381766 194.546754 
L 337.96197 194.871792 
L 338.542174 195.195842 
L 339.122378 195.518905 
L 339.702582 195.840981 
L 340.282786 196.162072 
L 340.86299 196.482178 
L 341.443195 196.801301 
L 342.023399 197.11944 
L 342.603603 197.436598 
L 343.183807 197.752774 
L 343.764011 198.06797 
L 344.344215 198.382187 
L 344.92442 198.695426 
L 345.504624 199.007688 
L 346.084828 199.318974 
L 346.665032 199.629284 
L 347.245236 199.938621 
L 347.82544 200.246986 
L 348.405644 200.554378 
L 348.985849 200.8608 
L 349.566053 201.166253 
L 350.146257 201.470737 
L 350.726461 201.774255 
L 351.306665 202.076807 
L 351.886869 202.378394 
L 352.467074 202.679019 
L 353.047278 202.978681 
L 353.627482 203.277384 
L 354.207686 203.575127 
L 354.78789 203.871912 
L 355.368094 204.167741 
L 355.948299 204.462614 
L 356.528503 204.756535 
L 357.108707 205.049503 
L 357.688911 205.34152 
L 358.269115 205.632589 
L 358.849319 205.922709 
L 359.429523 206.211884 
L 360.009728 206.500114 
L 360.589932 206.787401 
L 361.170136 207.073747 
L 361.75034 207.359153 
L 362.330544 207.643621 
L 362.910748 207.927152 
L 363.490953 208.209749 
L 364.071157 208.491412 
L 364.651361 208.772144 
L 365.231565 209.051947 
L 365.811769 209.330822 
L 366.391973 209.60877 
L 366.972177 209.885795 
L 367.552382 210.161897 
L 368.132586 210.437078 
L 368.71279 210.711341 
L 369.292994 210.984687 
L 369.873198 211.257118 
L 370.453402 211.528636 
L 371.033607 211.799244 
L 371.613811 212.068942 
L 372.194015 212.337733 
L 372.774219 212.605619 
L 373.354423 212.872603 
L 373.934627 213.138685 
L 374.514832 213.403869 
L 375.095036 213.668156 
L 375.67524 213.931549 
L 376.255444 214.194049 
L 376.835648 214.455659 
L 377.415852 214.716382 
L 377.996056 214.976218 
L 378.576261 215.235171 
L 379.156465 215.493243 
L 379.736669 215.750436 
L 380.316873 216.006753 
L 380.897077 216.262195 
L 381.477281 216.516765 
L 382.057486 216.770466 
L 382.63769 217.023301 
L 383.217894 217.27527 
L 383.798098 217.526378 
L 384.378302 217.776626 
L 384.958506 218.026017 
L 385.53871 218.274554 
L 386.118915 218.522239 
L 386.699119 218.769074 
L 387.279323 219.015063 
L 387.859527 219.260209 
L 388.439731 219.504513 
L 389.019935 219.747979 
L 389.60014 219.990609 
L 390.180344 220.232406 
L 390.760548 220.473374 
L 391.340752 220.713515 
L 391.920956 220.952831 
L 392.50116 221.191327 
L 393.081365 221.429004 
L 393.661569 221.665866 
L 394.241773 221.901917 
L 394.821977 222.137159 
L 395.402181 222.371595 
L 395.982385 222.605229 
L 396.562589 222.838065 
L 397.142794 223.070105 
L 397.72016 223.300224 
" style="fill:none;stroke:#e69900;stroke-linecap:square;stroke-width:2;"/>
   </g>
   <g id="line2d_86">
    <path clip-path="url(#pa7028090f7)" d="M 57.723362 27.090487 
L 58.303566 27.100297 
L 58.883771 27.129724 
L 59.463975 27.178756 
L 60.044179 27.247375 
L 60.624383 27.335555 
L 61.204587 27.443262 
L 61.784791 27.570456 
L 62.364995 27.717088 
L 62.9452 27.883102 
L 63.525404 28.068437 
L 64.105608 28.273021 
L 64.685812 28.496779 
L 65.266016 28.739625 
L 65.84622 29.001468 
L 66.426425 29.28221 
L 67.006629 29.581746 
L 67.586833 29.899963 
L 68.167037 30.236743 
L 68.747241 30.591961 
L 69.327445 30.965484 
L 69.90765 31.357175 
L 70.487854 31.766888 
L 71.068058 32.194472 
L 71.648262 32.639771 
L 72.228466 33.102621 
L 72.80867 33.582853 
L 73.388874 34.080292 
L 73.969079 34.594758 
L 74.549283 35.126066 
L 75.129487 35.674023 
L 75.709691 36.238433 
L 76.289895 36.819095 
L 76.870099 37.415802 
L 77.450304 38.028343 
L 78.030508 38.656501 
L 78.610712 39.300056 
L 79.190916 39.958784 
L 79.77112 40.632455 
L 80.351324 41.320837 
L 80.931528 42.023691 
L 81.511733 42.740778 
L 82.091937 43.471854 
L 82.672141 44.21667 
L 83.252345 44.974976 
L 83.832549 45.746519 
L 84.412753 46.53104 
L 84.992958 47.328282 
L 85.573162 48.137981 
L 86.153366 48.959874 
L 86.73357 49.793693 
L 87.313774 50.63917 
L 87.893978 51.496035 
L 88.474183 52.364014 
L 89.054387 53.242835 
L 89.634591 54.132221 
L 90.214795 55.031897 
L 90.794999 55.941585 
L 91.375203 56.861005 
L 91.955407 57.78988 
L 92.535612 58.727928 
L 93.115816 59.67487 
L 93.69602 60.630425 
L 94.276224 61.594313 
L 94.856428 62.566252 
L 95.436632 63.545962 
L 96.016837 64.533163 
L 96.597041 65.527576 
L 97.177245 66.52892 
L 97.757449 67.536918 
L 98.337653 68.551291 
L 98.917857 69.571764 
L 99.498061 70.598061 
L 100.078266 71.629907 
L 100.65847 72.66703 
L 101.238674 73.709159 
L 101.818878 74.756025 
L 102.399082 75.807358 
L 102.979286 76.862893 
L 103.559491 77.922366 
L 104.139695 78.985515 
L 104.719899 80.05208 
L 105.300103 81.121804 
L 105.880307 82.194431 
L 106.460511 83.269708 
L 107.040716 84.347386 
L 107.62092 85.427217 
L 108.201124 86.508956 
L 108.781328 87.592361 
L 109.361532 88.677192 
L 109.941736 89.763215 
L 110.52194 90.850194 
L 111.102145 91.937901 
L 111.682349 93.026109 
L 112.262553 94.114593 
L 112.842757 95.203133 
L 113.422961 96.291511 
L 114.003165 97.379515 
L 114.58337 98.466934 
L 115.163574 99.55356 
L 115.743778 100.63919 
L 116.323982 101.723624 
L 116.904186 102.806666 
L 117.48439 103.888122 
L 118.064594 104.967804 
L 118.644799 106.045526 
L 119.225003 107.121107 
L 119.805207 108.194366 
L 120.385411 109.265131 
L 120.965615 110.333231 
L 121.545819 111.398497 
L 122.126024 112.460767 
L 122.706228 113.519881 
L 123.286432 114.575683 
L 123.866636 115.628021 
L 124.44684 116.676745 
L 125.027044 117.721712 
L 125.607249 118.762781 
L 126.187453 119.799813 
L 126.767657 120.832675 
L 127.347861 121.861237 
L 127.928065 122.885372 
L 128.508269 123.904958 
L 129.088473 124.919876 
L 129.668678 125.93001 
L 130.248882 126.935249 
L 130.829086 127.935483 
L 131.40929 128.930608 
L 131.989494 129.920523 
L 132.569698 130.905129 
L 133.149903 131.884332 
L 133.730107 132.858042 
L 134.310311 133.82617 
L 134.890515 134.788632 
L 135.470719 135.745347 
L 136.050923 136.696238 
L 136.631127 137.641229 
L 137.211332 138.580249 
L 137.791536 139.51323 
L 138.37174 140.440108 
L 138.951944 141.360819 
L 138.951944 173.601463 
L 139.532148 173.870577 
L 140.112352 174.137837 
L 140.692557 174.40328 
L 141.272761 174.666945 
L 141.852965 174.928868 
L 142.433169 175.189086 
L 143.013373 175.447631 
L 143.593577 175.704539 
L 144.173782 175.959841 
L 144.753986 176.213567 
L 145.33419 176.46575 
L 145.914394 176.716417 
L 146.494598 176.965598 
L 147.074802 177.21332 
L 147.655006 177.45961 
L 148.235211 177.704493 
L 148.815415 177.947996 
L 149.395619 178.190141 
L 149.975823 178.430954 
L 150.556027 178.670456 
L 151.136231 178.908671 
L 151.716436 179.145619 
L 152.29664 179.381322 
L 152.876844 179.6158 
L 153.457048 179.849072 
L 154.037252 180.081159 
L 154.617456 180.312078 
L 155.19766 180.541847 
L 155.777865 180.770484 
L 156.358069 180.998006 
L 156.938273 181.224429 
L 157.518477 181.44977 
L 158.098681 181.674044 
L 158.678885 181.897266 
L 159.25909 182.11945 
L 159.839294 182.340611 
L 160.419498 182.560763 
L 160.999702 182.779919 
L 161.579906 182.998091 
L 162.16011 183.215294 
L 162.740315 183.431539 
L 163.320519 183.646837 
L 163.900723 183.861201 
L 164.480927 184.074642 
L 165.061131 184.28717 
L 165.641335 184.498796 
L 166.221539 184.709531 
L 166.801744 184.919385 
L 167.381948 185.128367 
L 167.962152 185.336487 
L 168.542356 185.543753 
L 169.12256 185.750175 
L 169.702764 185.955762 
L 170.282969 186.160522 
L 170.863173 186.364462 
L 171.443377 186.567592 
L 172.023581 186.769918 
L 172.603785 186.971449 
L 173.183989 187.172191 
L 173.764193 187.372151 
L 174.344398 187.571337 
L 174.924602 187.769754 
L 175.504806 187.967411 
L 176.08501 188.164311 
L 176.665214 188.360463 
L 177.245418 188.555872 
L 177.825623 188.750543 
L 178.405827 188.944482 
L 178.986031 189.137695 
L 179.566235 189.330187 
L 180.146439 189.521963 
L 180.726643 189.713028 
L 181.306848 189.903386 
L 181.887052 190.093043 
L 182.467256 190.282004 
L 183.04746 190.470271 
L 183.627664 190.657851 
L 184.207868 190.844746 
L 184.788072 191.030962 
L 185.368277 191.216501 
L 185.948481 191.401369 
L 186.528685 191.585567 
L 187.108889 191.769101 
L 187.689093 191.951974 
L 188.269297 192.134188 
L 188.849502 192.315748 
L 189.429706 192.496656 
L 190.00991 192.676916 
L 190.590114 192.856531 
L 191.170318 193.035503 
L 191.750522 193.213835 
L 192.330726 193.391531 
L 192.910931 193.568592 
L 193.491135 193.745022 
L 194.071339 193.920823 
L 194.651543 194.095997 
L 195.231747 194.270547 
L 195.811951 194.444474 
L 196.392156 194.617783 
L 196.97236 194.790473 
L 197.552564 194.962549 
L 198.132768 195.134011 
L 198.712972 195.304861 
L 199.293176 195.475102 
L 199.87338 195.644735 
L 200.453585 195.813763 
L 201.033789 195.982187 
L 201.613993 196.150008 
L 202.194197 196.317228 
L 202.774401 196.48385 
L 203.354605 196.649874 
L 203.93481 196.815302 
L 204.515014 196.980135 
L 205.095218 197.144375 
L 205.675422 197.308024 
L 206.255626 197.471082 
L 206.83583 197.633551 
L 207.416035 197.795432 
L 207.996239 197.956727 
L 208.576443 198.117436 
L 209.156647 198.277561 
L 209.736851 198.437102 
L 210.317055 198.596062 
L 210.897259 198.754441 
L 211.477464 198.91224 
L 212.057668 199.06946 
L 212.637872 199.226102 
L 213.218076 199.382166 
L 213.79828 199.537655 
L 214.378484 199.692569 
L 214.958689 199.846908 
L 215.538893 200.000674 
L 216.119097 200.153867 
L 216.699301 200.306488 
L 217.279505 200.458538 
L 217.859709 200.610018 
L 218.439913 200.760928 
L 219.020118 200.911269 
L 219.600322 201.061042 
L 220.180526 201.210248 
L 220.76073 201.358887 
L 221.340934 201.50696 
L 221.921138 201.654467 
L 222.501343 201.801409 
L 223.081547 201.947787 
L 223.661751 202.093602 
L 224.241955 202.238853 
L 224.822159 202.383542 
L 225.402363 202.527669 
L 225.982568 202.671234 
L 226.562772 202.814239 
L 227.142976 202.956684 
L 227.72318 203.098568 
L 228.303384 203.239894 
L 228.883588 203.38066 
L 229.463792 203.520868 
L 230.043997 203.660519 
L 230.624201 203.799612 
L 231.204405 203.938149 
L 231.784609 204.076129 
L 232.364813 204.213553 
L 232.945017 204.350422 
L 233.525222 204.486736 
L 234.105426 204.622496 
L 234.68563 204.757701 
L 235.265834 204.892353 
L 235.846038 205.026452 
L 236.426242 205.159998 
L 237.006446 205.292992 
L 237.586651 205.425434 
L 238.166855 205.557325 
L 238.747059 205.688664 
L 239.327263 205.819453 
L 239.907467 205.949693 
L 240.487671 206.079382 
L 241.067876 206.208522 
L 241.64808 206.337114 
L 242.228284 206.465157 
L 242.808488 206.592652 
L 243.388692 206.7196 
L 243.968896 206.846001 
L 244.549101 206.971855 
L 245.129305 207.097163 
L 245.709509 207.221925 
L 246.289713 207.346142 
L 246.869917 207.469814 
L 247.450121 207.592941 
L 248.030325 207.715525 
L 248.61053 207.837565 
L 249.190734 207.959063 
L 249.770938 208.080017 
L 250.351142 208.20043 
L 250.931346 208.320301 
L 251.51155 208.439631 
L 252.091755 208.55842 
L 252.671959 208.676668 
L 253.252163 208.794377 
L 253.832367 208.911547 
L 254.412571 209.028178 
L 254.992775 209.144271 
L 255.572979 209.259826 
L 256.153184 209.374844 
L 256.733388 209.489325 
L 257.313592 209.60327 
L 257.893796 209.716679 
L 258.474 209.829553 
L 259.054204 209.941892 
L 259.634409 210.053698 
L 260.214613 210.164969 
L 260.794817 210.275708 
L 261.375021 210.385914 
L 261.955225 210.495588 
L 262.535429 210.604731 
L 263.115634 210.713343 
L 263.695838 210.821425 
L 264.276042 210.928978 
L 264.856246 211.036001 
L 265.43645 211.142496 
L 266.016654 211.248463 
L 266.596858 211.353903 
L 267.177063 211.458817 
L 267.757267 211.563204 
L 268.337471 211.667067 
L 268.917675 211.770404 
L 269.497879 211.873218 
L 270.078083 211.975508 
L 270.658288 212.077275 
L 271.238492 212.17852 
L 271.818696 212.279244 
L 272.3989 212.379447 
L 272.979104 212.47913 
L 273.559308 212.578294 
L 274.139512 212.676939 
L 274.719717 212.775067 
L 275.299921 212.872677 
L 275.880125 212.96977 
L 276.460329 213.066348 
L 277.040533 213.16241 
L 277.620737 213.257959 
L 278.200942 213.352993 
L 278.781146 213.447515 
L 279.36135 213.541525 
L 279.941554 213.635023 
L 280.521758 213.728011 
L 281.101962 213.82049 
L 281.682167 213.912459 
L 282.262371 214.00392 
L 282.842575 214.094874 
L 283.422779 214.185321 
L 284.002983 214.275262 
L 284.583187 214.364699 
L 285.163391 214.453631 
L 285.743596 214.54206 
L 286.3238 214.629987 
L 286.904004 214.717412 
L 287.484208 214.804336 
L 288.064412 214.89076 
L 288.644616 214.976685 
L 289.224821 215.062112 
L 289.805025 215.147042 
L 290.385229 215.231476 
L 290.965433 215.315413 
L 291.545637 215.398857 
L 292.125841 215.481806 
L 292.706045 215.564263 
L 293.28625 215.646227 
L 293.866454 215.727701 
L 294.446658 215.808685 
L 295.026862 215.889179 
L 295.607066 215.969186 
L 296.18727 216.048705 
L 296.767475 216.127737 
L 297.347679 216.206284 
L 297.927883 216.284347 
L 298.508087 216.361927 
L 299.088291 216.439023 
L 299.668495 216.515639 
L 300.2487 216.591773 
L 300.828904 216.667428 
L 301.409108 216.742605 
L 301.989312 216.817304 
L 302.569516 216.891526 
L 303.14972 216.965273 
L 303.729924 217.038545 
L 304.310129 217.111343 
L 304.890333 217.183669 
L 305.470537 217.255523 
L 306.050741 217.326907 
L 306.630945 217.397821 
L 307.211149 217.468267 
L 307.791354 217.538245 
L 308.371558 217.607756 
L 308.951762 217.676803 
L 309.531966 217.745385 
L 310.11217 217.813503 
L 310.692374 217.881159 
L 311.272578 217.948355 
L 311.852783 218.015089 
L 312.432987 218.081365 
L 313.013191 218.147183 
L 313.593395 218.212544 
L 314.173599 218.277448 
L 314.753803 218.341898 
L 315.334008 218.405895 
L 315.914212 218.469438 
L 316.494416 218.53253 
L 317.07462 218.595171 
L 317.654824 218.657363 
L 318.235028 218.719106 
L 318.815233 218.780402 
L 319.395437 218.841252 
L 319.975641 218.901656 
L 320.555845 218.961617 
L 321.136049 219.021134 
L 321.716253 219.08021 
L 322.296457 219.138845 
L 322.876662 219.19704 
L 323.456866 219.254796 
L 324.03707 219.312115 
L 324.617274 219.368998 
L 325.197478 219.425445 
L 325.777682 219.481457 
L 326.357887 219.537037 
L 326.938091 219.592184 
L 327.518295 219.646901 
L 328.098499 219.701187 
L 328.678703 219.755045 
L 329.258907 219.808475 
L 329.839111 219.861478 
L 330.419316 219.914055 
L 330.99952 219.966208 
L 331.579724 220.017938 
L 332.159928 220.069245 
L 332.740132 220.120131 
L 333.320336 220.170596 
L 333.900541 220.220643 
L 334.480745 220.270271 
L 335.060949 220.319482 
L 335.641153 220.368277 
L 336.221357 220.416657 
L 336.801561 220.464624 
L 337.381766 220.512177 
L 337.96197 220.559319 
L 338.542174 220.606049 
L 339.122378 220.65237 
L 339.702582 220.698283 
L 340.282786 220.743787 
L 340.86299 220.788885 
L 341.443195 220.833577 
L 342.023399 220.877864 
L 342.603603 220.921748 
L 343.183807 220.965229 
L 343.764011 221.008308 
L 344.344215 221.050986 
L 344.92442 221.093265 
L 345.504624 221.135144 
L 346.084828 221.176626 
L 346.665032 221.21771 
L 347.245236 221.258399 
L 347.82544 221.298692 
L 348.405644 221.338591 
L 348.985849 221.378096 
L 349.566053 221.41721 
L 350.146257 221.455931 
L 350.726461 221.494262 
L 351.306665 221.532202 
L 351.886869 221.569754 
L 352.467074 221.606917 
L 353.047278 221.643693 
L 353.627482 221.680082 
L 354.207686 221.716085 
L 354.78789 221.751703 
L 355.368094 221.786936 
L 355.948299 221.821785 
L 356.528503 221.856252 
L 357.108707 221.890336 
L 357.688911 221.924038 
L 358.269115 221.957359 
L 358.849319 221.9903 
L 359.429523 222.022861 
L 360.009728 222.055042 
L 360.589932 222.086845 
L 361.170136 222.118269 
L 361.75034 222.149315 
L 362.330544 222.179984 
L 362.910748 222.210277 
L 363.490953 222.240192 
L 364.071157 222.269731 
L 364.651361 222.298895 
L 365.231565 222.327683 
L 365.811769 222.356095 
L 366.391973 222.384132 
L 366.972177 222.411795 
L 367.552382 222.439082 
L 368.132586 222.465995 
L 368.71279 222.492533 
L 369.292994 222.518696 
L 369.873198 222.544484 
L 370.453402 222.569898 
L 371.033607 222.594936 
L 371.613811 222.619598 
L 372.194015 222.643885 
L 372.774219 222.667795 
L 373.354423 222.691329 
L 373.934627 222.714486 
L 374.514832 222.737264 
L 375.095036 222.759664 
L 375.67524 222.781685 
L 376.255444 222.803325 
L 376.835648 222.824583 
L 377.415852 222.845459 
L 377.996056 222.865951 
L 378.576261 222.886057 
L 379.156465 222.905777 
L 379.736669 222.925107 
L 380.316873 222.944047 
L 380.897077 222.962594 
L 381.477281 222.980746 
L 382.057486 222.9985 
L 382.63769 223.015854 
L 383.217894 223.032804 
L 383.798098 223.049346 
L 384.378302 223.065479 
L 384.958506 223.081196 
L 385.53871 223.096494 
L 386.118915 223.111368 
L 386.699119 223.125812 
L 387.279323 223.13982 
L 387.859527 223.153386 
L 388.439731 223.166502 
L 389.019935 223.179159 
L 389.60014 223.191349 
L 390.180344 223.20306 
L 390.760548 223.21428 
L 391.340752 223.224995 
L 391.920956 223.23519 
L 392.50116 223.244845 
L 393.081365 223.253938 
L 393.661569 223.262442 
L 394.241773 223.270325 
L 394.821977 223.277543 
L 395.402181 223.284043 
L 395.982385 223.289747 
L 396.562589 223.294543 
L 397.142794 223.298228 
L 397.72016 223.300224 
" style="fill:none;stroke:#59b2e6;stroke-linecap:square;stroke-width:2;"/>
   </g>
   <g id="line2d_87">
    <path clip-path="url(#pa7028090f7)" d="M 57.723362 27.090487 
L 58.303566 27.103567 
L 58.883771 27.142801 
L 59.463975 27.20817 
L 60.044179 27.299643 
L 60.624383 27.417176 
L 61.204587 27.560713 
L 61.784791 27.730184 
L 62.364995 27.925509 
L 62.9452 28.146595 
L 63.525404 28.393336 
L 64.105608 28.665614 
L 64.685812 28.963299 
L 65.266016 29.286251 
L 65.84622 29.634317 
L 66.426425 30.00733 
L 67.006629 30.405116 
L 67.586833 30.827487 
L 68.167037 31.274244 
L 68.747241 31.745178 
L 69.327445 32.240069 
L 69.90765 32.758686 
L 70.487854 33.300788 
L 71.068058 33.866124 
L 71.648262 34.454433 
L 72.228466 35.065445 
L 72.80867 35.69888 
L 73.388874 36.354448 
L 73.969079 37.031851 
L 74.549283 37.730784 
L 75.129487 38.45093 
L 75.709691 39.191967 
L 76.289895 39.953565 
L 76.870099 40.735383 
L 77.450304 41.537078 
L 78.030508 42.358296 
L 78.610712 43.198679 
L 79.190916 44.057859 
L 79.77112 44.935467 
L 80.351324 45.831124 
L 80.931528 46.744448 
L 81.511733 47.675051 
L 82.091937 48.62254 
L 82.672141 49.586517 
L 83.252345 50.566582 
L 83.832549 51.562329 
L 84.412753 52.573349 
L 84.992958 53.599231 
L 85.573162 54.639558 
L 86.153366 55.693913 
L 86.73357 56.761876 
L 87.313774 57.843026 
L 87.893978 58.936938 
L 88.474183 60.043188 
L 89.054387 61.161348 
L 89.634591 62.290993 
L 90.214795 63.431693 
L 90.794999 64.583023 
L 91.375203 65.744553 
L 91.955407 66.915856 
L 92.535612 68.096507 
L 93.115816 69.286078 
L 93.69602 70.484144 
L 94.276224 71.690284 
L 94.856428 72.904074 
L 95.436632 74.125096 
L 96.016837 75.352932 
L 96.597041 76.587166 
L 97.177245 77.827387 
L 97.757449 79.073184 
L 98.337653 80.324151 
L 98.917857 81.579885 
L 99.498061 82.839986 
L 100.078266 84.104058 
L 100.65847 85.371709 
L 101.238674 86.642552 
L 101.818878 87.916202 
L 102.399082 89.192281 
L 102.979286 90.470413 
L 103.559491 91.750229 
L 104.139695 93.031364 
L 104.719899 94.313458 
L 105.300103 95.596157 
L 105.880307 96.879111 
L 106.460511 98.161977 
L 107.040716 99.444416 
L 107.62092 100.726096 
L 108.201124 102.00669 
L 108.781328 103.285877 
L 109.361532 104.563343 
L 109.941736 105.838778 
L 110.52194 107.11188 
L 111.102145 108.382353 
L 111.682349 109.649905 
L 112.262553 110.914254 
L 112.842757 112.175122 
L 113.422961 113.432237 
L 114.003165 114.685336 
L 114.58337 115.934159 
L 115.163574 117.178455 
L 115.743778 118.417978 
L 116.323982 119.652491 
L 116.904186 120.881761 
L 117.48439 122.105562 
L 118.064594 123.323675 
L 118.644799 124.535888 
L 119.225003 125.741994 
L 119.805207 126.941794 
L 120.385411 128.135095 
L 120.965615 129.32171 
L 121.545819 130.501458 
L 122.126024 131.674167 
L 122.706228 132.839667 
L 123.286432 133.997798 
L 123.866636 135.148404 
L 124.44684 136.291338 
L 125.027044 137.426454 
L 125.607249 138.553618 
L 126.187453 139.672698 
L 126.767657 140.783569 
L 127.347861 141.886112 
L 127.928065 142.980215 
L 128.508269 144.065768 
L 129.088473 145.142671 
L 129.668678 146.210828 
L 130.248882 147.270147 
L 130.829086 148.320542 
L 131.40929 149.361935 
L 131.989494 150.394249 
L 132.569698 151.417416 
L 133.149903 152.431369 
L 133.730107 153.436051 
L 134.310311 154.431405 
L 134.890515 155.417382 
L 135.470719 156.393936 
L 136.050923 157.361026 
L 136.631127 158.318617 
L 137.211332 159.266675 
L 137.791536 160.205174 
L 138.37174 161.134089 
L 138.951944 162.053403 
L 138.951944 162.053403 
L 139.532148 162.605148 
L 140.112352 163.151111 
L 140.692557 163.69141 
L 141.272761 164.226156 
L 141.852965 164.755461 
L 142.433169 165.279429 
L 143.013373 165.798164 
L 143.593577 166.311764 
L 144.173782 166.820326 
L 144.753986 167.323943 
L 145.33419 167.822705 
L 145.914394 168.3167 
L 146.494598 168.806011 
L 147.074802 169.290722 
L 147.655006 169.770912 
L 148.235211 170.246658 
L 148.815415 170.718034 
L 149.395619 171.185115 
L 149.975823 171.647968 
L 150.556027 172.106665 
L 151.136231 172.561269 
L 151.716436 173.011847 
L 152.29664 173.45846 
L 152.876844 173.901169 
L 153.457048 174.340033 
L 154.037252 174.77511 
L 154.617456 175.206455 
L 155.19766 175.634122 
L 155.777865 176.058164 
L 156.358069 176.478632 
L 156.938273 176.895575 
L 157.518477 177.309042 
L 158.098681 177.719081 
L 158.678885 178.125736 
L 159.25909 178.529052 
L 159.839294 178.929073 
L 160.419498 179.325841 
L 160.999702 179.719397 
L 161.579906 180.109781 
L 162.16011 180.497031 
L 162.740315 180.881186 
L 163.320519 181.262283 
L 163.900723 181.640358 
L 164.480927 182.015446 
L 165.061131 182.387581 
L 165.641335 182.756797 
L 166.221539 183.123125 
L 166.801744 183.486599 
L 167.381948 183.847248 
L 167.962152 184.205104 
L 168.542356 184.560195 
L 169.12256 184.912551 
L 169.702764 185.262199 
L 170.282969 185.609167 
L 170.863173 185.953483 
L 171.443377 186.295171 
L 172.023581 186.634258 
L 172.603785 186.970769 
L 173.183989 187.304729 
L 173.764193 187.63616 
L 174.344398 187.965088 
L 174.924602 188.291534 
L 175.504806 188.615521 
L 176.08501 188.93707 
L 176.665214 189.256205 
L 177.245418 189.572944 
L 177.825623 189.88731 
L 178.405827 190.199322 
L 178.986031 190.509 
L 179.566235 190.816363 
L 180.146439 191.12143 
L 180.726643 191.42422 
L 181.306848 191.724751 
L 181.887052 192.023042 
L 182.467256 192.319108 
L 183.04746 192.612969 
L 183.627664 192.90464 
L 184.207868 193.194138 
L 184.788072 193.48148 
L 185.368277 193.766682 
L 185.948481 194.049758 
L 186.528685 194.330726 
L 187.108889 194.609599 
L 187.689093 194.886393 
L 188.269297 195.161122 
L 188.849502 195.433802 
L 189.429706 195.704445 
L 190.00991 195.973067 
L 190.590114 196.23968 
L 191.170318 196.504299 
L 191.750522 196.766937 
L 192.330726 197.027606 
L 192.910931 197.28632 
L 193.491135 197.543092 
L 194.071339 197.797933 
L 194.651543 198.050858 
L 195.231747 198.301876 
L 195.811951 198.551002 
L 196.392156 198.798246 
L 196.97236 199.043621 
L 197.552564 199.287138 
L 198.132768 199.528808 
L 198.712972 199.768642 
L 199.293176 200.006653 
L 199.87338 200.24285 
L 200.453585 200.477245 
L 201.033789 200.709849 
L 201.613993 200.940672 
L 202.194197 201.169724 
L 202.774401 201.397017 
L 203.354605 201.62256 
L 203.93481 201.846363 
L 204.515014 202.068437 
L 205.095218 202.288792 
L 205.675422 202.507438 
L 206.255626 202.724383 
L 206.83583 202.939639 
L 207.416035 203.153214 
L 207.996239 203.365119 
L 208.576443 203.575362 
L 209.156647 203.783953 
L 209.736851 203.990901 
L 210.317055 204.196216 
L 210.897259 204.399906 
L 211.477464 204.601981 
L 212.057668 204.80245 
L 212.637872 205.001321 
L 213.218076 205.198603 
L 213.79828 205.394306 
L 214.378484 205.588437 
L 214.958689 205.781006 
L 215.538893 205.972022 
L 216.119097 206.161491 
L 216.699301 206.349425 
L 217.279505 206.535829 
L 217.859709 206.720714 
L 218.439913 206.904087 
L 219.020118 207.085957 
L 219.600322 207.266332 
L 220.180526 207.44522 
L 220.76073 207.622629 
L 221.340934 207.798568 
L 221.921138 207.973044 
L 222.501343 208.146066 
L 223.081547 208.317641 
L 223.661751 208.487778 
L 224.241955 208.656484 
L 224.822159 208.823767 
L 225.402363 208.989636 
L 225.982568 209.154097 
L 226.562772 209.317159 
L 227.142976 209.47883 
L 227.72318 209.639117 
L 228.303384 209.798028 
L 228.883588 209.95557 
L 229.463792 210.111751 
L 230.043997 210.266579 
L 230.624201 210.420062 
L 231.204405 210.572206 
L 231.784609 210.72302 
L 232.364813 210.87251 
L 232.945017 211.020685 
L 233.525222 211.167552 
L 234.105426 211.313117 
L 234.68563 211.45739 
L 235.265834 211.600376 
L 235.846038 211.742084 
L 236.426242 211.88252 
L 237.006446 212.021693 
L 237.586651 212.159608 
L 238.166855 212.296274 
L 238.747059 212.431698 
L 239.327263 212.565887 
L 239.907467 212.698848 
L 240.487671 212.830588 
L 241.067876 212.961115 
L 241.64808 213.090435 
L 242.228284 213.218557 
L 242.808488 213.345486 
L 243.388692 213.47123 
L 243.968896 213.595796 
L 244.549101 213.719192 
L 245.129305 213.841423 
L 245.709509 213.962498 
L 246.289713 214.082423 
L 246.869917 214.201205 
L 247.450121 214.318852 
L 248.030325 214.435369 
L 248.61053 214.550765 
L 249.190734 214.665045 
L 249.770938 214.778218 
L 250.351142 214.890289 
L 250.931346 215.001266 
L 251.51155 215.111155 
L 252.091755 215.219964 
L 252.671959 215.327699 
L 253.252163 215.434367 
L 253.832367 215.539974 
L 254.412571 215.644528 
L 254.992775 215.748036 
L 255.572979 215.850504 
L 256.153184 215.951938 
L 256.733388 216.052346 
L 257.313592 216.151735 
L 257.893796 216.25011 
L 258.474 216.347479 
L 259.054204 216.443848 
L 259.634409 216.539224 
L 260.214613 216.633613 
L 260.794817 216.727023 
L 261.375021 216.819459 
L 261.955225 216.910928 
L 262.535429 217.001438 
L 263.115634 217.090993 
L 263.695838 217.179602 
L 264.276042 217.26727 
L 264.856246 217.354004 
L 265.43645 217.43981 
L 266.016654 217.524695 
L 266.596858 217.608665 
L 267.177063 217.691727 
L 267.757267 217.773888 
L 268.337471 217.855152 
L 268.917675 217.935528 
L 269.497879 218.01502 
L 270.078083 218.093637 
L 270.658288 218.171383 
L 271.238492 218.248265 
L 271.818696 218.32429 
L 272.3989 218.399463 
L 272.979104 218.473792 
L 273.559308 218.547282 
L 274.139512 218.619939 
L 274.719717 218.69177 
L 275.299921 218.762781 
L 275.880125 218.832977 
L 276.460329 218.902366 
L 277.040533 218.970953 
L 277.620737 219.038744 
L 278.200942 219.105746 
L 278.781146 219.171964 
L 279.36135 219.237405 
L 279.941554 219.302074 
L 280.521758 219.365978 
L 281.101962 219.429123 
L 281.682167 219.491514 
L 282.262371 219.553157 
L 282.842575 219.614059 
L 283.422779 219.674225 
L 284.002983 219.733661 
L 284.583187 219.792374 
L 285.163391 219.850368 
L 285.743596 219.90765 
L 286.3238 219.964225 
L 286.904004 220.0201 
L 287.484208 220.07528 
L 288.064412 220.12977 
L 288.644616 220.183577 
L 289.224821 220.236706 
L 289.805025 220.289164 
L 290.385229 220.340954 
L 290.965433 220.392084 
L 291.545637 220.442559 
L 292.125841 220.492384 
L 292.706045 220.541565 
L 293.28625 220.590107 
L 293.866454 220.638017 
L 294.446658 220.685298 
L 295.026862 220.731958 
L 295.607066 220.778001 
L 296.18727 220.823433 
L 296.767475 220.86826 
L 297.347679 220.912486 
L 297.927883 220.956117 
L 298.508087 220.999158 
L 299.088291 221.041615 
L 299.668495 221.083492 
L 300.2487 221.124796 
L 300.828904 221.165532 
L 301.409108 221.205704 
L 301.989312 221.245318 
L 302.569516 221.284379 
L 303.14972 221.322892 
L 303.729924 221.360862 
L 304.310129 221.398294 
L 304.890333 221.435195 
L 305.470537 221.471567 
L 306.050741 221.507417 
L 306.630945 221.54275 
L 307.211149 221.57757 
L 307.791354 221.611882 
L 308.371558 221.645692 
L 308.951762 221.679004 
L 309.531966 221.711823 
L 310.11217 221.744155 
L 310.692374 221.776002 
L 311.272578 221.807372 
L 311.852783 221.838268 
L 312.432987 221.868695 
L 313.013191 221.898658 
L 313.593395 221.928161 
L 314.173599 221.95721 
L 314.753803 221.985809 
L 315.334008 222.013962 
L 315.914212 222.041674 
L 316.494416 222.06895 
L 317.07462 222.095794 
L 317.654824 222.12221 
L 318.235028 222.148204 
L 318.815233 222.17378 
L 319.395437 222.198941 
L 319.975641 222.223694 
L 320.555845 222.248041 
L 321.136049 222.271987 
L 321.716253 222.295537 
L 322.296457 222.318695 
L 322.876662 222.341466 
L 323.456866 222.363852 
L 324.03707 222.38586 
L 324.617274 222.407492 
L 325.197478 222.428754 
L 325.777682 222.449649 
L 326.357887 222.470181 
L 326.938091 222.490355 
L 327.518295 222.510175 
L 328.098499 222.529644 
L 328.678703 222.548767 
L 329.258907 222.567547 
L 329.839111 222.585989 
L 330.419316 222.604097 
L 330.99952 222.621875 
L 331.579724 222.639325 
L 332.159928 222.656454 
L 332.740132 222.673263 
L 333.320336 222.689757 
L 333.900541 222.705941 
L 334.480745 222.721817 
L 335.060949 222.737389 
L 335.641153 222.752661 
L 336.221357 222.767637 
L 336.801561 222.78232 
L 337.381766 222.796715 
L 337.96197 222.810824 
L 338.542174 222.824651 
L 339.122378 222.838201 
L 339.702582 222.851475 
L 340.282786 222.864479 
L 340.86299 222.877215 
L 341.443195 222.889687 
L 342.023399 222.901898 
L 342.603603 222.913852 
L 343.183807 222.925553 
L 343.764011 222.937002 
L 344.344215 222.948205 
L 344.92442 222.959164 
L 345.504624 222.969882 
L 346.084828 222.980363 
L 346.665032 222.99061 
L 347.245236 223.000627 
L 347.82544 223.010415 
L 348.405644 223.01998 
L 348.985849 223.029323 
L 349.566053 223.038448 
L 350.146257 223.047358 
L 350.726461 223.056056 
L 351.306665 223.064546 
L 351.886869 223.072829 
L 352.467074 223.08091 
L 353.047278 223.088791 
L 353.627482 223.096475 
L 354.207686 223.103965 
L 354.78789 223.111264 
L 355.368094 223.118376 
L 355.948299 223.125302 
L 356.528503 223.132045 
L 357.108707 223.138609 
L 357.688911 223.144997 
L 358.269115 223.15121 
L 358.849319 223.157252 
L 359.429523 223.163126 
L 360.009728 223.168834 
L 360.589932 223.17438 
L 361.170136 223.179764 
L 361.75034 223.184992 
L 362.330544 223.190064 
L 362.910748 223.194984 
L 363.490953 223.199754 
L 364.071157 223.204377 
L 364.651361 223.208855 
L 365.231565 223.213191 
L 365.811769 223.217387 
L 366.391973 223.221446 
L 366.972177 223.225371 
L 367.552382 223.229163 
L 368.132586 223.232826 
L 368.71279 223.236361 
L 369.292994 223.239772 
L 369.873198 223.24306 
L 370.453402 223.246227 
L 371.033607 223.249277 
L 371.613811 223.252212 
L 372.194015 223.255033 
L 372.774219 223.257744 
L 373.354423 223.260345 
L 373.934627 223.262841 
L 374.514832 223.265232 
L 375.095036 223.267522 
L 375.67524 223.269712 
L 376.255444 223.271805 
L 376.835648 223.273802 
L 377.415852 223.275706 
L 377.996056 223.27752 
L 378.576261 223.279245 
L 379.156465 223.280883 
L 379.736669 223.282437 
L 380.316873 223.283908 
L 380.897077 223.2853 
L 381.477281 223.286613 
L 382.057486 223.28785 
L 382.63769 223.289013 
L 383.217894 223.290105 
L 383.798098 223.291126 
L 384.378302 223.29208 
L 384.958506 223.292969 
L 385.53871 223.293794 
L 386.118915 223.294557 
L 386.699119 223.295261 
L 387.279323 223.295907 
L 387.859527 223.296498 
L 388.439731 223.297036 
L 389.019935 223.297523 
L 389.60014 223.297961 
L 390.180344 223.298352 
L 390.760548 223.298699 
L 391.340752 223.299002 
L 391.920956 223.299266 
L 392.50116 223.299491 
L 393.081365 223.29968 
L 393.661569 223.299837 
L 394.241773 223.299962 
L 394.821977 223.300059 
L 395.402181 223.30013 
L 395.982385 223.300179 
L 396.562589 223.300208 
L 397.142794 223.300222 
L 397.72016 223.300224 
" style="fill:none;stroke:#009980;stroke-linecap:square;stroke-width:2;"/>
   </g>
   <g id="line2d_88">
    <path clip-path="url(#pa7028090f7)" d="M 57.723362 223.300224 
L 58.303566 223.300203 
L 58.883771 223.300056 
L 59.463975 223.299657 
L 60.044179 223.29888 
L 60.624383 223.297599 
L 61.204587 223.29569 
L 61.784791 223.293026 
L 62.364995 223.289484 
L 62.9452 223.28494 
L 63.525404 223.27927 
L 64.105608 223.272352 
L 64.685812 223.264064 
L 65.266016 223.254283 
L 65.84622 223.242892 
L 66.426425 223.229769 
L 67.006629 223.214796 
L 67.586833 223.197858 
L 68.167037 223.178836 
L 68.747241 223.157618 
L 69.327445 223.134089 
L 69.90765 223.108136 
L 70.487854 223.07965 
L 71.068058 223.048522 
L 71.648262 223.014642 
L 72.228466 222.977906 
L 72.80867 222.938209 
L 73.388874 222.895448 
L 73.969079 222.849523 
L 74.549283 222.800333 
L 75.129487 222.747782 
L 75.709691 222.691775 
L 76.289895 222.632218 
L 76.870099 222.569019 
L 77.450304 222.50209 
L 78.030508 222.431344 
L 78.610712 222.356694 
L 79.190916 222.278058 
L 79.77112 222.195356 
L 80.351324 222.108509 
L 80.931528 222.017441 
L 81.511733 221.922078 
L 82.091937 221.822349 
L 82.672141 221.718184 
L 83.252345 221.609517 
L 83.832549 221.496283 
L 84.412753 221.378421 
L 84.992958 221.25587 
L 85.573162 221.128575 
L 86.153366 220.996481 
L 86.73357 220.859535 
L 87.313774 220.717688 
L 87.893978 220.570894 
L 88.474183 220.419108 
L 89.054387 220.262288 
L 89.634591 220.100395 
L 90.214795 219.933392 
L 90.794999 219.761244 
L 91.375203 219.583921 
L 91.955407 219.401393 
L 92.535612 219.213634 
L 93.115816 219.020619 
L 93.69602 218.822327 
L 94.276224 218.618738 
L 94.856428 218.409838 
L 95.436632 218.19561 
L 96.016837 217.976045 
L 96.597041 217.751132 
L 97.177245 217.520865 
L 97.757449 217.285239 
L 98.337653 217.044254 
L 98.917857 216.797909 
L 99.498061 216.546208 
L 100.078266 216.289155 
L 100.65847 216.026758 
L 101.238674 215.759026 
L 101.818878 215.485973 
L 102.399082 215.207611 
L 102.979286 214.923958 
L 103.559491 214.635031 
L 104.139695 214.340852 
L 104.719899 214.041444 
L 105.300103 213.73683 
L 105.880307 213.427039 
L 106.460511 213.112098 
L 107.040716 212.792038 
L 107.62092 212.466893 
L 108.201124 212.136696 
L 108.781328 211.801484 
L 109.361532 211.461294 
L 109.941736 211.116168 
L 110.52194 210.766145 
L 111.102145 210.411271 
L 111.682349 210.051588 
L 112.262553 209.687144 
L 112.842757 209.317986 
L 113.422961 208.944165 
L 114.003165 208.56573 
L 114.58337 208.182734 
L 115.163574 207.79523 
L 115.743778 207.403274 
L 116.323982 207.006922 
L 116.904186 206.60623 
L 117.48439 206.201258 
L 118.064594 205.792066 
L 118.644799 205.378714 
L 119.225003 204.961263 
L 119.805207 204.539778 
L 120.385411 204.114321 
L 120.965615 203.684957 
L 121.545819 203.251752 
L 122.126024 202.814773 
L 122.706228 202.374087 
L 123.286432 201.929761 
L 123.866636 201.481864 
L 124.44684 201.030466 
L 125.027044 200.575636 
L 125.607249 200.117446 
L 126.187453 199.655966 
L 126.767657 199.191267 
L 127.347861 198.723422 
L 127.928065 198.252504 
L 128.508269 197.778584 
L 129.088473 197.301736 
L 129.668678 196.822035 
L 130.248882 196.339552 
L 130.829086 195.854363 
L 131.40929 195.366541 
L 131.989494 194.87616 
L 132.569698 194.383296 
L 133.149903 193.888023 
L 133.730107 193.390415 
L 134.310311 192.890546 
L 134.890515 192.388492 
L 135.470719 191.884327 
L 136.050923 191.378125 
L 136.631127 190.869961 
L 137.211332 190.359908 
L 137.791536 189.848042 
L 138.37174 189.334435 
L 138.951944 188.819161 
L 138.951944 188.819161 
L 139.532148 188.504757 
L 140.112352 188.187587 
L 140.692557 187.867656 
L 141.272761 187.54497 
L 141.852965 187.219533 
L 142.433169 186.891353 
L 143.013373 186.560435 
L 143.593577 186.226786 
L 144.173782 185.890413 
L 144.753986 185.551321 
L 145.33419 185.20952 
L 145.914394 184.865015 
L 146.494598 184.517815 
L 147.074802 184.167928 
L 147.655006 183.815363 
L 148.235211 183.460126 
L 148.815415 183.102228 
L 149.395619 182.741677 
L 149.975823 182.378482 
L 150.556027 182.012654 
L 151.136231 181.644201 
L 151.716436 181.273133 
L 152.29664 180.899462 
L 152.876844 180.523197 
L 153.457048 180.144348 
L 154.037252 179.762928 
L 154.617456 179.378947 
L 155.19766 178.992416 
L 155.777865 178.603347 
L 156.358069 178.211752 
L 156.938273 177.817644 
L 157.518477 177.421033 
L 158.098681 177.021934 
L 158.678885 176.620358 
L 159.25909 176.216319 
L 159.839294 175.80983 
L 160.419498 175.400904 
L 160.999702 174.989555 
L 161.579906 174.575797 
L 162.16011 174.159644 
L 162.740315 173.74111 
L 163.320519 173.32021 
L 163.900723 172.896958 
L 164.480927 172.47137 
L 165.061131 172.04346 
L 165.641335 171.613245 
L 166.221539 171.180738 
L 166.801744 170.745957 
L 167.381948 170.308917 
L 167.962152 169.869634 
L 168.542356 169.428125 
L 169.12256 168.984405 
L 169.702764 168.538493 
L 170.282969 168.090404 
L 170.863173 167.640156 
L 171.443377 167.187767 
L 172.023581 166.733252 
L 172.603785 166.276631 
L 173.183989 165.817921 
L 173.764193 165.35714 
L 174.344398 164.894306 
L 174.924602 164.429438 
L 175.504806 163.962553 
L 176.08501 163.493671 
L 176.665214 163.022811 
L 177.245418 162.549991 
L 177.825623 162.075231 
L 178.405827 161.598551 
L 178.986031 161.119968 
L 179.566235 160.639504 
L 180.146439 160.157178 
L 180.726643 159.67301 
L 181.306848 159.18702 
L 181.887052 158.699229 
L 182.467256 158.209656 
L 183.04746 157.718322 
L 183.627664 157.225249 
L 184.207868 156.730456 
L 184.788072 156.233965 
L 185.368277 155.735797 
L 185.948481 155.235974 
L 186.528685 154.734515 
L 187.108889 154.231444 
L 187.689093 153.726781 
L 188.269297 153.220548 
L 188.849502 152.712768 
L 189.429706 152.203462 
L 190.00991 151.692652 
L 190.590114 151.180361 
L 191.170318 150.66661 
L 191.750522 150.151423 
L 192.330726 149.634821 
L 192.910931 149.116828 
L 193.491135 148.597466 
L 194.071339 148.076758 
L 194.651543 147.554728 
L 195.231747 147.031397 
L 195.811951 146.506789 
L 196.392156 145.980928 
L 196.97236 145.453837 
L 197.552564 144.925539 
L 198.132768 144.396058 
L 198.712972 143.865417 
L 199.293176 143.33364 
L 199.87338 142.800751 
L 200.453585 142.266773 
L 201.033789 141.731731 
L 201.613993 141.195648 
L 202.194197 140.658549 
L 202.774401 140.120457 
L 203.354605 139.581397 
L 203.93481 139.041393 
L 204.515014 138.50047 
L 205.095218 137.958651 
L 205.675422 137.415961 
L 206.255626 136.872425 
L 206.83583 136.328067 
L 207.416035 135.782912 
L 207.996239 135.236984 
L 208.576443 134.690308 
L 209.156647 134.142909 
L 209.736851 133.594811 
L 210.317055 133.046039 
L 210.897259 132.496619 
L 211.477464 131.946574 
L 212.057668 131.39593 
L 212.637872 130.844712 
L 213.218076 130.292945 
L 213.79828 129.740654 
L 214.378484 129.187863 
L 214.958689 128.634598 
L 215.538893 128.080883 
L 216.119097 127.526745 
L 216.699301 126.972207 
L 217.279505 126.417296 
L 217.859709 125.862035 
L 218.439913 125.306451 
L 219.020118 124.750568 
L 219.600322 124.194412 
L 220.180526 123.638007 
L 220.76073 123.081379 
L 221.340934 122.524553 
L 221.921138 121.967553 
L 222.501343 121.410406 
L 223.081547 120.853136 
L 223.661751 120.295768 
L 224.241955 119.738327 
L 224.822159 119.180839 
L 225.402363 118.623328 
L 225.982568 118.06582 
L 226.562772 117.508339 
L 227.142976 116.95091 
L 227.72318 116.393559 
L 228.303384 115.836311 
L 228.883588 115.279189 
L 229.463792 114.72222 
L 230.043997 114.165427 
L 230.624201 113.608837 
L 231.204405 113.052472 
L 231.784609 112.49636 
L 232.364813 111.940523 
L 232.945017 111.384986 
L 233.525222 110.829775 
L 234.105426 110.274914 
L 234.68563 109.720427 
L 235.265834 109.166338 
L 235.846038 108.612673 
L 236.426242 108.059455 
L 237.006446 107.506709 
L 237.586651 106.954459 
L 238.166855 106.402729 
L 238.747059 105.851544 
L 239.327263 105.300926 
L 239.907467 104.750902 
L 240.487671 104.201493 
L 241.067876 103.652725 
L 241.64808 103.10462 
L 242.228284 102.557203 
L 242.808488 102.010498 
L 243.388692 101.464527 
L 243.968896 100.919314 
L 244.549101 100.374884 
L 245.129305 99.831258 
L 245.709509 99.28846 
L 246.289713 98.746514 
L 246.869917 98.205443 
L 247.450121 97.665269 
L 248.030325 97.126015 
L 248.61053 96.587705 
L 249.190734 96.050361 
L 249.770938 95.514005 
L 250.351142 94.97866 
L 250.931346 94.444349 
L 251.51155 93.911093 
L 252.091755 93.378916 
L 252.671959 92.847839 
L 253.252163 92.317884 
L 253.832367 91.789073 
L 254.412571 91.261428 
L 254.992775 90.734971 
L 255.572979 90.209723 
L 256.153184 89.685706 
L 256.733388 89.162941 
L 257.313592 88.641449 
L 257.893796 88.121252 
L 258.474 87.602371 
L 259.054204 87.084826 
L 259.634409 86.568638 
L 260.214613 86.053828 
L 260.794817 85.540417 
L 261.375021 85.028425 
L 261.955225 84.517872 
L 262.535429 84.008778 
L 263.115634 83.501164 
L 263.695838 82.995049 
L 264.276042 82.490454 
L 264.856246 81.987397 
L 265.43645 81.485899 
L 266.016654 80.985979 
L 266.596858 80.487655 
L 267.177063 79.990948 
L 267.757267 79.495876 
L 268.337471 79.002458 
L 268.917675 78.510713 
L 269.497879 78.020659 
L 270.078083 77.532315 
L 270.658288 77.045699 
L 271.238492 76.56083 
L 271.818696 76.077724 
L 272.3989 75.596401 
L 272.979104 75.116877 
L 273.559308 74.639171 
L 274.139512 74.163299 
L 274.719717 73.68928 
L 275.299921 73.217129 
L 275.880125 72.746865 
L 276.460329 72.278503 
L 277.040533 71.812061 
L 277.620737 71.347555 
L 278.200942 70.885002 
L 278.781146 70.424417 
L 279.36135 69.965817 
L 279.941554 69.509217 
L 280.521758 69.054633 
L 281.101962 68.602081 
L 281.682167 68.151576 
L 282.262371 67.703133 
L 282.842575 67.256768 
L 283.422779 66.812495 
L 284.002983 66.370329 
L 284.583187 65.930284 
L 285.163391 65.492376 
L 285.743596 65.056618 
L 286.3238 64.623024 
L 286.904004 64.191608 
L 287.484208 63.762384 
L 288.064412 63.335365 
L 288.644616 62.910565 
L 289.224821 62.487997 
L 289.805025 62.067674 
L 290.385229 61.64961 
L 290.965433 61.233815 
L 291.545637 60.820304 
L 292.125841 60.409088 
L 292.706045 60.00018 
L 293.28625 59.593592 
L 293.866454 59.189334 
L 294.446658 58.78742 
L 295.026862 58.387861 
L 295.607066 57.990667 
L 296.18727 57.59585 
L 296.767475 57.20342 
L 297.347679 56.813389 
L 297.927883 56.425768 
L 298.508087 56.040565 
L 299.088291 55.657792 
L 299.668495 55.277459 
L 300.2487 54.899575 
L 300.828904 54.52415 
L 301.409108 54.151194 
L 301.989312 53.780716 
L 302.569516 53.412724 
L 303.14972 53.047228 
L 303.729924 52.684236 
L 304.310129 52.323757 
L 304.890333 51.965799 
L 305.470537 51.610371 
L 306.050741 51.25748 
L 306.630945 50.907135 
L 307.211149 50.559341 
L 307.791354 50.214108 
L 308.371558 49.871442 
L 308.951762 49.531351 
L 309.531966 49.19384 
L 310.11217 48.858917 
L 310.692374 48.526588 
L 311.272578 48.196859 
L 311.852783 47.869736 
L 312.432987 47.545226 
L 313.013191 47.223333 
L 313.593395 46.904064 
L 314.173599 46.587423 
L 314.753803 46.273416 
L 315.334008 45.962047 
L 315.914212 45.653321 
L 316.494416 45.347242 
L 317.07462 45.043816 
L 317.654824 44.743045 
L 318.235028 44.444935 
L 318.815233 44.149487 
L 319.395437 43.856707 
L 319.975641 43.566597 
L 320.555845 43.27916 
L 321.136049 42.994399 
L 321.716253 42.712317 
L 322.296457 42.432917 
L 322.876662 42.1562 
L 323.456866 41.882169 
L 324.03707 41.610825 
L 324.617274 41.342171 
L 325.197478 41.076207 
L 325.777682 40.812936 
L 326.357887 40.552358 
L 326.938091 40.294473 
L 327.518295 40.039283 
L 328.098499 39.786789 
L 328.678703 39.536989 
L 329.258907 39.289885 
L 329.839111 39.045476 
L 330.419316 38.803762 
L 330.99952 38.564743 
L 331.579724 38.328417 
L 332.159928 38.094783 
L 332.740132 37.86384 
L 333.320336 37.635588 
L 333.900541 37.410024 
L 334.480745 37.187146 
L 335.060949 36.966953 
L 335.641153 36.749442 
L 336.221357 36.53461 
L 336.801561 36.322456 
L 337.381766 36.112975 
L 337.96197 35.906166 
L 338.542174 35.702025 
L 339.122378 35.500548 
L 339.702582 35.301731 
L 340.282786 35.105571 
L 340.86299 34.912063 
L 341.443195 34.721203 
L 342.023399 34.532987 
L 342.603603 34.347409 
L 343.183807 34.164465 
L 343.764011 33.984148 
L 344.344215 33.806455 
L 344.92442 33.631378 
L 345.504624 33.458913 
L 346.084828 33.289052 
L 346.665032 33.12179 
L 347.245236 32.95712 
L 347.82544 32.795035 
L 348.405644 32.635527 
L 348.985849 32.478591 
L 349.566053 32.324217 
L 350.146257 32.172399 
L 350.726461 32.023128 
L 351.306665 31.876396 
L 351.886869 31.732195 
L 352.467074 31.590516 
L 353.047278 31.451349 
L 353.627482 31.314687 
L 354.207686 31.180518 
L 354.78789 31.048834 
L 355.368094 30.919625 
L 355.948299 30.79288 
L 356.528503 30.668589 
L 357.108707 30.546741 
L 357.688911 30.427326 
L 358.269115 30.310332 
L 358.849319 30.195747 
L 359.429523 30.08356 
L 360.009728 29.973759 
L 360.589932 29.866332 
L 361.170136 29.761265 
L 361.75034 29.658547 
L 362.330544 29.558164 
L 362.910748 29.460102 
L 363.490953 29.364349 
L 364.071157 29.270889 
L 364.651361 29.179709 
L 365.231565 29.090795 
L 365.811769 29.00413 
L 366.391973 28.919701 
L 366.972177 28.837492 
L 367.552382 28.757486 
L 368.132586 28.679668 
L 368.71279 28.604021 
L 369.292994 28.530529 
L 369.873198 28.459174 
L 370.453402 28.389939 
L 371.033607 28.322805 
L 371.613811 28.257756 
L 372.194015 28.194772 
L 372.774219 28.133833 
L 373.354423 28.074922 
L 373.934627 28.018018 
L 374.514832 27.963101 
L 375.095036 27.910151 
L 375.67524 27.859145 
L 376.255444 27.810064 
L 376.835648 27.762885 
L 377.415852 27.717586 
L 377.996056 27.674143 
L 378.576261 27.632534 
L 379.156465 27.592735 
L 379.736669 27.554721 
L 380.316873 27.518467 
L 380.897077 27.483948 
L 381.477281 27.451137 
L 382.057486 27.420008 
L 382.63769 27.390533 
L 383.217894 27.362684 
L 383.798098 27.336433 
L 384.378302 27.311749 
L 384.958506 27.288602 
L 385.53871 27.266961 
L 386.118915 27.246793 
L 386.699119 27.228066 
L 387.279323 27.210745 
L 387.859527 27.194795 
L 388.439731 27.180179 
L 389.019935 27.166859 
L 389.60014 27.154797 
L 390.180344 27.143951 
L 390.760548 27.13428 
L 391.340752 27.125738 
L 391.920956 27.118278 
L 392.50116 27.111854 
L 393.081365 27.106411 
L 393.661569 27.101896 
L 394.241773 27.098251 
L 394.821977 27.09541 
L 395.402181 27.093305 
L 395.982385 27.09186 
L 396.562589 27.090985 
L 397.142794 27.090575 
L 397.72016 27.090487 
" style="fill:none;stroke:#000000;stroke-linecap:square;stroke-width:2;"/>
   </g>
   <g id="patch_3">
    <path d="M 40.723522 233.110711 
L 40.723522 17.28 
" style="fill:none;stroke:#000000;stroke-linecap:square;stroke-linejoin:miter;stroke-width:0.8;"/>
   </g>
   <g id="patch_4">
    <path d="M 414.72 233.110711 
L 414.72 17.28 
" style="fill:none;stroke:#000000;stroke-linecap:square;stroke-linejoin:miter;stroke-width:0.8;"/>
   </g>
   <g id="patch_5">
    <path d="M 40.723522 233.110711 
L 414.72 233.110711 
" style="fill:none;stroke:#000000;stroke-linecap:square;stroke-linejoin:miter;stroke-width:0.8;"/>
   </g>
   <g id="patch_6">
    <path d="M 40.723522 17.28 
L 414.72 17.28 
" style="fill:none;stroke:#000000;stroke-linecap:square;stroke-linejoin:miter;stroke-width:0.8;"/>
   </g>
   <g id="legend_1">
    <g id="patch_7">
     <path d="M 322.321239 169.257148 
L 404.92 169.257148 
Q 407.72 169.257148 407.72 166.457148 
L 407.72 83.933563 
Q 407.72 81.133563 404.92 81.133563 
L 322.321239 81.133563 
Q 319.521239 81.133563 319.521239 83.933563 
L 319.521239 166.457148 
Q 319.521239 169.257148 322.321239 169.257148 
z
" style="fill:#ffffff;opacity:0.8;stroke:#cccccc;stroke-linejoin:miter;"/>
    </g>
    <g id="line2d_89">
     <path d="M 325.121239 92.471376 
L 353.121239 92.471376 
" style="fill:none;stroke:#e69900;stroke-linecap:square;stroke-width:2;"/>
    </g>
    <g id="line2d_90"/>
    <g id="text_14">
     <!-- $\theta$ -->
     <g transform="translate(364.321239 97.371376)scale(0.14 -0.14)">
      <defs>
       <path d="M 44.296875 50 
C 44.296875 60.140625 41.09375 70 32.90625 70 
C 18.90625 70 4 40.859375 4 18.984375 
C 4 14.40625 5 -1 15.5 -1 
C 29.09375 -1 44.296875 27.421875 44.296875 50 
z
M 14 36 
C 15.5 41.859375 17.59375 50.203125 21.59375 57.265625 
C 24.90625 63.21875 28.40625 67.984375 32.796875 67.984375 
C 36.09375 67.984375 38.296875 65.203125 38.296875 55.671875 
C 38.296875 52.09375 38 47.125 35.09375 36 
z
M 34.40625 33 
C 31.90625 23.25 29.796875 17 26.203125 10.734375 
C 23.296875 5.65625 19.796875 1 15.59375 1 
C 12.5 1 10 3.375 10 13.21875 
C 10 19.671875 11.59375 26.4375 13.203125 33 
z
" id="CMMI12-18"/>
      </defs>
      <use transform="scale(0.996264)" xlink:href="#CMMI12-18"/>
     </g>
    </g>
    <g id="line2d_91">
     <path d="M 325.121239 113.020751 
L 353.121239 113.020751 
" style="fill:none;stroke:#59b2e6;stroke-linecap:square;stroke-width:2;"/>
    </g>
    <g id="line2d_92"/>
    <g id="text_15">
     <!-- $\rho/\rho_{0}$ -->
     <g transform="translate(364.321239 117.920751)scale(0.14 -0.14)">
      <defs>
       <path d="M 3.09375 -16.953125 
C 3 -17.4375 2.796875 -18.03125 2.796875 -18.609375 
C 2.796875 -20.109375 4 -21.109375 5.5 -21.109375 
C 7 -21.109375 8.40625 -20.109375 9 -18.71875 
C 9.40625 -17.828125 12.203125 -6.09375 15.40625 6.078125 
C 17.40625 1.09375 21.09375 -1 25 -1 
C 36.296875 -1 49.09375 12.96875 49.09375 28.03125 
C 49.09375 38.703125 42.59375 44 35.703125 44 
C 26.90625 44 16.203125 34.90625 12.90625 21.640625 
z
M 24.90625 1 
C 18.09375 1 16.40625 8.875 16.40625 10.078125 
C 16.40625 10.671875 18.90625 20.140625 19.203125 21.640625 
C 24.296875 41.5 34.09375 41.984375 35.59375 41.984375 
C 40.09375 41.984375 42.59375 37.90625 42.59375 32.015625 
C 42.59375 26.9375 39.90625 17.046875 38.203125 12.859375 
C 35.203125 5.984375 30 1 24.90625 1 
z
" id="CMMI12-26"/>
      </defs>
      <use transform="scale(0.996264)" xlink:href="#CMMI12-26"/>
      <use transform="translate(50.314373 0)scale(0.996264)" xlink:href="#CMMI12-61"/>
      <use transform="translate(99.089292 0)scale(0.996264)" xlink:href="#CMMI12-26"/>
      <use transform="translate(149.403664 -14.943915)scale(0.697382)" xlink:href="#CMR17-48"/>
     </g>
    </g>
    <g id="line2d_93">
     <path d="M 325.121239 134.145487 
L 353.121239 134.145487 
" style="fill:none;stroke:#009980;stroke-linecap:square;stroke-width:2;"/>
    </g>
    <g id="line2d_94"/>
    <g id="text_16">
     <!-- $P/P_{0}$ -->
     <g transform="translate(364.321239 139.045487)scale(0.14 -0.14)">
      <defs>
       <path d="M 29.59375 31.59375 
L 46.40625 31.59375 
C 60.203125 31.59375 74 41.765625 74 53.125 
C 74 60.90625 67.40625 68 54.796875 68 
L 23.90625 68 
C 22 68 21.09375 68 21.09375 66.09375 
C 21.09375 65.09375 22 65.09375 23.5 65.09375 
C 29.59375 65.09375 29.59375 64.296875 29.59375 63.203125 
C 29.59375 63 29.59375 62.40625 29.203125 60.90625 
L 15.703125 7.359375 
C 14.796875 3.890625 14.59375 2.890625 7.59375 2.890625 
C 5.703125 2.890625 4.703125 2.890625 4.703125 1.09375 
C 4.703125 0 5.59375 0 6.203125 0 
C 8.09375 0 10.09375 0.1875 12 0.1875 
L 23.703125 0.1875 
C 25.59375 0.1875 27.703125 0 29.59375 0 
C 30.40625 0 31.5 0 31.5 1.890625 
C 31.5 2.890625 30.59375 2.890625 29.09375 2.890625 
C 23.09375 2.890625 23 3.59375 23 4.578125 
C 23 5.078125 23.09375 5.765625 23.203125 6.265625 
z
M 36.796875 61.203125 
C 37.703125 64.890625 38.09375 65.09375 42 65.09375 
L 51.90625 65.09375 
C 59.40625 65.09375 65.59375 62.703125 65.59375 55.21875 
C 65.59375 52.640625 64.296875 44.15625 59.703125 39.578125 
C 58 37.78125 53.203125 34 44.09375 34 
L 30 34 
z
" id="CMMI12-80"/>
      </defs>
      <use transform="scale(0.996264)" xlink:href="#CMMI12-80"/>
      <use transform="translate(71.006385 0)scale(0.996264)" xlink:href="#CMMI12-61"/>
      <use transform="translate(119.781304 0)scale(0.996264)" xlink:href="#CMMI12-80"/>
      <use transform="translate(182.658536 -14.943915)scale(0.697382)" xlink:href="#CMR17-48"/>
     </g>
    </g>
    <g id="line2d_95">
     <path d="M 325.121239 155.270224 
L 353.121239 155.270224 
" style="fill:none;stroke:#000000;stroke-linecap:square;stroke-width:2;"/>
    </g>
    <g id="line2d_96"/>
    <g id="text_17">
     <!-- $M_{r}/M$ -->
     <g transform="translate(364.321239 160.170224)scale(0.14 -0.14)">
      <defs>
       <path d="M 90.796875 60.71875 
C 91.703125 64.09375 91.90625 65.09375 99 65.09375 
C 100.90625 65.09375 101.796875 65.09375 101.796875 66.984375 
C 101.796875 68 101.09375 68 99.203125 68 
L 87.203125 68 
C 84.703125 68 84.59375 67.890625 83.5 66.296875 
L 47 8.859375 
L 39.5 65.796875 
C 39.203125 68 39.09375 68 36.5 68 
L 24.09375 68 
C 22.203125 68 21.296875 68 21.296875 66.09375 
C 21.296875 65.09375 22.203125 65.09375 23.703125 65.09375 
C 29.796875 65.09375 29.796875 64.296875 29.796875 63.203125 
C 29.796875 63 29.796875 62.40625 29.40625 60.90625 
L 16.59375 10.15625 
C 15.40625 5.375 13.09375 3.1875 6.40625 2.890625 
C 6.09375 2.890625 4.90625 2.796875 4.90625 1.09375 
C 4.90625 0 5.796875 0 6.203125 0 
C 8.203125 0 13.296875 0.1875 15.296875 0.1875 
L 20.09375 0.1875 
C 21.5 0.1875 23.203125 0 24.59375 0 
C 25.296875 0 26.40625 0 26.40625 1.890625 
C 26.40625 2.796875 25.40625 2.890625 25 2.890625 
C 21.703125 2.984375 18.5 3.59375 18.5 7.171875 
C 18.5 8.171875 18.5 8.265625 18.90625 9.65625 
L 32.703125 64.5 
L 32.796875 64.5 
L 41.09375 2.6875 
C 41.40625 0.296875 41.5 0 42.40625 0 
C 43.5 0 44 0.796875 44.5 1.6875 
L 84.703125 64.984375 
L 84.796875 64.984375 
L 70.296875 7.375 
C 69.40625 3.890625 69.203125 2.890625 62.203125 2.890625 
C 60.296875 2.890625 59.296875 2.890625 59.296875 1.09375 
C 59.296875 0 60.203125 0 60.796875 0 
C 62.5 0 64.5 0.1875 66.203125 0.1875 
L 78 0.1875 
C 79.703125 0.1875 81.796875 0 83.5 0 
C 84.296875 0 85.40625 0 85.40625 1.890625 
C 85.40625 2.890625 84.5 2.890625 83 2.890625 
C 76.90625 2.890625 76.90625 3.6875 76.90625 4.6875 
C 76.90625 4.78125 76.90625 5.484375 77.09375 6.28125 
z
" id="CMMI12-77"/>
       <path d="M 38.90625 41.140625 
C 35.796875 40.59375 34.203125 38.390625 34.203125 36.1875 
C 34.203125 33.796875 36.09375 32.984375 37.5 32.984375 
C 40.296875 32.984375 42.59375 35.390625 42.59375 38.390625 
C 42.59375 41.421875 39.5 44 34.5 44 
C 30.5 44 25.90625 42.1875 21.703125 36.484375 
C 21 41.5625 17 44 13 44 
C 9.09375 44 7.09375 41.28125 5.90625 39.1875 
C 4.203125 35.59375 2.703125 29.5625 2.703125 29.0625 
C 2.703125 28.65625 3.09375 28.140625 3.796875 28.140625 
C 4.59375 28.140625 4.703125 28.25 5.296875 30.578125 
C 6.796875 36.59375 8.703125 41.984375 12.703125 41.984375 
C 15.09375 41.984375 15.796875 40.6875 15.796875 37.796875 
C 15.796875 35.59375 14.796875 31.6875 14.09375 28.546875 
L 11.296875 17.65625 
C 10.90625 15.734375 9.796875 11.1875 9.296875 9.375 
C 8.59375 6.75 7.5 2 7.5 1.5 
C 7.5 0.09375 8.59375 -1 10.09375 -1 
C 11.203125 -1 13.09375 -0.3125 13.703125 1.703125 
C 14 2.5 17.703125 17.75 18.296875 20.078125 
C 18.796875 22.296875 19.40625 24.40625 19.90625 26.640625 
C 20.296875 28.046875 20.703125 29.65625 21 30.96875 
C 21.296875 31.875 24 36.796875 26.5 38.984375 
C 27.703125 40.09375 30.296875 41.984375 34.40625 41.984375 
C 36 41.984375 37.59375 41.78125 38.90625 41.140625 
z
" id="CMMI12-114"/>
      </defs>
      <use transform="scale(0.996264)" xlink:href="#CMMI12-77"/>
      <use transform="translate(94.373425 -14.943915)scale(0.697382)" xlink:href="#CMMI12-114"/>
      <use transform="translate(127.540826 0)scale(0.996264)" xlink:href="#CMMI12-61"/>
      <use transform="translate(170.896309 0)scale(0.996264)" xlink:href="#CMMI12-77"/>
     </g>
    </g>
   </g>
  </g>
 </g>
 <defs>
  <clipPath id="pa7028090f7">
   <rect height="215.830711" width="373.996478" x="40.723522" y="17.28"/>
  </clipPath>
 </defs>
</svg>
