<?xml version="1.0" encoding="utf-8" standalone="no"?>
<!DOCTYPE svg PUBLIC "-//W3C//DTD SVG 1.1//EN"
  "http://www.w3.org/Graphics/SVG/1.1/DTD/svg11.dtd">
<!-- Created with matplotlib (https://matplotlib.org/) -->
<svg height="288pt" version="1.1" viewBox="0 0 432 288" width="432pt" xmlns="http://www.w3.org/2000/svg" xmlns:xlink="http://www.w3.org/1999/xlink">
 <metadata>
  <rdf:RDF xmlns:cc="http://creativecommons.org/ns#" xmlns:dc="http://purl.org/dc/elements/1.1/" xmlns:rdf="http://www.w3.org/1999/02/22-rdf-syntax-ns#">
   <cc:Work>
    <dc:type rdf:resource="http://purl.org/dc/dcmitype/StillImage"/>
    <dc:date>2020-11-10T14:43:53.011551</dc:date>
    <dc:format>image/svg+xml</dc:format>
    <dc:creator>
     <cc:Agent>
      <dc:title>Matplotlib v3.3.2, https://matplotlib.org/</dc:title>
     </cc:Agent>
    </dc:creator>
   </cc:Work>
  </rdf:RDF>
 </metadata>
 <defs>
  <style type="text/css">*{stroke-linecap:butt;stroke-linejoin:round;}</style>
 </defs>
 <g id="figure_1">
  <g id="patch_1">
   <path d="M 0 288 
L 432 288 
L 432 0 
L 0 0 
z
" style="fill:#ffffff;"/>
  </g>
  <g id="axes_1">
   <g id="patch_2">
    <path d="M 73.061743 233.110711 
L 414.72 233.110711 
L 414.72 17.28 
L 73.061743 17.28 
z
" style="fill:#ffffff;"/>
   </g>
   <g id="line2d_1">
    <path clip-path="url(#p9c5c80b187)" d="M 73.061743 32.696479 
L 73.403743 32.704163 
L 73.745743 32.727211 
L 74.087743 32.76562 
L 74.429744 32.819383 
L 74.771744 32.88849 
L 75.113744 32.972929 
L 75.455744 33.072685 
L 75.797745 33.18774 
L 76.139745 33.318073 
L 76.481745 33.463662 
L 76.823745 33.624479 
L 77.165746 33.800496 
L 77.507746 33.991682 
L 77.849746 34.198003 
L 78.191746 34.41942 
L 78.533747 34.655896 
L 78.875747 34.907387 
L 79.217747 35.173849 
L 79.559747 35.455233 
L 79.901748 35.75149 
L 80.243748 36.062566 
L 80.585748 36.388407 
L 80.927748 36.728953 
L 81.269749 37.084144 
L 81.611749 37.453916 
L 81.953749 37.838204 
L 82.295749 38.236938 
L 82.63775 38.650048 
L 82.97975 39.07746 
L 83.32175 39.519098 
L 83.663751 39.974882 
L 84.005751 40.444732 
L 84.347751 40.928564 
L 84.689751 41.426292 
L 85.031752 41.937827 
L 85.373752 42.463078 
L 85.715752 43.001952 
L 86.057752 43.554353 
L 86.399753 44.120182 
L 86.741753 44.699339 
L 87.083753 45.291722 
L 87.425753 45.897225 
L 87.767754 46.51574 
L 88.109754 47.147159 
L 88.451754 47.791369 
L 88.793754 48.448255 
L 89.135755 49.117703 
L 89.477755 49.799592 
L 89.819755 50.493804 
L 90.161755 51.200214 
L 90.503756 51.918698 
L 90.845756 52.64913 
L 91.187756 53.39138 
L 91.529756 54.145318 
L 91.871757 54.910811 
L 92.213757 55.687723 
L 92.555757 56.475919 
L 92.897757 57.275259 
L 93.239758 58.085604 
L 93.581758 58.906811 
L 93.923758 59.738735 
L 94.265759 60.581232 
L 94.607759 61.434153 
L 94.949759 62.297349 
L 95.291759 63.170669 
L 95.63376 64.053961 
L 95.97576 64.947071 
L 96.31776 65.849841 
L 96.65976 66.762116 
L 97.001761 67.683736 
L 97.343761 68.614541 
L 97.685761 69.55437 
L 98.027761 70.503058 
L 98.369762 71.460441 
L 98.711762 72.426354 
L 99.053762 73.400629 
L 99.395762 74.383097 
L 99.737763 75.37359 
L 100.079763 76.371935 
L 100.421763 77.377961 
L 100.763763 78.391494 
L 101.105764 79.412361 
L 101.447764 80.440385 
L 101.789764 81.47539 
L 102.131764 82.517199 
L 102.473765 83.565634 
L 102.815765 84.620514 
L 103.157765 85.681661 
L 103.499765 86.748892 
L 103.841766 87.822026 
L 104.183766 88.90088 
L 104.525766 89.985272 
L 104.867767 91.075017 
L 105.209767 92.16993 
L 105.551767 93.269826 
L 105.893767 94.37452 
L 106.235768 95.483824 
L 106.577768 96.597553 
L 106.919768 97.715518 
L 107.261768 98.837532 
L 107.603769 99.963407 
L 107.945769 101.092954 
L 108.287769 102.225985 
L 108.629769 103.362311 
L 108.97177 104.501741 
L 109.31377 105.644087 
L 109.65577 106.78916 
L 109.99777 107.936768 
L 110.339771 109.086724 
L 110.681771 110.238836 
L 111.023771 111.392914 
L 111.365771 112.54877 
L 111.707772 113.706214 
L 112.049772 114.865055 
L 112.391772 116.025104 
L 112.733772 117.186173 
L 113.075773 118.348071 
L 113.417773 119.510611 
L 113.759773 120.673604 
L 114.101773 121.836862 
L 114.443774 123.000197 
L 114.785774 124.163422 
L 115.127774 125.326351 
L 115.469774 126.488796 
L 115.811775 127.650572 
L 116.153775 128.811494 
L 116.495775 129.971377 
L 116.837776 131.130037 
L 117.179776 132.287292 
L 117.521776 133.442958 
L 117.863776 134.596854 
L 118.205777 135.748799 
L 118.547777 136.898613 
L 118.889777 138.046116 
L 119.231777 139.19113 
L 119.573778 140.333477 
L 119.915778 141.472982 
L 120.257778 142.609468 
L 120.599778 143.742761 
L 120.941779 144.872688 
L 121.283779 145.999076 
L 121.625779 147.121754 
L 121.967779 148.240553 
L 122.30978 149.355303 
L 122.65178 150.465837 
L 122.99378 151.571989 
L 123.33578 152.673593 
L 123.677781 153.770487 
L 124.019781 154.862507 
L 124.361781 155.949494 
L 124.703781 157.031286 
L 125.045782 158.107727 
L 125.387782 159.178661 
L 125.729782 160.243931 
L 126.071782 161.303384 
L 126.413783 162.356869 
L 126.755783 163.404235 
L 127.097783 164.445334 
L 127.439784 165.480018 
L 127.781784 166.508143 
L 128.123784 167.529564 
L 128.465784 168.544139 
L 128.807785 169.55173 
L 129.149785 170.552196 
L 129.491785 171.545402 
L 129.833785 172.531213 
L 130.175786 173.509496 
L 130.517786 174.48012 
L 130.859786 175.442956 
L 131.201786 176.397876 
L 131.543787 177.344757 
L 131.885787 178.283474 
L 132.227787 179.213906 
L 132.569787 180.135934 
L 132.911788 181.049441 
L 133.253788 181.954311 
L 133.595788 182.850432 
L 133.937788 183.737693 
L 134.279789 184.615985 
L 134.621789 185.4852 
L 134.963789 186.345235 
L 135.305789 187.195988 
L 135.64779 188.037357 
L 135.98979 188.869245 
L 136.33179 189.691556 
L 136.67379 190.504196 
L 137.015791 191.307074 
L 137.357791 192.100101 
L 137.699791 192.88319 
L 138.041792 193.656257 
L 138.383792 194.419218 
L 138.725792 195.171995 
L 139.067792 195.91451 
L 139.409793 196.646686 
L 139.751793 197.368452 
L 140.093793 198.079736 
L 140.435793 198.780471 
L 140.777794 199.470589 
L 141.119794 200.150028 
L 141.461794 200.818727 
L 141.803794 201.476627 
L 142.145795 202.12367 
L 142.487795 202.759804 
L 142.829795 203.384976 
L 143.171795 203.999138 
L 143.513796 204.602242 
L 143.855796 205.194244 
L 144.197796 205.775102 
L 144.539796 206.344777 
L 144.881797 206.903231 
L 145.223797 207.45043 
L 145.565797 207.986341 
L 145.907797 208.510935 
L 146.249798 209.024183 
L 146.591798 209.526061 
L 146.933798 210.016547 
L 147.275798 210.49562 
L 147.617799 210.963262 
L 147.959799 211.419458 
L 148.301799 211.864195 
L 148.643799 212.297463 
L 148.9858 212.719252 
L 149.3278 213.129558 
L 149.6698 213.528378 
L 150.011801 213.915709 
L 150.353801 214.291554 
L 150.695801 214.655916 
L 151.037801 215.008802 
L 151.379802 215.350219 
L 151.721802 215.680179 
L 152.063802 215.998695 
L 152.405802 216.305782 
L 152.747803 216.601459 
L 153.089803 216.885744 
L 153.431803 217.158661 
L 153.773803 217.420234 
L 154.115804 217.670491 
L 154.457804 217.90946 
L 154.799804 218.137173 
L 155.141804 218.353663 
L 155.483805 218.558967 
L 155.825805 218.753122 
L 156.167805 218.93617 
L 156.509805 219.108151 
L 156.851806 219.269111 
L 157.193806 219.419097 
L 157.535806 219.558158 
L 157.877806 219.686343 
L 158.219807 219.803708 
" style="fill:none;stroke:#e69900;stroke-linecap:square;stroke-opacity:0.4;stroke-width:2;"/>
   </g>
   <g id="line2d_2">
    <path clip-path="url(#p9c5c80b187)" d="M 158.561807 219.910306 
L 158.903807 220.006194 
L 159.245807 220.091433 
L 159.587808 220.166083 
L 159.929808 220.230207 
L 160.271808 220.283871 
L 160.613809 220.327141 
L 160.955809 220.360087 
L 161.297809 220.38278 
L 161.639809 220.395292 
L 161.98181 220.397699 
L 162.32381 220.390076 
L 162.66581 220.372502 
L 163.00781 220.345058 
L 163.349811 220.307824 
L 163.691811 220.260886 
L 164.033811 220.204327 
L 164.375811 220.138236 
L 164.717812 220.062701 
L 165.059812 219.977812 
L 165.401812 219.883662 
L 165.743812 219.780343 
L 166.085813 219.667952 
L 166.427813 219.546585 
L 166.769813 219.41634 
L 167.111813 219.277316 
L 167.453814 219.129616 
L 167.795814 218.973341 
L 168.137814 218.808595 
L 168.479814 218.635485 
L 168.821815 218.454116 
L 169.163815 218.264597 
L 169.505815 218.067036 
L 169.847815 217.861546 
L 170.189816 217.648237 
L 170.531816 217.427222 
L 170.873816 217.198615 
L 171.215817 216.962533 
L 171.557817 216.719091 
L 171.899817 216.468406 
L 172.241817 216.210598 
L 172.583818 215.945786 
L 172.925818 215.674091 
L 173.267818 215.395633 
L 173.609818 215.110536 
L 173.951819 214.818922 
L 174.293819 214.520917 
L 174.635819 214.216644 
L 174.977819 213.90623 
L 175.31982 213.589801 
L 175.66182 213.267485 
L 176.00382 212.939409 
L 176.34582 212.605703 
L 176.687821 212.266495 
L 177.029821 211.921916 
L 177.371821 211.572096 
L 177.713821 211.217166 
L 178.055822 210.857258 
L 178.397822 210.492503 
L 178.739822 210.123034 
L 179.081822 209.748984 
L 179.423823 209.370486 
L 179.765823 208.987674 
L 180.107823 208.600682 
L 180.449823 208.209644 
L 180.791824 207.814694 
L 181.133824 207.415966 
L 181.475824 207.013597 
L 181.817824 206.60772 
L 182.159825 206.198472 
L 182.501825 205.785986 
L 182.843825 205.370399 
L 183.185826 204.951845 
L 183.527826 204.53046 
L 183.869826 204.106379 
L 184.211826 203.679737 
L 184.553827 203.250669 
L 184.895827 202.819311 
L 185.237827 202.385797 
L 185.579827 201.95026 
L 185.921828 201.512837 
L 186.263828 201.07366 
L 186.605828 200.632864 
L 186.947828 200.190582 
L 187.289829 199.746947 
L 187.631829 199.302091 
L 187.973829 198.856148 
L 188.315829 198.409248 
L 188.65783 197.961524 
L 188.99983 197.513105 
L 189.34183 197.064123 
L 189.68383 196.614707 
L 190.025831 196.164987 
L 190.367831 195.71509 
L 190.709831 195.265145 
L 191.051831 194.815279 
L 191.393832 194.365618 
L 191.735832 193.916289 
L 192.077832 193.467416 
L 192.419832 193.019124 
L 192.761833 192.571535 
L 193.103833 192.124774 
L 193.445833 191.67896 
L 193.787834 191.234216 
L 194.129834 190.79066 
L 194.471834 190.348413 
L 194.813834 189.907591 
L 195.155835 189.468313 
L 195.497835 189.030694 
L 195.839835 188.594848 
L 196.181835 188.16089 
L 196.523836 187.728933 
L 196.865836 187.299087 
L 197.207836 186.871465 
L 197.549836 186.446174 
L 197.891837 186.023324 
L 198.233837 185.603021 
L 198.575837 185.185371 
L 198.917837 184.770478 
L 199.259838 184.358446 
L 199.601838 183.949376 
L 199.943838 183.54337 
L 200.285838 183.140526 
L 200.627839 182.740943 
L 200.969839 182.344716 
L 201.311839 181.951942 
L 201.653839 181.562714 
L 201.99584 181.177124 
L 202.33784 180.795264 
L 202.67984 180.417223 
L 203.02184 180.043088 
L 203.363841 179.672946 
L 203.705841 179.306883 
L 204.047841 178.944982 
L 204.389842 178.587325 
L 204.731842 178.233992 
L 205.073842 177.885062 
L 205.415842 177.540612 
L 205.757843 177.200719 
L 206.099843 176.865455 
L 206.441843 176.534894 
L 206.783843 176.209107 
L 207.125844 175.888162 
L 207.467844 175.572127 
L 207.809844 175.261069 
L 208.151844 174.95505 
L 208.493845 174.654135 
L 208.835845 174.358384 
L 209.177845 174.067855 
L 209.519845 173.782607 
L 209.861846 173.502695 
L 210.203846 173.228173 
L 210.545846 172.959093 
L 210.887846 172.695507 
L 211.229847 172.437462 
L 211.571847 172.185007 
L 211.913847 171.938186 
L 212.255847 171.697043 
L 212.597848 171.461619 
L 212.939848 171.231956 
L 213.281848 171.00809 
L 213.623848 170.790059 
L 213.965849 170.577898 
L 214.307849 170.371639 
L 214.649849 170.171314 
L 214.991849 169.976952 
L 215.33385 169.788581 
L 215.67585 169.606226 
L 216.01785 169.429912 
L 216.359851 169.259662 
L 216.701851 169.095495 
L 217.043851 168.937431 
L 217.385851 168.785486 
L 217.727852 168.639676 
L 218.069852 168.500015 
L 218.411852 168.366513 
L 218.753852 168.239182 
L 219.095853 168.118029 
L 219.437853 168.003062 
L 219.779853 167.894283 
L 220.121853 167.791698 
L 220.463854 167.695306 
L 220.805854 167.605108 
L 221.147854 167.521101 
L 221.489854 167.443282 
L 221.831855 167.371645 
L 222.173855 167.306183 
L 222.515855 167.246886 
L 222.857855 167.193744 
L 223.199856 167.146746 
L 223.541856 167.105877 
L 223.883856 167.07112 
L 224.225856 167.042461 
L 224.567857 167.019878 
L 224.909857 167.003353 
L 225.251857 166.992862 
L 225.593857 166.988383 
L 225.935858 166.98989 
L 226.277858 166.997356 
L 226.619858 167.010753 
L 226.961859 167.030051 
L 227.303859 167.055219 
L 227.645859 167.086224 
L 227.987859 167.123031 
L 228.32986 167.165605 
L 228.67186 167.213908 
L 229.01386 167.267902 
L 229.35586 167.327546 
L 229.697861 167.392798 
L 230.039861 167.463616 
L 230.381861 167.539955 
L 230.723861 167.62177 
L 231.065862 167.709013 
L 231.407862 167.801636 
L 231.749862 167.899589 
L 232.091862 168.002821 
L 232.433863 168.11128 
L 232.775863 168.224911 
L 233.117863 168.343661 
L 233.459863 168.467474 
L 233.801864 168.596291 
L 234.143864 168.730055 
L 234.485864 168.868706 
L 234.827864 169.012183 
L 235.169865 169.160425 
L 235.511865 169.313368 
L 235.853865 169.470949 
L 236.195865 169.633102 
L 236.537866 169.799762 
L 236.879866 169.970861 
L 237.221866 170.146331 
L 237.563867 170.326103 
L 237.905867 170.510108 
L 238.247867 170.698274 
L 238.589867 170.890529 
L 238.931868 171.086802 
L 239.273868 171.287017 
L 239.615868 171.491101 
L 239.957868 171.69898 
L 240.299869 171.910576 
L 240.641869 172.125813 
L 240.983869 172.344613 
L 241.325869 172.566899 
L 241.66787 172.792592 
L 242.00987 173.021612 
L 242.35187 173.253879 
L 242.69387 173.489312 
L 243.035871 173.72783 
L 243.377871 173.969351 
L 243.719871 174.213793 
" style="fill:none;stroke:#e69900;stroke-linecap:square;stroke-opacity:0.4;stroke-width:2;"/>
   </g>
   <g id="line2d_3">
    <path clip-path="url(#p9c5c80b187)" d="M 244.061871 174.461072 
L 244.403872 174.711105 
L 244.745872 174.963809 
L 245.087872 175.219098 
L 245.429872 175.476888 
L 245.771873 175.737095 
L 246.113873 175.999631 
L 246.455873 176.264412 
L 246.797873 176.531351 
L 247.139874 176.800362 
L 247.481874 177.071358 
L 247.823874 177.344251 
L 248.165874 177.618956 
L 248.507875 177.895383 
L 248.849875 178.173446 
L 249.191875 178.453058 
L 249.533876 178.734129 
L 249.875876 179.016572 
L 250.217876 179.3003 
L 250.559876 179.585224 
L 250.901877 179.871255 
L 251.243877 180.158307 
L 251.585877 180.44629 
L 251.927877 180.735117 
L 252.269878 181.0247 
L 252.611878 181.314951 
L 252.953878 181.605782 
L 253.295878 181.897107 
L 253.637879 182.188836 
L 253.979879 182.480884 
L 254.321879 182.773164 
L 254.663879 183.065588 
L 255.00588 183.35807 
L 255.34788 183.650524 
L 255.68988 183.942864 
L 256.03188 184.235005 
L 256.373881 184.526862 
L 256.715881 184.818349 
L 257.057881 185.109383 
L 257.399881 185.399879 
L 257.741882 185.689754 
L 258.083882 185.978925 
L 258.425882 186.267309 
L 258.767882 186.554825 
L 259.109883 186.841391 
L 259.451883 187.126926 
L 259.793883 187.41135 
L 260.135884 187.694582 
L 260.477884 187.976544 
L 260.819884 188.257158 
L 261.161884 188.536345 
L 261.503885 188.814028 
L 261.845885 189.090131 
L 262.187885 189.364579 
L 262.529885 189.637295 
L 262.871886 189.908206 
L 263.213886 190.177239 
L 263.555886 190.44432 
L 263.897886 190.709378 
L 264.239887 190.972341 
L 264.581887 191.233141 
L 264.923887 191.491706 
L 265.265887 191.747969 
L 265.607888 192.001861 
L 265.949888 192.253318 
L 266.291888 192.502271 
L 266.633888 192.748658 
L 266.975889 192.992413 
L 267.317889 193.233475 
L 267.659889 193.471781 
L 268.001889 193.70727 
L 268.34389 193.939882 
L 268.68589 194.169558 
L 269.02789 194.396242 
L 269.36989 194.619875 
L 269.711891 194.840402 
L 270.053891 195.057769 
L 270.395891 195.271922 
L 270.737891 195.482809 
L 271.079892 195.690378 
L 271.421892 195.894579 
L 271.763892 196.095363 
L 272.105893 196.292683 
L 272.447893 196.486491 
L 272.789893 196.676741 
L 273.131893 196.86339 
L 273.473894 197.046395 
L 273.815894 197.225712 
L 274.157894 197.401303 
L 274.499894 197.573125 
L 274.841895 197.741143 
L 275.183895 197.905317 
L 275.525895 198.065613 
L 275.867895 198.221995 
L 276.209896 198.374431 
L 276.551896 198.522888 
L 276.893896 198.667334 
L 277.235896 198.807741 
L 277.577897 198.94408 
L 277.919897 199.076323 
L 278.261897 199.204445 
L 278.603897 199.328422 
L 278.945898 199.44823 
L 279.287898 199.563846 
L 279.629898 199.675251 
L 279.971898 199.782424 
L 280.313899 199.885347 
L 280.655899 199.984005 
L 280.997899 200.07838 
L 281.339899 200.168459 
L 281.6819 200.254229 
L 282.0239 200.335677 
L 282.3659 200.412794 
L 282.707901 200.485571 
L 283.049901 200.553999 
L 283.391901 200.618072 
L 283.733901 200.677784 
L 284.075902 200.733133 
L 284.417902 200.784114 
L 284.759902 200.830727 
L 285.101902 200.872972 
L 285.443903 200.910849 
L 285.785903 200.94436 
L 286.127903 200.973511 
L 286.469903 200.998305 
L 286.811904 201.018749 
L 287.153904 201.034849 
L 287.495904 201.046616 
L 287.837904 201.054058 
L 288.179905 201.057187 
L 288.521905 201.056015 
L 288.863905 201.050555 
L 289.205905 201.040823 
L 289.547906 201.026835 
L 289.889906 201.008607 
L 290.231906 200.986158 
L 290.573906 200.959507 
L 290.915907 200.928676 
L 291.257907 200.893686 
L 291.599907 200.854559 
L 291.941907 200.811321 
L 292.283908 200.763997 
L 292.625908 200.712612 
L 292.967908 200.657195 
L 293.309909 200.597774 
L 293.651909 200.534378 
L 293.993909 200.467039 
L 294.335909 200.395788 
L 294.67791 200.320659 
L 295.01991 200.241684 
L 295.36191 200.1589 
L 295.70391 200.072341 
L 296.045911 199.982046 
L 296.387911 199.888051 
L 296.729911 199.790397 
L 297.071911 199.689122 
L 297.413912 199.584267 
L 297.755912 199.475875 
L 298.097912 199.363988 
L 298.439912 199.24865 
L 298.781913 199.129904 
L 299.123913 199.007797 
L 299.465913 198.882374 
L 299.807913 198.753683 
L 300.149914 198.621772 
L 300.491914 198.486688 
L 300.833914 198.348482 
L 301.175914 198.207204 
L 301.517915 198.062905 
L 301.859915 197.915636 
L 302.201915 197.76545 
L 302.543915 197.6124 
L 302.885916 197.45654 
L 303.227916 197.297925 
L 303.569916 197.136609 
L 303.911916 196.972649 
L 304.253917 196.806101 
L 304.595917 196.637023 
L 304.937917 196.465471 
L 305.279918 196.291503 
L 305.621918 196.11518 
L 305.963918 195.936559 
L 306.305918 195.755702 
L 306.647919 195.572667 
L 306.989919 195.387516 
L 307.331919 195.20031 
L 307.673919 195.011111 
L 308.01592 194.819981 
L 308.35792 194.626982 
L 308.69992 194.432178 
L 309.04192 194.23563 
L 309.383921 194.037404 
L 309.725921 193.837562 
L 310.067921 193.63617 
L 310.409921 193.43329 
L 310.751922 193.228989 
L 311.093922 193.023332 
L 311.435922 192.816382 
L 311.777922 192.608207 
L 312.119923 192.398871 
L 312.461923 192.18844 
L 312.803923 191.97698 
L 313.145923 191.764557 
L 313.487924 191.551237 
L 313.829924 191.337087 
L 314.171924 191.122173 
L 314.513924 190.90656 
L 314.855925 190.690317 
L 315.197925 190.473508 
L 315.539925 190.2562 
L 315.881926 190.038461 
L 316.223926 189.820355 
L 316.565926 189.601949 
L 316.907926 189.38331 
L 317.249927 189.164503 
L 317.591927 188.945595 
L 317.933927 188.72665 
L 318.275927 188.507736 
L 318.617928 188.288917 
L 318.959928 188.070258 
L 319.301928 187.851825 
L 319.643928 187.633683 
L 319.985929 187.415895 
L 320.327929 187.198526 
L 320.669929 186.981641 
L 321.011929 186.765302 
L 321.35393 186.549574 
L 321.69593 186.334519 
L 322.03793 186.1202 
L 322.37993 185.906679 
L 322.721931 185.694019 
L 323.063931 185.482279 
L 323.405931 185.271523 
L 323.747931 185.06181 
L 324.089932 184.8532 
L 324.431932 184.645753 
L 324.773932 184.439528 
L 325.115932 184.234584 
L 325.457933 184.030979 
L 325.799933 183.828771 
L 326.141933 183.628016 
L 326.483934 183.428772 
L 326.825934 183.231093 
L 327.167934 183.035036 
L 327.509934 182.840654 
L 327.851935 182.648002 
L 328.193935 182.457134 
L 328.535935 182.268101 
L 328.877935 182.080956 
L 329.219936 181.895751 
" style="fill:none;stroke:#59b2e6;stroke-linecap:square;stroke-opacity:0.4;stroke-width:2;"/>
   </g>
   <g id="line2d_4">
    <path clip-path="url(#p9c5c80b187)" d="M 329.561936 181.712536 
L 329.903936 181.53136 
L 330.245936 181.352274 
L 330.587937 181.175325 
L 330.929937 181.000561 
L 331.271937 180.82803 
L 331.613937 180.657777 
L 331.955938 180.489848 
L 332.297938 180.324287 
L 332.639938 180.161139 
L 332.981938 180.000445 
L 333.323939 179.842248 
L 333.665939 179.686591 
L 334.007939 179.533511 
L 334.349939 179.383051 
L 334.69194 179.235247 
L 335.03394 179.090139 
L 335.37594 178.947762 
L 335.71794 178.808153 
L 336.059941 178.671347 
L 336.401941 178.537378 
L 336.743941 178.406279 
L 337.085941 178.278083 
L 337.427942 178.152822 
L 337.769942 178.030524 
L 338.111942 177.911221 
L 338.453943 177.794941 
L 338.795943 177.68171 
L 339.137943 177.571556 
L 339.479943 177.464505 
L 339.821944 177.360581 
L 340.163944 177.259807 
L 340.505944 177.162206 
L 340.847944 177.067801 
L 341.189945 176.976611 
L 341.531945 176.888656 
L 341.873945 176.803955 
L 342.215945 176.722526 
L 342.557946 176.644384 
L 342.899946 176.569547 
L 343.241946 176.498027 
L 343.583946 176.42984 
L 343.925947 176.364997 
L 344.267947 176.30351 
L 344.609947 176.245389 
L 344.951947 176.190644 
L 345.293948 176.139283 
L 345.635948 176.091314 
L 345.977948 176.046743 
L 346.319948 176.005576 
L 346.661949 175.967816 
L 347.003949 175.933467 
L 347.345949 175.902532 
L 347.687949 175.875011 
L 348.02995 175.850905 
L 348.37195 175.830212 
L 348.71395 175.812932 
L 349.055951 175.799062 
L 349.397951 175.788597 
L 349.739951 175.781532 
L 350.081951 175.777863 
L 350.423952 175.777581 
L 350.765952 175.78068 
L 351.107952 175.78715 
L 351.449952 175.796982 
L 351.791953 175.810165 
L 352.133953 175.826686 
L 352.475953 175.846534 
L 352.817953 175.869695 
L 353.159954 175.896153 
L 353.501954 175.925894 
L 353.843954 175.958901 
L 354.185954 175.995155 
L 354.527955 176.03464 
L 354.869955 176.077336 
L 355.211955 176.123221 
L 355.553955 176.172276 
L 355.895956 176.224478 
L 356.237956 176.279804 
L 356.579956 176.33823 
L 356.921956 176.399732 
L 357.263957 176.464283 
L 357.605957 176.531858 
L 357.947957 176.60243 
L 358.289957 176.675969 
L 358.631958 176.752448 
L 358.973958 176.831836 
L 359.315958 176.914103 
L 359.657959 176.999217 
L 359.999959 177.087147 
L 360.341959 177.177859 
L 360.683959 177.27132 
L 361.02596 177.367495 
L 361.36796 177.466349 
L 361.70996 177.567847 
L 362.05196 177.671951 
L 362.393961 177.778625 
L 362.735961 177.88783 
L 363.077961 177.999528 
L 363.419961 178.113679 
L 363.761962 178.230244 
L 364.103962 178.349181 
L 364.445962 178.47045 
L 364.787962 178.594009 
L 365.129963 178.719815 
L 365.471963 178.847825 
L 365.813963 178.977996 
L 366.155963 179.110283 
L 366.497964 179.244642 
L 366.839964 179.381027 
L 367.181964 179.519394 
L 367.523964 179.659694 
L 367.865965 179.801883 
L 368.207965 179.945913 
L 368.549965 180.091735 
L 368.891965 180.239303 
L 369.233966 180.388567 
L 369.575966 180.539478 
L 369.917966 180.691988 
L 370.259966 180.846046 
L 370.601967 181.001603 
L 370.943967 181.158609 
L 371.285967 181.317011 
L 371.627968 181.476761 
L 371.969968 181.637805 
L 372.311968 181.800093 
L 372.653968 181.963573 
L 372.995969 182.128192 
L 373.337969 182.293899 
L 373.679969 182.46064 
L 374.021969 182.628363 
L 374.36397 182.797015 
L 374.70597 182.966543 
L 375.04797 183.136894 
L 375.38997 183.308013 
L 375.731971 183.479848 
L 376.073971 183.652345 
L 376.415971 183.82545 
L 376.757971 183.99911 
L 377.099972 184.17327 
L 377.441972 184.347877 
L 377.783972 184.522876 
L 378.125972 184.698214 
L 378.467973 184.873837 
L 378.809973 185.049691 
L 379.151973 185.225722 
L 379.493973 185.401875 
L 379.835974 185.578099 
L 380.177974 185.754338 
L 380.519974 185.930539 
L 380.861974 186.106649 
L 381.203975 186.282615 
L 381.545975 186.458383 
L 381.887975 186.6339 
L 382.229976 186.809114 
L 382.571976 186.983972 
L 382.913976 187.158421 
L 383.255976 187.33241 
L 383.597977 187.505886 
L 383.939977 187.678798 
L 384.281977 187.851094 
L 384.623977 188.022723 
L 384.965978 188.193635 
L 385.307978 188.363779 
L 385.649978 188.533105 
L 385.991978 188.701562 
L 386.333979 188.869102 
L 386.675979 189.035676 
L 387.017979 189.201234 
L 387.359979 189.365729 
L 387.70198 189.529112 
L 388.04398 189.691337 
L 388.38598 189.852355 
L 388.72798 190.012121 
L 389.069981 190.170589 
L 389.411981 190.327712 
L 389.753981 190.483446 
L 390.095981 190.637747 
L 390.437982 190.790569 
L 390.779982 190.94187 
L 391.121982 191.091606 
L 391.463982 191.239736 
L 391.805983 191.386216 
L 392.147983 191.531006 
L 392.489983 191.674066 
L 392.831984 191.815354 
L 393.173984 191.954832 
L 393.515984 192.092461 
L 393.857984 192.228202 
L 394.199985 192.362017 
L 394.541985 192.49387 
L 394.883985 192.623725 
L 395.225985 192.751546 
L 395.567986 192.877298 
L 395.909986 193.000946 
L 396.251986 193.122457 
L 396.593986 193.241799 
L 396.935987 193.358938 
L 397.277987 193.473845 
L 397.619987 193.586488 
L 397.961987 193.696836 
L 398.303988 193.804862 
L 398.645988 193.910536 
L 398.987988 194.013832 
L 399.329988 194.114721 
L 399.671989 194.213178 
L 400.013989 194.309178 
L 400.355989 194.402697 
L 400.697989 194.493709 
L 401.03999 194.582193 
L 401.38199 194.668127 
L 401.72399 194.751488 
L 402.06599 194.832257 
L 402.407991 194.910414 
L 402.749991 194.98594 
L 403.091991 195.058817 
L 403.433991 195.129028 
L 403.775992 195.196557 
L 404.117992 195.261387 
L 404.459992 195.323505 
L 404.801993 195.382897 
L 405.143993 195.439549 
L 405.485993 195.49345 
L 405.827993 195.544589 
L 406.169994 195.592954 
L 406.511994 195.638537 
L 406.853994 195.681329 
L 407.195994 195.721322 
L 407.537995 195.758508 
L 407.879995 195.792883 
L 408.221995 195.824441 
L 408.563995 195.853177 
L 408.905996 195.879089 
L 409.247996 195.902172 
L 409.589996 195.922426 
L 409.931996 195.93985 
L 410.273997 195.954444 
L 410.615997 195.966209 
L 410.957997 195.975145 
L 411.299997 195.981257 
L 411.641998 195.984546 
L 411.983998 195.985018 
L 412.325998 195.982678 
L 412.667998 195.97753 
L 413.009999 195.969584 
L 413.351999 195.958845 
L 413.693999 195.945322 
L 414.035999 195.929025 
L 414.378 195.909963 
L 414.72 195.888148 
" style="fill:none;stroke:#e69900;stroke-linecap:square;stroke-opacity:0.4;stroke-width:2;"/>
   </g>
   <g id="line2d_5">
    <defs>
     <path d="M 0 2 
C 0.530406 2 1.03916 1.789267 1.414214 1.414214 
C 1.789267 1.03916 2 0.530406 2 0 
C 2 -0.530406 1.789267 -1.03916 1.414214 -1.414214 
C 1.03916 -1.789267 0.530406 -2 0 -2 
C -0.530406 -2 -1.03916 -1.789267 -1.414214 -1.414214 
C -1.789267 -1.03916 -2 -0.530406 -2 0 
C -2 0.530406 -1.789267 1.03916 -1.414214 1.414214 
C -1.03916 1.789267 -0.530406 2 0 2 
z
" id="m5a4a4d5866" style="stroke:#59b2e6;"/>
    </defs>
    <g clip-path="url(#p9c5c80b187)">
     <use style="fill:#59b2e6;stroke:#59b2e6;" x="73.061743" xlink:href="#m5a4a4d5866" y="32.696479"/>
     <use style="fill:#59b2e6;stroke:#59b2e6;" x="158.476307" xlink:href="#m5a4a4d5866" y="219.884662"/>
     <use style="fill:#59b2e6;stroke:#59b2e6;" x="243.890871" xlink:href="#m5a4a4d5866" y="174.337083"/>
     <use style="fill:#59b2e6;stroke:#59b2e6;" x="329.305436" xlink:href="#m5a4a4d5866" y="181.849759"/>
     <use style="fill:#59b2e6;stroke:#59b2e6;" x="414.72" xlink:href="#m5a4a4d5866" y="195.888148"/>
    </g>
   </g>
   <g id="line2d_6">
    <defs>
     <path d="M 0 3.5 
C 0.928211 3.5 1.81853 3.131218 2.474874 2.474874 
C 3.131218 1.81853 3.5 0.928211 3.5 0 
C 3.5 -0.928211 3.131218 -1.81853 2.474874 -2.474874 
C 1.81853 -3.131218 0.928211 -3.5 0 -3.5 
C -0.928211 -3.5 -1.81853 -3.131218 -2.474874 -2.474874 
C -3.131218 -1.81853 -3.5 -0.928211 -3.5 0 
C -3.5 0.928211 -3.131218 1.81853 -2.474874 2.474874 
C -1.81853 3.131218 -0.928211 3.5 0 3.5 
z
" id="mfdedd4ecb0" style="stroke:#e69900;stroke-width:2;"/>
    </defs>
    <g clip-path="url(#p9c5c80b187)">
     <use style="fill-opacity:0;stroke:#e69900;stroke-width:2;" x="73.061743" xlink:href="#mfdedd4ecb0" y="32.696479"/>
     <use style="fill-opacity:0;stroke:#e69900;stroke-width:2;" x="158.476307" xlink:href="#mfdedd4ecb0" y="219.884662"/>
     <use style="fill-opacity:0;stroke:#e69900;stroke-width:2;" x="329.305436" xlink:href="#mfdedd4ecb0" y="181.849759"/>
    </g>
   </g>
   <g id="line2d_7">
    <g clip-path="url(#p9c5c80b187)">
     <use style="fill-opacity:0;stroke:#e69900;stroke-width:2;" x="158.476307" xlink:href="#mfdedd4ecb0" y="219.884662"/>
     <use style="fill-opacity:0;stroke:#e69900;stroke-width:2;" x="243.890871" xlink:href="#mfdedd4ecb0" y="174.337083"/>
     <use style="fill-opacity:0;stroke:#e69900;stroke-width:2;" x="414.72" xlink:href="#mfdedd4ecb0" y="195.888148"/>
    </g>
   </g>
   <g id="matplotlib.axis_1">
    <g id="xtick_1">
     <g id="line2d_8">
      <path clip-path="url(#p9c5c80b187)" d="M 73.061743 233.110711 
L 73.061743 17.28 
" style="fill:none;stroke:#b0b0b0;stroke-linecap:square;stroke-width:0.8;"/>
     </g>
     <g id="line2d_9">
      <defs>
       <path d="M 0 0 
L 0 -3.5 
" id="m4ab159814d" style="stroke:#000000;stroke-width:0.8;"/>
      </defs>
      <g>
       <use style="stroke:#000000;stroke-width:0.8;" x="73.061743" xlink:href="#m4ab159814d" y="233.110711"/>
      </g>
     </g>
     <g id="line2d_10">
      <defs>
       <path d="M 0 0 
L 0 3.5 
" id="m6823446ddd" style="stroke:#000000;stroke-width:0.8;"/>
      </defs>
      <g>
       <use style="stroke:#000000;stroke-width:0.8;" x="73.061743" xlink:href="#m6823446ddd" y="17.28"/>
      </g>
     </g>
     <g id="text_1">
      <!-- $\mathdefault{0}$ -->
      <g transform="translate(69.159749 247.6803)scale(0.16 -0.16)">
       <defs>
        <path d="M 42 31.84375 
C 42 37.96875 41.90625 48.421875 37.703125 56.453125 
C 34 63.484375 28.09375 66 22.90625 66 
C 18.09375 66 12 63.78125 8.203125 56.5625 
C 4.203125 49.015625 3.796875 39.671875 3.796875 31.84375 
C 3.796875 26.109375 3.90625 17.375 7 9.734375 
C 11.296875 -0.609375 19 -2 22.90625 -2 
C 27.5 -2 34.5 -0.109375 38.59375 9.4375 
C 41.59375 16.375 42 24.5 42 31.84375 
z
M 22.90625 -0.40625 
C 16.5 -0.40625 12.703125 5.125 11.296875 12.75 
C 10.203125 18.6875 10.203125 27.328125 10.203125 32.953125 
C 10.203125 40.6875 10.203125 47.109375 11.5 53.234375 
C 13.40625 61.78125 19 64.390625 22.90625 64.390625 
C 27 64.390625 32.296875 61.671875 34.203125 53.4375 
C 35.5 47.71875 35.59375 40.984375 35.59375 32.953125 
C 35.59375 26.421875 35.59375 18.375 34.40625 12.453125 
C 32.296875 1.5 26.40625 -0.40625 22.90625 -0.40625 
z
" id="CMR17-48"/>
       </defs>
       <use transform="scale(0.996264)" xlink:href="#CMR17-48"/>
      </g>
     </g>
    </g>
    <g id="xtick_2">
     <g id="line2d_11">
      <path clip-path="url(#p9c5c80b187)" d="M 135.181426 233.110711 
L 135.181426 17.28 
" style="fill:none;stroke:#b0b0b0;stroke-linecap:square;stroke-width:0.8;"/>
     </g>
     <g id="line2d_12">
      <g>
       <use style="stroke:#000000;stroke-width:0.8;" x="135.181426" xlink:href="#m4ab159814d" y="233.110711"/>
      </g>
     </g>
     <g id="line2d_13">
      <g>
       <use style="stroke:#000000;stroke-width:0.8;" x="135.181426" xlink:href="#m6823446ddd" y="17.28"/>
      </g>
     </g>
     <g id="text_2">
      <!-- $\mathdefault{1}$ -->
      <g transform="translate(131.279432 247.6803)scale(0.16 -0.16)">
       <defs>
        <path d="M 26.59375 63.796875 
C 26.59375 65.890625 26.5 66 25.09375 66 
C 21.203125 61.359375 15.296875 59.890625 9.703125 59.6875 
C 9.40625 59.6875 8.90625 59.6875 8.796875 59.5 
C 8.703125 59.296875 8.703125 59.09375 8.703125 57 
C 11.796875 57 17 57.59375 21 59.984375 
L 21 7.296875 
C 21 3.796875 20.796875 2.59375 12.203125 2.59375 
L 9.203125 2.59375 
L 9.203125 0 
C 14 0.09375 19 0.1875 23.796875 0.1875 
C 28.59375 0.1875 33.59375 0.09375 38.40625 0 
L 38.40625 2.59375 
L 35.40625 2.59375 
C 26.796875 2.59375 26.59375 3.6875 26.59375 7.296875 
z
" id="CMR17-49"/>
       </defs>
       <use transform="scale(0.996264)" xlink:href="#CMR17-49"/>
      </g>
     </g>
    </g>
    <g id="xtick_3">
     <g id="line2d_14">
      <path clip-path="url(#p9c5c80b187)" d="M 197.301109 233.110711 
L 197.301109 17.28 
" style="fill:none;stroke:#b0b0b0;stroke-linecap:square;stroke-width:0.8;"/>
     </g>
     <g id="line2d_15">
      <g>
       <use style="stroke:#000000;stroke-width:0.8;" x="197.301109" xlink:href="#m4ab159814d" y="233.110711"/>
      </g>
     </g>
     <g id="line2d_16">
      <g>
       <use style="stroke:#000000;stroke-width:0.8;" x="197.301109" xlink:href="#m6823446ddd" y="17.28"/>
      </g>
     </g>
     <g id="text_3">
      <!-- $\mathdefault{2}$ -->
      <g transform="translate(193.399115 247.6803)scale(0.16 -0.16)">
       <defs>
        <path d="M 41.703125 15.46875 
L 39.90625 15.46875 
C 38.90625 8.390625 38.09375 7.1875 37.703125 6.59375 
C 37.203125 5.796875 30 5.796875 28.59375 5.796875 
L 9.40625 5.796875 
C 13 9.6875 20 16.765625 28.5 24.9375 
C 34.59375 30.71875 41.703125 37.5 41.703125 47.390625 
C 41.703125 59.1875 32.296875 66 21.796875 66 
C 10.796875 66 4.09375 56.296875 4.09375 47.296875 
C 4.09375 43.390625 7 42.890625 8.203125 42.890625 
C 9.203125 42.890625 12.203125 43.484375 12.203125 46.984375 
C 12.203125 50.09375 9.59375 51 8.203125 51 
C 7.59375 51 7 50.890625 6.59375 50.6875 
C 8.5 59.1875 14.296875 63.390625 20.40625 63.390625 
C 29.09375 63.390625 34.796875 56.5 34.796875 47.390625 
C 34.796875 38.703125 29.703125 31.21875 24 24.734375 
L 4.09375 2.296875 
L 4.09375 0 
L 39.296875 0 
z
" id="CMR17-50"/>
       </defs>
       <use transform="scale(0.996264)" xlink:href="#CMR17-50"/>
      </g>
     </g>
    </g>
    <g id="xtick_4">
     <g id="line2d_17">
      <path clip-path="url(#p9c5c80b187)" d="M 259.420792 233.110711 
L 259.420792 17.28 
" style="fill:none;stroke:#b0b0b0;stroke-linecap:square;stroke-width:0.8;"/>
     </g>
     <g id="line2d_18">
      <g>
       <use style="stroke:#000000;stroke-width:0.8;" x="259.420792" xlink:href="#m4ab159814d" y="233.110711"/>
      </g>
     </g>
     <g id="line2d_19">
      <g>
       <use style="stroke:#000000;stroke-width:0.8;" x="259.420792" xlink:href="#m6823446ddd" y="17.28"/>
      </g>
     </g>
     <g id="text_4">
      <!-- $\mathdefault{3}$ -->
      <g transform="translate(255.518799 247.6803)scale(0.16 -0.16)">
       <defs>
        <path d="M 22.09375 34 
C 31 34 34.90625 26.140625 34.90625 17.09375 
C 34.90625 5.03125 28.5 0.390625 22.703125 0.390625 
C 17.40625 0.390625 8.796875 3.015625 6.09375 10.796875 
C 6.59375 10.59375 7.09375 10.59375 7.59375 10.59375 
C 10 10.59375 11.796875 12.1875 11.796875 14.796875 
C 11.796875 17.6875 9.59375 19 7.59375 19 
C 5.90625 19 3.296875 18.1875 3.296875 14.484375 
C 3.296875 5.234375 12.296875 -2 22.90625 -2 
C 34 -2 42.5 6.75 42.5 16.984375 
C 42.5 26.84375 34.5 34 25 35.09375 
C 32.59375 36.671875 39.90625 43.375 39.90625 52.390625 
C 39.90625 60.25 32 66 23 66 
C 13.90625 66 5.90625 60.34375 5.90625 52.296875 
C 5.90625 48.796875 8.5 48.1875 9.796875 48.1875 
C 11.90625 48.1875 13.703125 49.484375 13.703125 52.09375 
C 13.703125 54.6875 11.90625 56 9.796875 56 
C 9.40625 56 8.90625 56 8.5 55.796875 
C 11.40625 62.484375 19.296875 63.6875 22.796875 63.6875 
C 26.296875 63.6875 32.90625 61.96875 32.90625 52.296875 
C 32.90625 49.484375 32.5 44.546875 29.09375 40.21875 
C 26.09375 36.390625 22.703125 36.1875 19.40625 35.890625 
C 18.90625 35.890625 16.59375 35.6875 16.203125 35.6875 
C 15.5 35.59375 15.09375 35.5 15.09375 34.796875 
C 15.09375 34.09375 15.203125 34 17.203125 34 
z
" id="CMR17-51"/>
       </defs>
       <use transform="scale(0.996264)" xlink:href="#CMR17-51"/>
      </g>
     </g>
    </g>
    <g id="xtick_5">
     <g id="line2d_20">
      <path clip-path="url(#p9c5c80b187)" d="M 321.540475 233.110711 
L 321.540475 17.28 
" style="fill:none;stroke:#b0b0b0;stroke-linecap:square;stroke-width:0.8;"/>
     </g>
     <g id="line2d_21">
      <g>
       <use style="stroke:#000000;stroke-width:0.8;" x="321.540475" xlink:href="#m4ab159814d" y="233.110711"/>
      </g>
     </g>
     <g id="line2d_22">
      <g>
       <use style="stroke:#000000;stroke-width:0.8;" x="321.540475" xlink:href="#m6823446ddd" y="17.28"/>
      </g>
     </g>
     <g id="text_5">
      <!-- $\mathdefault{4}$ -->
      <g transform="translate(317.638482 247.6803)scale(0.16 -0.16)">
       <defs>
        <path d="M 33.59375 64.796875 
C 33.59375 66.890625 33.5 67 31.703125 67 
L 2 19.59375 
L 2 17 
L 27.796875 17 
L 27.796875 7.1875 
C 27.796875 3.59375 27.59375 2.59375 20.59375 2.59375 
L 18.703125 2.59375 
L 18.703125 0 
C 21.90625 0.1875 27.296875 0.1875 30.703125 0.1875 
C 34.09375 0.1875 39.5 0.1875 42.703125 0 
L 42.703125 2.59375 
L 40.796875 2.59375 
C 33.796875 2.59375 33.59375 3.59375 33.59375 7.1875 
L 33.59375 17 
L 43.796875 17 
L 43.796875 19.59375 
L 33.59375 19.59375 
z
M 28.09375 58.171875 
L 28.09375 19.59375 
L 4 19.59375 
z
" id="CMR17-52"/>
       </defs>
       <use transform="scale(0.996264)" xlink:href="#CMR17-52"/>
      </g>
     </g>
    </g>
    <g id="xtick_6">
     <g id="line2d_23">
      <path clip-path="url(#p9c5c80b187)" d="M 383.660158 233.110711 
L 383.660158 17.28 
" style="fill:none;stroke:#b0b0b0;stroke-linecap:square;stroke-width:0.8;"/>
     </g>
     <g id="line2d_24">
      <g>
       <use style="stroke:#000000;stroke-width:0.8;" x="383.660158" xlink:href="#m4ab159814d" y="233.110711"/>
      </g>
     </g>
     <g id="line2d_25">
      <g>
       <use style="stroke:#000000;stroke-width:0.8;" x="383.660158" xlink:href="#m6823446ddd" y="17.28"/>
      </g>
     </g>
     <g id="text_6">
      <!-- $\mathdefault{5}$ -->
      <g transform="translate(379.758165 247.6803)scale(0.16 -0.16)">
       <defs>
        <path d="M 11.40625 58.59375 
C 12.40625 58.1875 16.5 56.890625 20.703125 56.890625 
C 30 56.890625 35.09375 61.890625 38 64.6875 
C 38 65.484375 38 66 37.40625 66 
C 37.296875 66 37.09375 66 36.296875 65.59375 
C 32.796875 64.09375 28.703125 63 23.703125 63 
C 20.703125 63 16.203125 63.359375 11.296875 65.484375 
C 10.203125 66 10 66 9.90625 66 
C 9.40625 66 9.296875 65.890625 9.296875 63.90625 
L 9.296875 34.859375 
C 9.296875 33.015625 9.296875 32.5 10.296875 32.5 
C 10.796875 32.5 11 32.703125 11.5 33.421875 
C 14.703125 38.046875 19.09375 40 24.09375 40 
C 27.59375 40 35.09375 37.734375 35.09375 20.203125 
C 35.09375 16.984375 35.09375 11.1875 32.09375 6.59375 
C 29.59375 2.484375 25.703125 0.390625 21.40625 0.390625 
C 14.796875 0.390625 8.09375 4.984375 6.296875 12.6875 
C 6.703125 12.59375 7.5 12.390625 7.90625 12.390625 
C 9.203125 12.390625 11.703125 13.09375 11.703125 16.1875 
C 11.703125 18.890625 9.796875 20 7.90625 20 
C 5.59375 20 4.09375 18.59375 4.09375 15.796875 
C 4.09375 7.09375 11 -2 21.59375 -2 
C 31.90625 -2 41.703125 6.890625 41.703125 19.796875 
C 41.703125 32.09375 33.90625 41.59375 24.203125 41.59375 
C 19.09375 41.59375 14.796875 39.6875 11.40625 36 
z
" id="CMR17-53"/>
       </defs>
       <use transform="scale(0.996264)" xlink:href="#CMR17-53"/>
      </g>
     </g>
    </g>
    <g id="xtick_7">
     <g id="line2d_26">
      <path clip-path="url(#p9c5c80b187)" d="M 88.591663 233.110711 
L 88.591663 17.28 
" style="fill:none;stroke:#b0b0b0;stroke-linecap:square;stroke-width:0.8;"/>
     </g>
     <g id="line2d_27">
      <defs>
       <path d="M 0 0 
L 0 -2 
" id="m005f34c2fe" style="stroke:#000000;stroke-width:0.6;"/>
      </defs>
      <g>
       <use style="stroke:#000000;stroke-width:0.6;" x="88.591663" xlink:href="#m005f34c2fe" y="233.110711"/>
      </g>
     </g>
     <g id="line2d_28">
      <defs>
       <path d="M 0 0 
L 0 2 
" id="m97c5a858e7" style="stroke:#000000;stroke-width:0.6;"/>
      </defs>
      <g>
       <use style="stroke:#000000;stroke-width:0.6;" x="88.591663" xlink:href="#m97c5a858e7" y="17.28"/>
      </g>
     </g>
    </g>
    <g id="xtick_8">
     <g id="line2d_29">
      <path clip-path="url(#p9c5c80b187)" d="M 104.121584 233.110711 
L 104.121584 17.28 
" style="fill:none;stroke:#b0b0b0;stroke-linecap:square;stroke-width:0.8;"/>
     </g>
     <g id="line2d_30">
      <g>
       <use style="stroke:#000000;stroke-width:0.6;" x="104.121584" xlink:href="#m005f34c2fe" y="233.110711"/>
      </g>
     </g>
     <g id="line2d_31">
      <g>
       <use style="stroke:#000000;stroke-width:0.6;" x="104.121584" xlink:href="#m97c5a858e7" y="17.28"/>
      </g>
     </g>
    </g>
    <g id="xtick_9">
     <g id="line2d_32">
      <path clip-path="url(#p9c5c80b187)" d="M 119.651505 233.110711 
L 119.651505 17.28 
" style="fill:none;stroke:#b0b0b0;stroke-linecap:square;stroke-width:0.8;"/>
     </g>
     <g id="line2d_33">
      <g>
       <use style="stroke:#000000;stroke-width:0.6;" x="119.651505" xlink:href="#m005f34c2fe" y="233.110711"/>
      </g>
     </g>
     <g id="line2d_34">
      <g>
       <use style="stroke:#000000;stroke-width:0.6;" x="119.651505" xlink:href="#m97c5a858e7" y="17.28"/>
      </g>
     </g>
    </g>
    <g id="xtick_10">
     <g id="line2d_35">
      <path clip-path="url(#p9c5c80b187)" d="M 150.711347 233.110711 
L 150.711347 17.28 
" style="fill:none;stroke:#b0b0b0;stroke-linecap:square;stroke-width:0.8;"/>
     </g>
     <g id="line2d_36">
      <g>
       <use style="stroke:#000000;stroke-width:0.6;" x="150.711347" xlink:href="#m005f34c2fe" y="233.110711"/>
      </g>
     </g>
     <g id="line2d_37">
      <g>
       <use style="stroke:#000000;stroke-width:0.6;" x="150.711347" xlink:href="#m97c5a858e7" y="17.28"/>
      </g>
     </g>
    </g>
    <g id="xtick_11">
     <g id="line2d_38">
      <path clip-path="url(#p9c5c80b187)" d="M 166.241267 233.110711 
L 166.241267 17.28 
" style="fill:none;stroke:#b0b0b0;stroke-linecap:square;stroke-width:0.8;"/>
     </g>
     <g id="line2d_39">
      <g>
       <use style="stroke:#000000;stroke-width:0.6;" x="166.241267" xlink:href="#m005f34c2fe" y="233.110711"/>
      </g>
     </g>
     <g id="line2d_40">
      <g>
       <use style="stroke:#000000;stroke-width:0.6;" x="166.241267" xlink:href="#m97c5a858e7" y="17.28"/>
      </g>
     </g>
    </g>
    <g id="xtick_12">
     <g id="line2d_41">
      <path clip-path="url(#p9c5c80b187)" d="M 181.771188 233.110711 
L 181.771188 17.28 
" style="fill:none;stroke:#b0b0b0;stroke-linecap:square;stroke-width:0.8;"/>
     </g>
     <g id="line2d_42">
      <g>
       <use style="stroke:#000000;stroke-width:0.6;" x="181.771188" xlink:href="#m005f34c2fe" y="233.110711"/>
      </g>
     </g>
     <g id="line2d_43">
      <g>
       <use style="stroke:#000000;stroke-width:0.6;" x="181.771188" xlink:href="#m97c5a858e7" y="17.28"/>
      </g>
     </g>
    </g>
    <g id="xtick_13">
     <g id="line2d_44">
      <path clip-path="url(#p9c5c80b187)" d="M 212.83103 233.110711 
L 212.83103 17.28 
" style="fill:none;stroke:#b0b0b0;stroke-linecap:square;stroke-width:0.8;"/>
     </g>
     <g id="line2d_45">
      <g>
       <use style="stroke:#000000;stroke-width:0.6;" x="212.83103" xlink:href="#m005f34c2fe" y="233.110711"/>
      </g>
     </g>
     <g id="line2d_46">
      <g>
       <use style="stroke:#000000;stroke-width:0.6;" x="212.83103" xlink:href="#m97c5a858e7" y="17.28"/>
      </g>
     </g>
    </g>
    <g id="xtick_14">
     <g id="line2d_47">
      <path clip-path="url(#p9c5c80b187)" d="M 228.36095 233.110711 
L 228.36095 17.28 
" style="fill:none;stroke:#b0b0b0;stroke-linecap:square;stroke-width:0.8;"/>
     </g>
     <g id="line2d_48">
      <g>
       <use style="stroke:#000000;stroke-width:0.6;" x="228.36095" xlink:href="#m005f34c2fe" y="233.110711"/>
      </g>
     </g>
     <g id="line2d_49">
      <g>
       <use style="stroke:#000000;stroke-width:0.6;" x="228.36095" xlink:href="#m97c5a858e7" y="17.28"/>
      </g>
     </g>
    </g>
    <g id="xtick_15">
     <g id="line2d_50">
      <path clip-path="url(#p9c5c80b187)" d="M 243.890871 233.110711 
L 243.890871 17.28 
" style="fill:none;stroke:#b0b0b0;stroke-linecap:square;stroke-width:0.8;"/>
     </g>
     <g id="line2d_51">
      <g>
       <use style="stroke:#000000;stroke-width:0.6;" x="243.890871" xlink:href="#m005f34c2fe" y="233.110711"/>
      </g>
     </g>
     <g id="line2d_52">
      <g>
       <use style="stroke:#000000;stroke-width:0.6;" x="243.890871" xlink:href="#m97c5a858e7" y="17.28"/>
      </g>
     </g>
    </g>
    <g id="xtick_16">
     <g id="line2d_53">
      <path clip-path="url(#p9c5c80b187)" d="M 274.950713 233.110711 
L 274.950713 17.28 
" style="fill:none;stroke:#b0b0b0;stroke-linecap:square;stroke-width:0.8;"/>
     </g>
     <g id="line2d_54">
      <g>
       <use style="stroke:#000000;stroke-width:0.6;" x="274.950713" xlink:href="#m005f34c2fe" y="233.110711"/>
      </g>
     </g>
     <g id="line2d_55">
      <g>
       <use style="stroke:#000000;stroke-width:0.6;" x="274.950713" xlink:href="#m97c5a858e7" y="17.28"/>
      </g>
     </g>
    </g>
    <g id="xtick_17">
     <g id="line2d_56">
      <path clip-path="url(#p9c5c80b187)" d="M 290.480634 233.110711 
L 290.480634 17.28 
" style="fill:none;stroke:#b0b0b0;stroke-linecap:square;stroke-width:0.8;"/>
     </g>
     <g id="line2d_57">
      <g>
       <use style="stroke:#000000;stroke-width:0.6;" x="290.480634" xlink:href="#m005f34c2fe" y="233.110711"/>
      </g>
     </g>
     <g id="line2d_58">
      <g>
       <use style="stroke:#000000;stroke-width:0.6;" x="290.480634" xlink:href="#m97c5a858e7" y="17.28"/>
      </g>
     </g>
    </g>
    <g id="xtick_18">
     <g id="line2d_59">
      <path clip-path="url(#p9c5c80b187)" d="M 306.010554 233.110711 
L 306.010554 17.28 
" style="fill:none;stroke:#b0b0b0;stroke-linecap:square;stroke-width:0.8;"/>
     </g>
     <g id="line2d_60">
      <g>
       <use style="stroke:#000000;stroke-width:0.6;" x="306.010554" xlink:href="#m005f34c2fe" y="233.110711"/>
      </g>
     </g>
     <g id="line2d_61">
      <g>
       <use style="stroke:#000000;stroke-width:0.6;" x="306.010554" xlink:href="#m97c5a858e7" y="17.28"/>
      </g>
     </g>
    </g>
    <g id="xtick_19">
     <g id="line2d_62">
      <path clip-path="url(#p9c5c80b187)" d="M 337.070396 233.110711 
L 337.070396 17.28 
" style="fill:none;stroke:#b0b0b0;stroke-linecap:square;stroke-width:0.8;"/>
     </g>
     <g id="line2d_63">
      <g>
       <use style="stroke:#000000;stroke-width:0.6;" x="337.070396" xlink:href="#m005f34c2fe" y="233.110711"/>
      </g>
     </g>
     <g id="line2d_64">
      <g>
       <use style="stroke:#000000;stroke-width:0.6;" x="337.070396" xlink:href="#m97c5a858e7" y="17.28"/>
      </g>
     </g>
    </g>
    <g id="xtick_20">
     <g id="line2d_65">
      <path clip-path="url(#p9c5c80b187)" d="M 352.600317 233.110711 
L 352.600317 17.28 
" style="fill:none;stroke:#b0b0b0;stroke-linecap:square;stroke-width:0.8;"/>
     </g>
     <g id="line2d_66">
      <g>
       <use style="stroke:#000000;stroke-width:0.6;" x="352.600317" xlink:href="#m005f34c2fe" y="233.110711"/>
      </g>
     </g>
     <g id="line2d_67">
      <g>
       <use style="stroke:#000000;stroke-width:0.6;" x="352.600317" xlink:href="#m97c5a858e7" y="17.28"/>
      </g>
     </g>
    </g>
    <g id="xtick_21">
     <g id="line2d_68">
      <path clip-path="url(#p9c5c80b187)" d="M 368.130238 233.110711 
L 368.130238 17.28 
" style="fill:none;stroke:#b0b0b0;stroke-linecap:square;stroke-width:0.8;"/>
     </g>
     <g id="line2d_69">
      <g>
       <use style="stroke:#000000;stroke-width:0.6;" x="368.130238" xlink:href="#m005f34c2fe" y="233.110711"/>
      </g>
     </g>
     <g id="line2d_70">
      <g>
       <use style="stroke:#000000;stroke-width:0.6;" x="368.130238" xlink:href="#m97c5a858e7" y="17.28"/>
      </g>
     </g>
    </g>
    <g id="xtick_22">
     <g id="line2d_71">
      <path clip-path="url(#p9c5c80b187)" d="M 399.190079 233.110711 
L 399.190079 17.28 
" style="fill:none;stroke:#b0b0b0;stroke-linecap:square;stroke-width:0.8;"/>
     </g>
     <g id="line2d_72">
      <g>
       <use style="stroke:#000000;stroke-width:0.6;" x="399.190079" xlink:href="#m005f34c2fe" y="233.110711"/>
      </g>
     </g>
     <g id="line2d_73">
      <g>
       <use style="stroke:#000000;stroke-width:0.6;" x="399.190079" xlink:href="#m97c5a858e7" y="17.28"/>
      </g>
     </g>
    </g>
    <g id="xtick_23">
     <g id="line2d_74">
      <path clip-path="url(#p9c5c80b187)" d="M 414.72 233.110711 
L 414.72 17.28 
" style="fill:none;stroke:#b0b0b0;stroke-linecap:square;stroke-width:0.8;"/>
     </g>
     <g id="line2d_75">
      <g>
       <use style="stroke:#000000;stroke-width:0.6;" x="414.72" xlink:href="#m005f34c2fe" y="233.110711"/>
      </g>
     </g>
     <g id="line2d_76">
      <g>
       <use style="stroke:#000000;stroke-width:0.6;" x="414.72" xlink:href="#m97c5a858e7" y="17.28"/>
      </g>
     </g>
    </g>
    <g id="text_7">
     <!-- $\sigma\ [\pi c/L]$ -->
     <g transform="translate(214.949216 266.734944)scale(0.16 -0.16)">
      <defs>
       <path d="M 50.796875 37.59375 
C 52.09375 37.59375 55.40625 37.59375 55.40625 40.796875 
C 55.40625 43 53.5 43 51.703125 43 
L 29.59375 43 
C 14.59375 43 3.796875 26.328125 3.796875 14.5625 
C 3.796875 6.078125 9.296875 -1 18.296875 -1 
C 30.09375 -1 43 11.65625 43 26.625 
C 43 30.515625 42.09375 34.296875 39.703125 37.59375 
z
M 18.40625 1 
C 13.296875 1 9.59375 4.875 9.59375 11.765625 
C 9.59375 17.75 13.203125 37.59375 27.90625 37.59375 
C 32.203125 37.59375 37 35.5 37 27.8125 
C 37 24.328125 35.40625 15.953125 31.90625 10.171875 
C 28.296875 4.28125 22.90625 1 18.40625 1 
z
" id="CMMI12-27"/>
       <path d="M 23.5 -25 
L 23.5 -21.5 
L 14.09375 -21.5 
L 14.09375 71.484375 
L 23.5 71.484375 
L 23.5 75 
L 10.59375 75 
L 10.59375 -25 
z
" id="CMR17-91"/>
       <path d="M 25.90625 37.59375 
L 37.203125 37.59375 
C 34.5 26.421875 32.796875 19.140625 32.796875 11.171875 
C 32.796875 9.765625 32.796875 -1 36.90625 -1 
C 39 -1 40.796875 0.890625 40.796875 2.59375 
C 40.796875 3.09375 40.796875 3.28125 40.09375 4.78125 
C 37.40625 11.65625 37.40625 20.234375 37.40625 20.9375 
C 37.40625 21.53125 37.40625 28.625 39.5 37.59375 
L 50.703125 37.59375 
C 52 37.59375 55.296875 37.59375 55.296875 40.796875 
C 55.296875 43 53.40625 43 51.59375 43 
L 18.703125 43 
C 16.40625 43 13 43 8.40625 38.09375 
C 5.796875 35.203125 2.59375 29.921875 2.59375 29.3125 
C 2.59375 28.71875 3.09375 28.515625 3.703125 28.515625 
C 4.40625 28.515625 4.5 28.8125 5 29.421875 
C 10.203125 37.59375 15.40625 37.59375 17.90625 37.59375 
L 23.59375 37.59375 
C 21.40625 30.109375 18.90625 21.4375 10.703125 3.984375 
C 9.90625 2.390625 9.90625 2.1875 9.90625 1.59375 
C 9.90625 -0.5 11.703125 -1 12.59375 -1 
C 15.5 -1 16.296875 1.59375 17.5 5.78125 
C 19.09375 10.859375 19.09375 11.0625 20.09375 15.0625 
z
" id="CMMI12-25"/>
       <path d="M 39.09375 38 
C 37.203125 38 36.296875 38 34.90625 36.796875 
C 34.296875 36.296875 33.203125 34.796875 33.203125 33.1875 
C 33.203125 31.1875 34.703125 29.984375 36.59375 29.984375 
C 39 29.984375 41.703125 31.984375 41.703125 35.984375 
C 41.703125 40.484375 37.09375 44 30.203125 44 
C 17.09375 44 4 30.1875 4 15.796875 
C 4 6.96875 9.40625 -1 19.59375 -1 
C 33.203125 -1 41.796875 9.71875 41.796875 11.03125 
C 41.796875 11.640625 41.203125 12.140625 40.796875 12.140625 
C 40.5 12.140625 40.40625 12.046875 39.5 11.125 
C 33.09375 2.515625 23.59375 1 19.796875 1 
C 12.90625 1 10.703125 7.078125 10.703125 12.140625 
C 10.703125 15.6875 12.40625 25.53125 16 32.390625 
C 18.59375 37.09375 24 41.984375 30.296875 41.984375 
C 31.59375 41.984375 37.09375 41.8125 39.09375 38 
z
" id="CMMI12-99"/>
       <path d="M 42.90625 71.296875 
C 42.90625 71.390625 43.5 72.890625 43.5 73.09375 
C 43.5 74.296875 42.5 75 41.703125 75 
C 41.203125 75 40.296875 75 39.5 72.796875 
L 6 -21.3125 
C 6 -21.40625 5.40625 -22.90625 5.40625 -23.109375 
C 5.40625 -24.3125 6.40625 -25 7.203125 -25 
C 7.796875 -25 8.703125 -24.90625 9.40625 -22.8125 
z
" id="CMMI12-61"/>
       <path d="M 36.703125 60.3125 
C 37.59375 64.09375 37.90625 65.09375 46.703125 65.09375 
C 49.40625 65.09375 50.09375 65.09375 50.09375 66.984375 
C 50.09375 68 49 68 48.59375 68 
C 46.59375 68 44.296875 67.796875 42.296875 67.796875 
L 28.90625 67.796875 
C 27 67.796875 24.796875 68 22.90625 68 
C 22.09375 68 21 68 21 66.09375 
C 21 65.09375 21.90625 65.09375 23.40625 65.09375 
C 29.5 65.09375 29.5 64.296875 29.5 63.203125 
C 29.5 63 29.5 62.40625 29.09375 60.90625 
L 15.59375 7.375 
C 14.703125 3.890625 14.5 2.890625 7.5 2.890625 
C 5.59375 2.890625 4.59375 2.890625 4.59375 1.09375 
C 4.59375 0 5.203125 0 7.203125 0 
L 52 0 
C 54.203125 0 54.296875 0.09375 55 1.890625 
L 62.703125 23.09375 
C 62.90625 23.59375 63.09375 24.1875 63.09375 24.484375 
C 63.09375 25.078125 62.59375 25.484375 62.09375 25.484375 
C 62 25.484375 61.5 25.484375 61.296875 25.078125 
C 61.09375 24.984375 61.09375 24.78125 60.296875 22.890625 
C 57.09375 14.140625 52.59375 2.890625 35.703125 2.890625 
L 26.09375 2.890625 
C 24.703125 2.890625 24.5 2.890625 23.90625 2.984375 
C 22.796875 3.09375 22.703125 3.296875 22.703125 4.09375 
C 22.703125 4.78125 22.90625 5.375 23.09375 6.28125 
z
" id="CMMI12-76"/>
       <path d="M 14.296875 75 
L 1.40625 75 
L 1.40625 71.484375 
L 10.796875 71.484375 
L 10.796875 -21.5 
L 1.40625 -21.5 
L 1.40625 -25 
L 14.296875 -25 
z
" id="CMR17-93"/>
      </defs>
      <use transform="scale(0.996264)" xlink:href="#CMMI12-27"/>
      <use transform="translate(90.249166 0)scale(0.996264)" xlink:href="#CMR17-91"/>
      <use transform="translate(115.120225 0)scale(0.996264)" xlink:href="#CMMI12-25"/>
      <use transform="translate(174.030826 0)scale(0.996264)" xlink:href="#CMMI12-99"/>
      <use transform="translate(216.014059 0)scale(0.996264)" xlink:href="#CMMI12-61"/>
      <use transform="translate(264.788978 0)scale(0.996264)" xlink:href="#CMMI12-76"/>
      <use transform="translate(331.159853 0)scale(0.996264)" xlink:href="#CMR17-93"/>
     </g>
    </g>
   </g>
   <g id="matplotlib.axis_2">
    <g id="ytick_1">
     <g id="line2d_77">
      <path clip-path="url(#p9c5c80b187)" d="M 73.061743 217.694232 
L 414.72 217.694232 
" style="fill:none;stroke:#b0b0b0;stroke-linecap:square;stroke-width:0.8;"/>
     </g>
     <g id="line2d_78">
      <defs>
       <path d="M 0 0 
L 3.5 0 
" id="m824a0730c8" style="stroke:#000000;stroke-width:0.8;"/>
      </defs>
      <g>
       <use style="stroke:#000000;stroke-width:0.8;" x="73.061743" xlink:href="#m824a0730c8" y="217.694232"/>
      </g>
     </g>
     <g id="line2d_79">
      <defs>
       <path d="M 0 0 
L -3.5 0 
" id="ma7cf9d9c92" style="stroke:#000000;stroke-width:0.8;"/>
      </defs>
      <g>
       <use style="stroke:#000000;stroke-width:0.8;" x="414.72" xlink:href="#ma7cf9d9c92" y="217.694232"/>
      </g>
     </g>
     <g id="text_8">
      <!-- $\mathdefault{0.2}$ -->
      <g transform="translate(37.220224 223.229026)scale(0.16 -0.16)">
       <defs>
        <path d="M 65.90625 23 
C 67.59375 23 69.40625 23 69.40625 25 
C 69.40625 27 67.59375 27 65.90625 27 
L 11.796875 27 
C 10.09375 27 8.296875 27 8.296875 25 
C 8.296875 23 10.09375 23 11.796875 23 
z
" id="CMSY10-0"/>
        <path d="M 18.40625 4.796875 
C 18.40625 7.6875 16 9.6875 13.59375 9.6875 
C 10.703125 9.6875 8.703125 7.296875 8.703125 4.890625 
C 8.703125 2 11.09375 0 13.5 0 
C 16.40625 0 18.40625 2.390625 18.40625 4.796875 
z
" id="CMMI12-58"/>
       </defs>
       <use transform="scale(0.996264)" xlink:href="#CMSY10-0"/>
       <use transform="translate(77.487468 0)scale(0.996264)" xlink:href="#CMR17-48"/>
       <use transform="translate(123.177945 0)scale(0.996264)" xlink:href="#CMMI12-58"/>
       <use transform="translate(150.275122 0)scale(0.996264)" xlink:href="#CMR17-50"/>
      </g>
     </g>
    </g>
    <g id="ytick_2">
     <g id="line2d_80">
      <path clip-path="url(#p9c5c80b187)" d="M 73.061743 186.861273 
L 414.72 186.861273 
" style="fill:none;stroke:#b0b0b0;stroke-linecap:square;stroke-width:0.8;"/>
     </g>
     <g id="line2d_81">
      <g>
       <use style="stroke:#000000;stroke-width:0.8;" x="73.061743" xlink:href="#m824a0730c8" y="186.861273"/>
      </g>
     </g>
     <g id="line2d_82">
      <g>
       <use style="stroke:#000000;stroke-width:0.8;" x="414.72" xlink:href="#ma7cf9d9c92" y="186.861273"/>
      </g>
     </g>
     <g id="text_9">
      <!-- $\mathdefault{0.0}$ -->
      <g transform="translate(49.61822 192.396067)scale(0.16 -0.16)">
       <use transform="scale(0.996264)" xlink:href="#CMR17-48"/>
       <use transform="translate(45.690477 0)scale(0.996264)" xlink:href="#CMMI12-58"/>
       <use transform="translate(72.787654 0)scale(0.996264)" xlink:href="#CMR17-48"/>
      </g>
     </g>
    </g>
    <g id="ytick_3">
     <g id="line2d_83">
      <path clip-path="url(#p9c5c80b187)" d="M 73.061743 156.028314 
L 414.72 156.028314 
" style="fill:none;stroke:#b0b0b0;stroke-linecap:square;stroke-width:0.8;"/>
     </g>
     <g id="line2d_84">
      <g>
       <use style="stroke:#000000;stroke-width:0.8;" x="73.061743" xlink:href="#m824a0730c8" y="156.028314"/>
      </g>
     </g>
     <g id="line2d_85">
      <g>
       <use style="stroke:#000000;stroke-width:0.8;" x="414.72" xlink:href="#ma7cf9d9c92" y="156.028314"/>
      </g>
     </g>
     <g id="text_10">
      <!-- $\mathdefault{0.2}$ -->
      <g transform="translate(49.61822 161.563109)scale(0.16 -0.16)">
       <use transform="scale(0.996264)" xlink:href="#CMR17-48"/>
       <use transform="translate(45.690477 0)scale(0.996264)" xlink:href="#CMMI12-58"/>
       <use transform="translate(72.787654 0)scale(0.996264)" xlink:href="#CMR17-50"/>
      </g>
     </g>
    </g>
    <g id="ytick_4">
     <g id="line2d_86">
      <path clip-path="url(#p9c5c80b187)" d="M 73.061743 125.195356 
L 414.72 125.195356 
" style="fill:none;stroke:#b0b0b0;stroke-linecap:square;stroke-width:0.8;"/>
     </g>
     <g id="line2d_87">
      <g>
       <use style="stroke:#000000;stroke-width:0.8;" x="73.061743" xlink:href="#m824a0730c8" y="125.195356"/>
      </g>
     </g>
     <g id="line2d_88">
      <g>
       <use style="stroke:#000000;stroke-width:0.8;" x="414.72" xlink:href="#ma7cf9d9c92" y="125.195356"/>
      </g>
     </g>
     <g id="text_11">
      <!-- $\mathdefault{0.4}$ -->
      <g transform="translate(49.61822 130.73015)scale(0.16 -0.16)">
       <use transform="scale(0.996264)" xlink:href="#CMR17-48"/>
       <use transform="translate(45.690477 0)scale(0.996264)" xlink:href="#CMMI12-58"/>
       <use transform="translate(72.787654 0)scale(0.996264)" xlink:href="#CMR17-52"/>
      </g>
     </g>
    </g>
    <g id="ytick_5">
     <g id="line2d_89">
      <path clip-path="url(#p9c5c80b187)" d="M 73.061743 94.362397 
L 414.72 94.362397 
" style="fill:none;stroke:#b0b0b0;stroke-linecap:square;stroke-width:0.8;"/>
     </g>
     <g id="line2d_90">
      <g>
       <use style="stroke:#000000;stroke-width:0.8;" x="73.061743" xlink:href="#m824a0730c8" y="94.362397"/>
      </g>
     </g>
     <g id="line2d_91">
      <g>
       <use style="stroke:#000000;stroke-width:0.8;" x="414.72" xlink:href="#ma7cf9d9c92" y="94.362397"/>
      </g>
     </g>
     <g id="text_12">
      <!-- $\mathdefault{0.6}$ -->
      <g transform="translate(49.61822 99.897191)scale(0.16 -0.16)">
       <defs>
        <path d="M 10.59375 34.34375 
C 10.59375 58 21.796875 63.6875 28.296875 63.6875 
C 30.40625 63.6875 35.5 63.265625 37.5 59.09375 
C 35.90625 59.09375 32.90625 59.09375 32.90625 55.59375 
C 32.90625 52.890625 35.09375 52 36.5 52 
C 37.40625 52 40.09375 52.390625 40.09375 55.796875 
C 40.09375 62.296875 35.09375 66 28.203125 66 
C 16.296875 66 3.796875 53.296875 3.796875 31.421875 
C 3.796875 4.015625 15.09375 -2 23.09375 -2 
C 32.796875 -2 42 6.734375 42 20.234375 
C 42 32.828125 33.90625 42 23.703125 42 
C 17.59375 42 13.09375 37.96875 10.59375 30.921875 
z
M 23.09375 0.390625 
C 10.796875 0.390625 10.796875 18.9375 10.796875 22.65625 
C 10.796875 29.90625 14.203125 40.390625 23.5 40.390625 
C 25.203125 40.390625 30.09375 40.390625 33.40625 33.4375 
C 35.203125 29.515625 35.203125 25.375 35.203125 20.34375 
C 35.203125 14.90625 35.203125 10.875 33.09375 6.84375 
C 30.90625 2.703125 27.703125 0.390625 23.09375 0.390625 
z
" id="CMR17-54"/>
       </defs>
       <use transform="scale(0.996264)" xlink:href="#CMR17-48"/>
       <use transform="translate(45.690477 0)scale(0.996264)" xlink:href="#CMMI12-58"/>
       <use transform="translate(72.787654 0)scale(0.996264)" xlink:href="#CMR17-54"/>
      </g>
     </g>
    </g>
    <g id="ytick_6">
     <g id="line2d_92">
      <path clip-path="url(#p9c5c80b187)" d="M 73.061743 63.529438 
L 414.72 63.529438 
" style="fill:none;stroke:#b0b0b0;stroke-linecap:square;stroke-width:0.8;"/>
     </g>
     <g id="line2d_93">
      <g>
       <use style="stroke:#000000;stroke-width:0.8;" x="73.061743" xlink:href="#m824a0730c8" y="63.529438"/>
      </g>
     </g>
     <g id="line2d_94">
      <g>
       <use style="stroke:#000000;stroke-width:0.8;" x="414.72" xlink:href="#ma7cf9d9c92" y="63.529438"/>
      </g>
     </g>
     <g id="text_13">
      <!-- $\mathdefault{0.8}$ -->
      <g transform="translate(49.61822 69.064232)scale(0.16 -0.16)">
       <defs>
        <path d="M 27.203125 35.765625 
C 33.5 38.96875 39.90625 43.796875 39.90625 51.53125 
C 39.90625 60.6875 31.09375 66 23 66 
C 13.90625 66 5.90625 59.375 5.90625 50.234375 
C 5.90625 47.71875 6.5 43.390625 10.40625 39.578125 
C 11.40625 38.578125 15.59375 35.5625 18.296875 33.65625 
C 13.796875 31.34375 3.296875 25.8125 3.296875 14.765625 
C 3.296875 4.40625 13.09375 -2 22.796875 -2 
C 33.5 -2 42.5 5.71875 42.5 15.96875 
C 42.5 25.109375 36.40625 29.328125 32.40625 32.046875 
z
M 14.09375 44.609375 
C 13.296875 45.109375 9.296875 48.21875 9.296875 52.9375 
C 9.296875 59.078125 15.59375 63.6875 22.796875 63.6875 
C 30.703125 63.6875 36.5 58.0625 36.5 51.53125 
C 36.5 42.1875 26.09375 36.859375 25.59375 36.859375 
C 25.5 36.859375 25.40625 36.859375 24.59375 37.46875 
z
M 32.5 24 
C 34 22.90625 38.796875 19.578125 38.796875 13.453125 
C 38.796875 6.015625 31.40625 0.390625 23 0.390625 
C 13.90625 0.390625 7 6.921875 7 14.859375 
C 7 22.796875 13.09375 29.4375 20 32.546875 
z
" id="CMR17-56"/>
       </defs>
       <use transform="scale(0.996264)" xlink:href="#CMR17-48"/>
       <use transform="translate(45.690477 0)scale(0.996264)" xlink:href="#CMMI12-58"/>
       <use transform="translate(72.787654 0)scale(0.996264)" xlink:href="#CMR17-56"/>
      </g>
     </g>
    </g>
    <g id="ytick_7">
     <g id="line2d_95">
      <path clip-path="url(#p9c5c80b187)" d="M 73.061743 32.696479 
L 414.72 32.696479 
" style="fill:none;stroke:#b0b0b0;stroke-linecap:square;stroke-width:0.8;"/>
     </g>
     <g id="line2d_96">
      <g>
       <use style="stroke:#000000;stroke-width:0.8;" x="73.061743" xlink:href="#m824a0730c8" y="32.696479"/>
      </g>
     </g>
     <g id="line2d_97">
      <g>
       <use style="stroke:#000000;stroke-width:0.8;" x="414.72" xlink:href="#ma7cf9d9c92" y="32.696479"/>
      </g>
     </g>
     <g id="text_14">
      <!-- $\mathdefault{1.0}$ -->
      <g transform="translate(49.61822 38.231274)scale(0.16 -0.16)">
       <use transform="scale(0.996264)" xlink:href="#CMR17-49"/>
       <use transform="translate(45.690477 0)scale(0.996264)" xlink:href="#CMMI12-58"/>
       <use transform="translate(72.787654 0)scale(0.996264)" xlink:href="#CMR17-48"/>
      </g>
     </g>
    </g>
    <g id="ytick_8">
     <g id="line2d_98">
      <path clip-path="url(#p9c5c80b187)" d="M 73.061743 233.110711 
L 414.72 233.110711 
" style="fill:none;stroke:#b0b0b0;stroke-linecap:square;stroke-width:0.8;"/>
     </g>
     <g id="line2d_99">
      <defs>
       <path d="M 0 0 
L 2 0 
" id="m1801b70a8d" style="stroke:#000000;stroke-width:0.6;"/>
      </defs>
      <g>
       <use style="stroke:#000000;stroke-width:0.6;" x="73.061743" xlink:href="#m1801b70a8d" y="233.110711"/>
      </g>
     </g>
     <g id="line2d_100">
      <defs>
       <path d="M 0 0 
L -2 0 
" id="m9a9012d68a" style="stroke:#000000;stroke-width:0.6;"/>
      </defs>
      <g>
       <use style="stroke:#000000;stroke-width:0.6;" x="414.72" xlink:href="#m9a9012d68a" y="233.110711"/>
      </g>
     </g>
    </g>
    <g id="ytick_9">
     <g id="line2d_101">
      <path clip-path="url(#p9c5c80b187)" d="M 73.061743 202.277753 
L 414.72 202.277753 
" style="fill:none;stroke:#b0b0b0;stroke-linecap:square;stroke-width:0.8;"/>
     </g>
     <g id="line2d_102">
      <g>
       <use style="stroke:#000000;stroke-width:0.6;" x="73.061743" xlink:href="#m1801b70a8d" y="202.277753"/>
      </g>
     </g>
     <g id="line2d_103">
      <g>
       <use style="stroke:#000000;stroke-width:0.6;" x="414.72" xlink:href="#m9a9012d68a" y="202.277753"/>
      </g>
     </g>
    </g>
    <g id="ytick_10">
     <g id="line2d_104">
      <path clip-path="url(#p9c5c80b187)" d="M 73.061743 171.444794 
L 414.72 171.444794 
" style="fill:none;stroke:#b0b0b0;stroke-linecap:square;stroke-width:0.8;"/>
     </g>
     <g id="line2d_105">
      <g>
       <use style="stroke:#000000;stroke-width:0.6;" x="73.061743" xlink:href="#m1801b70a8d" y="171.444794"/>
      </g>
     </g>
     <g id="line2d_106">
      <g>
       <use style="stroke:#000000;stroke-width:0.6;" x="414.72" xlink:href="#m9a9012d68a" y="171.444794"/>
      </g>
     </g>
    </g>
    <g id="ytick_11">
     <g id="line2d_107">
      <path clip-path="url(#p9c5c80b187)" d="M 73.061743 140.611835 
L 414.72 140.611835 
" style="fill:none;stroke:#b0b0b0;stroke-linecap:square;stroke-width:0.8;"/>
     </g>
     <g id="line2d_108">
      <g>
       <use style="stroke:#000000;stroke-width:0.6;" x="73.061743" xlink:href="#m1801b70a8d" y="140.611835"/>
      </g>
     </g>
     <g id="line2d_109">
      <g>
       <use style="stroke:#000000;stroke-width:0.6;" x="414.72" xlink:href="#m9a9012d68a" y="140.611835"/>
      </g>
     </g>
    </g>
    <g id="ytick_12">
     <g id="line2d_110">
      <path clip-path="url(#p9c5c80b187)" d="M 73.061743 109.778876 
L 414.72 109.778876 
" style="fill:none;stroke:#b0b0b0;stroke-linecap:square;stroke-width:0.8;"/>
     </g>
     <g id="line2d_111">
      <g>
       <use style="stroke:#000000;stroke-width:0.6;" x="73.061743" xlink:href="#m1801b70a8d" y="109.778876"/>
      </g>
     </g>
     <g id="line2d_112">
      <g>
       <use style="stroke:#000000;stroke-width:0.6;" x="414.72" xlink:href="#m9a9012d68a" y="109.778876"/>
      </g>
     </g>
    </g>
    <g id="ytick_13">
     <g id="line2d_113">
      <path clip-path="url(#p9c5c80b187)" d="M 73.061743 78.945918 
L 414.72 78.945918 
" style="fill:none;stroke:#b0b0b0;stroke-linecap:square;stroke-width:0.8;"/>
     </g>
     <g id="line2d_114">
      <g>
       <use style="stroke:#000000;stroke-width:0.6;" x="73.061743" xlink:href="#m1801b70a8d" y="78.945918"/>
      </g>
     </g>
     <g id="line2d_115">
      <g>
       <use style="stroke:#000000;stroke-width:0.6;" x="414.72" xlink:href="#m9a9012d68a" y="78.945918"/>
      </g>
     </g>
    </g>
    <g id="ytick_14">
     <g id="line2d_116">
      <path clip-path="url(#p9c5c80b187)" d="M 73.061743 48.112959 
L 414.72 48.112959 
" style="fill:none;stroke:#b0b0b0;stroke-linecap:square;stroke-width:0.8;"/>
     </g>
     <g id="line2d_117">
      <g>
       <use style="stroke:#000000;stroke-width:0.6;" x="73.061743" xlink:href="#m1801b70a8d" y="48.112959"/>
      </g>
     </g>
     <g id="line2d_118">
      <g>
       <use style="stroke:#000000;stroke-width:0.6;" x="414.72" xlink:href="#m9a9012d68a" y="48.112959"/>
      </g>
     </g>
    </g>
    <g id="ytick_15">
     <g id="line2d_119">
      <path clip-path="url(#p9c5c80b187)" d="M 73.061743 17.28 
L 414.72 17.28 
" style="fill:none;stroke:#b0b0b0;stroke-linecap:square;stroke-width:0.8;"/>
     </g>
     <g id="line2d_120">
      <g>
       <use style="stroke:#000000;stroke-width:0.6;" x="73.061743" xlink:href="#m1801b70a8d" y="17.28"/>
      </g>
     </g>
     <g id="line2d_121">
      <g>
       <use style="stroke:#000000;stroke-width:0.6;" x="414.72" xlink:href="#m9a9012d68a" y="17.28"/>
      </g>
     </g>
    </g>
    <g id="text_15">
     <!-- $\mathcal{D}(\sigma)$ -->
     <g transform="translate(29.235168 142.356215)rotate(-90)scale(0.16 -0.16)">
      <defs>
       <path d="M 20.40625 0 
C 43.703125 0 76.59375 17.734375 76.59375 44.890625 
C 76.59375 53.734375 72.40625 59.3125 67.5 62.390625 
C 58.90625 68 49.703125 68 40.203125 68 
C 31.59375 68 25.703125 68 17.296875 64.390625 
C 4 58.515625 2.09375 50.25 2.09375 49.453125 
C 2.09375 48.859375 2.5 48.65625 3.09375 48.65625 
C 4.703125 48.65625 7 50.0625 7.796875 50.546875 
C 9.90625 51.953125 10.203125 52.546875 10.796875 54.4375 
C 12.203125 58.40625 15 61.890625 27.59375 62.484375 
C 26 41.703125 20.90625 22.703125 13.90625 5.296875 
C 10.203125 4 7.796875 1.6875 7.796875 0.6875 
C 7.796875 0.09375 7.90625 0 10.09375 0 
z
M 20.90625 5.5 
C 32.296875 33.25 34.40625 50.546875 35.796875 62.484375 
C 42.5 62.484375 68.09375 62.484375 68.09375 40.609375 
C 68.09375 21.109375 50.5 5.5 26.296875 5.5 
z
" id="CMSY10-68"/>
       <path d="M 30.59375 -24.40625 
C 30.59375 -24.3125 30.59375 -24.109375 30.296875 -23.8125 
C 25.703125 -19.109375 13.40625 -6.296875 13.40625 24.9375 
C 13.40625 56.171875 25.5 68.875 30.40625 73.890625 
C 30.40625 73.984375 30.59375 74.1875 30.59375 74.484375 
C 30.59375 74.796875 30.296875 75 29.90625 75 
C 28.796875 75 20.296875 67.578125 15.40625 56.5625 
C 10.40625 45.453125 9 34.65625 9 25.046875 
C 9 17.828125 9.703125 5.625 15.703125 -7.296875 
C 20.5 -17.703125 28.703125 -25 29.90625 -25 
C 30.40625 -25 30.59375 -24.8125 30.59375 -24.40625 
z
" id="CMR17-40"/>
       <path d="M 26.296875 24.9375 
C 26.296875 32.140625 25.59375 44.359375 19.59375 57.265625 
C 14.796875 67.6875 6.59375 75 5.40625 75 
C 5.09375 75 4.703125 74.890625 4.703125 74.390625 
C 4.703125 74.1875 4.796875 74.09375 4.90625 73.890625 
C 9.703125 68.875 21.90625 56.171875 21.90625 25.046875 
C 21.90625 -6.1875 9.796875 -18.90625 4.90625 -23.90625 
C 4.796875 -24.109375 4.703125 -24.203125 4.703125 -24.40625 
C 4.703125 -24.90625 5.09375 -25 5.40625 -25 
C 6.5 -25 15 -17.609375 19.90625 -6.59375 
C 24.90625 4.515625 26.296875 15.328125 26.296875 24.9375 
z
" id="CMR17-41"/>
      </defs>
      <use transform="scale(0.996264)" xlink:href="#CMSY10-68"/>
      <use transform="translate(79.618575 0)scale(0.996264)" xlink:href="#CMR17-40"/>
      <use transform="translate(114.899343 0)scale(0.996264)" xlink:href="#CMMI12-27"/>
      <use transform="translate(173.919397 0)scale(0.996264)" xlink:href="#CMR17-41"/>
     </g>
    </g>
   </g>
   <g id="patch_3">
    <path d="M 73.061743 233.110711 
L 73.061743 17.28 
" style="fill:none;stroke:#000000;stroke-linecap:square;stroke-linejoin:miter;stroke-width:0.8;"/>
   </g>
   <g id="patch_4">
    <path d="M 414.72 233.110711 
L 414.72 17.28 
" style="fill:none;stroke:#000000;stroke-linecap:square;stroke-linejoin:miter;stroke-width:0.8;"/>
   </g>
   <g id="patch_5">
    <path d="M 73.061743 233.110711 
L 414.72 233.110711 
" style="fill:none;stroke:#000000;stroke-linecap:square;stroke-linejoin:miter;stroke-width:0.8;"/>
   </g>
   <g id="patch_6">
    <path d="M 73.061743 17.28 
L 414.72 17.28 
" style="fill:none;stroke:#000000;stroke-linecap:square;stroke-linejoin:miter;stroke-width:0.8;"/>
   </g>
  </g>
 </g>
 <defs>
  <clipPath id="p9c5c80b187">
   <rect height="215.830711" width="341.658257" x="73.061743" y="17.28"/>
  </clipPath>
 </defs>
</svg>
