<?xml version="1.0" encoding="utf-8" standalone="no"?>
<!DOCTYPE svg PUBLIC "-//W3C//DTD SVG 1.1//EN"
  "http://www.w3.org/Graphics/SVG/1.1/DTD/svg11.dtd">
<!-- Created with matplotlib (https://matplotlib.org/) -->
<svg height="288pt" version="1.1" viewBox="0 0 432 288" width="432pt" xmlns="http://www.w3.org/2000/svg" xmlns:xlink="http://www.w3.org/1999/xlink">
 <metadata>
  <rdf:RDF xmlns:cc="http://creativecommons.org/ns#" xmlns:dc="http://purl.org/dc/elements/1.1/" xmlns:rdf="http://www.w3.org/1999/02/22-rdf-syntax-ns#">
   <cc:Work>
    <dc:type rdf:resource="http://purl.org/dc/dcmitype/StillImage"/>
    <dc:date>2020-11-10T14:43:10.174033</dc:date>
    <dc:format>image/svg+xml</dc:format>
    <dc:creator>
     <cc:Agent>
      <dc:title>Matplotlib v3.3.2, https://matplotlib.org/</dc:title>
     </cc:Agent>
    </dc:creator>
   </cc:Work>
  </rdf:RDF>
 </metadata>
 <defs>
  <style type="text/css">*{stroke-linecap:butt;stroke-linejoin:round;}</style>
 </defs>
 <g id="figure_1">
  <g id="patch_1">
   <path d="M 0 288 
L 432 288 
L 432 0 
L 0 0 
z
" style="fill:#ffffff;"/>
  </g>
  <g id="axes_1">
   <g id="patch_2">
    <path d="M 73.061743 233.110711 
L 414.72 233.110711 
L 414.72 17.28 
L 73.061743 17.28 
z
" style="fill:#ffffff;"/>
   </g>
   <g id="line2d_1">
    <path clip-path="url(#p5244817eca)" d="M 98.841411 72.794718 
L 99.157606 73.698084 
L 99.473801 74.608409 
" style="fill:none;stroke:#59b2e6;stroke-linecap:square;stroke-opacity:0.4;stroke-width:2;"/>
   </g>
   <g id="line2d_2">
    <path clip-path="url(#p5244817eca)" d="M 99.789995 75.52556 
L 100.10619 76.449402 
L 100.422385 77.379797 
" style="fill:none;stroke:#59b2e6;stroke-linecap:square;stroke-opacity:0.4;stroke-width:2;"/>
   </g>
   <g id="line2d_3">
    <path clip-path="url(#p5244817eca)" d="M 100.73858 78.316609 
L 101.054775 79.259701 
L 101.370969 80.208933 
" style="fill:none;stroke:#59b2e6;stroke-linecap:square;stroke-opacity:0.4;stroke-width:2;"/>
   </g>
   <g id="line2d_4">
    <path clip-path="url(#p5244817eca)" d="M 101.687164 81.164166 
L 102.003359 82.125261 
L 102.319554 83.092076 
" style="fill:none;stroke:#59b2e6;stroke-linecap:square;stroke-opacity:0.4;stroke-width:2;"/>
   </g>
   <g id="line2d_5">
    <path clip-path="url(#p5244817eca)" d="M 102.635748 84.064471 
L 102.951943 85.042303 
L 103.268138 86.025429 
" style="fill:none;stroke:#59b2e6;stroke-linecap:square;stroke-opacity:0.4;stroke-width:2;"/>
   </g>
   <g id="line2d_6">
    <path clip-path="url(#p5244817eca)" d="M 103.584333 87.013706 
L 103.900528 88.006991 
L 104.216722 89.005138 
" style="fill:none;stroke:#59b2e6;stroke-linecap:square;stroke-opacity:0.4;stroke-width:2;"/>
   </g>
   <g id="line2d_7">
    <path clip-path="url(#p5244817eca)" d="M 104.532917 90.008003 
L 104.849112 91.015441 
L 105.165307 92.027305 
L 105.481502 93.04345 
" style="fill:none;stroke:#59b2e6;stroke-linecap:square;stroke-opacity:0.4;stroke-width:2;"/>
   </g>
   <g id="line2d_8">
    <path clip-path="url(#p5244817eca)" d="M 105.797696 94.063727 
L 106.113891 95.087991 
L 106.430086 96.116094 
L 106.746281 97.147887 
" style="fill:none;stroke:#59b2e6;stroke-linecap:square;stroke-opacity:0.4;stroke-width:2;"/>
   </g>
   <g id="line2d_9">
    <path clip-path="url(#p5244817eca)" d="M 107.062475 98.183222 
L 107.37867 99.221952 
L 107.694865 100.263926 
L 108.01106 101.308997 
" style="fill:none;stroke:#59b2e6;stroke-linecap:square;stroke-opacity:0.4;stroke-width:2;"/>
   </g>
   <g id="line2d_10">
    <path clip-path="url(#p5244817eca)" d="M 108.327255 102.357014 
L 108.643449 103.407829 
L 108.959644 104.461292 
L 109.275839 105.517253 
L 109.592034 106.575562 
" style="fill:none;stroke:#59b2e6;stroke-linecap:square;stroke-opacity:0.4;stroke-width:2;"/>
   </g>
   <g id="line2d_11">
    <path clip-path="url(#p5244817eca)" d="M 109.908228 107.636069 
L 110.224423 108.698625 
L 110.540618 109.763078 
L 110.856813 110.82928 
L 111.173008 111.897081 
" style="fill:none;stroke:#59b2e6;stroke-linecap:square;stroke-opacity:0.4;stroke-width:2;"/>
   </g>
   <g id="line2d_12">
    <path clip-path="url(#p5244817eca)" d="M 111.489202 112.966329 
L 111.805397 114.036876 
L 112.121592 115.108571 
L 112.437787 116.181266 
L 112.753982 117.254809 
L 113.070176 118.329053 
" style="fill:none;stroke:#59b2e6;stroke-linecap:square;stroke-opacity:0.4;stroke-width:2;"/>
   </g>
   <g id="line2d_13">
    <path clip-path="url(#p5244817eca)" d="M 113.386371 119.403847 
L 113.702566 120.479044 
L 114.018761 121.554494 
L 114.334955 122.630048 
L 114.65115 123.70556 
L 114.967345 124.78088 
" style="fill:none;stroke:#59b2e6;stroke-linecap:square;stroke-opacity:0.4;stroke-width:2;"/>
   </g>
   <g id="line2d_14">
    <path clip-path="url(#p5244817eca)" d="M 115.28354 125.855862 
L 115.599735 126.930359 
L 115.915929 128.004224 
L 116.232124 129.077311 
L 116.548319 130.149473 
L 116.864514 131.220567 
L 117.180709 132.290446 
" style="fill:none;stroke:#59b2e6;stroke-linecap:square;stroke-opacity:0.4;stroke-width:2;"/>
   </g>
   <g id="line2d_15">
    <path clip-path="url(#p5244817eca)" d="M 117.496903 133.358967 
L 117.813098 134.425987 
L 118.129293 135.491361 
L 118.445488 136.554948 
L 118.761682 137.616606 
L 119.077877 138.676193 
L 119.394072 139.733569 
" style="fill:none;stroke:#59b2e6;stroke-linecap:square;stroke-opacity:0.4;stroke-width:2;"/>
   </g>
   <g id="line2d_16">
    <path clip-path="url(#p5244817eca)" d="M 119.710267 140.788594 
L 120.026462 141.841129 
L 120.342656 142.891035 
L 120.658851 143.938175 
L 120.975046 144.982413 
L 121.291241 146.023611 
L 121.607435 147.061635 
L 121.92363 148.09635 
L 122.239825 149.127623 
" style="fill:none;stroke:#59b2e6;stroke-linecap:square;stroke-opacity:0.4;stroke-width:2;"/>
   </g>
   <g id="line2d_17">
    <path clip-path="url(#p5244817eca)" d="M 122.55602 150.155322 
L 122.872215 151.179314 
L 123.188409 152.19947 
L 123.504604 153.215659 
L 123.820799 154.227752 
L 124.136994 155.235622 
L 124.453189 156.239142 
L 124.769383 157.238187 
L 125.085578 158.232631 
" style="fill:none;stroke:#59b2e6;stroke-linecap:square;stroke-opacity:0.4;stroke-width:2;"/>
   </g>
   <g id="line2d_18">
    <path clip-path="url(#p5244817eca)" d="M 125.401773 159.222352 
L 125.717968 160.207226 
L 126.034162 161.187134 
L 126.350357 162.161953 
L 126.666552 163.131566 
L 126.982747 164.095855 
L 127.298942 165.054703 
L 127.615136 166.007994 
L 127.931331 166.955615 
L 128.247526 167.897453 
L 128.563721 168.833397 
" style="fill:none;stroke:#59b2e6;stroke-linecap:square;stroke-opacity:0.4;stroke-width:2;"/>
   </g>
   <g id="line2d_19">
    <path clip-path="url(#p5244817eca)" d="M 128.879916 169.763335 
L 129.19611 170.687158 
L 129.512305 171.60476 
L 129.8285 172.516034 
L 130.144695 173.420875 
L 130.460889 174.31918 
L 130.777084 175.210845 
L 131.093279 176.095771 
L 131.409474 176.973858 
L 131.725669 177.845008 
L 132.041863 178.709124 
L 132.358058 179.566112 
" style="fill:none;stroke:#59b2e6;stroke-linecap:square;stroke-opacity:0.4;stroke-width:2;"/>
   </g>
   <g id="line2d_20">
    <path clip-path="url(#p5244817eca)" d="M 132.674253 180.415878 
L 132.990448 181.25833 
L 133.306642 182.093377 
L 133.622837 182.920931 
L 133.939032 183.740903 
L 134.255227 184.553209 
L 134.571422 185.357763 
L 134.887616 186.154482 
L 135.203811 186.943286 
L 135.520006 187.724095 
L 135.836201 188.496831 
L 136.152396 189.261416 
L 136.46859 190.017777 
L 136.784785 190.765841 
" style="fill:none;stroke:#e69900;stroke-linecap:square;stroke-opacity:0.4;stroke-width:2;"/>
   </g>
   <g id="line2d_21">
    <path clip-path="url(#p5244817eca)" d="M 137.10098 191.505535 
L 137.417175 192.236789 
L 137.733369 192.959536 
L 138.049564 193.673709 
L 138.365759 194.379243 
L 138.681954 195.076075 
L 138.998149 195.764143 
L 139.314343 196.443387 
L 139.630538 197.113749 
L 139.946733 197.775173 
L 140.262928 198.427604 
L 140.579123 199.070989 
L 140.895317 199.705277 
L 141.211512 200.330418 
L 141.527707 200.946364 
L 141.843902 201.55307 
" style="fill:none;stroke:#59b2e6;stroke-linecap:square;stroke-opacity:0.4;stroke-width:2;"/>
   </g>
   <g id="line2d_22">
    <path clip-path="url(#p5244817eca)" d="M 142.160096 202.150491 
L 142.476291 202.738585 
L 142.792486 203.31731 
L 143.108681 203.886628 
L 143.424876 204.446501 
L 143.74107 204.996894 
L 144.057265 205.537774 
L 144.37346 206.069107 
L 144.689655 206.590865 
L 145.005849 207.103018 
L 145.322044 207.60554 
L 145.638239 208.098405 
L 145.954434 208.581592 
L 146.270629 209.055077 
L 146.586823 209.518843 
L 146.903018 209.97287 
L 147.219213 210.417144 
L 147.535408 210.851649 
L 147.851603 211.276373 
" style="fill:none;stroke:#59b2e6;stroke-linecap:square;stroke-opacity:0.4;stroke-width:2;"/>
   </g>
   <g id="line2d_23">
    <path clip-path="url(#p5244817eca)" d="M 148.167797 211.691305 
L 148.483992 212.096437 
L 148.800187 212.49176 
L 149.116382 212.87727 
L 149.432576 213.252963 
L 149.748771 213.618836 
L 150.064966 213.97489 
L 150.381161 214.321125 
L 150.697356 214.657546 
L 151.01355 214.984157 
L 151.329745 215.300964 
L 151.64594 215.607976 
L 151.962135 215.905203 
L 152.27833 216.192657 
L 152.594524 216.470352 
L 152.910719 216.738301 
L 153.226914 216.996523 
L 153.543109 217.245035 
L 153.859303 217.483858 
L 154.175498 217.713014 
L 154.491693 217.932526 
L 154.807888 218.142419 
L 155.124083 218.34272 
" style="fill:none;stroke:#59b2e6;stroke-linecap:square;stroke-opacity:0.4;stroke-width:2;"/>
   </g>
   <g id="line2d_24">
    <path clip-path="url(#p5244817eca)" d="M 155.440277 218.533457 
L 155.756472 218.714661 
L 156.072667 218.886362 
L 156.388862 219.048594 
L 156.705056 219.201392 
L 157.021251 219.344791 
L 157.337446 219.47883 
L 157.653641 219.603549 
L 157.969836 219.718987 
L 158.28603 219.825188 
L 158.602225 219.922195 
L 158.91842 220.010054 
L 159.234615 220.088811 
L 159.55081 220.158516 
L 159.867004 220.219217 
L 160.183199 220.270967 
L 160.499394 220.313818 
L 160.815589 220.347823 
L 161.131783 220.37304 
L 161.447978 220.389523 
L 161.764173 220.397333 
L 162.080368 220.396527 
L 162.396563 220.387168 
L 162.712757 220.369317 
L 163.028952 220.343039 
L 163.345147 220.308397 
L 163.661342 220.265459 
" style="fill:none;stroke:#59b2e6;stroke-linecap:square;stroke-opacity:0.4;stroke-width:2;"/>
   </g>
   <g id="line2d_25">
    <path clip-path="url(#p5244817eca)" d="M 163.977537 220.214291 
L 164.293731 220.154963 
L 164.609926 220.087543 
L 164.926121 220.012104 
L 165.242316 219.928717 
L 165.55851 219.837455 
L 165.874705 219.738395 
L 166.1909 219.63161 
L 166.507095 219.517178 
L 166.82329 219.395178 
L 167.139484 219.265687 
L 167.455679 219.128786 
L 167.771874 218.984557 
L 168.088069 218.833081 
L 168.404263 218.674441 
L 168.720458 218.508722 
L 169.036653 218.336008 
L 169.352848 218.156387 
L 169.669043 217.969944 
L 169.985237 217.776768 
L 170.301432 217.576947 
L 170.617627 217.370571 
L 170.933822 217.157731 
L 171.250017 216.938518 
L 171.566211 216.713024 
L 171.882406 216.481342 
L 172.198601 216.243565 
L 172.514796 215.999789 
L 172.83099 215.750107 
L 173.147185 215.494617 
L 173.46338 215.233414 
L 173.779575 214.966596 
L 174.09577 214.694261 
" style="fill:none;stroke:#59b2e6;stroke-linecap:square;stroke-opacity:0.4;stroke-width:2;"/>
   </g>
   <g id="line2d_26">
    <path clip-path="url(#p5244817eca)" d="M 174.411964 214.416506 
L 174.728159 214.133432 
L 175.044354 213.845137 
L 175.360549 213.551722 
L 175.676744 213.253288 
L 175.992938 212.949936 
L 176.309133 212.641766 
L 176.625328 212.328883 
L 176.941523 212.011388 
L 177.257717 211.689383 
L 177.573912 211.362974 
L 177.890107 211.032263 
L 178.206302 210.697355 
L 178.522497 210.358354 
L 178.838691 210.015364 
L 179.154886 209.668492 
L 179.471081 209.317843 
L 179.787276 208.963521 
L 180.10347 208.605633 
L 180.419665 208.244285 
L 180.73586 207.879584 
L 181.052055 207.511635 
L 181.36825 207.140545 
L 181.684444 206.766421 
L 182.000639 206.389369 
L 182.316834 206.009497 
L 182.633029 205.626911 
L 182.949224 205.241718 
L 183.265418 204.854025 
L 183.581613 204.463939 
L 183.897808 204.071566 
L 184.214003 203.677014 
L 184.530197 203.280389 
L 184.846392 202.881798 
L 185.162587 202.481348 
L 185.478782 202.079144 
L 185.794977 201.675293 
L 186.111171 201.269901 
L 186.427366 200.863074 
L 186.743561 200.454916 
L 187.059756 200.045535 
L 187.37595 199.635034 
L 187.692145 199.223519 
" style="fill:none;stroke:#59b2e6;stroke-linecap:square;stroke-opacity:0.4;stroke-width:2;"/>
   </g>
   <g id="line2d_27">
    <path clip-path="url(#p5244817eca)" d="M 188.00834 198.811093 
L 188.324535 198.397861 
L 188.64073 197.983928 
L 188.956924 197.569395 
L 189.273119 197.154367 
L 189.589314 196.738946 
L 189.905509 196.323233 
L 190.221704 195.907332 
L 190.537898 195.491343 
L 190.854093 195.075366 
L 191.170288 194.659503 
L 191.486483 194.243853 
L 191.802677 193.828515 
L 192.118872 193.413588 
L 192.435067 192.99917 
L 192.751262 192.585358 
L 193.067457 192.17225 
L 193.383651 191.759941 
L 193.699846 191.348527 
L 194.016041 190.938104 
L 194.332236 190.528765 
L 194.648431 190.120603 
L 194.964625 189.713713 
L 195.28082 189.308185 
L 195.597015 188.904111 
L 195.91321 188.501581 
L 196.229404 188.100686 
L 196.545599 187.701515 
L 196.861794 187.304155 
L 197.177989 186.908693 
L 197.494184 186.515217 
L 197.810378 186.123812 
L 198.126573 185.734563 
L 198.442768 185.347553 
L 198.758963 184.962865 
L 199.075157 184.580582 
L 199.391352 184.200784 
L 199.707547 183.823552 
L 200.023742 183.448964 
L 200.339937 183.0771 
L 200.656131 182.708035 
L 200.972326 182.341847 
L 201.288521 181.978611 
L 201.604716 181.6184 
L 201.920911 181.261288 
L 202.237105 180.907347 
L 202.5533 180.556647 
L 202.869495 180.20926 
L 203.18569 179.865253 
L 203.501884 179.524695 
L 203.818079 179.187651 
L 204.134274 178.854189 
L 204.450469 178.524371 
L 204.766664 178.198262 
L 205.082858 177.875923 
L 205.399053 177.557416 
" style="fill:none;stroke:#e69900;stroke-linecap:square;stroke-opacity:0.4;stroke-width:2;"/>
   </g>
   <g id="line2d_28">
    <path clip-path="url(#p5244817eca)" d="M 205.715248 177.2428 
L 206.031443 176.932134 
L 206.347638 176.625475 
L 206.663832 176.32288 
L 206.980027 176.024404 
L 207.296222 175.730101 
L 207.612417 175.440023 
L 207.928611 175.154222 
L 208.244806 174.872749 
L 208.561001 174.595651 
L 208.877196 174.322977 
L 209.193391 174.054774 
L 209.509585 173.791087 
L 209.82578 173.531959 
L 210.141975 173.277434 
L 210.45817 173.027554 
L 210.774364 172.782358 
L 211.090559 172.541885 
L 211.406754 172.306173 
L 211.722949 172.07526 
L 212.039144 171.849178 
L 212.355338 171.627964 
L 212.671533 171.411649 
L 212.987728 171.200265 
L 213.303923 170.993841 
L 213.620118 170.792406 
L 213.936312 170.595989 
L 214.252507 170.404614 
L 214.568702 170.218307 
L 214.884897 170.037092 
L 215.201091 169.86099 
L 215.517286 169.690023 
L 215.833481 169.52421 
L 216.149676 169.363569 
L 216.465871 169.208118 
L 216.782065 169.057873 
L 217.09826 168.912848 
L 217.414455 168.773056 
L 217.73065 168.638508 
L 218.046845 168.509217 
L 218.363039 168.38519 
L 218.679234 168.266437 
L 218.995429 168.152963 
L 219.311624 168.044775 
L 219.627818 167.941876 
L 219.944013 167.844269 
L 220.260208 167.751957 
L 220.576403 167.664939 
L 220.892598 167.583215 
L 221.208792 167.506782 
L 221.524987 167.435638 
L 221.841182 167.369778 
L 222.157377 167.309195 
L 222.473571 167.253883 
L 222.789766 167.203834 
L 223.105961 167.159038 
L 223.422156 167.119485 
L 223.738351 167.085161 
L 224.054545 167.056056 
L 224.37074 167.032153 
L 224.686935 167.013438 
L 225.00313 166.999894 
L 225.319325 166.991503 
L 225.635519 166.988247 
L 225.951714 166.990105 
L 226.267909 166.997055 
L 226.584104 167.009076 
L 226.900298 167.026144 
L 227.216493 167.048234 
L 227.532688 167.07532 
L 227.848883 167.107377 
L 228.165078 167.144375 
L 228.481272 167.186286 
L 228.797467 167.233079 
L 229.113662 167.284725 
" style="fill:none;stroke:#59b2e6;stroke-linecap:square;stroke-opacity:0.4;stroke-width:2;"/>
   </g>
   <g id="line2d_29">
    <path clip-path="url(#p5244817eca)" d="M 229.429857 167.34119 
L 229.746052 167.402441 
L 230.062246 167.468444 
L 230.378441 167.539165 
L 230.694636 167.614566 
L 231.010831 167.69461 
L 231.327025 167.77926 
L 231.64322 167.868476 
L 231.959415 167.962219 
L 232.27561 168.060446 
L 232.591805 168.163117 
L 232.907999 168.270188 
L 233.224194 168.381616 
L 233.540389 168.497356 
L 233.856584 168.617362 
L 234.172778 168.741589 
L 234.488973 168.869989 
L 234.805168 169.002513 
L 235.121363 169.139114 
L 235.437558 169.279741 
L 235.753752 169.424344 
L 236.069947 169.572873 
L 236.386142 169.725274 
L 236.702337 169.881495 
L 237.018532 170.041483 
L 237.334726 170.205184 
L 237.650921 170.372542 
L 237.967116 170.543503 
L 238.283311 170.71801 
L 238.599505 170.896006 
L 238.9157 171.077434 
L 239.231895 171.262235 
L 239.54809 171.450352 
L 239.864285 171.641724 
L 240.180479 171.836292 
L 240.496674 172.033995 
L 240.812869 172.234772 
L 241.129064 172.438563 
L 241.445259 172.645304 
L 241.761453 172.854933 
L 242.077648 173.067388 
L 242.393843 173.282604 
L 242.710038 173.500519 
L 243.026232 173.721067 
L 243.342427 173.944184 
L 243.658622 174.169805 
L 243.974817 174.397864 
L 244.291012 174.628295 
L 244.607206 174.861033 
L 244.923401 175.09601 
L 245.239596 175.33316 
L 245.555791 175.572415 
L 245.871985 175.813709 
L 246.18818 176.056973 
L 246.504375 176.30214 
L 246.82057 176.54914 
L 247.136765 176.797907 
L 247.452959 177.048372 
L 247.769154 177.300464 
L 248.085349 177.554117 
L 248.401544 177.80926 
L 248.717739 178.065825 
L 249.033933 178.323741 
L 249.350128 178.582941 
L 249.666323 178.843354 
L 249.982518 179.10491 
L 250.298712 179.367541 
L 250.614907 179.631176 
L 250.931102 179.895746 
L 251.247297 180.161182 
L 251.563492 180.427413 
L 251.879686 180.694371 
L 252.195881 180.961985 
L 252.512076 181.230186 
L 252.828271 181.498906 
L 253.144466 181.768074 
L 253.46066 182.037622 
L 253.776855 182.307481 
L 254.09305 182.577581 
L 254.409245 182.847854 
L 254.725439 183.118233 
L 255.041634 183.388647 
L 255.357829 183.65903 
L 255.674024 183.929314 
L 255.990219 184.199431 
L 256.306413 184.469313 
L 256.622608 184.738894 
L 256.938803 185.008107 
L 257.254998 185.276885 
L 257.571192 185.545163 
L 257.887387 185.812874 
L 258.203582 186.079953 
L 258.519777 186.346336 
L 258.835972 186.611956 
L 259.152166 186.876751 
L 259.468361 187.140656 
L 259.784556 187.403608 
L 260.100751 187.665543 
L 260.416946 187.9264 
L 260.73314 188.186116 
L 261.049335 188.444629 
L 261.36553 188.701879 
L 261.681725 188.957804 
L 261.997919 189.212345 
L 262.314114 189.465441 
L 262.630309 189.717035 
L 262.946504 189.967067 
L 263.262699 190.21548 
L 263.578893 190.462215 
" style="fill:none;stroke:#e69900;stroke-linecap:square;stroke-opacity:0.4;stroke-width:2;"/>
   </g>
   <g id="line2d_30">
    <path clip-path="url(#p5244817eca)" d="M 263.895088 190.707218 
L 264.211283 190.95043 
L 264.527478 191.191797 
L 264.843673 191.431265 
L 265.159867 191.668777 
L 265.476062 191.904282 
L 265.792257 192.137726 
L 266.108452 192.369057 
L 266.424646 192.598223 
L 266.740841 192.825173 
L 267.057036 193.049857 
L 267.373231 193.272226 
L 267.689426 193.49223 
L 268.00562 193.709823 
L 268.321815 193.924956 
L 268.63801 194.137583 
L 268.954205 194.347658 
L 269.270399 194.555136 
L 269.586594 194.759973 
L 269.902789 194.962126 
L 270.218984 195.161551 
L 270.535179 195.358208 
L 270.851373 195.552055 
L 271.167568 195.743051 
L 271.483763 195.931157 
L 271.799958 196.116336 
L 272.116153 196.298548 
L 272.432347 196.477758 
L 272.748542 196.653929 
L 273.064737 196.827026 
L 273.380932 196.997014 
L 273.697126 197.163861 
L 274.013321 197.327533 
L 274.329516 197.488 
L 274.645711 197.645229 
L 274.961906 197.799192 
L 275.2781 197.94986 
L 275.594295 198.097204 
L 275.91049 198.241196 
L 276.226685 198.381812 
L 276.54288 198.519025 
L 276.859074 198.652811 
L 277.175269 198.783146 
L 277.491464 198.910009 
L 277.807659 199.033376 
L 278.123853 199.153228 
L 278.440048 199.269545 
L 278.756243 199.382307 
L 279.072438 199.491497 
L 279.388633 199.597098 
L 279.704827 199.699094 
L 280.021022 199.797469 
L 280.337217 199.89221 
L 280.653412 199.983303 
L 280.969606 200.070735 
L 281.285801 200.154497 
L 281.601996 200.234576 
L 281.918191 200.310964 
L 282.234386 200.383652 
L 282.55058 200.452633 
L 282.866775 200.5179 
L 283.18297 200.579447 
L 283.499165 200.637269 
L 283.81536 200.691363 
L 284.131554 200.741726 
L 284.447749 200.788356 
L 284.763944 200.831252 
L 285.080139 200.870413 
L 285.396333 200.905842 
L 285.712528 200.937538 
L 286.028723 200.965506 
L 286.344918 200.989749 
L 286.661113 201.010271 
L 286.977307 201.027077 
L 287.293502 201.040175 
L 287.609697 201.049572 
L 287.925892 201.055275 
L 288.242087 201.057293 
L 288.558281 201.055638 
L 288.874476 201.050318 
L 289.190671 201.041348 
L 289.506866 201.028738 
L 289.82306 201.012502 
L 290.139255 200.992655 
L 290.45545 200.969212 
L 290.771645 200.94219 
L 291.08784 200.911604 
L 291.404034 200.877473 
L 291.720229 200.839815 
L 292.036424 200.79865 
L 292.352619 200.753998 
L 292.668813 200.705881 
L 292.985008 200.654319 
L 293.301203 200.599336 
L 293.617398 200.540955 
L 293.933593 200.4792 
L 294.249787 200.414097 
L 294.565982 200.345672 
L 294.882177 200.27395 
L 295.198372 200.198959 
L 295.514567 200.120727 
L 295.830761 200.039284 
L 296.146956 199.954658 
L 296.463151 199.86688 
L 296.779346 199.775981 
L 297.09554 199.681992 
L 297.411735 199.584946 
L 297.72793 199.484876 
L 298.044125 199.381815 
L 298.36032 199.275798 
L 298.676514 199.16686 
L 298.992709 199.055036 
L 299.308904 198.940363 
L 299.625099 198.822878 
L 299.941294 198.702618 
L 300.257488 198.579621 
L 300.573683 198.453927 
L 300.889878 198.325573 
L 301.206073 198.1946 
L 301.522267 198.061049 
L 301.838462 197.92496 
L 302.154657 197.786374 
L 302.470852 197.645335 
L 302.787047 197.501883 
L 303.103241 197.356063 
L 303.419436 197.207917 
L 303.735631 197.05749 
L 304.051826 196.904826 
L 304.36802 196.749969 
L 304.684215 196.592966 
L 305.00041 196.433861 
L 305.316605 196.2727 
L 305.6328 196.109532 
L 305.948994 195.944401 
L 306.265189 195.777355 
L 306.581384 195.608443 
L 306.897579 195.437712 
L 307.213774 195.26521 
L 307.529968 195.090986 
L 307.846163 194.915089 
L 308.162358 194.737568 
L 308.478553 194.558472 
L 308.794747 194.377852 
L 309.110942 194.195758 
L 309.427137 194.012239 
L 309.743332 193.827346 
L 310.059527 193.641131 
L 310.375721 193.453643 
L 310.691916 193.264935 
L 311.008111 193.075057 
L 311.324306 192.884061 
L 311.640501 192.691999 
L 311.956695 192.498922 
L 312.27289 192.304882 
L 312.589085 192.109932 
L 312.90528 191.914123 
L 313.221474 191.717507 
L 313.537669 191.520138 
L 313.853864 191.322067 
L 314.170059 191.123347 
L 314.486254 190.92403 
L 314.802448 190.724168 
L 315.118643 190.523815 
L 315.434838 190.323022 
L 315.751033 190.121842 
L 316.067227 189.920328 
L 316.383422 189.718532 
L 316.699617 189.516505 
L 317.015812 189.314301 
L 317.332007 189.111972 
L 317.648201 188.909569 
" style="fill:none;stroke:#59b2e6;stroke-linecap:square;stroke-opacity:0.4;stroke-width:2;"/>
   </g>
   <g id="line2d_31">
    <path clip-path="url(#p5244817eca)" d="M 317.964396 188.707145 
L 318.280591 188.504751 
L 318.596786 188.30244 
L 318.912981 188.100262 
L 319.229175 187.89827 
L 319.54537 187.696514 
L 319.861565 187.495045 
L 320.17776 187.293915 
L 320.493954 187.093174 
L 320.810149 186.892872 
L 321.126344 186.69306 
L 321.442539 186.493788 
L 321.758734 186.295105 
L 322.074928 186.097061 
L 322.391123 185.899706 
L 322.707318 185.703087 
L 323.023513 185.507253 
L 323.339708 185.312253 
L 323.655902 185.118136 
L 323.972097 184.924947 
L 324.288292 184.732735 
L 324.604487 184.541547 
L 324.920681 184.351428 
L 325.236876 184.162426 
L 325.553071 183.974586 
L 325.869266 183.787953 
L 326.185461 183.602573 
L 326.501655 183.418489 
L 326.81785 183.235747 
L 327.134045 183.054389 
L 327.45024 182.874459 
L 327.766434 182.696 
L 328.082629 182.519054 
L 328.398824 182.343662 
L 328.715019 182.169866 
L 329.031214 181.997708 
L 329.347408 181.827226 
L 329.663603 181.658462 
L 329.979798 181.491453 
L 330.295993 181.32624 
L 330.612188 181.16286 
L 330.928382 181.001351 
L 331.244577 180.841749 
L 331.560772 180.684092 
L 331.876967 180.528416 
L 332.193161 180.374755 
L 332.509356 180.223144 
L 332.825551 180.073618 
L 333.141746 179.926211 
L 333.457941 179.780954 
L 333.774135 179.637881 
L 334.09033 179.497023 
L 334.406525 179.358411 
L 334.72272 179.222076 
L 335.038915 179.088048 
L 335.355109 178.956355 
L 335.671304 178.827026 
L 335.987499 178.700089 
L 336.303694 178.575571 
L 336.619888 178.453498 
L 336.936083 178.333897 
L 337.252278 178.216792 
L 337.568473 178.102208 
L 337.884668 177.990168 
L 338.200862 177.880696 
L 338.517057 177.773814 
L 338.833252 177.669543 
L 339.149447 177.567905 
L 339.465641 177.468919 
L 339.781836 177.372605 
L 340.098031 177.278983 
L 340.414226 177.188068 
L 340.730421 177.09988 
L 341.046615 177.014435 
L 341.36281 176.931748 
L 341.679005 176.851835 
L 341.9952 176.774709 
L 342.311395 176.700386 
L 342.627589 176.628876 
L 342.943784 176.560193 
L 343.259979 176.494349 
L 343.576174 176.431353 
L 343.892368 176.371215 
L 344.208563 176.313945 
L 344.524758 176.259551 
L 344.840953 176.208041 
L 345.157148 176.159421 
L 345.473342 176.113698 
L 345.789537 176.070877 
L 346.105732 176.030963 
L 346.421927 175.99396 
L 346.738121 175.95987 
L 347.054316 175.928697 
L 347.370511 175.900441 
L 347.686706 175.875105 
L 348.002901 175.852687 
L 348.319095 175.833187 
L 348.63529 175.816605 
L 348.951485 175.802937 
L 349.26768 175.792182 
L 349.583875 175.784335 
L 349.900069 175.779392 
L 350.216264 175.777349 
L 350.532459 175.778199 
L 350.848654 175.781936 
L 351.164848 175.788553 
L 351.481043 175.798042 
L 351.797238 175.810395 
L 352.113433 175.825601 
L 352.429628 175.843651 
L 352.745822 175.864535 
L 353.062017 175.88824 
L 353.378212 175.914755 
L 353.694407 175.944067 
L 354.010602 175.976162 
L 354.326796 176.011026 
L 354.642991 176.048644 
L 354.959186 176.089001 
L 355.275381 176.13208 
L 355.591575 176.177865 
L 355.90777 176.226337 
L 356.223965 176.277479 
L 356.54016 176.331273 
L 356.856355 176.387697 
L 357.172549 176.446733 
L 357.488744 176.50836 
L 357.804939 176.572555 
L 358.121134 176.639298 
L 358.437328 176.708566 
L 358.753523 176.780335 
L 359.069718 176.854582 
L 359.385913 176.931282 
L 359.702108 177.01041 
L 360.018302 177.091942 
L 360.334497 177.17585 
L 360.650692 177.262109 
L 360.966887 177.35069 
L 361.283082 177.441567 
L 361.599276 177.534712 
L 361.915471 177.630094 
L 362.231666 177.727686 
L 362.547861 177.827456 
L 362.864055 177.929376 
L 363.18025 178.033414 
L 363.496445 178.139539 
L 363.81264 178.247719 
L 364.128835 178.357923 
L 364.445029 178.470116 
L 364.761224 178.584267 
L 365.077419 178.700342 
L 365.393614 178.818307 
L 365.709809 178.938127 
L 366.026003 179.059767 
L 366.342198 179.183193 
L 366.658393 179.308369 
L 366.974588 179.435259 
L 367.290782 179.563827 
L 367.606977 179.694036 
L 367.923172 179.825848 
L 368.239367 179.959228 
L 368.555562 180.094136 
L 368.871756 180.230535 
L 369.187951 180.368387 
L 369.504146 180.507652 
L 369.820341 180.648293 
L 370.136535 180.79027 
L 370.45273 180.933543 
L 370.768925 181.078073 
L 371.08512 181.223819 
L 371.401315 181.370742 
L 371.717509 181.518802 
L 372.033704 181.667957 
L 372.349899 181.818167 
L 372.666094 181.96939 
L 372.982289 182.121586 
L 373.298483 182.274713 
L 373.614678 182.42873 
L 373.930873 182.583595 
L 374.247068 182.739266 
L 374.563262 182.895701 
L 374.879457 183.052858 
L 375.195652 183.210695 
L 375.511847 183.36917 
L 375.828042 183.52824 
L 376.144236 183.687863 
L 376.460431 183.847996 
L 376.776626 184.008597 
L 377.092821 184.169624 
L 377.409016 184.331033 
L 377.72521 184.492783 
L 378.041405 184.654829 
L 378.3576 184.817131 
L 378.673795 184.979645 
L 378.989989 185.142328 
L 379.306184 185.305139 
L 379.622379 185.468034 
L 379.938574 185.630971 
L 380.254769 185.793908 
L 380.570963 185.956803 
L 380.887158 186.119612 
L 381.203353 186.282295 
L 381.519548 186.444809 
L 381.835742 186.607112 
L 382.151937 186.769163 
L 382.468132 186.930919 
L 382.784327 187.09234 
L 383.100522 187.253384 
L 383.416716 187.41401 
L 383.732911 187.574178 
L 384.049106 187.733845 
L 384.365301 187.892972 
L 384.681496 188.051519 
L 384.99769 188.209445 
L 385.313885 188.366711 
L 385.63008 188.523276 
L 385.946275 188.679102 
L 386.262469 188.83415 
L 386.578664 188.988379 
L 386.894859 189.141753 
L 387.211054 189.294233 
L 387.527249 189.44578 
L 387.843443 189.596358 
L 388.159638 189.745928 
L 388.475833 189.894453 
L 388.792028 190.041898 
L 389.108223 190.188226 
L 389.424417 190.3334 
L 389.740612 190.477385 
L 390.056807 190.620146 
L 390.373002 190.761649 
L 390.689196 190.901857 
L 391.005391 191.040738 
L 391.321586 191.178258 
L 391.637781 191.314383 
L 391.953976 191.449081 
L 392.27017 191.582319 
L 392.586365 191.714064 
L 392.90256 191.844287 
L 393.218755 191.972955 
L 393.534949 192.100038 
L 393.851144 192.225506 
L 394.167339 192.349328 
L 394.483534 192.471476 
L 394.799729 192.591921 
L 395.115923 192.710635 
L 395.432118 192.82759 
L 395.748313 192.942758 
L 396.064508 193.056113 
L 396.380703 193.167629 
L 396.696897 193.27728 
L 397.013092 193.385041 
L 397.329287 193.490886 
L 397.645482 193.594793 
L 397.961676 193.696737 
L 398.277871 193.796695 
L 398.594066 193.894646 
L 398.910261 193.990566 
L 399.226456 194.084435 
L 399.54265 194.176231 
L 399.858845 194.265936 
L 400.17504 194.353528 
L 400.491235 194.438989 
L 400.80743 194.5223 
L 401.123624 194.603444 
L 401.439819 194.682403 
L 401.756014 194.759161 
L 402.072209 194.833701 
L 402.388403 194.906009 
L 402.704598 194.976068 
L 403.020793 195.043865 
L 403.336988 195.109385 
L 403.653183 195.172617 
L 403.969377 195.233548 
L 404.285572 195.292165 
L 404.601767 195.348457 
L 404.917962 195.402415 
L 405.234156 195.454027 
L 405.550351 195.503285 
L 405.866546 195.55018 
L 406.182741 195.594703 
L 406.498936 195.636848 
L 406.81513 195.676607 
L 407.131325 195.713974 
L 407.44752 195.748944 
L 407.763715 195.781512 
L 408.07991 195.811673 
L 408.396104 195.839423 
L 408.712299 195.86476 
L 409.028494 195.887682 
L 409.344689 195.908186 
L 409.660883 195.926271 
L 409.977078 195.941936 
L 410.293273 195.955183 
L 410.609468 195.96601 
L 410.925663 195.974421 
L 411.241857 195.980417 
L 411.558052 195.984 
L 411.874247 195.985173 
L 412.190442 195.983941 
L 412.506637 195.980308 
L 412.822831 195.974279 
L 413.139026 195.96586 
L 413.455221 195.955056 
L 413.771416 195.941875 
L 414.08761 195.926325 
L 414.403805 195.908413 
L 414.72 195.888148 
" style="fill:none;stroke:#59b2e6;stroke-linecap:square;stroke-opacity:0.4;stroke-width:2;"/>
   </g>
   <g id="line2d_32">
    <defs>
     <path d="M 0 2 
C 0.530406 2 1.03916 1.789267 1.414214 1.414214 
C 1.789267 1.03916 2 0.530406 2 0 
C 2 -0.530406 1.789267 -1.03916 1.414214 -1.414214 
C 1.03916 -1.789267 0.530406 -2 0 -2 
C -0.530406 -2 -1.03916 -1.789267 -1.414214 -1.414214 
C -1.789267 -1.03916 -2 -0.530406 -2 0 
C -2 0.530406 -1.789267 1.03916 -1.414214 1.414214 
C -1.03916 1.789267 -0.530406 2 0 2 
z
" id="m32d3a0e8a6" style="stroke:#59b2e6;"/>
    </defs>
    <g clip-path="url(#p5244817eca)">
     <use style="fill:#59b2e6;stroke:#59b2e6;" x="98.841411" xlink:href="#m32d3a0e8a6" y="72.794718"/>
     <use style="fill:#59b2e6;stroke:#59b2e6;" x="99.6339" xlink:href="#m32d3a0e8a6" y="75.071948"/>
     <use style="fill:#59b2e6;stroke:#59b2e6;" x="100.476659" xlink:href="#m32d3a0e8a6" y="77.540145"/>
     <use style="fill:#59b2e6;stroke:#59b2e6;" x="101.374625" xlink:href="#m32d3a0e8a6" y="80.219943"/>
     <use style="fill:#59b2e6;stroke:#59b2e6;" x="102.333409" xlink:href="#m32d3a0e8a6" y="83.134571"/>
     <use style="fill:#59b2e6;stroke:#59b2e6;" x="103.359406" xlink:href="#m32d3a0e8a6" y="86.310166"/>
     <use style="fill:#59b2e6;stroke:#59b2e6;" x="104.459939" xlink:href="#m32d3a0e8a6" y="89.776129"/>
     <use style="fill:#59b2e6;stroke:#59b2e6;" x="105.643437" xlink:href="#m32d3a0e8a6" y="93.565466"/>
     <use style="fill:#59b2e6;stroke:#59b2e6;" x="106.91965" xlink:href="#m32d3a0e8a6" y="97.71513"/>
     <use style="fill:#59b2e6;stroke:#59b2e6;" x="108.299915" xlink:href="#m32d3a0e8a6" y="102.266287"/>
     <use style="fill:#59b2e6;stroke:#59b2e6;" x="109.797501" xlink:href="#m32d3a0e8a6" y="107.264451"/>
     <use style="fill:#59b2e6;stroke:#59b2e6;" x="111.428028" xlink:href="#m32d3a0e8a6" y="112.759355"/>
     <use style="fill:#59b2e6;stroke:#59b2e6;" x="113.210021" xlink:href="#m32d3a0e8a6" y="118.804346"/>
     <use style="fill:#59b2e6;stroke:#59b2e6;" x="115.165612" xlink:href="#m32d3a0e8a6" y="125.454988"/>
     <use style="fill:#59b2e6;stroke:#59b2e6;" x="117.321469" xlink:href="#m32d3a0e8a6" y="132.766298"/>
     <use style="fill:#59b2e6;stroke:#59b2e6;" x="119.710015" xlink:href="#m32d3a0e8a6" y="140.787755"/>
     <use style="fill:#59b2e6;stroke:#59b2e6;" x="122.37107" xlink:href="#m32d3a0e8a6" y="149.554639"/>
     <use style="fill:#59b2e6;stroke:#59b2e6;" x="125.354093" xlink:href="#m32d3a0e8a6" y="159.073415"/>
     <use style="fill:#59b2e6;stroke:#59b2e6;" x="128.721278" xlink:href="#m32d3a0e8a6" y="169.297533"/>
     <use style="fill:#59b2e6;stroke:#59b2e6;" x="132.551943" xlink:href="#m32d3a0e8a6" y="180.088036"/>
     <use style="fill:#59b2e6;stroke:#59b2e6;" x="136.948857" xlink:href="#m32d3a0e8a6" y="191.150714"/>
     <use style="fill:#59b2e6;stroke:#59b2e6;" x="142.047593" xlink:href="#m32d3a0e8a6" y="201.938994"/>
     <use style="fill:#59b2e6;stroke:#59b2e6;" x="148.03076" xlink:href="#m32d3a0e8a6" y="211.512678"/>
     <use style="fill:#59b2e6;stroke:#59b2e6;" x="155.150331" xlink:href="#m32d3a0e8a6" y="218.358918"/>
     <use style="fill:#59b2e6;stroke:#59b2e6;" x="163.764043" xlink:href="#m32d3a0e8a6" y="220.249739"/>
     <use style="fill:#59b2e6;stroke:#59b2e6;" x="174.397385" xlink:href="#m32d3a0e8a6" y="214.429431"/>
     <use style="fill:#59b2e6;stroke:#59b2e6;" x="187.854991" xlink:href="#m32d3a0e8a6" y="199.011219"/>
     <use style="fill:#59b2e6;stroke:#59b2e6;" x="205.434382" xlink:href="#m32d3a0e8a6" y="177.52207"/>
     <use style="fill:#59b2e6;stroke:#59b2e6;" x="229.37161" xlink:href="#m32d3a0e8a6" y="167.330428"/>
     <use style="fill:#59b2e6;stroke:#59b2e6;" x="263.877175" xlink:href="#m32d3a0e8a6" y="190.693385"/>
     <use style="fill:#59b2e6;stroke:#59b2e6;" x="317.932689" xlink:href="#m32d3a0e8a6" y="188.727443"/>
     <use style="fill:#59b2e6;stroke:#59b2e6;" x="414.72" xlink:href="#m32d3a0e8a6" y="195.888148"/>
    </g>
   </g>
   <g id="line2d_33">
    <defs>
     <path d="M 0 3.5 
C 0.928211 3.5 1.81853 3.131218 2.474874 2.474874 
C 3.131218 1.81853 3.5 0.928211 3.5 0 
C 3.5 -0.928211 3.131218 -1.81853 2.474874 -2.474874 
C 1.81853 -3.131218 0.928211 -3.5 0 -3.5 
C -0.928211 -3.5 -1.81853 -3.131218 -2.474874 -2.474874 
C -3.131218 -1.81853 -3.5 -0.928211 -3.5 0 
C -3.5 0.928211 -3.131218 1.81853 -2.474874 2.474874 
C -1.81853 3.131218 -0.928211 3.5 0 3.5 
z
" id="m2e6da30b2c" style="stroke:#e69900;stroke-width:2;"/>
    </defs>
    <g clip-path="url(#p5244817eca)">
     <use style="fill-opacity:0;stroke:#e69900;stroke-width:2;" x="132.551943" xlink:href="#m2e6da30b2c" y="180.088036"/>
     <use style="fill-opacity:0;stroke:#e69900;stroke-width:2;" x="187.854991" xlink:href="#m2e6da30b2c" y="199.011219"/>
     <use style="fill-opacity:0;stroke:#e69900;stroke-width:2;" x="229.37161" xlink:href="#m2e6da30b2c" y="167.330428"/>
    </g>
   </g>
   <g id="line2d_34">
    <g clip-path="url(#p5244817eca)">
     <use style="fill-opacity:0;stroke:#e69900;stroke-width:2;" x="136.948857" xlink:href="#m2e6da30b2c" y="191.150714"/>
     <use style="fill-opacity:0;stroke:#e69900;stroke-width:2;" x="205.434382" xlink:href="#m2e6da30b2c" y="177.52207"/>
     <use style="fill-opacity:0;stroke:#e69900;stroke-width:2;" x="263.877175" xlink:href="#m2e6da30b2c" y="190.693385"/>
    </g>
   </g>
   <g id="matplotlib.axis_1">
    <g id="xtick_1">
     <g id="line2d_35">
      <path clip-path="url(#p5244817eca)" d="M 73.061743 233.110711 
L 73.061743 17.28 
" style="fill:none;stroke:#b0b0b0;stroke-linecap:square;stroke-width:0.8;"/>
     </g>
     <g id="line2d_36">
      <defs>
       <path d="M 0 0 
L 0 -3.5 
" id="m8d840dfcfd" style="stroke:#000000;stroke-width:0.8;"/>
      </defs>
      <g>
       <use style="stroke:#000000;stroke-width:0.8;" x="73.061743" xlink:href="#m8d840dfcfd" y="233.110711"/>
      </g>
     </g>
     <g id="line2d_37">
      <defs>
       <path d="M 0 0 
L 0 3.5 
" id="m2bd30f55ea" style="stroke:#000000;stroke-width:0.8;"/>
      </defs>
      <g>
       <use style="stroke:#000000;stroke-width:0.8;" x="73.061743" xlink:href="#m2bd30f55ea" y="17.28"/>
      </g>
     </g>
     <g id="text_1">
      <!-- $\mathdefault{0}$ -->
      <g transform="translate(69.159749 247.6803)scale(0.16 -0.16)">
       <defs>
        <path d="M 42 31.84375 
C 42 37.96875 41.90625 48.421875 37.703125 56.453125 
C 34 63.484375 28.09375 66 22.90625 66 
C 18.09375 66 12 63.78125 8.203125 56.5625 
C 4.203125 49.015625 3.796875 39.671875 3.796875 31.84375 
C 3.796875 26.109375 3.90625 17.375 7 9.734375 
C 11.296875 -0.609375 19 -2 22.90625 -2 
C 27.5 -2 34.5 -0.109375 38.59375 9.4375 
C 41.59375 16.375 42 24.5 42 31.84375 
z
M 22.90625 -0.40625 
C 16.5 -0.40625 12.703125 5.125 11.296875 12.75 
C 10.203125 18.6875 10.203125 27.328125 10.203125 32.953125 
C 10.203125 40.6875 10.203125 47.109375 11.5 53.234375 
C 13.40625 61.78125 19 64.390625 22.90625 64.390625 
C 27 64.390625 32.296875 61.671875 34.203125 53.4375 
C 35.5 47.71875 35.59375 40.984375 35.59375 32.953125 
C 35.59375 26.421875 35.59375 18.375 34.40625 12.453125 
C 32.296875 1.5 26.40625 -0.40625 22.90625 -0.40625 
z
" id="CMR17-48"/>
       </defs>
       <use transform="scale(0.996264)" xlink:href="#CMR17-48"/>
      </g>
     </g>
    </g>
    <g id="xtick_2">
     <g id="line2d_38">
      <path clip-path="url(#p5244817eca)" d="M 135.181426 233.110711 
L 135.181426 17.28 
" style="fill:none;stroke:#b0b0b0;stroke-linecap:square;stroke-width:0.8;"/>
     </g>
     <g id="line2d_39">
      <g>
       <use style="stroke:#000000;stroke-width:0.8;" x="135.181426" xlink:href="#m8d840dfcfd" y="233.110711"/>
      </g>
     </g>
     <g id="line2d_40">
      <g>
       <use style="stroke:#000000;stroke-width:0.8;" x="135.181426" xlink:href="#m2bd30f55ea" y="17.28"/>
      </g>
     </g>
     <g id="text_2">
      <!-- $\mathdefault{1}$ -->
      <g transform="translate(131.279432 247.6803)scale(0.16 -0.16)">
       <defs>
        <path d="M 26.59375 63.796875 
C 26.59375 65.890625 26.5 66 25.09375 66 
C 21.203125 61.359375 15.296875 59.890625 9.703125 59.6875 
C 9.40625 59.6875 8.90625 59.6875 8.796875 59.5 
C 8.703125 59.296875 8.703125 59.09375 8.703125 57 
C 11.796875 57 17 57.59375 21 59.984375 
L 21 7.296875 
C 21 3.796875 20.796875 2.59375 12.203125 2.59375 
L 9.203125 2.59375 
L 9.203125 0 
C 14 0.09375 19 0.1875 23.796875 0.1875 
C 28.59375 0.1875 33.59375 0.09375 38.40625 0 
L 38.40625 2.59375 
L 35.40625 2.59375 
C 26.796875 2.59375 26.59375 3.6875 26.59375 7.296875 
z
" id="CMR17-49"/>
       </defs>
       <use transform="scale(0.996264)" xlink:href="#CMR17-49"/>
      </g>
     </g>
    </g>
    <g id="xtick_3">
     <g id="line2d_41">
      <path clip-path="url(#p5244817eca)" d="M 197.301109 233.110711 
L 197.301109 17.28 
" style="fill:none;stroke:#b0b0b0;stroke-linecap:square;stroke-width:0.8;"/>
     </g>
     <g id="line2d_42">
      <g>
       <use style="stroke:#000000;stroke-width:0.8;" x="197.301109" xlink:href="#m8d840dfcfd" y="233.110711"/>
      </g>
     </g>
     <g id="line2d_43">
      <g>
       <use style="stroke:#000000;stroke-width:0.8;" x="197.301109" xlink:href="#m2bd30f55ea" y="17.28"/>
      </g>
     </g>
     <g id="text_3">
      <!-- $\mathdefault{2}$ -->
      <g transform="translate(193.399115 247.6803)scale(0.16 -0.16)">
       <defs>
        <path d="M 41.703125 15.46875 
L 39.90625 15.46875 
C 38.90625 8.390625 38.09375 7.1875 37.703125 6.59375 
C 37.203125 5.796875 30 5.796875 28.59375 5.796875 
L 9.40625 5.796875 
C 13 9.6875 20 16.765625 28.5 24.9375 
C 34.59375 30.71875 41.703125 37.5 41.703125 47.390625 
C 41.703125 59.1875 32.296875 66 21.796875 66 
C 10.796875 66 4.09375 56.296875 4.09375 47.296875 
C 4.09375 43.390625 7 42.890625 8.203125 42.890625 
C 9.203125 42.890625 12.203125 43.484375 12.203125 46.984375 
C 12.203125 50.09375 9.59375 51 8.203125 51 
C 7.59375 51 7 50.890625 6.59375 50.6875 
C 8.5 59.1875 14.296875 63.390625 20.40625 63.390625 
C 29.09375 63.390625 34.796875 56.5 34.796875 47.390625 
C 34.796875 38.703125 29.703125 31.21875 24 24.734375 
L 4.09375 2.296875 
L 4.09375 0 
L 39.296875 0 
z
" id="CMR17-50"/>
       </defs>
       <use transform="scale(0.996264)" xlink:href="#CMR17-50"/>
      </g>
     </g>
    </g>
    <g id="xtick_4">
     <g id="line2d_44">
      <path clip-path="url(#p5244817eca)" d="M 259.420792 233.110711 
L 259.420792 17.28 
" style="fill:none;stroke:#b0b0b0;stroke-linecap:square;stroke-width:0.8;"/>
     </g>
     <g id="line2d_45">
      <g>
       <use style="stroke:#000000;stroke-width:0.8;" x="259.420792" xlink:href="#m8d840dfcfd" y="233.110711"/>
      </g>
     </g>
     <g id="line2d_46">
      <g>
       <use style="stroke:#000000;stroke-width:0.8;" x="259.420792" xlink:href="#m2bd30f55ea" y="17.28"/>
      </g>
     </g>
     <g id="text_4">
      <!-- $\mathdefault{3}$ -->
      <g transform="translate(255.518799 247.6803)scale(0.16 -0.16)">
       <defs>
        <path d="M 22.09375 34 
C 31 34 34.90625 26.140625 34.90625 17.09375 
C 34.90625 5.03125 28.5 0.390625 22.703125 0.390625 
C 17.40625 0.390625 8.796875 3.015625 6.09375 10.796875 
C 6.59375 10.59375 7.09375 10.59375 7.59375 10.59375 
C 10 10.59375 11.796875 12.1875 11.796875 14.796875 
C 11.796875 17.6875 9.59375 19 7.59375 19 
C 5.90625 19 3.296875 18.1875 3.296875 14.484375 
C 3.296875 5.234375 12.296875 -2 22.90625 -2 
C 34 -2 42.5 6.75 42.5 16.984375 
C 42.5 26.84375 34.5 34 25 35.09375 
C 32.59375 36.671875 39.90625 43.375 39.90625 52.390625 
C 39.90625 60.25 32 66 23 66 
C 13.90625 66 5.90625 60.34375 5.90625 52.296875 
C 5.90625 48.796875 8.5 48.1875 9.796875 48.1875 
C 11.90625 48.1875 13.703125 49.484375 13.703125 52.09375 
C 13.703125 54.6875 11.90625 56 9.796875 56 
C 9.40625 56 8.90625 56 8.5 55.796875 
C 11.40625 62.484375 19.296875 63.6875 22.796875 63.6875 
C 26.296875 63.6875 32.90625 61.96875 32.90625 52.296875 
C 32.90625 49.484375 32.5 44.546875 29.09375 40.21875 
C 26.09375 36.390625 22.703125 36.1875 19.40625 35.890625 
C 18.90625 35.890625 16.59375 35.6875 16.203125 35.6875 
C 15.5 35.59375 15.09375 35.5 15.09375 34.796875 
C 15.09375 34.09375 15.203125 34 17.203125 34 
z
" id="CMR17-51"/>
       </defs>
       <use transform="scale(0.996264)" xlink:href="#CMR17-51"/>
      </g>
     </g>
    </g>
    <g id="xtick_5">
     <g id="line2d_47">
      <path clip-path="url(#p5244817eca)" d="M 321.540475 233.110711 
L 321.540475 17.28 
" style="fill:none;stroke:#b0b0b0;stroke-linecap:square;stroke-width:0.8;"/>
     </g>
     <g id="line2d_48">
      <g>
       <use style="stroke:#000000;stroke-width:0.8;" x="321.540475" xlink:href="#m8d840dfcfd" y="233.110711"/>
      </g>
     </g>
     <g id="line2d_49">
      <g>
       <use style="stroke:#000000;stroke-width:0.8;" x="321.540475" xlink:href="#m2bd30f55ea" y="17.28"/>
      </g>
     </g>
     <g id="text_5">
      <!-- $\mathdefault{4}$ -->
      <g transform="translate(317.638482 247.6803)scale(0.16 -0.16)">
       <defs>
        <path d="M 33.59375 64.796875 
C 33.59375 66.890625 33.5 67 31.703125 67 
L 2 19.59375 
L 2 17 
L 27.796875 17 
L 27.796875 7.1875 
C 27.796875 3.59375 27.59375 2.59375 20.59375 2.59375 
L 18.703125 2.59375 
L 18.703125 0 
C 21.90625 0.1875 27.296875 0.1875 30.703125 0.1875 
C 34.09375 0.1875 39.5 0.1875 42.703125 0 
L 42.703125 2.59375 
L 40.796875 2.59375 
C 33.796875 2.59375 33.59375 3.59375 33.59375 7.1875 
L 33.59375 17 
L 43.796875 17 
L 43.796875 19.59375 
L 33.59375 19.59375 
z
M 28.09375 58.171875 
L 28.09375 19.59375 
L 4 19.59375 
z
" id="CMR17-52"/>
       </defs>
       <use transform="scale(0.996264)" xlink:href="#CMR17-52"/>
      </g>
     </g>
    </g>
    <g id="xtick_6">
     <g id="line2d_50">
      <path clip-path="url(#p5244817eca)" d="M 383.660158 233.110711 
L 383.660158 17.28 
" style="fill:none;stroke:#b0b0b0;stroke-linecap:square;stroke-width:0.8;"/>
     </g>
     <g id="line2d_51">
      <g>
       <use style="stroke:#000000;stroke-width:0.8;" x="383.660158" xlink:href="#m8d840dfcfd" y="233.110711"/>
      </g>
     </g>
     <g id="line2d_52">
      <g>
       <use style="stroke:#000000;stroke-width:0.8;" x="383.660158" xlink:href="#m2bd30f55ea" y="17.28"/>
      </g>
     </g>
     <g id="text_6">
      <!-- $\mathdefault{5}$ -->
      <g transform="translate(379.758165 247.6803)scale(0.16 -0.16)">
       <defs>
        <path d="M 11.40625 58.59375 
C 12.40625 58.1875 16.5 56.890625 20.703125 56.890625 
C 30 56.890625 35.09375 61.890625 38 64.6875 
C 38 65.484375 38 66 37.40625 66 
C 37.296875 66 37.09375 66 36.296875 65.59375 
C 32.796875 64.09375 28.703125 63 23.703125 63 
C 20.703125 63 16.203125 63.359375 11.296875 65.484375 
C 10.203125 66 10 66 9.90625 66 
C 9.40625 66 9.296875 65.890625 9.296875 63.90625 
L 9.296875 34.859375 
C 9.296875 33.015625 9.296875 32.5 10.296875 32.5 
C 10.796875 32.5 11 32.703125 11.5 33.421875 
C 14.703125 38.046875 19.09375 40 24.09375 40 
C 27.59375 40 35.09375 37.734375 35.09375 20.203125 
C 35.09375 16.984375 35.09375 11.1875 32.09375 6.59375 
C 29.59375 2.484375 25.703125 0.390625 21.40625 0.390625 
C 14.796875 0.390625 8.09375 4.984375 6.296875 12.6875 
C 6.703125 12.59375 7.5 12.390625 7.90625 12.390625 
C 9.203125 12.390625 11.703125 13.09375 11.703125 16.1875 
C 11.703125 18.890625 9.796875 20 7.90625 20 
C 5.59375 20 4.09375 18.59375 4.09375 15.796875 
C 4.09375 7.09375 11 -2 21.59375 -2 
C 31.90625 -2 41.703125 6.890625 41.703125 19.796875 
C 41.703125 32.09375 33.90625 41.59375 24.203125 41.59375 
C 19.09375 41.59375 14.796875 39.6875 11.40625 36 
z
" id="CMR17-53"/>
       </defs>
       <use transform="scale(0.996264)" xlink:href="#CMR17-53"/>
      </g>
     </g>
    </g>
    <g id="xtick_7">
     <g id="line2d_53">
      <path clip-path="url(#p5244817eca)" d="M 88.591663 233.110711 
L 88.591663 17.28 
" style="fill:none;stroke:#b0b0b0;stroke-linecap:square;stroke-width:0.8;"/>
     </g>
     <g id="line2d_54">
      <defs>
       <path d="M 0 0 
L 0 -2 
" id="mf84a483cce" style="stroke:#000000;stroke-width:0.6;"/>
      </defs>
      <g>
       <use style="stroke:#000000;stroke-width:0.6;" x="88.591663" xlink:href="#mf84a483cce" y="233.110711"/>
      </g>
     </g>
     <g id="line2d_55">
      <defs>
       <path d="M 0 0 
L 0 2 
" id="md469f65334" style="stroke:#000000;stroke-width:0.6;"/>
      </defs>
      <g>
       <use style="stroke:#000000;stroke-width:0.6;" x="88.591663" xlink:href="#md469f65334" y="17.28"/>
      </g>
     </g>
    </g>
    <g id="xtick_8">
     <g id="line2d_56">
      <path clip-path="url(#p5244817eca)" d="M 104.121584 233.110711 
L 104.121584 17.28 
" style="fill:none;stroke:#b0b0b0;stroke-linecap:square;stroke-width:0.8;"/>
     </g>
     <g id="line2d_57">
      <g>
       <use style="stroke:#000000;stroke-width:0.6;" x="104.121584" xlink:href="#mf84a483cce" y="233.110711"/>
      </g>
     </g>
     <g id="line2d_58">
      <g>
       <use style="stroke:#000000;stroke-width:0.6;" x="104.121584" xlink:href="#md469f65334" y="17.28"/>
      </g>
     </g>
    </g>
    <g id="xtick_9">
     <g id="line2d_59">
      <path clip-path="url(#p5244817eca)" d="M 119.651505 233.110711 
L 119.651505 17.28 
" style="fill:none;stroke:#b0b0b0;stroke-linecap:square;stroke-width:0.8;"/>
     </g>
     <g id="line2d_60">
      <g>
       <use style="stroke:#000000;stroke-width:0.6;" x="119.651505" xlink:href="#mf84a483cce" y="233.110711"/>
      </g>
     </g>
     <g id="line2d_61">
      <g>
       <use style="stroke:#000000;stroke-width:0.6;" x="119.651505" xlink:href="#md469f65334" y="17.28"/>
      </g>
     </g>
    </g>
    <g id="xtick_10">
     <g id="line2d_62">
      <path clip-path="url(#p5244817eca)" d="M 150.711347 233.110711 
L 150.711347 17.28 
" style="fill:none;stroke:#b0b0b0;stroke-linecap:square;stroke-width:0.8;"/>
     </g>
     <g id="line2d_63">
      <g>
       <use style="stroke:#000000;stroke-width:0.6;" x="150.711347" xlink:href="#mf84a483cce" y="233.110711"/>
      </g>
     </g>
     <g id="line2d_64">
      <g>
       <use style="stroke:#000000;stroke-width:0.6;" x="150.711347" xlink:href="#md469f65334" y="17.28"/>
      </g>
     </g>
    </g>
    <g id="xtick_11">
     <g id="line2d_65">
      <path clip-path="url(#p5244817eca)" d="M 166.241267 233.110711 
L 166.241267 17.28 
" style="fill:none;stroke:#b0b0b0;stroke-linecap:square;stroke-width:0.8;"/>
     </g>
     <g id="line2d_66">
      <g>
       <use style="stroke:#000000;stroke-width:0.6;" x="166.241267" xlink:href="#mf84a483cce" y="233.110711"/>
      </g>
     </g>
     <g id="line2d_67">
      <g>
       <use style="stroke:#000000;stroke-width:0.6;" x="166.241267" xlink:href="#md469f65334" y="17.28"/>
      </g>
     </g>
    </g>
    <g id="xtick_12">
     <g id="line2d_68">
      <path clip-path="url(#p5244817eca)" d="M 181.771188 233.110711 
L 181.771188 17.28 
" style="fill:none;stroke:#b0b0b0;stroke-linecap:square;stroke-width:0.8;"/>
     </g>
     <g id="line2d_69">
      <g>
       <use style="stroke:#000000;stroke-width:0.6;" x="181.771188" xlink:href="#mf84a483cce" y="233.110711"/>
      </g>
     </g>
     <g id="line2d_70">
      <g>
       <use style="stroke:#000000;stroke-width:0.6;" x="181.771188" xlink:href="#md469f65334" y="17.28"/>
      </g>
     </g>
    </g>
    <g id="xtick_13">
     <g id="line2d_71">
      <path clip-path="url(#p5244817eca)" d="M 212.83103 233.110711 
L 212.83103 17.28 
" style="fill:none;stroke:#b0b0b0;stroke-linecap:square;stroke-width:0.8;"/>
     </g>
     <g id="line2d_72">
      <g>
       <use style="stroke:#000000;stroke-width:0.6;" x="212.83103" xlink:href="#mf84a483cce" y="233.110711"/>
      </g>
     </g>
     <g id="line2d_73">
      <g>
       <use style="stroke:#000000;stroke-width:0.6;" x="212.83103" xlink:href="#md469f65334" y="17.28"/>
      </g>
     </g>
    </g>
    <g id="xtick_14">
     <g id="line2d_74">
      <path clip-path="url(#p5244817eca)" d="M 228.36095 233.110711 
L 228.36095 17.28 
" style="fill:none;stroke:#b0b0b0;stroke-linecap:square;stroke-width:0.8;"/>
     </g>
     <g id="line2d_75">
      <g>
       <use style="stroke:#000000;stroke-width:0.6;" x="228.36095" xlink:href="#mf84a483cce" y="233.110711"/>
      </g>
     </g>
     <g id="line2d_76">
      <g>
       <use style="stroke:#000000;stroke-width:0.6;" x="228.36095" xlink:href="#md469f65334" y="17.28"/>
      </g>
     </g>
    </g>
    <g id="xtick_15">
     <g id="line2d_77">
      <path clip-path="url(#p5244817eca)" d="M 243.890871 233.110711 
L 243.890871 17.28 
" style="fill:none;stroke:#b0b0b0;stroke-linecap:square;stroke-width:0.8;"/>
     </g>
     <g id="line2d_78">
      <g>
       <use style="stroke:#000000;stroke-width:0.6;" x="243.890871" xlink:href="#mf84a483cce" y="233.110711"/>
      </g>
     </g>
     <g id="line2d_79">
      <g>
       <use style="stroke:#000000;stroke-width:0.6;" x="243.890871" xlink:href="#md469f65334" y="17.28"/>
      </g>
     </g>
    </g>
    <g id="xtick_16">
     <g id="line2d_80">
      <path clip-path="url(#p5244817eca)" d="M 274.950713 233.110711 
L 274.950713 17.28 
" style="fill:none;stroke:#b0b0b0;stroke-linecap:square;stroke-width:0.8;"/>
     </g>
     <g id="line2d_81">
      <g>
       <use style="stroke:#000000;stroke-width:0.6;" x="274.950713" xlink:href="#mf84a483cce" y="233.110711"/>
      </g>
     </g>
     <g id="line2d_82">
      <g>
       <use style="stroke:#000000;stroke-width:0.6;" x="274.950713" xlink:href="#md469f65334" y="17.28"/>
      </g>
     </g>
    </g>
    <g id="xtick_17">
     <g id="line2d_83">
      <path clip-path="url(#p5244817eca)" d="M 290.480634 233.110711 
L 290.480634 17.28 
" style="fill:none;stroke:#b0b0b0;stroke-linecap:square;stroke-width:0.8;"/>
     </g>
     <g id="line2d_84">
      <g>
       <use style="stroke:#000000;stroke-width:0.6;" x="290.480634" xlink:href="#mf84a483cce" y="233.110711"/>
      </g>
     </g>
     <g id="line2d_85">
      <g>
       <use style="stroke:#000000;stroke-width:0.6;" x="290.480634" xlink:href="#md469f65334" y="17.28"/>
      </g>
     </g>
    </g>
    <g id="xtick_18">
     <g id="line2d_86">
      <path clip-path="url(#p5244817eca)" d="M 306.010554 233.110711 
L 306.010554 17.28 
" style="fill:none;stroke:#b0b0b0;stroke-linecap:square;stroke-width:0.8;"/>
     </g>
     <g id="line2d_87">
      <g>
       <use style="stroke:#000000;stroke-width:0.6;" x="306.010554" xlink:href="#mf84a483cce" y="233.110711"/>
      </g>
     </g>
     <g id="line2d_88">
      <g>
       <use style="stroke:#000000;stroke-width:0.6;" x="306.010554" xlink:href="#md469f65334" y="17.28"/>
      </g>
     </g>
    </g>
    <g id="xtick_19">
     <g id="line2d_89">
      <path clip-path="url(#p5244817eca)" d="M 337.070396 233.110711 
L 337.070396 17.28 
" style="fill:none;stroke:#b0b0b0;stroke-linecap:square;stroke-width:0.8;"/>
     </g>
     <g id="line2d_90">
      <g>
       <use style="stroke:#000000;stroke-width:0.6;" x="337.070396" xlink:href="#mf84a483cce" y="233.110711"/>
      </g>
     </g>
     <g id="line2d_91">
      <g>
       <use style="stroke:#000000;stroke-width:0.6;" x="337.070396" xlink:href="#md469f65334" y="17.28"/>
      </g>
     </g>
    </g>
    <g id="xtick_20">
     <g id="line2d_92">
      <path clip-path="url(#p5244817eca)" d="M 352.600317 233.110711 
L 352.600317 17.28 
" style="fill:none;stroke:#b0b0b0;stroke-linecap:square;stroke-width:0.8;"/>
     </g>
     <g id="line2d_93">
      <g>
       <use style="stroke:#000000;stroke-width:0.6;" x="352.600317" xlink:href="#mf84a483cce" y="233.110711"/>
      </g>
     </g>
     <g id="line2d_94">
      <g>
       <use style="stroke:#000000;stroke-width:0.6;" x="352.600317" xlink:href="#md469f65334" y="17.28"/>
      </g>
     </g>
    </g>
    <g id="xtick_21">
     <g id="line2d_95">
      <path clip-path="url(#p5244817eca)" d="M 368.130238 233.110711 
L 368.130238 17.28 
" style="fill:none;stroke:#b0b0b0;stroke-linecap:square;stroke-width:0.8;"/>
     </g>
     <g id="line2d_96">
      <g>
       <use style="stroke:#000000;stroke-width:0.6;" x="368.130238" xlink:href="#mf84a483cce" y="233.110711"/>
      </g>
     </g>
     <g id="line2d_97">
      <g>
       <use style="stroke:#000000;stroke-width:0.6;" x="368.130238" xlink:href="#md469f65334" y="17.28"/>
      </g>
     </g>
    </g>
    <g id="xtick_22">
     <g id="line2d_98">
      <path clip-path="url(#p5244817eca)" d="M 399.190079 233.110711 
L 399.190079 17.28 
" style="fill:none;stroke:#b0b0b0;stroke-linecap:square;stroke-width:0.8;"/>
     </g>
     <g id="line2d_99">
      <g>
       <use style="stroke:#000000;stroke-width:0.6;" x="399.190079" xlink:href="#mf84a483cce" y="233.110711"/>
      </g>
     </g>
     <g id="line2d_100">
      <g>
       <use style="stroke:#000000;stroke-width:0.6;" x="399.190079" xlink:href="#md469f65334" y="17.28"/>
      </g>
     </g>
    </g>
    <g id="xtick_23">
     <g id="line2d_101">
      <path clip-path="url(#p5244817eca)" d="M 414.72 233.110711 
L 414.72 17.28 
" style="fill:none;stroke:#b0b0b0;stroke-linecap:square;stroke-width:0.8;"/>
     </g>
     <g id="line2d_102">
      <g>
       <use style="stroke:#000000;stroke-width:0.6;" x="414.72" xlink:href="#mf84a483cce" y="233.110711"/>
      </g>
     </g>
     <g id="line2d_103">
      <g>
       <use style="stroke:#000000;stroke-width:0.6;" x="414.72" xlink:href="#md469f65334" y="17.28"/>
      </g>
     </g>
    </g>
    <g id="text_7">
     <!-- $\sigma\ [\pi c/L]$ -->
     <g transform="translate(214.949216 266.734944)scale(0.16 -0.16)">
      <defs>
       <path d="M 50.796875 37.59375 
C 52.09375 37.59375 55.40625 37.59375 55.40625 40.796875 
C 55.40625 43 53.5 43 51.703125 43 
L 29.59375 43 
C 14.59375 43 3.796875 26.328125 3.796875 14.5625 
C 3.796875 6.078125 9.296875 -1 18.296875 -1 
C 30.09375 -1 43 11.65625 43 26.625 
C 43 30.515625 42.09375 34.296875 39.703125 37.59375 
z
M 18.40625 1 
C 13.296875 1 9.59375 4.875 9.59375 11.765625 
C 9.59375 17.75 13.203125 37.59375 27.90625 37.59375 
C 32.203125 37.59375 37 35.5 37 27.8125 
C 37 24.328125 35.40625 15.953125 31.90625 10.171875 
C 28.296875 4.28125 22.90625 1 18.40625 1 
z
" id="CMMI12-27"/>
       <path d="M 23.5 -25 
L 23.5 -21.5 
L 14.09375 -21.5 
L 14.09375 71.484375 
L 23.5 71.484375 
L 23.5 75 
L 10.59375 75 
L 10.59375 -25 
z
" id="CMR17-91"/>
       <path d="M 25.90625 37.59375 
L 37.203125 37.59375 
C 34.5 26.421875 32.796875 19.140625 32.796875 11.171875 
C 32.796875 9.765625 32.796875 -1 36.90625 -1 
C 39 -1 40.796875 0.890625 40.796875 2.59375 
C 40.796875 3.09375 40.796875 3.28125 40.09375 4.78125 
C 37.40625 11.65625 37.40625 20.234375 37.40625 20.9375 
C 37.40625 21.53125 37.40625 28.625 39.5 37.59375 
L 50.703125 37.59375 
C 52 37.59375 55.296875 37.59375 55.296875 40.796875 
C 55.296875 43 53.40625 43 51.59375 43 
L 18.703125 43 
C 16.40625 43 13 43 8.40625 38.09375 
C 5.796875 35.203125 2.59375 29.921875 2.59375 29.3125 
C 2.59375 28.71875 3.09375 28.515625 3.703125 28.515625 
C 4.40625 28.515625 4.5 28.8125 5 29.421875 
C 10.203125 37.59375 15.40625 37.59375 17.90625 37.59375 
L 23.59375 37.59375 
C 21.40625 30.109375 18.90625 21.4375 10.703125 3.984375 
C 9.90625 2.390625 9.90625 2.1875 9.90625 1.59375 
C 9.90625 -0.5 11.703125 -1 12.59375 -1 
C 15.5 -1 16.296875 1.59375 17.5 5.78125 
C 19.09375 10.859375 19.09375 11.0625 20.09375 15.0625 
z
" id="CMMI12-25"/>
       <path d="M 39.09375 38 
C 37.203125 38 36.296875 38 34.90625 36.796875 
C 34.296875 36.296875 33.203125 34.796875 33.203125 33.1875 
C 33.203125 31.1875 34.703125 29.984375 36.59375 29.984375 
C 39 29.984375 41.703125 31.984375 41.703125 35.984375 
C 41.703125 40.484375 37.09375 44 30.203125 44 
C 17.09375 44 4 30.1875 4 15.796875 
C 4 6.96875 9.40625 -1 19.59375 -1 
C 33.203125 -1 41.796875 9.71875 41.796875 11.03125 
C 41.796875 11.640625 41.203125 12.140625 40.796875 12.140625 
C 40.5 12.140625 40.40625 12.046875 39.5 11.125 
C 33.09375 2.515625 23.59375 1 19.796875 1 
C 12.90625 1 10.703125 7.078125 10.703125 12.140625 
C 10.703125 15.6875 12.40625 25.53125 16 32.390625 
C 18.59375 37.09375 24 41.984375 30.296875 41.984375 
C 31.59375 41.984375 37.09375 41.8125 39.09375 38 
z
" id="CMMI12-99"/>
       <path d="M 42.90625 71.296875 
C 42.90625 71.390625 43.5 72.890625 43.5 73.09375 
C 43.5 74.296875 42.5 75 41.703125 75 
C 41.203125 75 40.296875 75 39.5 72.796875 
L 6 -21.3125 
C 6 -21.40625 5.40625 -22.90625 5.40625 -23.109375 
C 5.40625 -24.3125 6.40625 -25 7.203125 -25 
C 7.796875 -25 8.703125 -24.90625 9.40625 -22.8125 
z
" id="CMMI12-61"/>
       <path d="M 36.703125 60.3125 
C 37.59375 64.09375 37.90625 65.09375 46.703125 65.09375 
C 49.40625 65.09375 50.09375 65.09375 50.09375 66.984375 
C 50.09375 68 49 68 48.59375 68 
C 46.59375 68 44.296875 67.796875 42.296875 67.796875 
L 28.90625 67.796875 
C 27 67.796875 24.796875 68 22.90625 68 
C 22.09375 68 21 68 21 66.09375 
C 21 65.09375 21.90625 65.09375 23.40625 65.09375 
C 29.5 65.09375 29.5 64.296875 29.5 63.203125 
C 29.5 63 29.5 62.40625 29.09375 60.90625 
L 15.59375 7.375 
C 14.703125 3.890625 14.5 2.890625 7.5 2.890625 
C 5.59375 2.890625 4.59375 2.890625 4.59375 1.09375 
C 4.59375 0 5.203125 0 7.203125 0 
L 52 0 
C 54.203125 0 54.296875 0.09375 55 1.890625 
L 62.703125 23.09375 
C 62.90625 23.59375 63.09375 24.1875 63.09375 24.484375 
C 63.09375 25.078125 62.59375 25.484375 62.09375 25.484375 
C 62 25.484375 61.5 25.484375 61.296875 25.078125 
C 61.09375 24.984375 61.09375 24.78125 60.296875 22.890625 
C 57.09375 14.140625 52.59375 2.890625 35.703125 2.890625 
L 26.09375 2.890625 
C 24.703125 2.890625 24.5 2.890625 23.90625 2.984375 
C 22.796875 3.09375 22.703125 3.296875 22.703125 4.09375 
C 22.703125 4.78125 22.90625 5.375 23.09375 6.28125 
z
" id="CMMI12-76"/>
       <path d="M 14.296875 75 
L 1.40625 75 
L 1.40625 71.484375 
L 10.796875 71.484375 
L 10.796875 -21.5 
L 1.40625 -21.5 
L 1.40625 -25 
L 14.296875 -25 
z
" id="CMR17-93"/>
      </defs>
      <use transform="scale(0.996264)" xlink:href="#CMMI12-27"/>
      <use transform="translate(90.249166 0)scale(0.996264)" xlink:href="#CMR17-91"/>
      <use transform="translate(115.120225 0)scale(0.996264)" xlink:href="#CMMI12-25"/>
      <use transform="translate(174.030826 0)scale(0.996264)" xlink:href="#CMMI12-99"/>
      <use transform="translate(216.014059 0)scale(0.996264)" xlink:href="#CMMI12-61"/>
      <use transform="translate(264.788978 0)scale(0.996264)" xlink:href="#CMMI12-76"/>
      <use transform="translate(331.159853 0)scale(0.996264)" xlink:href="#CMR17-93"/>
     </g>
    </g>
   </g>
   <g id="matplotlib.axis_2">
    <g id="ytick_1">
     <g id="line2d_104">
      <path clip-path="url(#p5244817eca)" d="M 73.061743 217.694232 
L 414.72 217.694232 
" style="fill:none;stroke:#b0b0b0;stroke-linecap:square;stroke-width:0.8;"/>
     </g>
     <g id="line2d_105">
      <defs>
       <path d="M 0 0 
L 3.5 0 
" id="m4d3b09b582" style="stroke:#000000;stroke-width:0.8;"/>
      </defs>
      <g>
       <use style="stroke:#000000;stroke-width:0.8;" x="73.061743" xlink:href="#m4d3b09b582" y="217.694232"/>
      </g>
     </g>
     <g id="line2d_106">
      <defs>
       <path d="M 0 0 
L -3.5 0 
" id="mb30fd4db22" style="stroke:#000000;stroke-width:0.8;"/>
      </defs>
      <g>
       <use style="stroke:#000000;stroke-width:0.8;" x="414.72" xlink:href="#mb30fd4db22" y="217.694232"/>
      </g>
     </g>
     <g id="text_8">
      <!-- $\mathdefault{0.2}$ -->
      <g transform="translate(37.220224 223.229026)scale(0.16 -0.16)">
       <defs>
        <path d="M 65.90625 23 
C 67.59375 23 69.40625 23 69.40625 25 
C 69.40625 27 67.59375 27 65.90625 27 
L 11.796875 27 
C 10.09375 27 8.296875 27 8.296875 25 
C 8.296875 23 10.09375 23 11.796875 23 
z
" id="CMSY10-0"/>
        <path d="M 18.40625 4.796875 
C 18.40625 7.6875 16 9.6875 13.59375 9.6875 
C 10.703125 9.6875 8.703125 7.296875 8.703125 4.890625 
C 8.703125 2 11.09375 0 13.5 0 
C 16.40625 0 18.40625 2.390625 18.40625 4.796875 
z
" id="CMMI12-58"/>
       </defs>
       <use transform="scale(0.996264)" xlink:href="#CMSY10-0"/>
       <use transform="translate(77.487468 0)scale(0.996264)" xlink:href="#CMR17-48"/>
       <use transform="translate(123.177945 0)scale(0.996264)" xlink:href="#CMMI12-58"/>
       <use transform="translate(150.275122 0)scale(0.996264)" xlink:href="#CMR17-50"/>
      </g>
     </g>
    </g>
    <g id="ytick_2">
     <g id="line2d_107">
      <path clip-path="url(#p5244817eca)" d="M 73.061743 186.861273 
L 414.72 186.861273 
" style="fill:none;stroke:#b0b0b0;stroke-linecap:square;stroke-width:0.8;"/>
     </g>
     <g id="line2d_108">
      <g>
       <use style="stroke:#000000;stroke-width:0.8;" x="73.061743" xlink:href="#m4d3b09b582" y="186.861273"/>
      </g>
     </g>
     <g id="line2d_109">
      <g>
       <use style="stroke:#000000;stroke-width:0.8;" x="414.72" xlink:href="#mb30fd4db22" y="186.861273"/>
      </g>
     </g>
     <g id="text_9">
      <!-- $\mathdefault{0.0}$ -->
      <g transform="translate(49.61822 192.396067)scale(0.16 -0.16)">
       <use transform="scale(0.996264)" xlink:href="#CMR17-48"/>
       <use transform="translate(45.690477 0)scale(0.996264)" xlink:href="#CMMI12-58"/>
       <use transform="translate(72.787654 0)scale(0.996264)" xlink:href="#CMR17-48"/>
      </g>
     </g>
    </g>
    <g id="ytick_3">
     <g id="line2d_110">
      <path clip-path="url(#p5244817eca)" d="M 73.061743 156.028314 
L 414.72 156.028314 
" style="fill:none;stroke:#b0b0b0;stroke-linecap:square;stroke-width:0.8;"/>
     </g>
     <g id="line2d_111">
      <g>
       <use style="stroke:#000000;stroke-width:0.8;" x="73.061743" xlink:href="#m4d3b09b582" y="156.028314"/>
      </g>
     </g>
     <g id="line2d_112">
      <g>
       <use style="stroke:#000000;stroke-width:0.8;" x="414.72" xlink:href="#mb30fd4db22" y="156.028314"/>
      </g>
     </g>
     <g id="text_10">
      <!-- $\mathdefault{0.2}$ -->
      <g transform="translate(49.61822 161.563109)scale(0.16 -0.16)">
       <use transform="scale(0.996264)" xlink:href="#CMR17-48"/>
       <use transform="translate(45.690477 0)scale(0.996264)" xlink:href="#CMMI12-58"/>
       <use transform="translate(72.787654 0)scale(0.996264)" xlink:href="#CMR17-50"/>
      </g>
     </g>
    </g>
    <g id="ytick_4">
     <g id="line2d_113">
      <path clip-path="url(#p5244817eca)" d="M 73.061743 125.195356 
L 414.72 125.195356 
" style="fill:none;stroke:#b0b0b0;stroke-linecap:square;stroke-width:0.8;"/>
     </g>
     <g id="line2d_114">
      <g>
       <use style="stroke:#000000;stroke-width:0.8;" x="73.061743" xlink:href="#m4d3b09b582" y="125.195356"/>
      </g>
     </g>
     <g id="line2d_115">
      <g>
       <use style="stroke:#000000;stroke-width:0.8;" x="414.72" xlink:href="#mb30fd4db22" y="125.195356"/>
      </g>
     </g>
     <g id="text_11">
      <!-- $\mathdefault{0.4}$ -->
      <g transform="translate(49.61822 130.73015)scale(0.16 -0.16)">
       <use transform="scale(0.996264)" xlink:href="#CMR17-48"/>
       <use transform="translate(45.690477 0)scale(0.996264)" xlink:href="#CMMI12-58"/>
       <use transform="translate(72.787654 0)scale(0.996264)" xlink:href="#CMR17-52"/>
      </g>
     </g>
    </g>
    <g id="ytick_5">
     <g id="line2d_116">
      <path clip-path="url(#p5244817eca)" d="M 73.061743 94.362397 
L 414.72 94.362397 
" style="fill:none;stroke:#b0b0b0;stroke-linecap:square;stroke-width:0.8;"/>
     </g>
     <g id="line2d_117">
      <g>
       <use style="stroke:#000000;stroke-width:0.8;" x="73.061743" xlink:href="#m4d3b09b582" y="94.362397"/>
      </g>
     </g>
     <g id="line2d_118">
      <g>
       <use style="stroke:#000000;stroke-width:0.8;" x="414.72" xlink:href="#mb30fd4db22" y="94.362397"/>
      </g>
     </g>
     <g id="text_12">
      <!-- $\mathdefault{0.6}$ -->
      <g transform="translate(49.61822 99.897191)scale(0.16 -0.16)">
       <defs>
        <path d="M 10.59375 34.34375 
C 10.59375 58 21.796875 63.6875 28.296875 63.6875 
C 30.40625 63.6875 35.5 63.265625 37.5 59.09375 
C 35.90625 59.09375 32.90625 59.09375 32.90625 55.59375 
C 32.90625 52.890625 35.09375 52 36.5 52 
C 37.40625 52 40.09375 52.390625 40.09375 55.796875 
C 40.09375 62.296875 35.09375 66 28.203125 66 
C 16.296875 66 3.796875 53.296875 3.796875 31.421875 
C 3.796875 4.015625 15.09375 -2 23.09375 -2 
C 32.796875 -2 42 6.734375 42 20.234375 
C 42 32.828125 33.90625 42 23.703125 42 
C 17.59375 42 13.09375 37.96875 10.59375 30.921875 
z
M 23.09375 0.390625 
C 10.796875 0.390625 10.796875 18.9375 10.796875 22.65625 
C 10.796875 29.90625 14.203125 40.390625 23.5 40.390625 
C 25.203125 40.390625 30.09375 40.390625 33.40625 33.4375 
C 35.203125 29.515625 35.203125 25.375 35.203125 20.34375 
C 35.203125 14.90625 35.203125 10.875 33.09375 6.84375 
C 30.90625 2.703125 27.703125 0.390625 23.09375 0.390625 
z
" id="CMR17-54"/>
       </defs>
       <use transform="scale(0.996264)" xlink:href="#CMR17-48"/>
       <use transform="translate(45.690477 0)scale(0.996264)" xlink:href="#CMMI12-58"/>
       <use transform="translate(72.787654 0)scale(0.996264)" xlink:href="#CMR17-54"/>
      </g>
     </g>
    </g>
    <g id="ytick_6">
     <g id="line2d_119">
      <path clip-path="url(#p5244817eca)" d="M 73.061743 63.529438 
L 414.72 63.529438 
" style="fill:none;stroke:#b0b0b0;stroke-linecap:square;stroke-width:0.8;"/>
     </g>
     <g id="line2d_120">
      <g>
       <use style="stroke:#000000;stroke-width:0.8;" x="73.061743" xlink:href="#m4d3b09b582" y="63.529438"/>
      </g>
     </g>
     <g id="line2d_121">
      <g>
       <use style="stroke:#000000;stroke-width:0.8;" x="414.72" xlink:href="#mb30fd4db22" y="63.529438"/>
      </g>
     </g>
     <g id="text_13">
      <!-- $\mathdefault{0.8}$ -->
      <g transform="translate(49.61822 69.064232)scale(0.16 -0.16)">
       <defs>
        <path d="M 27.203125 35.765625 
C 33.5 38.96875 39.90625 43.796875 39.90625 51.53125 
C 39.90625 60.6875 31.09375 66 23 66 
C 13.90625 66 5.90625 59.375 5.90625 50.234375 
C 5.90625 47.71875 6.5 43.390625 10.40625 39.578125 
C 11.40625 38.578125 15.59375 35.5625 18.296875 33.65625 
C 13.796875 31.34375 3.296875 25.8125 3.296875 14.765625 
C 3.296875 4.40625 13.09375 -2 22.796875 -2 
C 33.5 -2 42.5 5.71875 42.5 15.96875 
C 42.5 25.109375 36.40625 29.328125 32.40625 32.046875 
z
M 14.09375 44.609375 
C 13.296875 45.109375 9.296875 48.21875 9.296875 52.9375 
C 9.296875 59.078125 15.59375 63.6875 22.796875 63.6875 
C 30.703125 63.6875 36.5 58.0625 36.5 51.53125 
C 36.5 42.1875 26.09375 36.859375 25.59375 36.859375 
C 25.5 36.859375 25.40625 36.859375 24.59375 37.46875 
z
M 32.5 24 
C 34 22.90625 38.796875 19.578125 38.796875 13.453125 
C 38.796875 6.015625 31.40625 0.390625 23 0.390625 
C 13.90625 0.390625 7 6.921875 7 14.859375 
C 7 22.796875 13.09375 29.4375 20 32.546875 
z
" id="CMR17-56"/>
       </defs>
       <use transform="scale(0.996264)" xlink:href="#CMR17-48"/>
       <use transform="translate(45.690477 0)scale(0.996264)" xlink:href="#CMMI12-58"/>
       <use transform="translate(72.787654 0)scale(0.996264)" xlink:href="#CMR17-56"/>
      </g>
     </g>
    </g>
    <g id="ytick_7">
     <g id="line2d_122">
      <path clip-path="url(#p5244817eca)" d="M 73.061743 32.696479 
L 414.72 32.696479 
" style="fill:none;stroke:#b0b0b0;stroke-linecap:square;stroke-width:0.8;"/>
     </g>
     <g id="line2d_123">
      <g>
       <use style="stroke:#000000;stroke-width:0.8;" x="73.061743" xlink:href="#m4d3b09b582" y="32.696479"/>
      </g>
     </g>
     <g id="line2d_124">
      <g>
       <use style="stroke:#000000;stroke-width:0.8;" x="414.72" xlink:href="#mb30fd4db22" y="32.696479"/>
      </g>
     </g>
     <g id="text_14">
      <!-- $\mathdefault{1.0}$ -->
      <g transform="translate(49.61822 38.231274)scale(0.16 -0.16)">
       <use transform="scale(0.996264)" xlink:href="#CMR17-49"/>
       <use transform="translate(45.690477 0)scale(0.996264)" xlink:href="#CMMI12-58"/>
       <use transform="translate(72.787654 0)scale(0.996264)" xlink:href="#CMR17-48"/>
      </g>
     </g>
    </g>
    <g id="ytick_8">
     <g id="line2d_125">
      <path clip-path="url(#p5244817eca)" d="M 73.061743 233.110711 
L 414.72 233.110711 
" style="fill:none;stroke:#b0b0b0;stroke-linecap:square;stroke-width:0.8;"/>
     </g>
     <g id="line2d_126">
      <defs>
       <path d="M 0 0 
L 2 0 
" id="m404c7d9926" style="stroke:#000000;stroke-width:0.6;"/>
      </defs>
      <g>
       <use style="stroke:#000000;stroke-width:0.6;" x="73.061743" xlink:href="#m404c7d9926" y="233.110711"/>
      </g>
     </g>
     <g id="line2d_127">
      <defs>
       <path d="M 0 0 
L -2 0 
" id="m84104f4d87" style="stroke:#000000;stroke-width:0.6;"/>
      </defs>
      <g>
       <use style="stroke:#000000;stroke-width:0.6;" x="414.72" xlink:href="#m84104f4d87" y="233.110711"/>
      </g>
     </g>
    </g>
    <g id="ytick_9">
     <g id="line2d_128">
      <path clip-path="url(#p5244817eca)" d="M 73.061743 202.277753 
L 414.72 202.277753 
" style="fill:none;stroke:#b0b0b0;stroke-linecap:square;stroke-width:0.8;"/>
     </g>
     <g id="line2d_129">
      <g>
       <use style="stroke:#000000;stroke-width:0.6;" x="73.061743" xlink:href="#m404c7d9926" y="202.277753"/>
      </g>
     </g>
     <g id="line2d_130">
      <g>
       <use style="stroke:#000000;stroke-width:0.6;" x="414.72" xlink:href="#m84104f4d87" y="202.277753"/>
      </g>
     </g>
    </g>
    <g id="ytick_10">
     <g id="line2d_131">
      <path clip-path="url(#p5244817eca)" d="M 73.061743 171.444794 
L 414.72 171.444794 
" style="fill:none;stroke:#b0b0b0;stroke-linecap:square;stroke-width:0.8;"/>
     </g>
     <g id="line2d_132">
      <g>
       <use style="stroke:#000000;stroke-width:0.6;" x="73.061743" xlink:href="#m404c7d9926" y="171.444794"/>
      </g>
     </g>
     <g id="line2d_133">
      <g>
       <use style="stroke:#000000;stroke-width:0.6;" x="414.72" xlink:href="#m84104f4d87" y="171.444794"/>
      </g>
     </g>
    </g>
    <g id="ytick_11">
     <g id="line2d_134">
      <path clip-path="url(#p5244817eca)" d="M 73.061743 140.611835 
L 414.72 140.611835 
" style="fill:none;stroke:#b0b0b0;stroke-linecap:square;stroke-width:0.8;"/>
     </g>
     <g id="line2d_135">
      <g>
       <use style="stroke:#000000;stroke-width:0.6;" x="73.061743" xlink:href="#m404c7d9926" y="140.611835"/>
      </g>
     </g>
     <g id="line2d_136">
      <g>
       <use style="stroke:#000000;stroke-width:0.6;" x="414.72" xlink:href="#m84104f4d87" y="140.611835"/>
      </g>
     </g>
    </g>
    <g id="ytick_12">
     <g id="line2d_137">
      <path clip-path="url(#p5244817eca)" d="M 73.061743 109.778876 
L 414.72 109.778876 
" style="fill:none;stroke:#b0b0b0;stroke-linecap:square;stroke-width:0.8;"/>
     </g>
     <g id="line2d_138">
      <g>
       <use style="stroke:#000000;stroke-width:0.6;" x="73.061743" xlink:href="#m404c7d9926" y="109.778876"/>
      </g>
     </g>
     <g id="line2d_139">
      <g>
       <use style="stroke:#000000;stroke-width:0.6;" x="414.72" xlink:href="#m84104f4d87" y="109.778876"/>
      </g>
     </g>
    </g>
    <g id="ytick_13">
     <g id="line2d_140">
      <path clip-path="url(#p5244817eca)" d="M 73.061743 78.945918 
L 414.72 78.945918 
" style="fill:none;stroke:#b0b0b0;stroke-linecap:square;stroke-width:0.8;"/>
     </g>
     <g id="line2d_141">
      <g>
       <use style="stroke:#000000;stroke-width:0.6;" x="73.061743" xlink:href="#m404c7d9926" y="78.945918"/>
      </g>
     </g>
     <g id="line2d_142">
      <g>
       <use style="stroke:#000000;stroke-width:0.6;" x="414.72" xlink:href="#m84104f4d87" y="78.945918"/>
      </g>
     </g>
    </g>
    <g id="ytick_14">
     <g id="line2d_143">
      <path clip-path="url(#p5244817eca)" d="M 73.061743 48.112959 
L 414.72 48.112959 
" style="fill:none;stroke:#b0b0b0;stroke-linecap:square;stroke-width:0.8;"/>
     </g>
     <g id="line2d_144">
      <g>
       <use style="stroke:#000000;stroke-width:0.6;" x="73.061743" xlink:href="#m404c7d9926" y="48.112959"/>
      </g>
     </g>
     <g id="line2d_145">
      <g>
       <use style="stroke:#000000;stroke-width:0.6;" x="414.72" xlink:href="#m84104f4d87" y="48.112959"/>
      </g>
     </g>
    </g>
    <g id="ytick_15">
     <g id="line2d_146">
      <path clip-path="url(#p5244817eca)" d="M 73.061743 17.28 
L 414.72 17.28 
" style="fill:none;stroke:#b0b0b0;stroke-linecap:square;stroke-width:0.8;"/>
     </g>
     <g id="line2d_147">
      <g>
       <use style="stroke:#000000;stroke-width:0.6;" x="73.061743" xlink:href="#m404c7d9926" y="17.28"/>
      </g>
     </g>
     <g id="line2d_148">
      <g>
       <use style="stroke:#000000;stroke-width:0.6;" x="414.72" xlink:href="#m84104f4d87" y="17.28"/>
      </g>
     </g>
    </g>
    <g id="text_15">
     <!-- $\mathcal{D}(\sigma)$ -->
     <g transform="translate(29.235168 142.356215)rotate(-90)scale(0.16 -0.16)">
      <defs>
       <path d="M 20.40625 0 
C 43.703125 0 76.59375 17.734375 76.59375 44.890625 
C 76.59375 53.734375 72.40625 59.3125 67.5 62.390625 
C 58.90625 68 49.703125 68 40.203125 68 
C 31.59375 68 25.703125 68 17.296875 64.390625 
C 4 58.515625 2.09375 50.25 2.09375 49.453125 
C 2.09375 48.859375 2.5 48.65625 3.09375 48.65625 
C 4.703125 48.65625 7 50.0625 7.796875 50.546875 
C 9.90625 51.953125 10.203125 52.546875 10.796875 54.4375 
C 12.203125 58.40625 15 61.890625 27.59375 62.484375 
C 26 41.703125 20.90625 22.703125 13.90625 5.296875 
C 10.203125 4 7.796875 1.6875 7.796875 0.6875 
C 7.796875 0.09375 7.90625 0 10.09375 0 
z
M 20.90625 5.5 
C 32.296875 33.25 34.40625 50.546875 35.796875 62.484375 
C 42.5 62.484375 68.09375 62.484375 68.09375 40.609375 
C 68.09375 21.109375 50.5 5.5 26.296875 5.5 
z
" id="CMSY10-68"/>
       <path d="M 30.59375 -24.40625 
C 30.59375 -24.3125 30.59375 -24.109375 30.296875 -23.8125 
C 25.703125 -19.109375 13.40625 -6.296875 13.40625 24.9375 
C 13.40625 56.171875 25.5 68.875 30.40625 73.890625 
C 30.40625 73.984375 30.59375 74.1875 30.59375 74.484375 
C 30.59375 74.796875 30.296875 75 29.90625 75 
C 28.796875 75 20.296875 67.578125 15.40625 56.5625 
C 10.40625 45.453125 9 34.65625 9 25.046875 
C 9 17.828125 9.703125 5.625 15.703125 -7.296875 
C 20.5 -17.703125 28.703125 -25 29.90625 -25 
C 30.40625 -25 30.59375 -24.8125 30.59375 -24.40625 
z
" id="CMR17-40"/>
       <path d="M 26.296875 24.9375 
C 26.296875 32.140625 25.59375 44.359375 19.59375 57.265625 
C 14.796875 67.6875 6.59375 75 5.40625 75 
C 5.09375 75 4.703125 74.890625 4.703125 74.390625 
C 4.703125 74.1875 4.796875 74.09375 4.90625 73.890625 
C 9.703125 68.875 21.90625 56.171875 21.90625 25.046875 
C 21.90625 -6.1875 9.796875 -18.90625 4.90625 -23.90625 
C 4.796875 -24.109375 4.703125 -24.203125 4.703125 -24.40625 
C 4.703125 -24.90625 5.09375 -25 5.40625 -25 
C 6.5 -25 15 -17.609375 19.90625 -6.59375 
C 24.90625 4.515625 26.296875 15.328125 26.296875 24.9375 
z
" id="CMR17-41"/>
      </defs>
      <use transform="scale(0.996264)" xlink:href="#CMSY10-68"/>
      <use transform="translate(79.618575 0)scale(0.996264)" xlink:href="#CMR17-40"/>
      <use transform="translate(114.899343 0)scale(0.996264)" xlink:href="#CMMI12-27"/>
      <use transform="translate(173.919397 0)scale(0.996264)" xlink:href="#CMR17-41"/>
     </g>
    </g>
   </g>
   <g id="patch_3">
    <path d="M 73.061743 233.110711 
L 73.061743 17.28 
" style="fill:none;stroke:#000000;stroke-linecap:square;stroke-linejoin:miter;stroke-width:0.8;"/>
   </g>
   <g id="patch_4">
    <path d="M 414.72 233.110711 
L 414.72 17.28 
" style="fill:none;stroke:#000000;stroke-linecap:square;stroke-linejoin:miter;stroke-width:0.8;"/>
   </g>
   <g id="patch_5">
    <path d="M 73.061743 233.110711 
L 414.72 233.110711 
" style="fill:none;stroke:#000000;stroke-linecap:square;stroke-linejoin:miter;stroke-width:0.8;"/>
   </g>
   <g id="patch_6">
    <path d="M 73.061743 17.28 
L 414.72 17.28 
" style="fill:none;stroke:#000000;stroke-linecap:square;stroke-linejoin:miter;stroke-width:0.8;"/>
   </g>
  </g>
 </g>
 <defs>
  <clipPath id="p5244817eca">
   <rect height="215.830711" width="341.658257" x="73.061743" y="17.28"/>
  </clipPath>
 </defs>
</svg>
