<?xml version="1.0" encoding="utf-8"?>
<!-- Generator: Adobe Illustrator 22.1.0, SVG Export Plug-In . SVG Version: 6.00 Build 0)  -->
<svg version="1.1" id="Layer_1" xmlns="http://www.w3.org/2000/svg" xmlns:xlink="http://www.w3.org/1999/xlink" x="0px" y="0px"
	 viewBox="0 0 138 50" style="enable-background:new 0 0 138 50;" xml:space="preserve">
<style type="text/css">
	.st0{fill:none;}
	.st1{fill:#FF9300;}
</style>
<title>gyre-logo</title>
<path class="st0" d="M17.5,2.5h103c8.3,0,15,6.7,15,15v15c0,8.3-6.7,15-15,15h-103c-8.3,0-15-6.7-15-15v-15
	C2.5,9.2,9.2,2.5,17.5,2.5z"/>
<path class="st1" d="M120.5,50h-103C7.9,50,0,42.1,0,32.5v-15C0,7.9,7.9,0,17.5,0h103c9.6,0,17.5,7.9,17.5,17.5v15
	C138,42.1,130.1,50,120.5,50z M17.5,5C10.6,5,5,10.6,5,17.5v15C5,39.4,10.6,45,17.5,45h103c6.9,0,12.5-5.6,12.5-12.5v-15
	c0-6.9-5.6-12.5-12.5-12.5H17.5z"/>
<path class="st1" d="M35.1,19H21.6v11.8h13.5v-4.1H28v-3.2h11.3v6.4c0,1.7-0.3,2.9-1,3.5s-1.9,0.9-3.6,0.9H21.9
	c-1.8,0-3-0.3-3.6-0.9c-0.6-0.6-1-1.8-1-3.5v-9.8c0-1.7,0.3-2.9,1-3.5s1.9-0.9,3.6-0.9h12.8c1.3-0.1,2.5,0.2,3.6,0.9
	c0.7,0.6,1,1.7,1,3.3v0.4l-4.2,0.8V19z"/>
<polygon class="st1" points="53.7,34.3 53.7,26 44,15.7 49.8,15.7 56.1,22.9 62.5,15.7 67.6,15.7 58,25.9 58,34.3 "/>
<path class="st1" d="M72.7,34.3V15.7h15.9c2.8,0,4.2,1.2,4.2,3.6v4.4c0,2.4-1.4,3.6-4.2,3.6h-2.4l8.6,7h-6.2l-7.5-7H77v7H72.7z
	 M86.7,18.9h-9.8v5.2h9.7c0.5,0,1,0,1.4-0.2c0.4-0.3,0.6-0.8,0.5-1.3v-2.2c0.1-0.5-0.1-1-0.5-1.3C87.6,19,87.1,18.9,86.7,18.9
	L86.7,18.9z"/>
<polygon class="st1" points="101.5,34.3 101.5,15.7 120.5,15.7 120.5,18.9 105.9,18.9 105.9,23 114.4,23 114.4,26.2 105.9,26.2 
	105.9,30.8 120.7,30.8 120.7,34.3 "/>
</svg>
