<?xml version="1.0" encoding="utf-8" standalone="no"?>
<!DOCTYPE svg PUBLIC "-//W3C//DTD SVG 1.1//EN"
  "http://www.w3.org/Graphics/SVG/1.1/DTD/svg11.dtd">
<!-- Created with matplotlib (https://matplotlib.org/) -->
<svg height="288pt" version="1.1" viewBox="0 0 432 288" width="432pt" xmlns="http://www.w3.org/2000/svg" xmlns:xlink="http://www.w3.org/1999/xlink">
 <defs>
  <style type="text/css">
*{stroke-linecap:butt;stroke-linejoin:round;}
  </style>
 </defs>
 <g id="figure_1">
  <g id="patch_1">
   <path d="M 0 288 
L 432 288 
L 432 0 
L 0 0 
z
" style="fill:#ffffff;"/>
  </g>
  <g id="axes_1">
   <g id="patch_2">
    <path d="M 73.061743 233.110711 
L 414.72 233.110711 
L 414.72 17.28 
L 73.061743 17.28 
z
" style="fill:#ffffff;"/>
   </g>
   <g id="line2d_1">
    <path clip-path="url(#p6514adbc44)" d="M 73.061743 32.696479 
L 73.403743 32.703952 
L 73.745743 32.72637 
L 74.087743 32.763728 
L 74.429744 32.816022 
L 74.771744 32.883242 
L 75.113744 32.965378 
L 75.455744 33.062417 
L 75.797745 33.174343 
L 76.139745 33.301139 
L 76.481745 33.442784 
L 76.823745 33.599256 
L 77.165746 33.770529 
L 77.507746 33.956577 
L 77.849746 34.15737 
L 78.191746 34.372875 
L 78.533747 34.603059 
L 78.875747 34.847884 
L 79.217747 35.107312 
L 79.559747 35.381301 
L 79.901748 35.669807 
L 80.243748 35.972784 
L 80.585748 36.290185 
L 80.927748 36.621958 
L 81.269749 36.968051 
L 81.611749 37.328407 
L 81.953749 37.702971 
L 82.295749 38.091682 
L 82.63775 38.494477 
L 82.97975 38.911294 
L 83.32175 39.342064 
L 83.663751 39.786721 
L 84.005751 40.245191 
L 84.347751 40.717404 
L 84.689751 41.203282 
L 85.031752 41.702749 
L 85.373752 42.215725 
L 85.715752 42.742129 
L 86.057752 43.281875 
L 86.399753 43.834878 
L 86.741753 44.401051 
L 87.083753 44.980302 
L 87.425753 45.572539 
L 87.767754 46.177668 
L 88.109754 46.795592 
L 88.451754 47.426213 
L 88.793754 48.069429 
L 89.135755 48.72514 
L 89.477755 49.393239 
L 89.819755 50.073621 
L 90.161755 50.766177 
L 90.503756 51.470796 
L 90.845756 52.187366 
L 91.187756 52.915773 
L 91.529756 53.655901 
L 91.871757 54.407632 
L 92.213757 55.170845 
L 92.555757 55.94542 
L 92.897757 56.731233 
L 93.239758 57.528158 
L 93.581758 58.336069 
L 93.923758 59.154836 
L 94.265759 59.984329 
L 94.607759 60.824417 
L 94.949759 61.674964 
L 95.291759 62.535837 
L 95.63376 63.406896 
L 95.97576 64.288004 
L 96.31776 65.179021 
L 96.65976 66.079804 
L 97.001761 66.99021 
L 97.343761 67.910093 
L 97.685761 68.839308 
L 98.027761 69.777707 
L 98.369762 70.725139 
L 98.711762 71.681454 
L 99.053762 72.6465 
L 99.395762 73.620124 
L 99.737763 74.60217 
L 100.079763 75.592481 
L 100.421763 76.590901 
L 100.763763 77.597271 
L 101.105764 78.611429 
L 101.447764 79.633216 
L 101.789764 80.662469 
L 102.131764 81.699023 
L 102.473765 82.742715 
L 102.815765 83.793377 
L 103.157765 84.850844 
L 103.499765 85.914946 
L 103.841766 86.985516 
L 104.183766 88.062383 
L 104.525766 89.145375 
L 104.867767 90.234321 
L 105.209767 91.329048 
L 105.551767 92.429383 
L 105.893767 93.535149 
L 106.235768 94.646173 
L 106.577768 95.762278 
L 106.919768 96.883286 
L 107.261768 98.00902 
L 107.603769 99.139302 
L 107.945769 100.273952 
L 108.287769 101.412791 
L 108.629769 102.555637 
L 108.97177 103.702312 
L 109.31377 104.852631 
L 109.65577 106.006415 
L 109.99777 107.163479 
L 110.339771 108.323642 
L 110.681771 109.486719 
L 111.023771 110.652527 
L 111.365771 111.820881 
L 111.707772 112.991598 
L 112.049772 114.164492 
L 112.391772 115.339378 
L 112.733772 116.516071 
L 113.075773 117.694385 
L 113.417773 118.874134 
L 113.759773 120.055134 
L 114.101773 121.237197 
L 114.443774 122.420138 
L 114.785774 123.603771 
L 115.127774 124.787909 
L 115.469774 125.972366 
L 115.811775 127.156957 
L 116.153775 128.341496 
L 116.495775 129.525796 
L 116.837776 130.709672 
L 117.179776 131.892939 
L 117.521776 133.07541 
L 117.863776 134.256903 
L 118.205777 135.43723 
L 118.547777 136.616209 
L 118.889777 137.793654 
L 119.231777 138.969383 
L 119.573778 140.143212 
L 119.915778 141.314958 
L 120.257778 142.484439 
L 120.599778 143.651473 
L 120.941779 144.815878 
L 121.283779 145.977474 
L 121.625779 147.136081 
L 121.967779 148.291519 
L 122.30978 149.44361 
L 122.65178 150.592175 
L 122.99378 151.737037 
L 123.33578 152.878019 
L 123.677781 154.014946 
L 124.019781 155.147643 
L 124.361781 156.275935 
L 124.703781 157.39965 
L 125.045782 158.518614 
L 125.387782 159.632658 
L 125.729782 160.74161 
L 126.071782 161.845301 
L 126.413783 162.943563 
L 126.755783 164.036229 
L 127.097783 165.123133 
L 127.439784 166.20411 
L 127.781784 167.278996 
L 128.123784 168.347629 
L 128.465784 169.409848 
L 128.807785 170.465492 
L 129.149785 171.514403 
L 129.491785 172.556425 
L 129.833785 173.5914 
L 130.175786 174.619174 
L 130.517786 175.639594 
L 130.859786 176.652509 
L 131.201786 177.657769 
L 131.543787 178.655224 
L 131.885787 179.644727 
L 132.227787 180.626133 
L 132.569787 181.599299 
L 132.911788 182.564081 
L 133.253788 183.520339 
L 133.595788 184.467935 
L 133.937788 185.40673 
L 134.279789 186.336589 
L 134.621789 187.257379 
L 134.963789 188.168967 
L 135.305789 189.071224 
L 135.64779 189.964021 
L 135.98979 190.847231 
L 136.33179 191.72073 
L 136.67379 192.584396 
L 137.015791 193.438108 
L 137.357791 194.281747 
L 137.699791 195.115196 
L 138.041792 195.938342 
L 138.383792 196.75107 
L 138.725792 197.553271 
L 139.067792 198.344836 
L 139.409793 199.125659 
L 139.751793 199.895636 
L 140.093793 200.654664 
L 140.435793 201.402644 
L 140.777794 202.139479 
L 141.119794 202.865072 
L 141.461794 203.579331 
L 141.803794 204.282164 
L 142.145795 204.973484 
L 142.487795 205.653204 
L 142.829795 206.32124 
L 143.171795 206.977511 
L 143.513796 207.621937 
L 143.855796 208.254441 
L 144.197796 208.874949 
L 144.539796 209.483389 
L 144.881797 210.079692 
L 145.223797 210.663791 
L 145.565797 211.23562 
L 145.907797 211.795119 
L 146.249798 212.342226 
L 146.591798 212.876886 
L 146.933798 213.399043 
L 147.275798 213.908646 
L 147.617799 214.405646 
L 147.959799 214.889995 
L 148.301799 215.36165 
L 148.643799 215.820568 
L 148.9858 216.266711 
L 149.3278 216.700043 
L 149.6698 217.120529 
L 150.011801 217.528139 
L 150.353801 217.922845 
L 150.695801 218.30462 
L 151.037801 218.673442 
L 151.379802 219.029291 
L 151.721802 219.372148 
L 152.063802 219.702 
L 152.405802 220.018833 
L 152.747803 220.322639 
L 153.089803 220.613411 
L 153.431803 220.891144 
L 153.773803 221.155839 
L 154.115804 221.407495 
L 154.457804 221.646118 
L 154.799804 221.871715 
L 155.141804 222.084296 
L 155.483805 222.283872 
L 155.825805 222.47046 
L 156.167805 222.644078 
L 156.509805 222.804747 
L 156.851806 222.95249 
L 157.193806 223.087334 
L 157.535806 223.209309 
L 157.877806 223.318446 
L 158.219807 223.41478 
L 158.561807 223.498348 
L 158.903807 223.569192 
L 159.245807 223.627355 
L 159.587808 223.672881 
L 159.929808 223.705821 
L 160.271808 223.726225 
L 160.613809 223.734148 
L 160.955809 223.729647 
L 161.297809 223.712781 
L 161.639809 223.683612 
L 161.98181 223.642207 
L 162.32381 223.588632 
L 162.66581 223.522959 
L 163.00781 223.44526 
L 163.349811 223.355612 
L 163.691811 223.254094 
L 164.033811 223.140786 
L 164.375811 223.015773 
L 164.717812 222.879141 
L 165.059812 222.73098 
L 165.401812 222.571381 
L 165.743812 222.40044 
L 166.085813 222.218253 
L 166.427813 222.024919 
L 166.769813 221.820542 
L 167.111813 221.605225 
L 167.453814 221.379077 
L 167.795814 221.142207 
L 168.137814 220.894727 
L 168.479814 220.636753 
L 168.821815 220.368401 
L 169.163815 220.089791 
L 169.505815 219.801046 
L 169.847815 219.502289 
L 170.189816 219.193649 
L 170.531816 218.875253 
L 170.873816 218.547234 
L 171.215817 218.209726 
L 171.557817 217.862864 
L 171.899817 217.506788 
L 172.241817 217.141637 
L 172.583818 216.767555 
L 172.925818 216.384686 
L 173.267818 215.993179 
L 173.609818 215.593181 
L 173.951819 215.184845 
L 174.293819 214.768325 
L 174.635819 214.343774 
L 174.977819 213.911352 
L 175.31982 213.471218 
L 175.66182 213.023533 
L 176.00382 212.56846 
L 176.34582 212.106165 
L 176.687821 211.636815 
L 177.029821 211.160578 
L 177.371821 210.677626 
L 177.713821 210.18813 
L 178.055822 209.692266 
L 178.397822 209.190208 
L 178.739822 208.682134 
L 179.081822 208.168224 
L 179.423823 207.648658 
L 179.765823 207.123617 
L 180.107823 206.593286 
L 180.449823 206.05785 
L 180.791824 205.517495 
L 181.133824 204.972409 
L 181.475824 204.422782 
L 181.817824 203.868802 
L 182.159825 203.310663 
L 182.501825 202.748557 
L 182.843825 202.182678 
L 183.185826 201.613222 
L 183.527826 201.040384 
L 183.869826 200.464361 
L 184.211826 199.885352 
L 184.553827 199.303557 
L 184.895827 198.719174 
L 185.237827 198.132405 
L 185.579827 197.543451 
L 185.921828 196.952516 
L 186.263828 196.359801 
L 186.605828 195.76551 
L 186.947828 195.169848 
L 187.289829 194.57302 
L 187.631829 193.975231 
L 187.973829 193.376686 
L 188.315829 192.777593 
L 188.65783 192.178156 
L 188.99983 191.578583 
L 189.34183 190.979082 
L 189.68383 190.379858 
L 190.025831 189.78112 
L 190.367831 189.183075 
L 190.709831 188.58593 
L 191.051831 187.989893 
L 191.393832 187.39517 
L 191.735832 186.801969 
L 192.077832 186.210497 
L 192.419832 185.620961 
L 192.761833 185.033566 
L 193.103833 184.448519 
L 193.445833 183.866025 
L 193.787834 183.286289 
L 194.129834 182.709516 
L 194.471834 182.135909 
L 194.813834 181.565672 
L 195.155835 180.999008 
L 195.497835 180.436117 
L 195.839835 179.877201 
L 196.181835 179.32246 
L 196.523836 178.772093 
L 196.865836 178.226297 
L 197.207836 177.68527 
L 197.549836 177.149206 
L 197.891837 176.618302 
L 198.233837 176.09275 
L 198.575837 175.572742 
L 198.917837 175.058468 
L 199.259838 174.550118 
L 199.601838 174.04788 
L 199.943838 173.551938 
L 200.285838 173.062478 
L 200.627839 172.579683 
L 200.969839 172.103732 
L 201.311839 171.634806 
L 201.653839 171.173081 
L 201.99584 170.718733 
L 202.33784 170.271936 
L 202.67984 169.832859 
L 203.02184 169.401672 
L 203.363841 168.978543 
L 203.705841 168.563635 
L 204.047841 168.157111 
L 204.389842 167.759131 
L 204.731842 167.369852 
L 205.073842 166.989429 
L 205.415842 166.618014 
L 205.757843 166.255758 
L 206.099843 165.902806 
L 206.441843 165.559304 
L 206.783843 165.225393 
L 207.125844 164.901211 
L 207.467844 164.586894 
L 207.809844 164.282574 
L 208.151844 163.988381 
L 208.493845 163.704441 
L 208.835845 163.430879 
L 209.177845 163.167812 
L 209.519845 162.915359 
L 209.861846 162.673632 
L 210.203846 162.442741 
L 210.545846 162.222793 
L 210.887846 162.01389 
L 211.229847 161.816132 
L 211.571847 161.629614 
L 211.913847 161.454428 
L 212.255847 161.290662 
L 212.597848 161.1384 
L 212.939848 160.997723 
L 213.281848 160.868707 
L 213.623848 160.751424 
L 213.965849 160.645943 
L 214.307849 160.552327 
L 214.649849 160.470638 
L 214.991849 160.400931 
L 215.33385 160.343256 
L 215.67585 160.297663 
L 216.01785 160.264193 
L 216.359851 160.242886 
L 216.701851 160.233774 
L 217.043851 160.236888 
L 217.385851 160.252253 
L 217.727852 160.279889 
L 218.069852 160.319811 
L 218.411852 160.372031 
L 218.753852 160.436555 
L 219.095853 160.513384 
L 219.437853 160.602515 
L 219.779853 160.70394 
L 220.121853 160.817646 
L 220.463854 160.943614 
L 220.805854 161.081822 
L 221.147854 161.232241 
L 221.489854 161.394838 
L 221.831855 161.569576 
L 222.173855 161.756409 
L 222.515855 161.955291 
L 222.857855 162.166168 
L 223.199856 162.388979 
L 223.541856 162.623662 
L 223.883856 162.870146 
L 224.225856 163.128358 
L 224.567857 163.398216 
L 224.909857 163.679635 
L 225.251857 163.972525 
L 225.593857 164.276789 
L 225.935858 164.592325 
L 226.277858 164.919027 
L 226.619858 165.256782 
L 226.961859 165.605472 
L 227.303859 165.964973 
L 227.645859 166.335157 
L 227.987859 166.715889 
L 228.32986 167.107029 
L 228.67186 167.508431 
L 229.01386 167.919946 
L 229.35586 168.341415 
L 229.697861 168.772677 
L 230.039861 169.213566 
L 230.381861 169.663906 
L 230.723861 170.123521 
L 231.065862 170.592226 
L 231.407862 171.069831 
L 231.749862 171.556142 
L 232.091862 172.050958 
L 232.433863 172.554073 
L 232.775863 173.065276 
L 233.117863 173.584351 
L 233.459863 174.111074 
L 233.801864 174.645219 
L 234.143864 175.186552 
L 234.485864 175.734836 
L 234.827864 176.289827 
L 235.169865 176.851277 
L 235.511865 177.418932 
L 235.853865 177.992533 
L 236.195865 178.571815 
L 236.537866 179.15651 
L 236.879866 179.746343 
L 237.221866 180.341035 
L 237.563867 180.940303 
L 237.905867 181.543856 
L 238.247867 182.151402 
L 238.589867 182.762643 
L 238.931868 183.377273 
L 239.273868 183.994987 
L 239.615868 184.615471 
L 239.957868 185.238409 
L 240.299869 185.86348 
L 240.641869 186.490358 
L 240.983869 187.118714 
L 241.325869 187.748212 
L 241.66787 188.378517 
L 242.00987 189.009285 
L 242.35187 189.640171 
L 242.69387 190.270826 
L 243.035871 190.900896 
L 243.377871 191.530025 
L 243.719871 192.157853 
L 244.061871 192.784015 
L 244.403872 193.408146 
L 244.745872 194.029876 
L 245.087872 194.648832 
L 245.429872 195.264638 
L 245.771873 195.876916 
L 246.113873 196.485286 
L 246.455873 197.089364 
L 246.797873 197.688765 
L 247.139874 198.283101 
L 247.481874 198.871983 
L 247.823874 199.455019 
L 248.165874 200.031817 
L 248.507875 200.601981 
L 248.849875 201.165117 
L 249.191875 201.720827 
L 249.533876 202.268714 
L 249.875876 202.808378 
L 250.217876 203.339421 
L 250.559876 203.861443 
L 250.901877 204.374045 
L 251.243877 204.876826 
L 251.585877 205.369388 
L 251.927877 205.85133 
L 252.269878 206.322256 
L 252.611878 206.781768 
L 252.953878 207.229468 
L 253.295878 207.664963 
L 253.637879 208.087858 
L 253.979879 208.497763 
L 254.321879 208.894288 
L 254.663879 209.277046 
L 255.00588 209.645652 
L 255.34788 209.999725 
L 255.68988 210.338886 
L 256.03188 210.662761 
L 256.373881 210.970978 
L 256.715881 211.263169 
L 257.057881 211.538972 
L 257.399881 211.798029 
L 257.741882 212.039986 
L 258.083882 212.264494 
L 258.425882 212.471211 
L 258.767882 212.659801 
L 259.109883 212.829932 
L 259.451883 212.98128 
L 259.793883 213.113529 
L 260.135884 213.226368 
L 260.477884 213.319495 
L 260.819884 213.392615 
L 261.161884 213.445443 
L 261.503885 213.477701 
L 261.845885 213.489121 
L 262.187885 213.479445 
L 262.529885 213.448422 
L 262.871886 213.395816 
L 263.213886 213.321398 
L 263.555886 213.224952 
L 263.897886 213.106272 
L 264.239887 212.965165 
L 264.581887 212.801452 
L 264.923887 212.614963 
L 265.265887 212.405545 
L 265.607888 212.173058 
L 265.949888 211.917374 
L 266.291888 211.638384 
L 266.633888 211.33599 
L 266.975889 211.010113 
L 267.317889 210.660687 
L 267.659889 210.287667 
L 268.001889 209.891023 
L 268.34389 209.470741 
L 268.68589 209.02683 
L 269.02789 208.559313 
L 269.36989 208.068236 
L 269.711891 207.553664 
L 270.053891 207.015682 
L 270.395891 206.454398 
L 270.737891 205.86994 
L 271.079892 205.262459 
L 271.421892 204.632129 
L 271.763892 203.979149 
L 272.105893 203.30374 
L 272.447893 202.606149 
L 272.789893 201.88665 
L 273.131893 201.145541 
L 273.473894 200.383148 
L 273.815894 199.599825 
L 274.157894 198.795954 
L 274.499894 197.971944 
L 274.841895 197.128238 
L 275.183895 196.265305 
L 275.525895 195.383648 
L 275.867895 194.483802 
L 276.209896 193.566331 
L 276.551896 192.631838 
L 276.893896 191.680955 
L 277.235896 190.714353 
L 277.577897 189.732735 
L 277.919897 188.736845 
L 278.261897 187.72746 
L 278.603897 186.705397 
L 278.945898 185.671514 
L 279.287898 184.626706 
L 279.629898 183.57191 
L 279.971898 182.508105 
L 280.313899 181.436311 
L 280.655899 180.357593 
L 280.997899 179.27306 
L 281.339899 178.183866 
L 281.6819 177.091211 
L 282.0239 175.996343 
L 282.3659 174.900557 
L 282.707901 173.805197 
L 283.049901 172.711658 
L 283.391901 171.621387 
L 283.733901 170.535879 
L 284.075902 169.456687 
L 284.417902 168.385415 
L 284.759902 167.323722 
L 285.101902 166.273327 
L 285.443903 165.236001 
L 285.785903 164.213576 
L 286.127903 163.207945 
L 286.469903 162.221059 
L 286.811904 161.254931 
L 287.153904 160.31164 
L 287.495904 159.393324 
L 287.837904 158.50219 
L 288.179905 157.64051 
L 288.521905 156.810624 
L 288.863905 156.014941 
L 289.205905 155.255939 
L 289.547906 154.536168 
L 289.889906 153.85825 
L 290.231906 153.224883 
L 290.573906 152.638837 
L 290.915907 152.10296 
L 291.257907 151.620178 
L 291.599907 151.193495 
L 291.941907 150.825997 
L 292.283908 150.520849 
L 292.625908 150.281303 
L 292.967908 150.110693 
L 293.309909 150.012439 
L 293.651909 149.99005 
L 293.993909 150.047121 
L 294.335909 150.187341 
L 294.67791 150.414489 
L 295.01991 150.732436 
L 295.36191 151.145151 
L 295.70391 151.656696 
L 296.045911 152.271233 
L 296.387911 152.993023 
L 296.729911 153.826428 
L 297.071911 154.775912 
L 297.413912 155.846046 
L 297.755912 157.041503 
L 298.097912 158.367067 
L 298.439912 159.827629 
L 298.781913 161.428192 
L 299.123913 163.173871 
L 299.465913 165.069897 
L 299.807913 167.121615 
L 300.149914 169.334489 
L 300.491914 171.714104 
L 300.833914 174.266164 
L 301.175914 176.996498 
L 301.517915 179.91106 
L 301.859915 183.01593 
L 302.201915 186.317319 
L 302.543915 189.821567 
L 302.885916 193.535147 
L 303.227916 197.464669 
L 303.569916 201.616876 
L 303.911916 205.998652 
L 304.253917 210.617022 
L 304.595917 215.479153 
L 304.937917 220.592356 
L 305.279918 225.96409 
L 305.621918 231.601963 
L 305.963918 237.513733 
L 306.305918 243.707312 
L 306.647919 250.190767 
L 306.989919 256.972323 
L 307.331919 264.060365 
L 307.673919 271.463439 
L 308.01592 279.190255 
L 308.35792 287.249691 
L 308.429173 289 
" style="fill:none;stroke:#59b2e6;stroke-linecap:square;stroke-width:2;"/>
   </g>
   <g id="PathCollection_1">
    <defs>
     <path d="M 0 2.5 
C 0.663008 2.5 1.29895 2.236584 1.767767 1.767767 
C 2.236584 1.29895 2.5 0.663008 2.5 0 
C 2.5 -0.663008 2.236584 -1.29895 1.767767 -1.767767 
C 1.29895 -2.236584 0.663008 -2.5 0 -2.5 
C -0.663008 -2.5 -1.29895 -2.236584 -1.767767 -1.767767 
C -2.236584 -1.29895 -2.5 -0.663008 -2.5 0 
C -2.5 0.663008 -2.236584 1.29895 -1.767767 1.767767 
C -1.29895 2.236584 -0.663008 2.5 0 2.5 
z
" id="mcc771eb535" style="stroke:#e69900;"/>
    </defs>
    <g clip-path="url(#p6514adbc44)">
     <use style="fill:#e69900;stroke:#e69900;" x="134.474251" xlink:href="#mcc771eb535" y="186.861273"/>
     <use style="fill:#e69900;stroke:#e69900;" x="11.649234" xlink:href="#mcc771eb535" y="186.861273"/>
    </g>
   </g>
   <g id="PathCollection_2">
    <g clip-path="url(#p6514adbc44)">
     <use style="fill:#e69900;stroke:#e69900;" x="191.701598" xlink:href="#mcc771eb535" y="186.861273"/>
     <use style="fill:#e69900;stroke:#e69900;" x="-1" xlink:href="#mcc771eb535" y="186.861273"/>
    </g>
   </g>
   <g id="PathCollection_3">
    <g clip-path="url(#p6514adbc44)">
     <use style="fill:#e69900;stroke:#e69900;" x="240.843835" xlink:href="#mcc771eb535" y="186.861273"/>
     <use style="fill:#e69900;stroke:#e69900;" x="-1" xlink:href="#mcc771eb535" y="186.861273"/>
    </g>
   </g>
   <g id="PathCollection_4">
    <g clip-path="url(#p6514adbc44)">
     <use style="fill:#e69900;stroke:#e69900;" x="278.552" xlink:href="#mcc771eb535" y="186.861273"/>
     <use style="fill:#e69900;stroke:#e69900;" x="-1" xlink:href="#mcc771eb535" y="186.861273"/>
    </g>
   </g>
   <g id="PathCollection_5">
    <g clip-path="url(#p6514adbc44)">
     <use style="fill:#e69900;stroke:#e69900;" x="302.256344" xlink:href="#mcc771eb535" y="186.861273"/>
     <use style="fill:#e69900;stroke:#e69900;" x="-1" xlink:href="#mcc771eb535" y="186.861273"/>
    </g>
   </g>
   <g id="matplotlib.axis_1">
    <g id="xtick_1">
     <g id="line2d_2">
      <path clip-path="url(#p6514adbc44)" d="M 73.061743 233.110711 
L 73.061743 17.28 
" style="fill:none;stroke:#b0b0b0;stroke-linecap:square;stroke-width:0.8;"/>
     </g>
     <g id="line2d_3">
      <defs>
       <path d="M 0 0 
L 0 -3.5 
" id="m98a643e4ed" style="stroke:#000000;stroke-width:0.8;"/>
      </defs>
      <g>
       <use style="stroke:#000000;stroke-width:0.8;" x="73.061743" xlink:href="#m98a643e4ed" y="233.110711"/>
      </g>
     </g>
     <g id="line2d_4">
      <defs>
       <path d="M 0 0 
L 0 3.5 
" id="mba0d5cc558" style="stroke:#000000;stroke-width:0.8;"/>
      </defs>
      <g>
       <use style="stroke:#000000;stroke-width:0.8;" x="73.061743" xlink:href="#mba0d5cc558" y="17.28"/>
      </g>
     </g>
     <g id="text_1">
      <!-- $0$ -->
      <defs>
       <path d="M 42 31.84375 
C 42 37.96875 41.90625 48.421875 37.703125 56.453125 
C 34 63.484375 28.09375 66 22.90625 66 
C 18.09375 66 12 63.78125 8.203125 56.5625 
C 4.203125 49.015625 3.796875 39.671875 3.796875 31.84375 
C 3.796875 26.109375 3.90625 17.375 7 9.734375 
C 11.296875 -0.609375 19 -2 22.90625 -2 
C 27.5 -2 34.5 -0.109375 38.59375 9.4375 
C 41.59375 16.375 42 24.5 42 31.84375 
z
M 22.90625 -0.40625 
C 16.5 -0.40625 12.703125 5.125 11.296875 12.75 
C 10.203125 18.6875 10.203125 27.328125 10.203125 32.953125 
C 10.203125 40.6875 10.203125 47.109375 11.5 53.234375 
C 13.40625 61.78125 19 64.390625 22.90625 64.390625 
C 27 64.390625 32.296875 61.671875 34.203125 53.4375 
C 35.5 47.71875 35.59375 40.984375 35.59375 32.953125 
C 35.59375 26.421875 35.59375 18.375 34.40625 12.453125 
C 32.296875 1.5 26.40625 -0.40625 22.90625 -0.40625 
z
" id="CMR17-48"/>
      </defs>
      <g transform="translate(69.159749 247.6803)scale(0.16 -0.16)">
       <use transform="scale(0.996264)" xlink:href="#CMR17-48"/>
      </g>
     </g>
    </g>
    <g id="xtick_2">
     <g id="line2d_5">
      <path clip-path="url(#p6514adbc44)" d="M 135.181426 233.110711 
L 135.181426 17.28 
" style="fill:none;stroke:#b0b0b0;stroke-linecap:square;stroke-width:0.8;"/>
     </g>
     <g id="line2d_6">
      <g>
       <use style="stroke:#000000;stroke-width:0.8;" x="135.181426" xlink:href="#m98a643e4ed" y="233.110711"/>
      </g>
     </g>
     <g id="line2d_7">
      <g>
       <use style="stroke:#000000;stroke-width:0.8;" x="135.181426" xlink:href="#mba0d5cc558" y="17.28"/>
      </g>
     </g>
     <g id="text_2">
      <!-- $1$ -->
      <defs>
       <path d="M 26.59375 63.796875 
C 26.59375 65.890625 26.5 66 25.09375 66 
C 21.203125 61.359375 15.296875 59.890625 9.703125 59.6875 
C 9.40625 59.6875 8.90625 59.6875 8.796875 59.5 
C 8.703125 59.296875 8.703125 59.09375 8.703125 57 
C 11.796875 57 17 57.59375 21 59.984375 
L 21 7.296875 
C 21 3.796875 20.796875 2.59375 12.203125 2.59375 
L 9.203125 2.59375 
L 9.203125 0 
C 14 0.09375 19 0.1875 23.796875 0.1875 
C 28.59375 0.1875 33.59375 0.09375 38.40625 0 
L 38.40625 2.59375 
L 35.40625 2.59375 
C 26.796875 2.59375 26.59375 3.6875 26.59375 7.296875 
z
" id="CMR17-49"/>
      </defs>
      <g transform="translate(131.279432 247.6803)scale(0.16 -0.16)">
       <use transform="scale(0.996264)" xlink:href="#CMR17-49"/>
      </g>
     </g>
    </g>
    <g id="xtick_3">
     <g id="line2d_8">
      <path clip-path="url(#p6514adbc44)" d="M 197.301109 233.110711 
L 197.301109 17.28 
" style="fill:none;stroke:#b0b0b0;stroke-linecap:square;stroke-width:0.8;"/>
     </g>
     <g id="line2d_9">
      <g>
       <use style="stroke:#000000;stroke-width:0.8;" x="197.301109" xlink:href="#m98a643e4ed" y="233.110711"/>
      </g>
     </g>
     <g id="line2d_10">
      <g>
       <use style="stroke:#000000;stroke-width:0.8;" x="197.301109" xlink:href="#mba0d5cc558" y="17.28"/>
      </g>
     </g>
     <g id="text_3">
      <!-- $2$ -->
      <defs>
       <path d="M 41.703125 15.46875 
L 39.90625 15.46875 
C 38.90625 8.390625 38.09375 7.1875 37.703125 6.59375 
C 37.203125 5.796875 30 5.796875 28.59375 5.796875 
L 9.40625 5.796875 
C 13 9.6875 20 16.765625 28.5 24.9375 
C 34.59375 30.71875 41.703125 37.5 41.703125 47.390625 
C 41.703125 59.1875 32.296875 66 21.796875 66 
C 10.796875 66 4.09375 56.296875 4.09375 47.296875 
C 4.09375 43.390625 7 42.890625 8.203125 42.890625 
C 9.203125 42.890625 12.203125 43.484375 12.203125 46.984375 
C 12.203125 50.09375 9.59375 51 8.203125 51 
C 7.59375 51 7 50.890625 6.59375 50.6875 
C 8.5 59.1875 14.296875 63.390625 20.40625 63.390625 
C 29.09375 63.390625 34.796875 56.5 34.796875 47.390625 
C 34.796875 38.703125 29.703125 31.21875 24 24.734375 
L 4.09375 2.296875 
L 4.09375 0 
L 39.296875 0 
z
" id="CMR17-50"/>
      </defs>
      <g transform="translate(193.399115 247.6803)scale(0.16 -0.16)">
       <use transform="scale(0.996264)" xlink:href="#CMR17-50"/>
      </g>
     </g>
    </g>
    <g id="xtick_4">
     <g id="line2d_11">
      <path clip-path="url(#p6514adbc44)" d="M 259.420792 233.110711 
L 259.420792 17.28 
" style="fill:none;stroke:#b0b0b0;stroke-linecap:square;stroke-width:0.8;"/>
     </g>
     <g id="line2d_12">
      <g>
       <use style="stroke:#000000;stroke-width:0.8;" x="259.420792" xlink:href="#m98a643e4ed" y="233.110711"/>
      </g>
     </g>
     <g id="line2d_13">
      <g>
       <use style="stroke:#000000;stroke-width:0.8;" x="259.420792" xlink:href="#mba0d5cc558" y="17.28"/>
      </g>
     </g>
     <g id="text_4">
      <!-- $3$ -->
      <defs>
       <path d="M 22.09375 34 
C 31 34 34.90625 26.140625 34.90625 17.09375 
C 34.90625 5.03125 28.5 0.390625 22.703125 0.390625 
C 17.40625 0.390625 8.796875 3.015625 6.09375 10.796875 
C 6.59375 10.59375 7.09375 10.59375 7.59375 10.59375 
C 10 10.59375 11.796875 12.1875 11.796875 14.796875 
C 11.796875 17.6875 9.59375 19 7.59375 19 
C 5.90625 19 3.296875 18.1875 3.296875 14.484375 
C 3.296875 5.234375 12.296875 -2 22.90625 -2 
C 34 -2 42.5 6.75 42.5 16.984375 
C 42.5 26.84375 34.5 34 25 35.09375 
C 32.59375 36.671875 39.90625 43.375 39.90625 52.390625 
C 39.90625 60.25 32 66 23 66 
C 13.90625 66 5.90625 60.34375 5.90625 52.296875 
C 5.90625 48.796875 8.5 48.1875 9.796875 48.1875 
C 11.90625 48.1875 13.703125 49.484375 13.703125 52.09375 
C 13.703125 54.6875 11.90625 56 9.796875 56 
C 9.40625 56 8.90625 56 8.5 55.796875 
C 11.40625 62.484375 19.296875 63.6875 22.796875 63.6875 
C 26.296875 63.6875 32.90625 61.96875 32.90625 52.296875 
C 32.90625 49.484375 32.5 44.546875 29.09375 40.21875 
C 26.09375 36.390625 22.703125 36.1875 19.40625 35.890625 
C 18.90625 35.890625 16.59375 35.6875 16.203125 35.6875 
C 15.5 35.59375 15.09375 35.5 15.09375 34.796875 
C 15.09375 34.09375 15.203125 34 17.203125 34 
z
" id="CMR17-51"/>
      </defs>
      <g transform="translate(255.518799 247.6803)scale(0.16 -0.16)">
       <use transform="scale(0.996264)" xlink:href="#CMR17-51"/>
      </g>
     </g>
    </g>
    <g id="xtick_5">
     <g id="line2d_14">
      <path clip-path="url(#p6514adbc44)" d="M 321.540475 233.110711 
L 321.540475 17.28 
" style="fill:none;stroke:#b0b0b0;stroke-linecap:square;stroke-width:0.8;"/>
     </g>
     <g id="line2d_15">
      <g>
       <use style="stroke:#000000;stroke-width:0.8;" x="321.540475" xlink:href="#m98a643e4ed" y="233.110711"/>
      </g>
     </g>
     <g id="line2d_16">
      <g>
       <use style="stroke:#000000;stroke-width:0.8;" x="321.540475" xlink:href="#mba0d5cc558" y="17.28"/>
      </g>
     </g>
     <g id="text_5">
      <!-- $4$ -->
      <defs>
       <path d="M 33.59375 64.796875 
C 33.59375 66.890625 33.5 67 31.703125 67 
L 2 19.59375 
L 2 17 
L 27.796875 17 
L 27.796875 7.1875 
C 27.796875 3.59375 27.59375 2.59375 20.59375 2.59375 
L 18.703125 2.59375 
L 18.703125 0 
C 21.90625 0.1875 27.296875 0.1875 30.703125 0.1875 
C 34.09375 0.1875 39.5 0.1875 42.703125 0 
L 42.703125 2.59375 
L 40.796875 2.59375 
C 33.796875 2.59375 33.59375 3.59375 33.59375 7.1875 
L 33.59375 17 
L 43.796875 17 
L 43.796875 19.59375 
L 33.59375 19.59375 
z
M 28.09375 58.171875 
L 28.09375 19.59375 
L 4 19.59375 
z
" id="CMR17-52"/>
      </defs>
      <g transform="translate(317.638482 247.6803)scale(0.16 -0.16)">
       <use transform="scale(0.996264)" xlink:href="#CMR17-52"/>
      </g>
     </g>
    </g>
    <g id="xtick_6">
     <g id="line2d_17">
      <path clip-path="url(#p6514adbc44)" d="M 383.660158 233.110711 
L 383.660158 17.28 
" style="fill:none;stroke:#b0b0b0;stroke-linecap:square;stroke-width:0.8;"/>
     </g>
     <g id="line2d_18">
      <g>
       <use style="stroke:#000000;stroke-width:0.8;" x="383.660158" xlink:href="#m98a643e4ed" y="233.110711"/>
      </g>
     </g>
     <g id="line2d_19">
      <g>
       <use style="stroke:#000000;stroke-width:0.8;" x="383.660158" xlink:href="#mba0d5cc558" y="17.28"/>
      </g>
     </g>
     <g id="text_6">
      <!-- $5$ -->
      <defs>
       <path d="M 11.40625 58.59375 
C 12.40625 58.1875 16.5 56.890625 20.703125 56.890625 
C 30 56.890625 35.09375 61.890625 38 64.6875 
C 38 65.484375 38 66 37.40625 66 
C 37.296875 66 37.09375 66 36.296875 65.59375 
C 32.796875 64.09375 28.703125 63 23.703125 63 
C 20.703125 63 16.203125 63.359375 11.296875 65.484375 
C 10.203125 66 10 66 9.90625 66 
C 9.40625 66 9.296875 65.890625 9.296875 63.90625 
L 9.296875 34.859375 
C 9.296875 33.015625 9.296875 32.5 10.296875 32.5 
C 10.796875 32.5 11 32.703125 11.5 33.421875 
C 14.703125 38.046875 19.09375 40 24.09375 40 
C 27.59375 40 35.09375 37.734375 35.09375 20.203125 
C 35.09375 16.984375 35.09375 11.1875 32.09375 6.59375 
C 29.59375 2.484375 25.703125 0.390625 21.40625 0.390625 
C 14.796875 0.390625 8.09375 4.984375 6.296875 12.6875 
C 6.703125 12.59375 7.5 12.390625 7.90625 12.390625 
C 9.203125 12.390625 11.703125 13.09375 11.703125 16.1875 
C 11.703125 18.890625 9.796875 20 7.90625 20 
C 5.59375 20 4.09375 18.59375 4.09375 15.796875 
C 4.09375 7.09375 11 -2 21.59375 -2 
C 31.90625 -2 41.703125 6.890625 41.703125 19.796875 
C 41.703125 32.09375 33.90625 41.59375 24.203125 41.59375 
C 19.09375 41.59375 14.796875 39.6875 11.40625 36 
z
" id="CMR17-53"/>
      </defs>
      <g transform="translate(379.758165 247.6803)scale(0.16 -0.16)">
       <use transform="scale(0.996264)" xlink:href="#CMR17-53"/>
      </g>
     </g>
    </g>
    <g id="xtick_7">
     <g id="line2d_20">
      <path clip-path="url(#p6514adbc44)" d="M 88.591663 233.110711 
L 88.591663 17.28 
" style="fill:none;stroke:#b0b0b0;stroke-linecap:square;stroke-width:0.8;"/>
     </g>
     <g id="line2d_21">
      <defs>
       <path d="M 0 0 
L 0 -2 
" id="mce7dc7f58d" style="stroke:#000000;stroke-width:0.6;"/>
      </defs>
      <g>
       <use style="stroke:#000000;stroke-width:0.6;" x="88.591663" xlink:href="#mce7dc7f58d" y="233.110711"/>
      </g>
     </g>
     <g id="line2d_22">
      <defs>
       <path d="M 0 0 
L 0 2 
" id="m8905101456" style="stroke:#000000;stroke-width:0.6;"/>
      </defs>
      <g>
       <use style="stroke:#000000;stroke-width:0.6;" x="88.591663" xlink:href="#m8905101456" y="17.28"/>
      </g>
     </g>
    </g>
    <g id="xtick_8">
     <g id="line2d_23">
      <path clip-path="url(#p6514adbc44)" d="M 104.121584 233.110711 
L 104.121584 17.28 
" style="fill:none;stroke:#b0b0b0;stroke-linecap:square;stroke-width:0.8;"/>
     </g>
     <g id="line2d_24">
      <g>
       <use style="stroke:#000000;stroke-width:0.6;" x="104.121584" xlink:href="#mce7dc7f58d" y="233.110711"/>
      </g>
     </g>
     <g id="line2d_25">
      <g>
       <use style="stroke:#000000;stroke-width:0.6;" x="104.121584" xlink:href="#m8905101456" y="17.28"/>
      </g>
     </g>
    </g>
    <g id="xtick_9">
     <g id="line2d_26">
      <path clip-path="url(#p6514adbc44)" d="M 119.651505 233.110711 
L 119.651505 17.28 
" style="fill:none;stroke:#b0b0b0;stroke-linecap:square;stroke-width:0.8;"/>
     </g>
     <g id="line2d_27">
      <g>
       <use style="stroke:#000000;stroke-width:0.6;" x="119.651505" xlink:href="#mce7dc7f58d" y="233.110711"/>
      </g>
     </g>
     <g id="line2d_28">
      <g>
       <use style="stroke:#000000;stroke-width:0.6;" x="119.651505" xlink:href="#m8905101456" y="17.28"/>
      </g>
     </g>
    </g>
    <g id="xtick_10">
     <g id="line2d_29">
      <path clip-path="url(#p6514adbc44)" d="M 150.711347 233.110711 
L 150.711347 17.28 
" style="fill:none;stroke:#b0b0b0;stroke-linecap:square;stroke-width:0.8;"/>
     </g>
     <g id="line2d_30">
      <g>
       <use style="stroke:#000000;stroke-width:0.6;" x="150.711347" xlink:href="#mce7dc7f58d" y="233.110711"/>
      </g>
     </g>
     <g id="line2d_31">
      <g>
       <use style="stroke:#000000;stroke-width:0.6;" x="150.711347" xlink:href="#m8905101456" y="17.28"/>
      </g>
     </g>
    </g>
    <g id="xtick_11">
     <g id="line2d_32">
      <path clip-path="url(#p6514adbc44)" d="M 166.241267 233.110711 
L 166.241267 17.28 
" style="fill:none;stroke:#b0b0b0;stroke-linecap:square;stroke-width:0.8;"/>
     </g>
     <g id="line2d_33">
      <g>
       <use style="stroke:#000000;stroke-width:0.6;" x="166.241267" xlink:href="#mce7dc7f58d" y="233.110711"/>
      </g>
     </g>
     <g id="line2d_34">
      <g>
       <use style="stroke:#000000;stroke-width:0.6;" x="166.241267" xlink:href="#m8905101456" y="17.28"/>
      </g>
     </g>
    </g>
    <g id="xtick_12">
     <g id="line2d_35">
      <path clip-path="url(#p6514adbc44)" d="M 181.771188 233.110711 
L 181.771188 17.28 
" style="fill:none;stroke:#b0b0b0;stroke-linecap:square;stroke-width:0.8;"/>
     </g>
     <g id="line2d_36">
      <g>
       <use style="stroke:#000000;stroke-width:0.6;" x="181.771188" xlink:href="#mce7dc7f58d" y="233.110711"/>
      </g>
     </g>
     <g id="line2d_37">
      <g>
       <use style="stroke:#000000;stroke-width:0.6;" x="181.771188" xlink:href="#m8905101456" y="17.28"/>
      </g>
     </g>
    </g>
    <g id="xtick_13">
     <g id="line2d_38">
      <path clip-path="url(#p6514adbc44)" d="M 212.83103 233.110711 
L 212.83103 17.28 
" style="fill:none;stroke:#b0b0b0;stroke-linecap:square;stroke-width:0.8;"/>
     </g>
     <g id="line2d_39">
      <g>
       <use style="stroke:#000000;stroke-width:0.6;" x="212.83103" xlink:href="#mce7dc7f58d" y="233.110711"/>
      </g>
     </g>
     <g id="line2d_40">
      <g>
       <use style="stroke:#000000;stroke-width:0.6;" x="212.83103" xlink:href="#m8905101456" y="17.28"/>
      </g>
     </g>
    </g>
    <g id="xtick_14">
     <g id="line2d_41">
      <path clip-path="url(#p6514adbc44)" d="M 228.36095 233.110711 
L 228.36095 17.28 
" style="fill:none;stroke:#b0b0b0;stroke-linecap:square;stroke-width:0.8;"/>
     </g>
     <g id="line2d_42">
      <g>
       <use style="stroke:#000000;stroke-width:0.6;" x="228.36095" xlink:href="#mce7dc7f58d" y="233.110711"/>
      </g>
     </g>
     <g id="line2d_43">
      <g>
       <use style="stroke:#000000;stroke-width:0.6;" x="228.36095" xlink:href="#m8905101456" y="17.28"/>
      </g>
     </g>
    </g>
    <g id="xtick_15">
     <g id="line2d_44">
      <path clip-path="url(#p6514adbc44)" d="M 243.890871 233.110711 
L 243.890871 17.28 
" style="fill:none;stroke:#b0b0b0;stroke-linecap:square;stroke-width:0.8;"/>
     </g>
     <g id="line2d_45">
      <g>
       <use style="stroke:#000000;stroke-width:0.6;" x="243.890871" xlink:href="#mce7dc7f58d" y="233.110711"/>
      </g>
     </g>
     <g id="line2d_46">
      <g>
       <use style="stroke:#000000;stroke-width:0.6;" x="243.890871" xlink:href="#m8905101456" y="17.28"/>
      </g>
     </g>
    </g>
    <g id="xtick_16">
     <g id="line2d_47">
      <path clip-path="url(#p6514adbc44)" d="M 274.950713 233.110711 
L 274.950713 17.28 
" style="fill:none;stroke:#b0b0b0;stroke-linecap:square;stroke-width:0.8;"/>
     </g>
     <g id="line2d_48">
      <g>
       <use style="stroke:#000000;stroke-width:0.6;" x="274.950713" xlink:href="#mce7dc7f58d" y="233.110711"/>
      </g>
     </g>
     <g id="line2d_49">
      <g>
       <use style="stroke:#000000;stroke-width:0.6;" x="274.950713" xlink:href="#m8905101456" y="17.28"/>
      </g>
     </g>
    </g>
    <g id="xtick_17">
     <g id="line2d_50">
      <path clip-path="url(#p6514adbc44)" d="M 290.480634 233.110711 
L 290.480634 17.28 
" style="fill:none;stroke:#b0b0b0;stroke-linecap:square;stroke-width:0.8;"/>
     </g>
     <g id="line2d_51">
      <g>
       <use style="stroke:#000000;stroke-width:0.6;" x="290.480634" xlink:href="#mce7dc7f58d" y="233.110711"/>
      </g>
     </g>
     <g id="line2d_52">
      <g>
       <use style="stroke:#000000;stroke-width:0.6;" x="290.480634" xlink:href="#m8905101456" y="17.28"/>
      </g>
     </g>
    </g>
    <g id="xtick_18">
     <g id="line2d_53">
      <path clip-path="url(#p6514adbc44)" d="M 306.010554 233.110711 
L 306.010554 17.28 
" style="fill:none;stroke:#b0b0b0;stroke-linecap:square;stroke-width:0.8;"/>
     </g>
     <g id="line2d_54">
      <g>
       <use style="stroke:#000000;stroke-width:0.6;" x="306.010554" xlink:href="#mce7dc7f58d" y="233.110711"/>
      </g>
     </g>
     <g id="line2d_55">
      <g>
       <use style="stroke:#000000;stroke-width:0.6;" x="306.010554" xlink:href="#m8905101456" y="17.28"/>
      </g>
     </g>
    </g>
    <g id="xtick_19">
     <g id="line2d_56">
      <path clip-path="url(#p6514adbc44)" d="M 337.070396 233.110711 
L 337.070396 17.28 
" style="fill:none;stroke:#b0b0b0;stroke-linecap:square;stroke-width:0.8;"/>
     </g>
     <g id="line2d_57">
      <g>
       <use style="stroke:#000000;stroke-width:0.6;" x="337.070396" xlink:href="#mce7dc7f58d" y="233.110711"/>
      </g>
     </g>
     <g id="line2d_58">
      <g>
       <use style="stroke:#000000;stroke-width:0.6;" x="337.070396" xlink:href="#m8905101456" y="17.28"/>
      </g>
     </g>
    </g>
    <g id="xtick_20">
     <g id="line2d_59">
      <path clip-path="url(#p6514adbc44)" d="M 352.600317 233.110711 
L 352.600317 17.28 
" style="fill:none;stroke:#b0b0b0;stroke-linecap:square;stroke-width:0.8;"/>
     </g>
     <g id="line2d_60">
      <g>
       <use style="stroke:#000000;stroke-width:0.6;" x="352.600317" xlink:href="#mce7dc7f58d" y="233.110711"/>
      </g>
     </g>
     <g id="line2d_61">
      <g>
       <use style="stroke:#000000;stroke-width:0.6;" x="352.600317" xlink:href="#m8905101456" y="17.28"/>
      </g>
     </g>
    </g>
    <g id="xtick_21">
     <g id="line2d_62">
      <path clip-path="url(#p6514adbc44)" d="M 368.130238 233.110711 
L 368.130238 17.28 
" style="fill:none;stroke:#b0b0b0;stroke-linecap:square;stroke-width:0.8;"/>
     </g>
     <g id="line2d_63">
      <g>
       <use style="stroke:#000000;stroke-width:0.6;" x="368.130238" xlink:href="#mce7dc7f58d" y="233.110711"/>
      </g>
     </g>
     <g id="line2d_64">
      <g>
       <use style="stroke:#000000;stroke-width:0.6;" x="368.130238" xlink:href="#m8905101456" y="17.28"/>
      </g>
     </g>
    </g>
    <g id="xtick_22">
     <g id="line2d_65">
      <path clip-path="url(#p6514adbc44)" d="M 399.190079 233.110711 
L 399.190079 17.28 
" style="fill:none;stroke:#b0b0b0;stroke-linecap:square;stroke-width:0.8;"/>
     </g>
     <g id="line2d_66">
      <g>
       <use style="stroke:#000000;stroke-width:0.6;" x="399.190079" xlink:href="#mce7dc7f58d" y="233.110711"/>
      </g>
     </g>
     <g id="line2d_67">
      <g>
       <use style="stroke:#000000;stroke-width:0.6;" x="399.190079" xlink:href="#m8905101456" y="17.28"/>
      </g>
     </g>
    </g>
    <g id="xtick_23">
     <g id="line2d_68">
      <path clip-path="url(#p6514adbc44)" d="M 414.72 233.110711 
L 414.72 17.28 
" style="fill:none;stroke:#b0b0b0;stroke-linecap:square;stroke-width:0.8;"/>
     </g>
     <g id="line2d_69">
      <g>
       <use style="stroke:#000000;stroke-width:0.6;" x="414.72" xlink:href="#mce7dc7f58d" y="233.110711"/>
      </g>
     </g>
     <g id="line2d_70">
      <g>
       <use style="stroke:#000000;stroke-width:0.6;" x="414.72" xlink:href="#m8905101456" y="17.28"/>
      </g>
     </g>
    </g>
    <g id="text_7">
     <!-- $\sigma\ [\pi c/L]$ -->
     <defs>
      <path d="M 50.796875 37.59375 
C 52.09375 37.59375 55.40625 37.59375 55.40625 40.796875 
C 55.40625 43 53.5 43 51.703125 43 
L 29.59375 43 
C 14.59375 43 3.796875 26.328125 3.796875 14.5625 
C 3.796875 6.078125 9.296875 -1 18.296875 -1 
C 30.09375 -1 43 11.65625 43 26.625 
C 43 30.515625 42.09375 34.296875 39.703125 37.59375 
z
M 18.40625 1 
C 13.296875 1 9.59375 4.875 9.59375 11.765625 
C 9.59375 17.75 13.203125 37.59375 27.90625 37.59375 
C 32.203125 37.59375 37 35.5 37 27.8125 
C 37 24.328125 35.40625 15.953125 31.90625 10.171875 
C 28.296875 4.28125 22.90625 1 18.40625 1 
z
" id="CMMI12-27"/>
      <path d="M 23.5 -25 
L 23.5 -21.5 
L 14.09375 -21.5 
L 14.09375 71.484375 
L 23.5 71.484375 
L 23.5 75 
L 10.59375 75 
L 10.59375 -25 
z
" id="CMR17-91"/>
      <path d="M 25.90625 37.59375 
L 37.203125 37.59375 
C 34.5 26.421875 32.796875 19.140625 32.796875 11.171875 
C 32.796875 9.765625 32.796875 -1 36.90625 -1 
C 39 -1 40.796875 0.890625 40.796875 2.59375 
C 40.796875 3.09375 40.796875 3.28125 40.09375 4.78125 
C 37.40625 11.65625 37.40625 20.234375 37.40625 20.9375 
C 37.40625 21.53125 37.40625 28.625 39.5 37.59375 
L 50.703125 37.59375 
C 52 37.59375 55.296875 37.59375 55.296875 40.796875 
C 55.296875 43 53.40625 43 51.59375 43 
L 18.703125 43 
C 16.40625 43 13 43 8.40625 38.09375 
C 5.796875 35.203125 2.59375 29.921875 2.59375 29.3125 
C 2.59375 28.71875 3.09375 28.515625 3.703125 28.515625 
C 4.40625 28.515625 4.5 28.8125 5 29.421875 
C 10.203125 37.59375 15.40625 37.59375 17.90625 37.59375 
L 23.59375 37.59375 
C 21.40625 30.109375 18.90625 21.4375 10.703125 3.984375 
C 9.90625 2.390625 9.90625 2.1875 9.90625 1.59375 
C 9.90625 -0.5 11.703125 -1 12.59375 -1 
C 15.5 -1 16.296875 1.59375 17.5 5.78125 
C 19.09375 10.859375 19.09375 11.0625 20.09375 15.0625 
z
" id="CMMI12-25"/>
      <path d="M 39.09375 38 
C 37.203125 38 36.296875 38 34.90625 36.796875 
C 34.296875 36.296875 33.203125 34.796875 33.203125 33.1875 
C 33.203125 31.1875 34.703125 29.984375 36.59375 29.984375 
C 39 29.984375 41.703125 31.984375 41.703125 35.984375 
C 41.703125 40.484375 37.09375 44 30.203125 44 
C 17.09375 44 4 30.1875 4 15.796875 
C 4 6.96875 9.40625 -1 19.59375 -1 
C 33.203125 -1 41.796875 9.71875 41.796875 11.03125 
C 41.796875 11.640625 41.203125 12.140625 40.796875 12.140625 
C 40.5 12.140625 40.40625 12.046875 39.5 11.125 
C 33.09375 2.515625 23.59375 1 19.796875 1 
C 12.90625 1 10.703125 7.078125 10.703125 12.140625 
C 10.703125 15.6875 12.40625 25.53125 16 32.390625 
C 18.59375 37.09375 24 41.984375 30.296875 41.984375 
C 31.59375 41.984375 37.09375 41.8125 39.09375 38 
z
" id="CMMI12-99"/>
      <path d="M 42.90625 71.296875 
C 42.90625 71.390625 43.5 72.890625 43.5 73.09375 
C 43.5 74.296875 42.5 75 41.703125 75 
C 41.203125 75 40.296875 75 39.5 72.796875 
L 6 -21.3125 
C 6 -21.40625 5.40625 -22.90625 5.40625 -23.109375 
C 5.40625 -24.3125 6.40625 -25 7.203125 -25 
C 7.796875 -25 8.703125 -24.90625 9.40625 -22.8125 
z
" id="CMMI12-61"/>
      <path d="M 36.703125 60.3125 
C 37.59375 64.09375 37.90625 65.09375 46.703125 65.09375 
C 49.40625 65.09375 50.09375 65.09375 50.09375 66.984375 
C 50.09375 68 49 68 48.59375 68 
C 46.59375 68 44.296875 67.796875 42.296875 67.796875 
L 28.90625 67.796875 
C 27 67.796875 24.796875 68 22.90625 68 
C 22.09375 68 21 68 21 66.09375 
C 21 65.09375 21.90625 65.09375 23.40625 65.09375 
C 29.5 65.09375 29.5 64.296875 29.5 63.203125 
C 29.5 63 29.5 62.40625 29.09375 60.90625 
L 15.59375 7.375 
C 14.703125 3.890625 14.5 2.890625 7.5 2.890625 
C 5.59375 2.890625 4.59375 2.890625 4.59375 1.09375 
C 4.59375 0 5.203125 0 7.203125 0 
L 52 0 
C 54.203125 0 54.296875 0.09375 55 1.890625 
L 62.703125 23.09375 
C 62.90625 23.59375 63.09375 24.1875 63.09375 24.484375 
C 63.09375 25.078125 62.59375 25.484375 62.09375 25.484375 
C 62 25.484375 61.5 25.484375 61.296875 25.078125 
C 61.09375 24.984375 61.09375 24.78125 60.296875 22.890625 
C 57.09375 14.140625 52.59375 2.890625 35.703125 2.890625 
L 26.09375 2.890625 
C 24.703125 2.890625 24.5 2.890625 23.90625 2.984375 
C 22.796875 3.09375 22.703125 3.296875 22.703125 4.09375 
C 22.703125 4.78125 22.90625 5.375 23.09375 6.28125 
z
" id="CMMI12-76"/>
      <path d="M 14.296875 75 
L 1.40625 75 
L 1.40625 71.484375 
L 10.796875 71.484375 
L 10.796875 -21.5 
L 1.40625 -21.5 
L 1.40625 -25 
L 14.296875 -25 
z
" id="CMR17-93"/>
     </defs>
     <g transform="translate(214.949216 266.734944)scale(0.16 -0.16)">
      <use transform="scale(0.996264)" xlink:href="#CMMI12-27"/>
      <use transform="translate(90.249166 0)scale(0.996264)" xlink:href="#CMR17-91"/>
      <use transform="translate(115.120225 0)scale(0.996264)" xlink:href="#CMMI12-25"/>
      <use transform="translate(174.030826 0)scale(0.996264)" xlink:href="#CMMI12-99"/>
      <use transform="translate(216.014059 0)scale(0.996264)" xlink:href="#CMMI12-61"/>
      <use transform="translate(264.788978 0)scale(0.996264)" xlink:href="#CMMI12-76"/>
      <use transform="translate(331.159853 0)scale(0.996264)" xlink:href="#CMR17-93"/>
     </g>
    </g>
   </g>
   <g id="matplotlib.axis_2">
    <g id="ytick_1">
     <g id="line2d_71">
      <path clip-path="url(#p6514adbc44)" d="M 73.061743 217.694232 
L 414.72 217.694232 
" style="fill:none;stroke:#b0b0b0;stroke-linecap:square;stroke-width:0.8;"/>
     </g>
     <g id="line2d_72">
      <defs>
       <path d="M 0 0 
L 3.5 0 
" id="m46ba52522f" style="stroke:#000000;stroke-width:0.8;"/>
      </defs>
      <g>
       <use style="stroke:#000000;stroke-width:0.8;" x="73.061743" xlink:href="#m46ba52522f" y="217.694232"/>
      </g>
     </g>
     <g id="line2d_73">
      <defs>
       <path d="M 0 0 
L -3.5 0 
" id="mc59fa808ce" style="stroke:#000000;stroke-width:0.8;"/>
      </defs>
      <g>
       <use style="stroke:#000000;stroke-width:0.8;" x="414.72" xlink:href="#mc59fa808ce" y="217.694232"/>
      </g>
     </g>
     <g id="text_8">
      <!-- $-0.2$ -->
      <defs>
       <path d="M 65.90625 23 
C 67.59375 23 69.40625 23 69.40625 25 
C 69.40625 27 67.59375 27 65.90625 27 
L 11.796875 27 
C 10.09375 27 8.296875 27 8.296875 25 
C 8.296875 23 10.09375 23 11.796875 23 
z
" id="CMSY10-0"/>
       <path d="M 18.40625 4.796875 
C 18.40625 7.6875 16 9.6875 13.59375 9.6875 
C 10.703125 9.6875 8.703125 7.296875 8.703125 4.890625 
C 8.703125 2 11.09375 0 13.5 0 
C 16.40625 0 18.40625 2.390625 18.40625 4.796875 
z
" id="CMMI12-58"/>
      </defs>
      <g transform="translate(37.220224 223.229026)scale(0.16 -0.16)">
       <use transform="scale(0.996264)" xlink:href="#CMSY10-0"/>
       <use transform="translate(77.487468 0)scale(0.996264)" xlink:href="#CMR17-48"/>
       <use transform="translate(123.177945 0)scale(0.996264)" xlink:href="#CMMI12-58"/>
       <use transform="translate(150.275122 0)scale(0.996264)" xlink:href="#CMR17-50"/>
      </g>
     </g>
    </g>
    <g id="ytick_2">
     <g id="line2d_74">
      <path clip-path="url(#p6514adbc44)" d="M 73.061743 186.861273 
L 414.72 186.861273 
" style="fill:none;stroke:#b0b0b0;stroke-linecap:square;stroke-width:0.8;"/>
     </g>
     <g id="line2d_75">
      <g>
       <use style="stroke:#000000;stroke-width:0.8;" x="73.061743" xlink:href="#m46ba52522f" y="186.861273"/>
      </g>
     </g>
     <g id="line2d_76">
      <g>
       <use style="stroke:#000000;stroke-width:0.8;" x="414.72" xlink:href="#mc59fa808ce" y="186.861273"/>
      </g>
     </g>
     <g id="text_9">
      <!-- $0.0$ -->
      <g transform="translate(49.61822 192.396067)scale(0.16 -0.16)">
       <use transform="scale(0.996264)" xlink:href="#CMR17-48"/>
       <use transform="translate(45.690477 0)scale(0.996264)" xlink:href="#CMMI12-58"/>
       <use transform="translate(72.787654 0)scale(0.996264)" xlink:href="#CMR17-48"/>
      </g>
     </g>
    </g>
    <g id="ytick_3">
     <g id="line2d_77">
      <path clip-path="url(#p6514adbc44)" d="M 73.061743 156.028314 
L 414.72 156.028314 
" style="fill:none;stroke:#b0b0b0;stroke-linecap:square;stroke-width:0.8;"/>
     </g>
     <g id="line2d_78">
      <g>
       <use style="stroke:#000000;stroke-width:0.8;" x="73.061743" xlink:href="#m46ba52522f" y="156.028314"/>
      </g>
     </g>
     <g id="line2d_79">
      <g>
       <use style="stroke:#000000;stroke-width:0.8;" x="414.72" xlink:href="#mc59fa808ce" y="156.028314"/>
      </g>
     </g>
     <g id="text_10">
      <!-- $0.2$ -->
      <g transform="translate(49.61822 161.563109)scale(0.16 -0.16)">
       <use transform="scale(0.996264)" xlink:href="#CMR17-48"/>
       <use transform="translate(45.690477 0)scale(0.996264)" xlink:href="#CMMI12-58"/>
       <use transform="translate(72.787654 0)scale(0.996264)" xlink:href="#CMR17-50"/>
      </g>
     </g>
    </g>
    <g id="ytick_4">
     <g id="line2d_80">
      <path clip-path="url(#p6514adbc44)" d="M 73.061743 125.195356 
L 414.72 125.195356 
" style="fill:none;stroke:#b0b0b0;stroke-linecap:square;stroke-width:0.8;"/>
     </g>
     <g id="line2d_81">
      <g>
       <use style="stroke:#000000;stroke-width:0.8;" x="73.061743" xlink:href="#m46ba52522f" y="125.195356"/>
      </g>
     </g>
     <g id="line2d_82">
      <g>
       <use style="stroke:#000000;stroke-width:0.8;" x="414.72" xlink:href="#mc59fa808ce" y="125.195356"/>
      </g>
     </g>
     <g id="text_11">
      <!-- $0.4$ -->
      <g transform="translate(49.61822 130.73015)scale(0.16 -0.16)">
       <use transform="scale(0.996264)" xlink:href="#CMR17-48"/>
       <use transform="translate(45.690477 0)scale(0.996264)" xlink:href="#CMMI12-58"/>
       <use transform="translate(72.787654 0)scale(0.996264)" xlink:href="#CMR17-52"/>
      </g>
     </g>
    </g>
    <g id="ytick_5">
     <g id="line2d_83">
      <path clip-path="url(#p6514adbc44)" d="M 73.061743 94.362397 
L 414.72 94.362397 
" style="fill:none;stroke:#b0b0b0;stroke-linecap:square;stroke-width:0.8;"/>
     </g>
     <g id="line2d_84">
      <g>
       <use style="stroke:#000000;stroke-width:0.8;" x="73.061743" xlink:href="#m46ba52522f" y="94.362397"/>
      </g>
     </g>
     <g id="line2d_85">
      <g>
       <use style="stroke:#000000;stroke-width:0.8;" x="414.72" xlink:href="#mc59fa808ce" y="94.362397"/>
      </g>
     </g>
     <g id="text_12">
      <!-- $0.6$ -->
      <defs>
       <path d="M 10.59375 34.34375 
C 10.59375 58 21.796875 63.6875 28.296875 63.6875 
C 30.40625 63.6875 35.5 63.265625 37.5 59.09375 
C 35.90625 59.09375 32.90625 59.09375 32.90625 55.59375 
C 32.90625 52.890625 35.09375 52 36.5 52 
C 37.40625 52 40.09375 52.390625 40.09375 55.796875 
C 40.09375 62.296875 35.09375 66 28.203125 66 
C 16.296875 66 3.796875 53.296875 3.796875 31.421875 
C 3.796875 4.015625 15.09375 -2 23.09375 -2 
C 32.796875 -2 42 6.734375 42 20.234375 
C 42 32.828125 33.90625 42 23.703125 42 
C 17.59375 42 13.09375 37.96875 10.59375 30.921875 
z
M 23.09375 0.390625 
C 10.796875 0.390625 10.796875 18.9375 10.796875 22.65625 
C 10.796875 29.90625 14.203125 40.390625 23.5 40.390625 
C 25.203125 40.390625 30.09375 40.390625 33.40625 33.4375 
C 35.203125 29.515625 35.203125 25.375 35.203125 20.34375 
C 35.203125 14.90625 35.203125 10.875 33.09375 6.84375 
C 30.90625 2.703125 27.703125 0.390625 23.09375 0.390625 
z
" id="CMR17-54"/>
      </defs>
      <g transform="translate(49.61822 99.897191)scale(0.16 -0.16)">
       <use transform="scale(0.996264)" xlink:href="#CMR17-48"/>
       <use transform="translate(45.690477 0)scale(0.996264)" xlink:href="#CMMI12-58"/>
       <use transform="translate(72.787654 0)scale(0.996264)" xlink:href="#CMR17-54"/>
      </g>
     </g>
    </g>
    <g id="ytick_6">
     <g id="line2d_86">
      <path clip-path="url(#p6514adbc44)" d="M 73.061743 63.529438 
L 414.72 63.529438 
" style="fill:none;stroke:#b0b0b0;stroke-linecap:square;stroke-width:0.8;"/>
     </g>
     <g id="line2d_87">
      <g>
       <use style="stroke:#000000;stroke-width:0.8;" x="73.061743" xlink:href="#m46ba52522f" y="63.529438"/>
      </g>
     </g>
     <g id="line2d_88">
      <g>
       <use style="stroke:#000000;stroke-width:0.8;" x="414.72" xlink:href="#mc59fa808ce" y="63.529438"/>
      </g>
     </g>
     <g id="text_13">
      <!-- $0.8$ -->
      <defs>
       <path d="M 27.203125 35.765625 
C 33.5 38.96875 39.90625 43.796875 39.90625 51.53125 
C 39.90625 60.6875 31.09375 66 23 66 
C 13.90625 66 5.90625 59.375 5.90625 50.234375 
C 5.90625 47.71875 6.5 43.390625 10.40625 39.578125 
C 11.40625 38.578125 15.59375 35.5625 18.296875 33.65625 
C 13.796875 31.34375 3.296875 25.8125 3.296875 14.765625 
C 3.296875 4.40625 13.09375 -2 22.796875 -2 
C 33.5 -2 42.5 5.71875 42.5 15.96875 
C 42.5 25.109375 36.40625 29.328125 32.40625 32.046875 
z
M 14.09375 44.609375 
C 13.296875 45.109375 9.296875 48.21875 9.296875 52.9375 
C 9.296875 59.078125 15.59375 63.6875 22.796875 63.6875 
C 30.703125 63.6875 36.5 58.0625 36.5 51.53125 
C 36.5 42.1875 26.09375 36.859375 25.59375 36.859375 
C 25.5 36.859375 25.40625 36.859375 24.59375 37.46875 
z
M 32.5 24 
C 34 22.90625 38.796875 19.578125 38.796875 13.453125 
C 38.796875 6.015625 31.40625 0.390625 23 0.390625 
C 13.90625 0.390625 7 6.921875 7 14.859375 
C 7 22.796875 13.09375 29.4375 20 32.546875 
z
" id="CMR17-56"/>
      </defs>
      <g transform="translate(49.61822 69.064232)scale(0.16 -0.16)">
       <use transform="scale(0.996264)" xlink:href="#CMR17-48"/>
       <use transform="translate(45.690477 0)scale(0.996264)" xlink:href="#CMMI12-58"/>
       <use transform="translate(72.787654 0)scale(0.996264)" xlink:href="#CMR17-56"/>
      </g>
     </g>
    </g>
    <g id="ytick_7">
     <g id="line2d_89">
      <path clip-path="url(#p6514adbc44)" d="M 73.061743 32.696479 
L 414.72 32.696479 
" style="fill:none;stroke:#b0b0b0;stroke-linecap:square;stroke-width:0.8;"/>
     </g>
     <g id="line2d_90">
      <g>
       <use style="stroke:#000000;stroke-width:0.8;" x="73.061743" xlink:href="#m46ba52522f" y="32.696479"/>
      </g>
     </g>
     <g id="line2d_91">
      <g>
       <use style="stroke:#000000;stroke-width:0.8;" x="414.72" xlink:href="#mc59fa808ce" y="32.696479"/>
      </g>
     </g>
     <g id="text_14">
      <!-- $1.0$ -->
      <g transform="translate(49.61822 38.231274)scale(0.16 -0.16)">
       <use transform="scale(0.996264)" xlink:href="#CMR17-49"/>
       <use transform="translate(45.690477 0)scale(0.996264)" xlink:href="#CMMI12-58"/>
       <use transform="translate(72.787654 0)scale(0.996264)" xlink:href="#CMR17-48"/>
      </g>
     </g>
    </g>
    <g id="ytick_8">
     <g id="line2d_92">
      <path clip-path="url(#p6514adbc44)" d="M 73.061743 233.110711 
L 414.72 233.110711 
" style="fill:none;stroke:#b0b0b0;stroke-linecap:square;stroke-width:0.8;"/>
     </g>
     <g id="line2d_93">
      <defs>
       <path d="M 0 0 
L 2 0 
" id="mf6e62b2253" style="stroke:#000000;stroke-width:0.6;"/>
      </defs>
      <g>
       <use style="stroke:#000000;stroke-width:0.6;" x="73.061743" xlink:href="#mf6e62b2253" y="233.110711"/>
      </g>
     </g>
     <g id="line2d_94">
      <defs>
       <path d="M 0 0 
L -2 0 
" id="m3b24154f5f" style="stroke:#000000;stroke-width:0.6;"/>
      </defs>
      <g>
       <use style="stroke:#000000;stroke-width:0.6;" x="414.72" xlink:href="#m3b24154f5f" y="233.110711"/>
      </g>
     </g>
    </g>
    <g id="ytick_9">
     <g id="line2d_95">
      <path clip-path="url(#p6514adbc44)" d="M 73.061743 202.277753 
L 414.72 202.277753 
" style="fill:none;stroke:#b0b0b0;stroke-linecap:square;stroke-width:0.8;"/>
     </g>
     <g id="line2d_96">
      <g>
       <use style="stroke:#000000;stroke-width:0.6;" x="73.061743" xlink:href="#mf6e62b2253" y="202.277753"/>
      </g>
     </g>
     <g id="line2d_97">
      <g>
       <use style="stroke:#000000;stroke-width:0.6;" x="414.72" xlink:href="#m3b24154f5f" y="202.277753"/>
      </g>
     </g>
    </g>
    <g id="ytick_10">
     <g id="line2d_98">
      <path clip-path="url(#p6514adbc44)" d="M 73.061743 171.444794 
L 414.72 171.444794 
" style="fill:none;stroke:#b0b0b0;stroke-linecap:square;stroke-width:0.8;"/>
     </g>
     <g id="line2d_99">
      <g>
       <use style="stroke:#000000;stroke-width:0.6;" x="73.061743" xlink:href="#mf6e62b2253" y="171.444794"/>
      </g>
     </g>
     <g id="line2d_100">
      <g>
       <use style="stroke:#000000;stroke-width:0.6;" x="414.72" xlink:href="#m3b24154f5f" y="171.444794"/>
      </g>
     </g>
    </g>
    <g id="ytick_11">
     <g id="line2d_101">
      <path clip-path="url(#p6514adbc44)" d="M 73.061743 140.611835 
L 414.72 140.611835 
" style="fill:none;stroke:#b0b0b0;stroke-linecap:square;stroke-width:0.8;"/>
     </g>
     <g id="line2d_102">
      <g>
       <use style="stroke:#000000;stroke-width:0.6;" x="73.061743" xlink:href="#mf6e62b2253" y="140.611835"/>
      </g>
     </g>
     <g id="line2d_103">
      <g>
       <use style="stroke:#000000;stroke-width:0.6;" x="414.72" xlink:href="#m3b24154f5f" y="140.611835"/>
      </g>
     </g>
    </g>
    <g id="ytick_12">
     <g id="line2d_104">
      <path clip-path="url(#p6514adbc44)" d="M 73.061743 109.778876 
L 414.72 109.778876 
" style="fill:none;stroke:#b0b0b0;stroke-linecap:square;stroke-width:0.8;"/>
     </g>
     <g id="line2d_105">
      <g>
       <use style="stroke:#000000;stroke-width:0.6;" x="73.061743" xlink:href="#mf6e62b2253" y="109.778876"/>
      </g>
     </g>
     <g id="line2d_106">
      <g>
       <use style="stroke:#000000;stroke-width:0.6;" x="414.72" xlink:href="#m3b24154f5f" y="109.778876"/>
      </g>
     </g>
    </g>
    <g id="ytick_13">
     <g id="line2d_107">
      <path clip-path="url(#p6514adbc44)" d="M 73.061743 78.945918 
L 414.72 78.945918 
" style="fill:none;stroke:#b0b0b0;stroke-linecap:square;stroke-width:0.8;"/>
     </g>
     <g id="line2d_108">
      <g>
       <use style="stroke:#000000;stroke-width:0.6;" x="73.061743" xlink:href="#mf6e62b2253" y="78.945918"/>
      </g>
     </g>
     <g id="line2d_109">
      <g>
       <use style="stroke:#000000;stroke-width:0.6;" x="414.72" xlink:href="#m3b24154f5f" y="78.945918"/>
      </g>
     </g>
    </g>
    <g id="ytick_14">
     <g id="line2d_110">
      <path clip-path="url(#p6514adbc44)" d="M 73.061743 48.112959 
L 414.72 48.112959 
" style="fill:none;stroke:#b0b0b0;stroke-linecap:square;stroke-width:0.8;"/>
     </g>
     <g id="line2d_111">
      <g>
       <use style="stroke:#000000;stroke-width:0.6;" x="73.061743" xlink:href="#mf6e62b2253" y="48.112959"/>
      </g>
     </g>
     <g id="line2d_112">
      <g>
       <use style="stroke:#000000;stroke-width:0.6;" x="414.72" xlink:href="#m3b24154f5f" y="48.112959"/>
      </g>
     </g>
    </g>
    <g id="ytick_15">
     <g id="line2d_113">
      <path clip-path="url(#p6514adbc44)" d="M 73.061743 17.28 
L 414.72 17.28 
" style="fill:none;stroke:#b0b0b0;stroke-linecap:square;stroke-width:0.8;"/>
     </g>
     <g id="line2d_114">
      <g>
       <use style="stroke:#000000;stroke-width:0.6;" x="73.061743" xlink:href="#mf6e62b2253" y="17.28"/>
      </g>
     </g>
     <g id="line2d_115">
      <g>
       <use style="stroke:#000000;stroke-width:0.6;" x="414.72" xlink:href="#m3b24154f5f" y="17.28"/>
      </g>
     </g>
    </g>
    <g id="text_15">
     <!-- $\mathcal{D}(\sigma)$ -->
     <defs>
      <path d="M 20.40625 0 
C 43.703125 0 76.59375 17.734375 76.59375 44.890625 
C 76.59375 53.734375 72.40625 59.3125 67.5 62.390625 
C 58.90625 68 49.703125 68 40.203125 68 
C 31.59375 68 25.703125 68 17.296875 64.390625 
C 4 58.515625 2.09375 50.25 2.09375 49.453125 
C 2.09375 48.859375 2.5 48.65625 3.09375 48.65625 
C 4.703125 48.65625 7 50.0625 7.796875 50.546875 
C 9.90625 51.953125 10.203125 52.546875 10.796875 54.4375 
C 12.203125 58.40625 15 61.890625 27.59375 62.484375 
C 26 41.703125 20.90625 22.703125 13.90625 5.296875 
C 10.203125 4 7.796875 1.6875 7.796875 0.6875 
C 7.796875 0.09375 7.90625 0 10.09375 0 
z
M 20.90625 5.5 
C 32.296875 33.25 34.40625 50.546875 35.796875 62.484375 
C 42.5 62.484375 68.09375 62.484375 68.09375 40.609375 
C 68.09375 21.109375 50.5 5.5 26.296875 5.5 
z
" id="CMSY10-68"/>
      <path d="M 30.59375 -24.40625 
C 30.59375 -24.3125 30.59375 -24.109375 30.296875 -23.8125 
C 25.703125 -19.109375 13.40625 -6.296875 13.40625 24.9375 
C 13.40625 56.171875 25.5 68.875 30.40625 73.890625 
C 30.40625 73.984375 30.59375 74.1875 30.59375 74.484375 
C 30.59375 74.796875 30.296875 75 29.90625 75 
C 28.796875 75 20.296875 67.578125 15.40625 56.5625 
C 10.40625 45.453125 9 34.65625 9 25.046875 
C 9 17.828125 9.703125 5.625 15.703125 -7.296875 
C 20.5 -17.703125 28.703125 -25 29.90625 -25 
C 30.40625 -25 30.59375 -24.8125 30.59375 -24.40625 
z
" id="CMR17-40"/>
      <path d="M 26.296875 24.9375 
C 26.296875 32.140625 25.59375 44.359375 19.59375 57.265625 
C 14.796875 67.6875 6.59375 75 5.40625 75 
C 5.09375 75 4.703125 74.890625 4.703125 74.390625 
C 4.703125 74.1875 4.796875 74.09375 4.90625 73.890625 
C 9.703125 68.875 21.90625 56.171875 21.90625 25.046875 
C 21.90625 -6.1875 9.796875 -18.90625 4.90625 -23.90625 
C 4.796875 -24.109375 4.703125 -24.203125 4.703125 -24.40625 
C 4.703125 -24.90625 5.09375 -25 5.40625 -25 
C 6.5 -25 15 -17.609375 19.90625 -6.59375 
C 24.90625 4.515625 26.296875 15.328125 26.296875 24.9375 
z
" id="CMR17-41"/>
     </defs>
     <g transform="translate(29.235168 142.356215)rotate(-90)scale(0.16 -0.16)">
      <use transform="scale(0.996264)" xlink:href="#CMSY10-68"/>
      <use transform="translate(79.618575 0)scale(0.996264)" xlink:href="#CMR17-40"/>
      <use transform="translate(114.899343 0)scale(0.996264)" xlink:href="#CMMI12-27"/>
      <use transform="translate(173.919397 0)scale(0.996264)" xlink:href="#CMR17-41"/>
     </g>
    </g>
   </g>
   <g id="patch_3">
    <path d="M 73.061743 233.110711 
L 73.061743 17.28 
" style="fill:none;stroke:#000000;stroke-linecap:square;stroke-linejoin:miter;stroke-width:0.8;"/>
   </g>
   <g id="patch_4">
    <path d="M 414.72 233.110711 
L 414.72 17.28 
" style="fill:none;stroke:#000000;stroke-linecap:square;stroke-linejoin:miter;stroke-width:0.8;"/>
   </g>
   <g id="patch_5">
    <path d="M 73.061743 233.110711 
L 414.72 233.110711 
" style="fill:none;stroke:#000000;stroke-linecap:square;stroke-linejoin:miter;stroke-width:0.8;"/>
   </g>
   <g id="patch_6">
    <path d="M 73.061743 17.28 
L 414.72 17.28 
" style="fill:none;stroke:#000000;stroke-linecap:square;stroke-linejoin:miter;stroke-width:0.8;"/>
   </g>
  </g>
 </g>
 <defs>
  <clipPath id="p6514adbc44">
   <rect height="215.830711" width="341.658257" x="73.061743" y="17.28"/>
  </clipPath>
 </defs>
</svg>
