<?xml version="1.0" encoding="utf-8" standalone="no"?>
<!DOCTYPE svg PUBLIC "-//W3C//DTD SVG 1.1//EN"
  "http://www.w3.org/Graphics/SVG/1.1/DTD/svg11.dtd">
<!-- Created with matplotlib (https://matplotlib.org/) -->
<svg height="288pt" version="1.1" viewBox="0 0 432 288" width="432pt" xmlns="http://www.w3.org/2000/svg" xmlns:xlink="http://www.w3.org/1999/xlink">
 <defs>
  <style type="text/css">
*{stroke-linecap:butt;stroke-linejoin:round;}
  </style>
 </defs>
 <g id="figure_1">
  <g id="patch_1">
   <path d="M 0 288 
L 432 288 
L 432 0 
L 0 0 
z
" style="fill:#ffffff;"/>
  </g>
  <g id="axes_1">
   <g id="patch_2">
    <path d="M 71.290583 233.110711 
L 404.748239 233.110711 
L 404.748239 17.28 
L 71.290583 17.28 
z
" style="fill:#ffffff;"/>
   </g>
   <g id="line2d_1">
    <defs>
     <path d="M 0 2 
C 0.530406 2 1.03916 1.789267 1.414214 1.414214 
C 1.789267 1.03916 2 0.530406 2 0 
C 2 -0.530406 1.789267 -1.03916 1.414214 -1.414214 
C 1.03916 -1.789267 0.530406 -2 0 -2 
C -0.530406 -2 -1.03916 -1.789267 -1.414214 -1.414214 
C -1.789267 -1.03916 -2 -0.530406 -2 0 
C -2 0.530406 -1.789267 1.03916 -1.414214 1.414214 
C -1.03916 1.789267 -0.530406 2 0 2 
z
" id="m094844b0ad" style="stroke:#59b2e6;"/>
    </defs>
    <g clip-path="url(#p9c197335f8)">
     <use style="fill:#59b2e6;stroke:#59b2e6;" x="71.290583" xlink:href="#m094844b0ad" y="125.195356"/>
     <use style="fill:#59b2e6;stroke:#59b2e6;" x="78.095841" xlink:href="#m094844b0ad" y="118.906524"/>
     <use style="fill:#59b2e6;stroke:#59b2e6;" x="84.901099" xlink:href="#m094844b0ad" y="112.643535"/>
     <use style="fill:#59b2e6;stroke:#59b2e6;" x="91.706358" xlink:href="#m094844b0ad" y="106.432123"/>
     <use style="fill:#59b2e6;stroke:#59b2e6;" x="98.511616" xlink:href="#m094844b0ad" y="100.297814"/>
     <use style="fill:#59b2e6;stroke:#59b2e6;" x="105.316874" xlink:href="#m094844b0ad" y="94.265814"/>
     <use style="fill:#59b2e6;stroke:#59b2e6;" x="112.122133" xlink:href="#m094844b0ad" y="88.36091"/>
     <use style="fill:#59b2e6;stroke:#59b2e6;" x="118.927391" xlink:href="#m094844b0ad" y="82.607367"/>
     <use style="fill:#59b2e6;stroke:#59b2e6;" x="125.732649" xlink:href="#m094844b0ad" y="77.028827"/>
     <use style="fill:#59b2e6;stroke:#59b2e6;" x="132.537907" xlink:href="#m094844b0ad" y="71.648214"/>
     <use style="fill:#59b2e6;stroke:#59b2e6;" x="139.343166" xlink:href="#m094844b0ad" y="66.487637"/>
     <use style="fill:#59b2e6;stroke:#59b2e6;" x="146.148424" xlink:href="#m094844b0ad" y="61.568303"/>
     <use style="fill:#59b2e6;stroke:#59b2e6;" x="152.953682" xlink:href="#m094844b0ad" y="56.910427"/>
     <use style="fill:#59b2e6;stroke:#59b2e6;" x="159.758941" xlink:href="#m094844b0ad" y="52.533147"/>
     <use style="fill:#59b2e6;stroke:#59b2e6;" x="166.564199" xlink:href="#m094844b0ad" y="48.454452"/>
     <use style="fill:#59b2e6;stroke:#59b2e6;" x="173.369457" xlink:href="#m094844b0ad" y="44.691102"/>
     <use style="fill:#59b2e6;stroke:#59b2e6;" x="180.174715" xlink:href="#m094844b0ad" y="41.258562"/>
     <use style="fill:#59b2e6;stroke:#59b2e6;" x="186.979974" xlink:href="#m094844b0ad" y="38.170935"/>
     <use style="fill:#59b2e6;stroke:#59b2e6;" x="193.785232" xlink:href="#m094844b0ad" y="35.440911"/>
     <use style="fill:#59b2e6;stroke:#59b2e6;" x="200.59049" xlink:href="#m094844b0ad" y="33.079707"/>
     <use style="fill:#59b2e6;stroke:#59b2e6;" x="207.395749" xlink:href="#m094844b0ad" y="31.097026"/>
     <use style="fill:#59b2e6;stroke:#59b2e6;" x="214.201007" xlink:href="#m094844b0ad" y="29.501015"/>
     <use style="fill:#59b2e6;stroke:#59b2e6;" x="221.006265" xlink:href="#m094844b0ad" y="28.298232"/>
     <use style="fill:#59b2e6;stroke:#59b2e6;" x="227.811523" xlink:href="#m094844b0ad" y="27.493621"/>
     <use style="fill:#59b2e6;stroke:#59b2e6;" x="234.616782" xlink:href="#m094844b0ad" y="27.090487"/>
     <use style="fill:#59b2e6;stroke:#59b2e6;" x="241.42204" xlink:href="#m094844b0ad" y="27.090487"/>
     <use style="fill:#59b2e6;stroke:#59b2e6;" x="248.227298" xlink:href="#m094844b0ad" y="27.493621"/>
     <use style="fill:#59b2e6;stroke:#59b2e6;" x="255.032557" xlink:href="#m094844b0ad" y="28.298232"/>
     <use style="fill:#59b2e6;stroke:#59b2e6;" x="261.837815" xlink:href="#m094844b0ad" y="29.501015"/>
     <use style="fill:#59b2e6;stroke:#59b2e6;" x="268.643073" xlink:href="#m094844b0ad" y="31.097026"/>
     <use style="fill:#59b2e6;stroke:#59b2e6;" x="275.448331" xlink:href="#m094844b0ad" y="33.079707"/>
     <use style="fill:#59b2e6;stroke:#59b2e6;" x="282.25359" xlink:href="#m094844b0ad" y="35.440911"/>
     <use style="fill:#59b2e6;stroke:#59b2e6;" x="289.058848" xlink:href="#m094844b0ad" y="38.170935"/>
     <use style="fill:#59b2e6;stroke:#59b2e6;" x="295.864106" xlink:href="#m094844b0ad" y="41.258562"/>
     <use style="fill:#59b2e6;stroke:#59b2e6;" x="302.669365" xlink:href="#m094844b0ad" y="44.691102"/>
     <use style="fill:#59b2e6;stroke:#59b2e6;" x="309.474623" xlink:href="#m094844b0ad" y="48.454452"/>
     <use style="fill:#59b2e6;stroke:#59b2e6;" x="316.279881" xlink:href="#m094844b0ad" y="52.533147"/>
     <use style="fill:#59b2e6;stroke:#59b2e6;" x="323.085139" xlink:href="#m094844b0ad" y="56.910427"/>
     <use style="fill:#59b2e6;stroke:#59b2e6;" x="329.890398" xlink:href="#m094844b0ad" y="61.568303"/>
     <use style="fill:#59b2e6;stroke:#59b2e6;" x="336.695656" xlink:href="#m094844b0ad" y="66.487637"/>
     <use style="fill:#59b2e6;stroke:#59b2e6;" x="343.500914" xlink:href="#m094844b0ad" y="71.648214"/>
     <use style="fill:#59b2e6;stroke:#59b2e6;" x="350.306173" xlink:href="#m094844b0ad" y="77.028827"/>
     <use style="fill:#59b2e6;stroke:#59b2e6;" x="357.111431" xlink:href="#m094844b0ad" y="82.607367"/>
     <use style="fill:#59b2e6;stroke:#59b2e6;" x="363.916689" xlink:href="#m094844b0ad" y="88.36091"/>
     <use style="fill:#59b2e6;stroke:#59b2e6;" x="370.721947" xlink:href="#m094844b0ad" y="94.265814"/>
     <use style="fill:#59b2e6;stroke:#59b2e6;" x="377.527206" xlink:href="#m094844b0ad" y="100.297814"/>
     <use style="fill:#59b2e6;stroke:#59b2e6;" x="384.332464" xlink:href="#m094844b0ad" y="106.432123"/>
     <use style="fill:#59b2e6;stroke:#59b2e6;" x="391.137722" xlink:href="#m094844b0ad" y="112.643535"/>
     <use style="fill:#59b2e6;stroke:#59b2e6;" x="397.942981" xlink:href="#m094844b0ad" y="118.906524"/>
     <use style="fill:#59b2e6;stroke:#59b2e6;" x="404.748239" xlink:href="#m094844b0ad" y="125.195356"/>
    </g>
   </g>
   <g id="matplotlib.axis_1">
    <g id="xtick_1">
     <g id="line2d_2">
      <path clip-path="url(#p9c197335f8)" d="M 71.290583 233.110711 
L 71.290583 17.28 
" style="fill:none;stroke:#b0b0b0;stroke-linecap:square;stroke-width:0.8;"/>
     </g>
     <g id="line2d_3">
      <defs>
       <path d="M 0 0 
L 0 -3.5 
" id="m71e46f937e" style="stroke:#000000;stroke-width:0.8;"/>
      </defs>
      <g>
       <use style="stroke:#000000;stroke-width:0.8;" x="71.290583" xlink:href="#m71e46f937e" y="233.110711"/>
      </g>
     </g>
     <g id="line2d_4">
      <defs>
       <path d="M 0 0 
L 0 3.5 
" id="m95927df6ad" style="stroke:#000000;stroke-width:0.8;"/>
      </defs>
      <g>
       <use style="stroke:#000000;stroke-width:0.8;" x="71.290583" xlink:href="#m95927df6ad" y="17.28"/>
      </g>
     </g>
     <g id="text_1">
      <!-- $0.0$ -->
      <defs>
       <path d="M 42 31.84375 
C 42 37.96875 41.90625 48.421875 37.703125 56.453125 
C 34 63.484375 28.09375 66 22.90625 66 
C 18.09375 66 12 63.78125 8.203125 56.5625 
C 4.203125 49.015625 3.796875 39.671875 3.796875 31.84375 
C 3.796875 26.109375 3.90625 17.375 7 9.734375 
C 11.296875 -0.609375 19 -2 22.90625 -2 
C 27.5 -2 34.5 -0.109375 38.59375 9.4375 
C 41.59375 16.375 42 24.5 42 31.84375 
z
M 22.90625 -0.40625 
C 16.5 -0.40625 12.703125 5.125 11.296875 12.75 
C 10.203125 18.6875 10.203125 27.328125 10.203125 32.953125 
C 10.203125 40.6875 10.203125 47.109375 11.5 53.234375 
C 13.40625 61.78125 19 64.390625 22.90625 64.390625 
C 27 64.390625 32.296875 61.671875 34.203125 53.4375 
C 35.5 47.71875 35.59375 40.984375 35.59375 32.953125 
C 35.59375 26.421875 35.59375 18.375 34.40625 12.453125 
C 32.296875 1.5 26.40625 -0.40625 22.90625 -0.40625 
z
" id="CMR17-48"/>
       <path d="M 18.40625 4.796875 
C 18.40625 7.6875 16 9.6875 13.59375 9.6875 
C 10.703125 9.6875 8.703125 7.296875 8.703125 4.890625 
C 8.703125 2 11.09375 0 13.5 0 
C 16.40625 0 18.40625 2.390625 18.40625 4.796875 
z
" id="CMMI12-58"/>
      </defs>
      <g transform="translate(61.318822 247.6803)scale(0.16 -0.16)">
       <use transform="scale(0.996264)" xlink:href="#CMR17-48"/>
       <use transform="translate(45.690477 0)scale(0.996264)" xlink:href="#CMMI12-58"/>
       <use transform="translate(72.787654 0)scale(0.996264)" xlink:href="#CMR17-48"/>
      </g>
     </g>
    </g>
    <g id="xtick_2">
     <g id="line2d_5">
      <path clip-path="url(#p9c197335f8)" d="M 137.982114 233.110711 
L 137.982114 17.28 
" style="fill:none;stroke:#b0b0b0;stroke-linecap:square;stroke-width:0.8;"/>
     </g>
     <g id="line2d_6">
      <g>
       <use style="stroke:#000000;stroke-width:0.8;" x="137.982114" xlink:href="#m71e46f937e" y="233.110711"/>
      </g>
     </g>
     <g id="line2d_7">
      <g>
       <use style="stroke:#000000;stroke-width:0.8;" x="137.982114" xlink:href="#m95927df6ad" y="17.28"/>
      </g>
     </g>
     <g id="text_2">
      <!-- $0.2$ -->
      <defs>
       <path d="M 41.703125 15.46875 
L 39.90625 15.46875 
C 38.90625 8.390625 38.09375 7.1875 37.703125 6.59375 
C 37.203125 5.796875 30 5.796875 28.59375 5.796875 
L 9.40625 5.796875 
C 13 9.6875 20 16.765625 28.5 24.9375 
C 34.59375 30.71875 41.703125 37.5 41.703125 47.390625 
C 41.703125 59.1875 32.296875 66 21.796875 66 
C 10.796875 66 4.09375 56.296875 4.09375 47.296875 
C 4.09375 43.390625 7 42.890625 8.203125 42.890625 
C 9.203125 42.890625 12.203125 43.484375 12.203125 46.984375 
C 12.203125 50.09375 9.59375 51 8.203125 51 
C 7.59375 51 7 50.890625 6.59375 50.6875 
C 8.5 59.1875 14.296875 63.390625 20.40625 63.390625 
C 29.09375 63.390625 34.796875 56.5 34.796875 47.390625 
C 34.796875 38.703125 29.703125 31.21875 24 24.734375 
L 4.09375 2.296875 
L 4.09375 0 
L 39.296875 0 
z
" id="CMR17-50"/>
      </defs>
      <g transform="translate(128.010353 247.6803)scale(0.16 -0.16)">
       <use transform="scale(0.996264)" xlink:href="#CMR17-48"/>
       <use transform="translate(45.690477 0)scale(0.996264)" xlink:href="#CMMI12-58"/>
       <use transform="translate(72.787654 0)scale(0.996264)" xlink:href="#CMR17-50"/>
      </g>
     </g>
    </g>
    <g id="xtick_3">
     <g id="line2d_8">
      <path clip-path="url(#p9c197335f8)" d="M 204.673645 233.110711 
L 204.673645 17.28 
" style="fill:none;stroke:#b0b0b0;stroke-linecap:square;stroke-width:0.8;"/>
     </g>
     <g id="line2d_9">
      <g>
       <use style="stroke:#000000;stroke-width:0.8;" x="204.673645" xlink:href="#m71e46f937e" y="233.110711"/>
      </g>
     </g>
     <g id="line2d_10">
      <g>
       <use style="stroke:#000000;stroke-width:0.8;" x="204.673645" xlink:href="#m95927df6ad" y="17.28"/>
      </g>
     </g>
     <g id="text_3">
      <!-- $0.4$ -->
      <defs>
       <path d="M 33.59375 64.796875 
C 33.59375 66.890625 33.5 67 31.703125 67 
L 2 19.59375 
L 2 17 
L 27.796875 17 
L 27.796875 7.1875 
C 27.796875 3.59375 27.59375 2.59375 20.59375 2.59375 
L 18.703125 2.59375 
L 18.703125 0 
C 21.90625 0.1875 27.296875 0.1875 30.703125 0.1875 
C 34.09375 0.1875 39.5 0.1875 42.703125 0 
L 42.703125 2.59375 
L 40.796875 2.59375 
C 33.796875 2.59375 33.59375 3.59375 33.59375 7.1875 
L 33.59375 17 
L 43.796875 17 
L 43.796875 19.59375 
L 33.59375 19.59375 
z
M 28.09375 58.171875 
L 28.09375 19.59375 
L 4 19.59375 
z
" id="CMR17-52"/>
      </defs>
      <g transform="translate(194.701884 247.6803)scale(0.16 -0.16)">
       <use transform="scale(0.996264)" xlink:href="#CMR17-48"/>
       <use transform="translate(45.690477 0)scale(0.996264)" xlink:href="#CMMI12-58"/>
       <use transform="translate(72.787654 0)scale(0.996264)" xlink:href="#CMR17-52"/>
      </g>
     </g>
    </g>
    <g id="xtick_4">
     <g id="line2d_11">
      <path clip-path="url(#p9c197335f8)" d="M 271.365176 233.110711 
L 271.365176 17.28 
" style="fill:none;stroke:#b0b0b0;stroke-linecap:square;stroke-width:0.8;"/>
     </g>
     <g id="line2d_12">
      <g>
       <use style="stroke:#000000;stroke-width:0.8;" x="271.365176" xlink:href="#m71e46f937e" y="233.110711"/>
      </g>
     </g>
     <g id="line2d_13">
      <g>
       <use style="stroke:#000000;stroke-width:0.8;" x="271.365176" xlink:href="#m95927df6ad" y="17.28"/>
      </g>
     </g>
     <g id="text_4">
      <!-- $0.6$ -->
      <defs>
       <path d="M 10.59375 34.34375 
C 10.59375 58 21.796875 63.6875 28.296875 63.6875 
C 30.40625 63.6875 35.5 63.265625 37.5 59.09375 
C 35.90625 59.09375 32.90625 59.09375 32.90625 55.59375 
C 32.90625 52.890625 35.09375 52 36.5 52 
C 37.40625 52 40.09375 52.390625 40.09375 55.796875 
C 40.09375 62.296875 35.09375 66 28.203125 66 
C 16.296875 66 3.796875 53.296875 3.796875 31.421875 
C 3.796875 4.015625 15.09375 -2 23.09375 -2 
C 32.796875 -2 42 6.734375 42 20.234375 
C 42 32.828125 33.90625 42 23.703125 42 
C 17.59375 42 13.09375 37.96875 10.59375 30.921875 
z
M 23.09375 0.390625 
C 10.796875 0.390625 10.796875 18.9375 10.796875 22.65625 
C 10.796875 29.90625 14.203125 40.390625 23.5 40.390625 
C 25.203125 40.390625 30.09375 40.390625 33.40625 33.4375 
C 35.203125 29.515625 35.203125 25.375 35.203125 20.34375 
C 35.203125 14.90625 35.203125 10.875 33.09375 6.84375 
C 30.90625 2.703125 27.703125 0.390625 23.09375 0.390625 
z
" id="CMR17-54"/>
      </defs>
      <g transform="translate(261.393415 247.6803)scale(0.16 -0.16)">
       <use transform="scale(0.996264)" xlink:href="#CMR17-48"/>
       <use transform="translate(45.690477 0)scale(0.996264)" xlink:href="#CMMI12-58"/>
       <use transform="translate(72.787654 0)scale(0.996264)" xlink:href="#CMR17-54"/>
      </g>
     </g>
    </g>
    <g id="xtick_5">
     <g id="line2d_14">
      <path clip-path="url(#p9c197335f8)" d="M 338.056708 233.110711 
L 338.056708 17.28 
" style="fill:none;stroke:#b0b0b0;stroke-linecap:square;stroke-width:0.8;"/>
     </g>
     <g id="line2d_15">
      <g>
       <use style="stroke:#000000;stroke-width:0.8;" x="338.056708" xlink:href="#m71e46f937e" y="233.110711"/>
      </g>
     </g>
     <g id="line2d_16">
      <g>
       <use style="stroke:#000000;stroke-width:0.8;" x="338.056708" xlink:href="#m95927df6ad" y="17.28"/>
      </g>
     </g>
     <g id="text_5">
      <!-- $0.8$ -->
      <defs>
       <path d="M 27.203125 35.765625 
C 33.5 38.96875 39.90625 43.796875 39.90625 51.53125 
C 39.90625 60.6875 31.09375 66 23 66 
C 13.90625 66 5.90625 59.375 5.90625 50.234375 
C 5.90625 47.71875 6.5 43.390625 10.40625 39.578125 
C 11.40625 38.578125 15.59375 35.5625 18.296875 33.65625 
C 13.796875 31.34375 3.296875 25.8125 3.296875 14.765625 
C 3.296875 4.40625 13.09375 -2 22.796875 -2 
C 33.5 -2 42.5 5.71875 42.5 15.96875 
C 42.5 25.109375 36.40625 29.328125 32.40625 32.046875 
z
M 14.09375 44.609375 
C 13.296875 45.109375 9.296875 48.21875 9.296875 52.9375 
C 9.296875 59.078125 15.59375 63.6875 22.796875 63.6875 
C 30.703125 63.6875 36.5 58.0625 36.5 51.53125 
C 36.5 42.1875 26.09375 36.859375 25.59375 36.859375 
C 25.5 36.859375 25.40625 36.859375 24.59375 37.46875 
z
M 32.5 24 
C 34 22.90625 38.796875 19.578125 38.796875 13.453125 
C 38.796875 6.015625 31.40625 0.390625 23 0.390625 
C 13.90625 0.390625 7 6.921875 7 14.859375 
C 7 22.796875 13.09375 29.4375 20 32.546875 
z
" id="CMR17-56"/>
      </defs>
      <g transform="translate(328.084946 247.6803)scale(0.16 -0.16)">
       <use transform="scale(0.996264)" xlink:href="#CMR17-48"/>
       <use transform="translate(45.690477 0)scale(0.996264)" xlink:href="#CMMI12-58"/>
       <use transform="translate(72.787654 0)scale(0.996264)" xlink:href="#CMR17-56"/>
      </g>
     </g>
    </g>
    <g id="xtick_6">
     <g id="line2d_17">
      <path clip-path="url(#p9c197335f8)" d="M 404.748239 233.110711 
L 404.748239 17.28 
" style="fill:none;stroke:#b0b0b0;stroke-linecap:square;stroke-width:0.8;"/>
     </g>
     <g id="line2d_18">
      <g>
       <use style="stroke:#000000;stroke-width:0.8;" x="404.748239" xlink:href="#m71e46f937e" y="233.110711"/>
      </g>
     </g>
     <g id="line2d_19">
      <g>
       <use style="stroke:#000000;stroke-width:0.8;" x="404.748239" xlink:href="#m95927df6ad" y="17.28"/>
      </g>
     </g>
     <g id="text_6">
      <!-- $1.0$ -->
      <defs>
       <path d="M 26.59375 63.796875 
C 26.59375 65.890625 26.5 66 25.09375 66 
C 21.203125 61.359375 15.296875 59.890625 9.703125 59.6875 
C 9.40625 59.6875 8.90625 59.6875 8.796875 59.5 
C 8.703125 59.296875 8.703125 59.09375 8.703125 57 
C 11.796875 57 17 57.59375 21 59.984375 
L 21 7.296875 
C 21 3.796875 20.796875 2.59375 12.203125 2.59375 
L 9.203125 2.59375 
L 9.203125 0 
C 14 0.09375 19 0.1875 23.796875 0.1875 
C 28.59375 0.1875 33.59375 0.09375 38.40625 0 
L 38.40625 2.59375 
L 35.40625 2.59375 
C 26.796875 2.59375 26.59375 3.6875 26.59375 7.296875 
z
" id="CMR17-49"/>
      </defs>
      <g transform="translate(394.776478 247.6803)scale(0.16 -0.16)">
       <use transform="scale(0.996264)" xlink:href="#CMR17-49"/>
       <use transform="translate(45.690477 0)scale(0.996264)" xlink:href="#CMMI12-58"/>
       <use transform="translate(72.787654 0)scale(0.996264)" xlink:href="#CMR17-48"/>
      </g>
     </g>
    </g>
    <g id="xtick_7">
     <g id="line2d_20">
      <path clip-path="url(#p9c197335f8)" d="M 104.636348 233.110711 
L 104.636348 17.28 
" style="fill:none;stroke:#b0b0b0;stroke-linecap:square;stroke-width:0.8;"/>
     </g>
     <g id="line2d_21">
      <defs>
       <path d="M 0 0 
L 0 -2 
" id="m6d40785cf7" style="stroke:#000000;stroke-width:0.6;"/>
      </defs>
      <g>
       <use style="stroke:#000000;stroke-width:0.6;" x="104.636348" xlink:href="#m6d40785cf7" y="233.110711"/>
      </g>
     </g>
     <g id="line2d_22">
      <defs>
       <path d="M 0 0 
L 0 2 
" id="m954fccf3e6" style="stroke:#000000;stroke-width:0.6;"/>
      </defs>
      <g>
       <use style="stroke:#000000;stroke-width:0.6;" x="104.636348" xlink:href="#m954fccf3e6" y="17.28"/>
      </g>
     </g>
    </g>
    <g id="xtick_8">
     <g id="line2d_23">
      <path clip-path="url(#p9c197335f8)" d="M 171.32788 233.110711 
L 171.32788 17.28 
" style="fill:none;stroke:#b0b0b0;stroke-linecap:square;stroke-width:0.8;"/>
     </g>
     <g id="line2d_24">
      <g>
       <use style="stroke:#000000;stroke-width:0.6;" x="171.32788" xlink:href="#m6d40785cf7" y="233.110711"/>
      </g>
     </g>
     <g id="line2d_25">
      <g>
       <use style="stroke:#000000;stroke-width:0.6;" x="171.32788" xlink:href="#m954fccf3e6" y="17.28"/>
      </g>
     </g>
    </g>
    <g id="xtick_9">
     <g id="line2d_26">
      <path clip-path="url(#p9c197335f8)" d="M 238.019411 233.110711 
L 238.019411 17.28 
" style="fill:none;stroke:#b0b0b0;stroke-linecap:square;stroke-width:0.8;"/>
     </g>
     <g id="line2d_27">
      <g>
       <use style="stroke:#000000;stroke-width:0.6;" x="238.019411" xlink:href="#m6d40785cf7" y="233.110711"/>
      </g>
     </g>
     <g id="line2d_28">
      <g>
       <use style="stroke:#000000;stroke-width:0.6;" x="238.019411" xlink:href="#m954fccf3e6" y="17.28"/>
      </g>
     </g>
    </g>
    <g id="xtick_10">
     <g id="line2d_29">
      <path clip-path="url(#p9c197335f8)" d="M 304.710942 233.110711 
L 304.710942 17.28 
" style="fill:none;stroke:#b0b0b0;stroke-linecap:square;stroke-width:0.8;"/>
     </g>
     <g id="line2d_30">
      <g>
       <use style="stroke:#000000;stroke-width:0.6;" x="304.710942" xlink:href="#m6d40785cf7" y="233.110711"/>
      </g>
     </g>
     <g id="line2d_31">
      <g>
       <use style="stroke:#000000;stroke-width:0.6;" x="304.710942" xlink:href="#m954fccf3e6" y="17.28"/>
      </g>
     </g>
    </g>
    <g id="xtick_11">
     <g id="line2d_32">
      <path clip-path="url(#p9c197335f8)" d="M 371.402473 233.110711 
L 371.402473 17.28 
" style="fill:none;stroke:#b0b0b0;stroke-linecap:square;stroke-width:0.8;"/>
     </g>
     <g id="line2d_33">
      <g>
       <use style="stroke:#000000;stroke-width:0.6;" x="371.402473" xlink:href="#m6d40785cf7" y="233.110711"/>
      </g>
     </g>
     <g id="line2d_34">
      <g>
       <use style="stroke:#000000;stroke-width:0.6;" x="371.402473" xlink:href="#m954fccf3e6" y="17.28"/>
      </g>
     </g>
    </g>
    <g id="text_7">
     <!-- $x/L$ -->
     <defs>
      <path d="M 47.40625 41 
C 44.203125 40.390625 43 37.984375 43 36.09375 
C 43 33.6875 44.90625 32.890625 46.296875 32.890625 
C 49.296875 32.890625 51.40625 35.484375 51.40625 38.1875 
C 51.40625 42.09375 46.59375 44 42.40625 44 
C 36.296875 44 32.90625 38.296875 32 36.390625 
C 29.703125 43.59375 23.5 44 21.703125 44 
C 11.5 44 6.09375 31.140625 6.09375 28.890625 
C 6.09375 28.484375 6.5 27.96875 7.203125 27.96875 
C 8 27.96875 8.203125 28.578125 8.40625 28.984375 
C 11.796875 40.1875 18.5 41.984375 21.40625 41.984375 
C 25.90625 41.984375 26.796875 38.09375 26.796875 35.6875 
C 26.796875 33.484375 26.203125 31.140625 25 26.21875 
L 21.59375 12.15625 
C 20.09375 6.09375 17.203125 1 11.90625 1 
C 11.40625 1 8.90625 1 6.796875 1.96875 
C 10.40625 2.59375 11.203125 5.59375 11.203125 6.796875 
C 11.203125 8.796875 9.703125 10 7.796875 10 
C 5.40625 10 2.796875 7.890625 2.796875 4.6875 
C 2.796875 0.890625 7.5 -1 11.796875 -1 
C 16.59375 -1 20 2.390625 22.09375 6.484375 
C 23.703125 1 28.703125 -1 32.40625 -1 
C 42.59375 -1 48 11.734375 48 14 
C 48 14.515625 47.59375 14.921875 47 14.921875 
C 46.09375 14.921875 46 14.40625 45.703125 13.59375 
C 43 4.6875 37.203125 1 32.703125 1 
C 29.203125 1 27.296875 3.1875 27.296875 7.296875 
C 27.296875 9.484375 27.703125 11.125 29.296875 17.90625 
L 32.796875 31.859375 
C 34.296875 37.890625 37.703125 41.984375 42.296875 41.984375 
C 42.5 41.984375 45.296875 41.984375 47.40625 41 
z
" id="CMMI12-120"/>
      <path d="M 42.90625 71.296875 
C 42.90625 71.390625 43.5 72.890625 43.5 73.09375 
C 43.5 74.296875 42.5 75 41.703125 75 
C 41.203125 75 40.296875 75 39.5 72.796875 
L 6 -21.3125 
C 6 -21.40625 5.40625 -22.90625 5.40625 -23.109375 
C 5.40625 -24.3125 6.40625 -25 7.203125 -25 
C 7.796875 -25 8.703125 -24.90625 9.40625 -22.8125 
z
" id="CMMI12-61"/>
      <path d="M 36.703125 60.3125 
C 37.59375 64.09375 37.90625 65.09375 46.703125 65.09375 
C 49.40625 65.09375 50.09375 65.09375 50.09375 66.984375 
C 50.09375 68 49 68 48.59375 68 
C 46.59375 68 44.296875 67.796875 42.296875 67.796875 
L 28.90625 67.796875 
C 27 67.796875 24.796875 68 22.90625 68 
C 22.09375 68 21 68 21 66.09375 
C 21 65.09375 21.90625 65.09375 23.40625 65.09375 
C 29.5 65.09375 29.5 64.296875 29.5 63.203125 
C 29.5 63 29.5 62.40625 29.09375 60.90625 
L 15.59375 7.375 
C 14.703125 3.890625 14.5 2.890625 7.5 2.890625 
C 5.59375 2.890625 4.59375 2.890625 4.59375 1.09375 
C 4.59375 0 5.203125 0 7.203125 0 
L 52 0 
C 54.203125 0 54.296875 0.09375 55 1.890625 
L 62.703125 23.09375 
C 62.90625 23.59375 63.09375 24.1875 63.09375 24.484375 
C 63.09375 25.078125 62.59375 25.484375 62.09375 25.484375 
C 62 25.484375 61.5 25.484375 61.296875 25.078125 
C 61.09375 24.984375 61.09375 24.78125 60.296875 22.890625 
C 57.09375 14.140625 52.59375 2.890625 35.703125 2.890625 
L 26.09375 2.890625 
C 24.703125 2.890625 24.5 2.890625 23.90625 2.984375 
C 22.796875 3.09375 22.703125 3.296875 22.703125 4.09375 
C 22.703125 4.78125 22.90625 5.375 23.09375 6.28125 
z
" id="CMMI12-76"/>
     </defs>
     <g transform="translate(224.373022 266.734944)scale(0.16 -0.16)">
      <use transform="scale(0.996264)" xlink:href="#CMMI12-120"/>
      <use transform="translate(55.43406 0)scale(0.996264)" xlink:href="#CMMI12-61"/>
      <use transform="translate(104.208978 0)scale(0.996264)" xlink:href="#CMMI12-76"/>
     </g>
    </g>
   </g>
   <g id="matplotlib.axis_2">
    <g id="ytick_1">
     <g id="line2d_35">
      <path clip-path="url(#p9c197335f8)" d="M 71.290583 223.300224 
L 404.748239 223.300224 
" style="fill:none;stroke:#b0b0b0;stroke-linecap:square;stroke-width:0.8;"/>
     </g>
     <g id="line2d_36">
      <defs>
       <path d="M 0 0 
L 3.5 0 
" id="mab87451544" style="stroke:#000000;stroke-width:0.8;"/>
      </defs>
      <g>
       <use style="stroke:#000000;stroke-width:0.8;" x="71.290583" xlink:href="#mab87451544" y="223.300224"/>
      </g>
     </g>
     <g id="line2d_37">
      <defs>
       <path d="M 0 0 
L -3.5 0 
" id="mb9782eb505" style="stroke:#000000;stroke-width:0.8;"/>
      </defs>
      <g>
       <use style="stroke:#000000;stroke-width:0.8;" x="404.748239" xlink:href="#mb9782eb505" y="223.300224"/>
      </g>
     </g>
     <g id="text_8">
      <!-- $-1.0$ -->
      <defs>
       <path d="M 65.90625 23 
C 67.59375 23 69.40625 23 69.40625 25 
C 69.40625 27 67.59375 27 65.90625 27 
L 11.796875 27 
C 10.09375 27 8.296875 27 8.296875 25 
C 8.296875 23 10.09375 23 11.796875 23 
z
" id="CMSY10-0"/>
      </defs>
      <g transform="translate(35.449064 228.835019)scale(0.16 -0.16)">
       <use transform="scale(0.996264)" xlink:href="#CMSY10-0"/>
       <use transform="translate(77.487468 0)scale(0.996264)" xlink:href="#CMR17-49"/>
       <use transform="translate(123.177945 0)scale(0.996264)" xlink:href="#CMMI12-58"/>
       <use transform="translate(150.275122 0)scale(0.996264)" xlink:href="#CMR17-48"/>
      </g>
     </g>
    </g>
    <g id="ytick_2">
     <g id="line2d_38">
      <path clip-path="url(#p9c197335f8)" d="M 71.290583 174.24779 
L 404.748239 174.24779 
" style="fill:none;stroke:#b0b0b0;stroke-linecap:square;stroke-width:0.8;"/>
     </g>
     <g id="line2d_39">
      <g>
       <use style="stroke:#000000;stroke-width:0.8;" x="71.290583" xlink:href="#mab87451544" y="174.24779"/>
      </g>
     </g>
     <g id="line2d_40">
      <g>
       <use style="stroke:#000000;stroke-width:0.8;" x="404.748239" xlink:href="#mb9782eb505" y="174.24779"/>
      </g>
     </g>
     <g id="text_9">
      <!-- $-0.5$ -->
      <defs>
       <path d="M 11.40625 58.59375 
C 12.40625 58.1875 16.5 56.890625 20.703125 56.890625 
C 30 56.890625 35.09375 61.890625 38 64.6875 
C 38 65.484375 38 66 37.40625 66 
C 37.296875 66 37.09375 66 36.296875 65.59375 
C 32.796875 64.09375 28.703125 63 23.703125 63 
C 20.703125 63 16.203125 63.359375 11.296875 65.484375 
C 10.203125 66 10 66 9.90625 66 
C 9.40625 66 9.296875 65.890625 9.296875 63.90625 
L 9.296875 34.859375 
C 9.296875 33.015625 9.296875 32.5 10.296875 32.5 
C 10.796875 32.5 11 32.703125 11.5 33.421875 
C 14.703125 38.046875 19.09375 40 24.09375 40 
C 27.59375 40 35.09375 37.734375 35.09375 20.203125 
C 35.09375 16.984375 35.09375 11.1875 32.09375 6.59375 
C 29.59375 2.484375 25.703125 0.390625 21.40625 0.390625 
C 14.796875 0.390625 8.09375 4.984375 6.296875 12.6875 
C 6.703125 12.59375 7.5 12.390625 7.90625 12.390625 
C 9.203125 12.390625 11.703125 13.09375 11.703125 16.1875 
C 11.703125 18.890625 9.796875 20 7.90625 20 
C 5.59375 20 4.09375 18.59375 4.09375 15.796875 
C 4.09375 7.09375 11 -2 21.59375 -2 
C 31.90625 -2 41.703125 6.890625 41.703125 19.796875 
C 41.703125 32.09375 33.90625 41.59375 24.203125 41.59375 
C 19.09375 41.59375 14.796875 39.6875 11.40625 36 
z
" id="CMR17-53"/>
      </defs>
      <g transform="translate(35.449064 179.782584)scale(0.16 -0.16)">
       <use transform="scale(0.996264)" xlink:href="#CMSY10-0"/>
       <use transform="translate(77.487468 0)scale(0.996264)" xlink:href="#CMR17-48"/>
       <use transform="translate(123.177945 0)scale(0.996264)" xlink:href="#CMMI12-58"/>
       <use transform="translate(150.275122 0)scale(0.996264)" xlink:href="#CMR17-53"/>
      </g>
     </g>
    </g>
    <g id="ytick_3">
     <g id="line2d_41">
      <path clip-path="url(#p9c197335f8)" d="M 71.290583 125.195356 
L 404.748239 125.195356 
" style="fill:none;stroke:#b0b0b0;stroke-linecap:square;stroke-width:0.8;"/>
     </g>
     <g id="line2d_42">
      <g>
       <use style="stroke:#000000;stroke-width:0.8;" x="71.290583" xlink:href="#mab87451544" y="125.195356"/>
      </g>
     </g>
     <g id="line2d_43">
      <g>
       <use style="stroke:#000000;stroke-width:0.8;" x="404.748239" xlink:href="#mb9782eb505" y="125.195356"/>
      </g>
     </g>
     <g id="text_10">
      <!-- $0.0$ -->
      <g transform="translate(47.847061 130.73015)scale(0.16 -0.16)">
       <use transform="scale(0.996264)" xlink:href="#CMR17-48"/>
       <use transform="translate(45.690477 0)scale(0.996264)" xlink:href="#CMMI12-58"/>
       <use transform="translate(72.787654 0)scale(0.996264)" xlink:href="#CMR17-48"/>
      </g>
     </g>
    </g>
    <g id="ytick_4">
     <g id="line2d_44">
      <path clip-path="url(#p9c197335f8)" d="M 71.290583 76.142921 
L 404.748239 76.142921 
" style="fill:none;stroke:#b0b0b0;stroke-linecap:square;stroke-width:0.8;"/>
     </g>
     <g id="line2d_45">
      <g>
       <use style="stroke:#000000;stroke-width:0.8;" x="71.290583" xlink:href="#mab87451544" y="76.142921"/>
      </g>
     </g>
     <g id="line2d_46">
      <g>
       <use style="stroke:#000000;stroke-width:0.8;" x="404.748239" xlink:href="#mb9782eb505" y="76.142921"/>
      </g>
     </g>
     <g id="text_11">
      <!-- $0.5$ -->
      <g transform="translate(47.847061 81.677715)scale(0.16 -0.16)">
       <use transform="scale(0.996264)" xlink:href="#CMR17-48"/>
       <use transform="translate(45.690477 0)scale(0.996264)" xlink:href="#CMMI12-58"/>
       <use transform="translate(72.787654 0)scale(0.996264)" xlink:href="#CMR17-53"/>
      </g>
     </g>
    </g>
    <g id="ytick_5">
     <g id="line2d_47">
      <path clip-path="url(#p9c197335f8)" d="M 71.290583 27.090487 
L 404.748239 27.090487 
" style="fill:none;stroke:#b0b0b0;stroke-linecap:square;stroke-width:0.8;"/>
     </g>
     <g id="line2d_48">
      <g>
       <use style="stroke:#000000;stroke-width:0.8;" x="71.290583" xlink:href="#mab87451544" y="27.090487"/>
      </g>
     </g>
     <g id="line2d_49">
      <g>
       <use style="stroke:#000000;stroke-width:0.8;" x="404.748239" xlink:href="#mb9782eb505" y="27.090487"/>
      </g>
     </g>
     <g id="text_12">
      <!-- $1.0$ -->
      <g transform="translate(47.847061 32.625281)scale(0.16 -0.16)">
       <use transform="scale(0.996264)" xlink:href="#CMR17-49"/>
       <use transform="translate(45.690477 0)scale(0.996264)" xlink:href="#CMMI12-58"/>
       <use transform="translate(72.787654 0)scale(0.996264)" xlink:href="#CMR17-48"/>
      </g>
     </g>
    </g>
    <g id="ytick_6">
     <g id="line2d_50">
      <path clip-path="url(#p9c197335f8)" d="M 71.290583 198.774007 
L 404.748239 198.774007 
" style="fill:none;stroke:#b0b0b0;stroke-linecap:square;stroke-width:0.8;"/>
     </g>
     <g id="line2d_51">
      <defs>
       <path d="M 0 0 
L 2 0 
" id="m8c23069437" style="stroke:#000000;stroke-width:0.6;"/>
      </defs>
      <g>
       <use style="stroke:#000000;stroke-width:0.6;" x="71.290583" xlink:href="#m8c23069437" y="198.774007"/>
      </g>
     </g>
     <g id="line2d_52">
      <defs>
       <path d="M 0 0 
L -2 0 
" id="m9ce473ffcd" style="stroke:#000000;stroke-width:0.6;"/>
      </defs>
      <g>
       <use style="stroke:#000000;stroke-width:0.6;" x="404.748239" xlink:href="#m9ce473ffcd" y="198.774007"/>
      </g>
     </g>
    </g>
    <g id="ytick_7">
     <g id="line2d_53">
      <path clip-path="url(#p9c197335f8)" d="M 71.290583 149.721573 
L 404.748239 149.721573 
" style="fill:none;stroke:#b0b0b0;stroke-linecap:square;stroke-width:0.8;"/>
     </g>
     <g id="line2d_54">
      <g>
       <use style="stroke:#000000;stroke-width:0.6;" x="71.290583" xlink:href="#m8c23069437" y="149.721573"/>
      </g>
     </g>
     <g id="line2d_55">
      <g>
       <use style="stroke:#000000;stroke-width:0.6;" x="404.748239" xlink:href="#m9ce473ffcd" y="149.721573"/>
      </g>
     </g>
    </g>
    <g id="ytick_8">
     <g id="line2d_56">
      <path clip-path="url(#p9c197335f8)" d="M 71.290583 100.669138 
L 404.748239 100.669138 
" style="fill:none;stroke:#b0b0b0;stroke-linecap:square;stroke-width:0.8;"/>
     </g>
     <g id="line2d_57">
      <g>
       <use style="stroke:#000000;stroke-width:0.6;" x="71.290583" xlink:href="#m8c23069437" y="100.669138"/>
      </g>
     </g>
     <g id="line2d_58">
      <g>
       <use style="stroke:#000000;stroke-width:0.6;" x="404.748239" xlink:href="#m9ce473ffcd" y="100.669138"/>
      </g>
     </g>
    </g>
    <g id="ytick_9">
     <g id="line2d_59">
      <path clip-path="url(#p9c197335f8)" d="M 71.290583 51.616704 
L 404.748239 51.616704 
" style="fill:none;stroke:#b0b0b0;stroke-linecap:square;stroke-width:0.8;"/>
     </g>
     <g id="line2d_60">
      <g>
       <use style="stroke:#000000;stroke-width:0.6;" x="71.290583" xlink:href="#m8c23069437" y="51.616704"/>
      </g>
     </g>
     <g id="line2d_61">
      <g>
       <use style="stroke:#000000;stroke-width:0.6;" x="404.748239" xlink:href="#m9ce473ffcd" y="51.616704"/>
      </g>
     </g>
    </g>
    <g id="text_13">
     <!-- $\tilde{y}$ -->
     <defs>
      <path d="M 37.5 65.59375 
C 34.09375 62.296875 32.203125 60.390625 29.09375 60.390625 
C 26.90625 60.390625 25.40625 61.5 23.296875 63 
C 21.296875 64.390625 19.703125 65.59375 17.5 65.59375 
C 13.90625 65.59375 11.40625 62.6875 7.203125 58.09375 
L 8.296875 57 
C 11.703125 60.296875 13.59375 62.1875 16.703125 62.1875 
C 18.90625 62.1875 20.40625 61.09375 22.5 59.59375 
C 24.5 58.1875 26.09375 57 28.296875 57 
C 31.90625 57 34.40625 59.890625 38.59375 64.5 
z
" id="CMR17-126"/>
      <path d="M 26.296875 -10.515625 
C 23.59375 -14.390625 19.703125 -18 14.796875 -18 
C 13.59375 -18 8.796875 -17.796875 7.296875 -12.90625 
C 7.59375 -13.015625 8.09375 -13.015625 8.296875 -13.015625 
C 11.296875 -13.015625 13.296875 -10.40625 13.296875 -8.109375 
C 13.296875 -5.8125 11.40625 -5 9.90625 -5 
C 8.296875 -5 4.796875 -6.203125 4.796875 -11.109375 
C 4.796875 -16.40625 9.09375 -20 14.796875 -20 
C 24.796875 -20 34.90625 -10.515625 37.703125 -0.109375 
L 47.5 38.796875 
C 47.59375 39.296875 47.796875 39.890625 47.796875 40.484375 
C 47.796875 41.984375 46.59375 43 45.09375 43 
C 44.203125 43 42.09375 42.59375 41.296875 39.59375 
L 33.90625 10.265625 
C 33.40625 8.46875 33.40625 8.28125 32.59375 7.171875 
C 30.59375 4.390625 27.296875 1 22.5 1 
C 16.90625 1 16.40625 6.484375 16.40625 9.171875 
C 16.40625 14.859375 19.09375 22.546875 21.796875 29.71875 
C 22.90625 32.609375 23.5 34.015625 23.5 36.015625 
C 23.5 40.203125 20.5 44 15.59375 44 
C 6.40625 44 2.703125 29.53125 2.703125 28.71875 
C 2.703125 28.328125 3.09375 27.828125 3.796875 27.828125 
C 4.703125 27.828125 4.796875 28.234375 5.203125 29.625 
C 7.59375 38 11.40625 41.984375 15.296875 41.984375 
C 16.203125 41.984375 17.90625 41.984375 17.90625 38.703125 
C 17.90625 36.109375 16.796875 33.21875 15.296875 29.421875 
C 10.40625 16.359375 10.40625 13.0625 10.40625 10.671875 
C 10.40625 1.1875 17.203125 -1 22.203125 -1 
C 25.09375 -1 28.703125 -0.109375 32.203125 3.59375 
L 32.296875 3.484375 
C 30.796875 -2.203125 29.796875 -5.609375 26.296875 -10.515625 
z
" id="CMMI12-121"/>
     </defs>
     <g transform="translate(28.349588 129.625459)rotate(-90)scale(0.16 -0.16)">
      <use transform="translate(8.143595 0.006461)scale(0.996264)" xlink:href="#CMR17-126"/>
      <use transform="scale(0.996264)" xlink:href="#CMMI12-121"/>
     </g>
    </g>
   </g>
   <g id="line2d_62">
    <defs>
     <path d="M 0 2 
C 0.530406 2 1.03916 1.789267 1.414214 1.414214 
C 1.789267 1.03916 2 0.530406 2 0 
C 2 -0.530406 1.789267 -1.03916 1.414214 -1.414214 
C 1.03916 -1.789267 0.530406 -2 0 -2 
C -0.530406 -2 -1.03916 -1.789267 -1.414214 -1.414214 
C -1.789267 -1.03916 -2 -0.530406 -2 0 
C -2 0.530406 -1.789267 1.03916 -1.414214 1.414214 
C -1.03916 1.789267 -0.530406 2 0 2 
z
" id="m0e4a0d8852" style="stroke:#e69900;"/>
    </defs>
    <g clip-path="url(#p9c197335f8)">
     <use style="fill:#e69900;stroke:#e69900;" x="71.290583" xlink:href="#m0e4a0d8852" y="125.195356"/>
     <use style="fill:#e69900;stroke:#e69900;" x="78.095841" xlink:href="#m0e4a0d8852" y="137.747177"/>
     <use style="fill:#e69900;stroke:#e69900;" x="84.901099" xlink:href="#m0e4a0d8852" y="150.092897"/>
     <use style="fill:#e69900;stroke:#e69900;" x="91.706358" xlink:href="#m0e4a0d8852" y="162.029801"/>
     <use style="fill:#e69900;stroke:#e69900;" x="98.511616" xlink:href="#m0e4a0d8852" y="173.361884"/>
     <use style="fill:#e69900;stroke:#e69900;" x="105.316874" xlink:href="#m0e4a0d8852" y="183.903074"/>
     <use style="fill:#e69900;stroke:#e69900;" x="112.122133" xlink:href="#m0e4a0d8852" y="193.480285"/>
     <use style="fill:#e69900;stroke:#e69900;" x="118.927391" xlink:href="#m0e4a0d8852" y="201.936259"/>
     <use style="fill:#e69900;stroke:#e69900;" x="125.732649" xlink:href="#m0e4a0d8852" y="209.13215"/>
     <use style="fill:#e69900;stroke:#e69900;" x="132.537907" xlink:href="#m0e4a0d8852" y="214.9498"/>
     <use style="fill:#e69900;stroke:#e69900;" x="139.343166" xlink:href="#m0e4a0d8852" y="219.293686"/>
     <use style="fill:#e69900;stroke:#e69900;" x="146.148424" xlink:href="#m0e4a0d8852" y="222.092479"/>
     <use style="fill:#e69900;stroke:#e69900;" x="152.953682" xlink:href="#m0e4a0d8852" y="223.300224"/>
     <use style="fill:#e69900;stroke:#e69900;" x="159.758941" xlink:href="#m0e4a0d8852" y="222.897091"/>
     <use style="fill:#e69900;stroke:#e69900;" x="166.564199" xlink:href="#m0e4a0d8852" y="220.889697"/>
     <use style="fill:#e69900;stroke:#e69900;" x="173.369457" xlink:href="#m0e4a0d8852" y="217.311005"/>
     <use style="fill:#e69900;stroke:#e69900;" x="180.174715" xlink:href="#m0e4a0d8852" y="212.219776"/>
     <use style="fill:#e69900;stroke:#e69900;" x="186.979974" xlink:href="#m0e4a0d8852" y="205.699609"/>
     <use style="fill:#e69900;stroke:#e69900;" x="193.785232" xlink:href="#m0e4a0d8852" y="197.857564"/>
     <use style="fill:#e69900;stroke:#e69900;" x="200.59049" xlink:href="#m0e4a0d8852" y="188.822408"/>
     <use style="fill:#e69900;stroke:#e69900;" x="207.395749" xlink:href="#m0e4a0d8852" y="178.742497"/>
     <use style="fill:#e69900;stroke:#e69900;" x="214.201007" xlink:href="#m0e4a0d8852" y="167.783344"/>
     <use style="fill:#e69900;stroke:#e69900;" x="221.006265" xlink:href="#m0e4a0d8852" y="156.124897"/>
     <use style="fill:#e69900;stroke:#e69900;" x="227.811523" xlink:href="#m0e4a0d8852" y="143.958588"/>
     <use style="fill:#e69900;stroke:#e69900;" x="234.616782" xlink:href="#m0e4a0d8852" y="131.484187"/>
     <use style="fill:#e69900;stroke:#e69900;" x="241.42204" xlink:href="#m0e4a0d8852" y="118.906524"/>
     <use style="fill:#e69900;stroke:#e69900;" x="248.227298" xlink:href="#m0e4a0d8852" y="106.432123"/>
     <use style="fill:#e69900;stroke:#e69900;" x="255.032557" xlink:href="#m0e4a0d8852" y="94.265814"/>
     <use style="fill:#e69900;stroke:#e69900;" x="261.837815" xlink:href="#m0e4a0d8852" y="82.607367"/>
     <use style="fill:#e69900;stroke:#e69900;" x="268.643073" xlink:href="#m0e4a0d8852" y="71.648214"/>
     <use style="fill:#e69900;stroke:#e69900;" x="275.448331" xlink:href="#m0e4a0d8852" y="61.568303"/>
     <use style="fill:#e69900;stroke:#e69900;" x="282.25359" xlink:href="#m0e4a0d8852" y="52.533147"/>
     <use style="fill:#e69900;stroke:#e69900;" x="289.058848" xlink:href="#m0e4a0d8852" y="44.691102"/>
     <use style="fill:#e69900;stroke:#e69900;" x="295.864106" xlink:href="#m0e4a0d8852" y="38.170935"/>
     <use style="fill:#e69900;stroke:#e69900;" x="302.669365" xlink:href="#m0e4a0d8852" y="33.079707"/>
     <use style="fill:#e69900;stroke:#e69900;" x="309.474623" xlink:href="#m0e4a0d8852" y="29.501015"/>
     <use style="fill:#e69900;stroke:#e69900;" x="316.279881" xlink:href="#m0e4a0d8852" y="27.493621"/>
     <use style="fill:#e69900;stroke:#e69900;" x="323.085139" xlink:href="#m0e4a0d8852" y="27.090487"/>
     <use style="fill:#e69900;stroke:#e69900;" x="329.890398" xlink:href="#m0e4a0d8852" y="28.298232"/>
     <use style="fill:#e69900;stroke:#e69900;" x="336.695656" xlink:href="#m0e4a0d8852" y="31.097026"/>
     <use style="fill:#e69900;stroke:#e69900;" x="343.500914" xlink:href="#m0e4a0d8852" y="35.440911"/>
     <use style="fill:#e69900;stroke:#e69900;" x="350.306173" xlink:href="#m0e4a0d8852" y="41.258562"/>
     <use style="fill:#e69900;stroke:#e69900;" x="357.111431" xlink:href="#m0e4a0d8852" y="48.454452"/>
     <use style="fill:#e69900;stroke:#e69900;" x="363.916689" xlink:href="#m0e4a0d8852" y="56.910427"/>
     <use style="fill:#e69900;stroke:#e69900;" x="370.721947" xlink:href="#m0e4a0d8852" y="66.487637"/>
     <use style="fill:#e69900;stroke:#e69900;" x="377.527206" xlink:href="#m0e4a0d8852" y="77.028827"/>
     <use style="fill:#e69900;stroke:#e69900;" x="384.332464" xlink:href="#m0e4a0d8852" y="88.36091"/>
     <use style="fill:#e69900;stroke:#e69900;" x="391.137722" xlink:href="#m0e4a0d8852" y="100.297814"/>
     <use style="fill:#e69900;stroke:#e69900;" x="397.942981" xlink:href="#m0e4a0d8852" y="112.643535"/>
     <use style="fill:#e69900;stroke:#e69900;" x="404.748239" xlink:href="#m0e4a0d8852" y="125.195356"/>
    </g>
   </g>
   <g id="patch_3">
    <path d="M 71.290583 233.110711 
L 71.290583 17.28 
" style="fill:none;stroke:#000000;stroke-linecap:square;stroke-linejoin:miter;stroke-width:0.8;"/>
   </g>
   <g id="patch_4">
    <path d="M 404.748239 233.110711 
L 404.748239 17.28 
" style="fill:none;stroke:#000000;stroke-linecap:square;stroke-linejoin:miter;stroke-width:0.8;"/>
   </g>
   <g id="patch_5">
    <path d="M 71.290583 233.110711 
L 404.748239 233.110711 
" style="fill:none;stroke:#000000;stroke-linecap:square;stroke-linejoin:miter;stroke-width:0.8;"/>
   </g>
   <g id="patch_6">
    <path d="M 71.290583 17.28 
L 404.748239 17.28 
" style="fill:none;stroke:#000000;stroke-linecap:square;stroke-linejoin:miter;stroke-width:0.8;"/>
   </g>
   <g id="line2d_63">
    <defs>
     <path d="M 0 2 
C 0.530406 2 1.03916 1.789267 1.414214 1.414214 
C 1.789267 1.03916 2 0.530406 2 0 
C 2 -0.530406 1.789267 -1.03916 1.414214 -1.414214 
C 1.03916 -1.789267 0.530406 -2 0 -2 
C -0.530406 -2 -1.03916 -1.789267 -1.414214 -1.414214 
C -1.789267 -1.03916 -2 -0.530406 -2 0 
C -2 0.530406 -1.789267 1.03916 -1.414214 1.414214 
C -1.03916 1.789267 -0.530406 2 0 2 
z
" id="mc52d8bea6b" style="stroke:#009980;"/>
    </defs>
    <g clip-path="url(#p9c197335f8)">
     <use style="fill:#009980;stroke:#009980;" x="71.290583" xlink:href="#mc52d8bea6b" y="125.195356"/>
     <use style="fill:#009980;stroke:#009980;" x="78.095841" xlink:href="#mc52d8bea6b" y="106.432123"/>
     <use style="fill:#009980;stroke:#009980;" x="84.901099" xlink:href="#mc52d8bea6b" y="88.36091"/>
     <use style="fill:#009980;stroke:#009980;" x="91.706358" xlink:href="#mc52d8bea6b" y="71.648214"/>
     <use style="fill:#009980;stroke:#009980;" x="98.511616" xlink:href="#mc52d8bea6b" y="56.910427"/>
     <use style="fill:#009980;stroke:#009980;" x="105.316874" xlink:href="#mc52d8bea6b" y="44.691102"/>
     <use style="fill:#009980;stroke:#009980;" x="112.122133" xlink:href="#mc52d8bea6b" y="35.440911"/>
     <use style="fill:#009980;stroke:#009980;" x="118.927391" xlink:href="#mc52d8bea6b" y="29.501015"/>
     <use style="fill:#009980;stroke:#009980;" x="125.732649" xlink:href="#mc52d8bea6b" y="27.090487"/>
     <use style="fill:#009980;stroke:#009980;" x="132.537907" xlink:href="#mc52d8bea6b" y="28.298232"/>
     <use style="fill:#009980;stroke:#009980;" x="139.343166" xlink:href="#mc52d8bea6b" y="33.079707"/>
     <use style="fill:#009980;stroke:#009980;" x="146.148424" xlink:href="#mc52d8bea6b" y="41.258562"/>
     <use style="fill:#009980;stroke:#009980;" x="152.953682" xlink:href="#mc52d8bea6b" y="52.533147"/>
     <use style="fill:#009980;stroke:#009980;" x="159.758941" xlink:href="#mc52d8bea6b" y="66.487637"/>
     <use style="fill:#009980;stroke:#009980;" x="166.564199" xlink:href="#mc52d8bea6b" y="82.607367"/>
     <use style="fill:#009980;stroke:#009980;" x="173.369457" xlink:href="#mc52d8bea6b" y="100.297814"/>
     <use style="fill:#009980;stroke:#009980;" x="180.174715" xlink:href="#mc52d8bea6b" y="118.906524"/>
     <use style="fill:#009980;stroke:#009980;" x="186.979974" xlink:href="#mc52d8bea6b" y="137.747177"/>
     <use style="fill:#009980;stroke:#009980;" x="193.785232" xlink:href="#mc52d8bea6b" y="156.124897"/>
     <use style="fill:#009980;stroke:#009980;" x="200.59049" xlink:href="#mc52d8bea6b" y="173.361884"/>
     <use style="fill:#009980;stroke:#009980;" x="207.395749" xlink:href="#mc52d8bea6b" y="188.822408"/>
     <use style="fill:#009980;stroke:#009980;" x="214.201007" xlink:href="#mc52d8bea6b" y="201.936259"/>
     <use style="fill:#009980;stroke:#009980;" x="221.006265" xlink:href="#mc52d8bea6b" y="212.219776"/>
     <use style="fill:#009980;stroke:#009980;" x="227.811523" xlink:href="#mc52d8bea6b" y="219.293686"/>
     <use style="fill:#009980;stroke:#009980;" x="234.616782" xlink:href="#mc52d8bea6b" y="222.897091"/>
     <use style="fill:#009980;stroke:#009980;" x="241.42204" xlink:href="#mc52d8bea6b" y="222.897091"/>
     <use style="fill:#009980;stroke:#009980;" x="248.227298" xlink:href="#mc52d8bea6b" y="219.293686"/>
     <use style="fill:#009980;stroke:#009980;" x="255.032557" xlink:href="#mc52d8bea6b" y="212.219776"/>
     <use style="fill:#009980;stroke:#009980;" x="261.837815" xlink:href="#mc52d8bea6b" y="201.936259"/>
     <use style="fill:#009980;stroke:#009980;" x="268.643073" xlink:href="#mc52d8bea6b" y="188.822408"/>
     <use style="fill:#009980;stroke:#009980;" x="275.448331" xlink:href="#mc52d8bea6b" y="173.361884"/>
     <use style="fill:#009980;stroke:#009980;" x="282.25359" xlink:href="#mc52d8bea6b" y="156.124897"/>
     <use style="fill:#009980;stroke:#009980;" x="289.058848" xlink:href="#mc52d8bea6b" y="137.747177"/>
     <use style="fill:#009980;stroke:#009980;" x="295.864106" xlink:href="#mc52d8bea6b" y="118.906524"/>
     <use style="fill:#009980;stroke:#009980;" x="302.669365" xlink:href="#mc52d8bea6b" y="100.297814"/>
     <use style="fill:#009980;stroke:#009980;" x="309.474623" xlink:href="#mc52d8bea6b" y="82.607367"/>
     <use style="fill:#009980;stroke:#009980;" x="316.279881" xlink:href="#mc52d8bea6b" y="66.487637"/>
     <use style="fill:#009980;stroke:#009980;" x="323.085139" xlink:href="#mc52d8bea6b" y="52.533147"/>
     <use style="fill:#009980;stroke:#009980;" x="329.890398" xlink:href="#mc52d8bea6b" y="41.258562"/>
     <use style="fill:#009980;stroke:#009980;" x="336.695656" xlink:href="#mc52d8bea6b" y="33.079707"/>
     <use style="fill:#009980;stroke:#009980;" x="343.500914" xlink:href="#mc52d8bea6b" y="28.298232"/>
     <use style="fill:#009980;stroke:#009980;" x="350.306173" xlink:href="#mc52d8bea6b" y="27.090487"/>
     <use style="fill:#009980;stroke:#009980;" x="357.111431" xlink:href="#mc52d8bea6b" y="29.501015"/>
     <use style="fill:#009980;stroke:#009980;" x="363.916689" xlink:href="#mc52d8bea6b" y="35.440911"/>
     <use style="fill:#009980;stroke:#009980;" x="370.721947" xlink:href="#mc52d8bea6b" y="44.691102"/>
     <use style="fill:#009980;stroke:#009980;" x="377.527206" xlink:href="#mc52d8bea6b" y="56.910427"/>
     <use style="fill:#009980;stroke:#009980;" x="384.332464" xlink:href="#mc52d8bea6b" y="71.648214"/>
     <use style="fill:#009980;stroke:#009980;" x="391.137722" xlink:href="#mc52d8bea6b" y="88.36091"/>
     <use style="fill:#009980;stroke:#009980;" x="397.942981" xlink:href="#mc52d8bea6b" y="106.432123"/>
     <use style="fill:#009980;stroke:#009980;" x="404.748239" xlink:href="#mc52d8bea6b" y="125.195356"/>
    </g>
   </g>
   <g id="legend_1">
    <g id="patch_7">
     <path d="M 316.796805 226.110711 
L 394.948239 226.110711 
Q 397.748239 226.110711 397.748239 223.310711 
L 397.748239 166.174626 
Q 397.748239 163.374626 394.948239 163.374626 
L 316.796805 163.374626 
Q 313.996805 163.374626 313.996805 166.174626 
L 313.996805 223.310711 
Q 313.996805 226.110711 316.796805 226.110711 
z
" style="fill:#ffffff;opacity:0.8;stroke:#cccccc;stroke-linejoin:miter;"/>
    </g>
    <g id="line2d_64"/>
    <g id="line2d_65">
     <g>
      <use style="fill:#59b2e6;stroke:#59b2e6;" x="333.596805" xlink:href="#m094844b0ad" y="173.874626"/>
     </g>
    </g>
    <g id="text_14">
     <!-- $n=1$ -->
     <defs>
      <path d="M 20.59375 29.21875 
C 20.796875 29.828125 23.296875 34.8125 27 38 
C 29.59375 40.390625 33 41.984375 36.90625 41.984375 
C 40.90625 41.984375 42.296875 39 42.296875 35.015625 
C 42.296875 29.328125 38.203125 17.953125 36.203125 12.5625 
C 35.296875 10.171875 34.796875 8.875 34.796875 7.078125 
C 34.796875 2.59375 37.90625 -1 42.703125 -1 
C 52 -1 55.5 13.65625 55.5 14.265625 
C 55.5 14.765625 55.09375 15.15625 54.5 15.15625 
C 53.59375 15.15625 53.5 14.859375 53 13.15625 
C 50.703125 4.984375 46.90625 1 43 1 
C 42 1 40.40625 1.09375 40.40625 4.28125 
C 40.40625 6.78125 41.5 9.765625 42.09375 11.171875 
C 44.09375 16.65625 48.296875 27.828125 48.296875 33.515625 
C 48.296875 39.5 44.796875 44 37.203125 44 
C 28.296875 44 23.59375 37.703125 21.796875 35.203125 
C 21.5 40.890625 17.40625 44 13 44 
C 9.796875 44 7.59375 42.09375 5.90625 38.703125 
C 4.09375 35.109375 2.703125 29.125 2.703125 28.71875 
C 2.703125 28.328125 3.09375 27.828125 3.796875 27.828125 
C 4.59375 27.828125 4.703125 27.921875 5.296875 30.21875 
C 6.90625 36.3125 8.703125 41.984375 12.703125 41.984375 
C 15 41.984375 15.796875 40.390625 15.796875 37.40625 
C 15.796875 35.203125 14.796875 31.3125 14.09375 28.234375 
L 11.296875 17.453125 
C 10.90625 15.5625 9.796875 11.0625 9.296875 9.265625 
C 8.59375 6.671875 7.5 1.984375 7.5 1.484375 
C 7.5 0.09375 8.59375 -1 10.09375 -1 
C 11.296875 -1 12.703125 -0.40625 13.5 1.09375 
C 13.703125 1.59375 14.59375 5.078125 15.09375 7.078125 
L 17.296875 16.0625 
z
" id="CMMI12-110"/>
      <path d="M 64.296875 32 
C 65.796875 32 67.296875 32 67.296875 33.6875 
C 67.296875 35.5 65.59375 35.5 63.90625 35.5 
L 8 35.5 
C 6.296875 35.5 4.59375 35.5 4.59375 33.6875 
C 4.59375 32 6.09375 32 7.59375 32 
z
M 63.90625 14.484375 
C 65.59375 14.484375 67.296875 14.484375 67.296875 16.296875 
C 67.296875 18 65.796875 18 64.296875 18 
L 7.59375 18 
C 6.09375 18 4.59375 18 4.59375 16.296875 
C 4.59375 14.484375 6.296875 14.484375 8 14.484375 
z
" id="CMR17-61"/>
     </defs>
     <g transform="translate(358.796805 178.774626)scale(0.14 -0.14)">
      <use transform="scale(0.996264)" xlink:href="#CMMI12-110"/>
      <use transform="translate(85.904056 0)scale(0.996264)" xlink:href="#CMR17-61"/>
      <use transform="translate(185.292853 0)scale(0.996264)" xlink:href="#CMR17-49"/>
     </g>
    </g>
    <g id="line2d_66"/>
    <g id="line2d_67">
     <g>
      <use style="fill:#e69900;stroke:#e69900;" x="333.596805" xlink:href="#m0e4a0d8852" y="193.386655"/>
     </g>
    </g>
    <g id="text_15">
     <!-- $n=2$ -->
     <g transform="translate(358.796805 198.286655)scale(0.14 -0.14)">
      <use transform="scale(0.996264)" xlink:href="#CMMI12-110"/>
      <use transform="translate(85.904056 0)scale(0.996264)" xlink:href="#CMR17-61"/>
      <use transform="translate(185.292853 0)scale(0.996264)" xlink:href="#CMR17-50"/>
     </g>
    </g>
    <g id="line2d_68"/>
    <g id="line2d_69">
     <g>
      <use style="fill:#009980;stroke:#009980;" x="333.596805" xlink:href="#mc52d8bea6b" y="212.898683"/>
     </g>
    </g>
    <g id="text_16">
     <!-- $n=3$ -->
     <defs>
      <path d="M 22.09375 34 
C 31 34 34.90625 26.140625 34.90625 17.09375 
C 34.90625 5.03125 28.5 0.390625 22.703125 0.390625 
C 17.40625 0.390625 8.796875 3.015625 6.09375 10.796875 
C 6.59375 10.59375 7.09375 10.59375 7.59375 10.59375 
C 10 10.59375 11.796875 12.1875 11.796875 14.796875 
C 11.796875 17.6875 9.59375 19 7.59375 19 
C 5.90625 19 3.296875 18.1875 3.296875 14.484375 
C 3.296875 5.234375 12.296875 -2 22.90625 -2 
C 34 -2 42.5 6.75 42.5 16.984375 
C 42.5 26.84375 34.5 34 25 35.09375 
C 32.59375 36.671875 39.90625 43.375 39.90625 52.390625 
C 39.90625 60.25 32 66 23 66 
C 13.90625 66 5.90625 60.34375 5.90625 52.296875 
C 5.90625 48.796875 8.5 48.1875 9.796875 48.1875 
C 11.90625 48.1875 13.703125 49.484375 13.703125 52.09375 
C 13.703125 54.6875 11.90625 56 9.796875 56 
C 9.40625 56 8.90625 56 8.5 55.796875 
C 11.40625 62.484375 19.296875 63.6875 22.796875 63.6875 
C 26.296875 63.6875 32.90625 61.96875 32.90625 52.296875 
C 32.90625 49.484375 32.5 44.546875 29.09375 40.21875 
C 26.09375 36.390625 22.703125 36.1875 19.40625 35.890625 
C 18.90625 35.890625 16.59375 35.6875 16.203125 35.6875 
C 15.5 35.59375 15.09375 35.5 15.09375 34.796875 
C 15.09375 34.09375 15.203125 34 17.203125 34 
z
" id="CMR17-51"/>
     </defs>
     <g transform="translate(358.796805 217.798683)scale(0.14 -0.14)">
      <use transform="scale(0.996264)" xlink:href="#CMMI12-110"/>
      <use transform="translate(85.904056 0)scale(0.996264)" xlink:href="#CMR17-61"/>
      <use transform="translate(185.292853 0)scale(0.996264)" xlink:href="#CMR17-51"/>
     </g>
    </g>
   </g>
  </g>
 </g>
 <defs>
  <clipPath id="p9c197335f8">
   <rect height="215.830711" width="333.457656" x="71.290583" y="17.28"/>
  </clipPath>
 </defs>
</svg>
